<svg width="1438" height="801" viewBox="0 0 1438 801" fill="none" xmlns="http://www.w3.org/2000/svg">
<g opacity="0.2">
<path opacity="0.2" d="M1065.88 655.522C1104.88 634.056 1155.29 598.635 1161.14 549.999C1166.35 506.585 1131.53 490.404 1115.58 438.115C1085.13 338.342 1180.35 293.999 1151.47 224.729C1120.05 149.306 965.78 102.608 849.148 123.226C743.158 141.953 734.434 204.575 650.359 199.353C565.537 194.082 521.476 127.039 432.263 141.953C425.801 143.027 405.209 146.871 382.7 158.502C329.072 186.2 297.819 240.909 296.458 290.314C294.272 368.957 368.895 393.339 349.415 449.649C336.396 487.296 298.989 488.097 283.133 527.619C265.589 571.337 291.876 618.853 319.773 654.529C568.47 654.866 817.186 655.186 1065.88 655.522Z" fill="#91F2E2"/>
<path opacity="0.2" d="M1198.82 405.142C1203.84 392.123 1195.28 378.167 1179.7 373.97C1164.12 369.774 1147.42 376.926 1142.4 389.945C1137.37 402.964 1145.93 416.92 1161.51 421.117C1177.1 425.313 1193.8 418.161 1198.82 405.142Z" fill="#91F2E2"/>
<path opacity="0.2" d="M1244.07 334.477C1260.01 331.355 1269.91 318.029 1266.17 304.712C1262.43 291.395 1246.48 283.129 1230.55 286.251C1214.61 289.372 1204.72 302.698 1208.45 316.015C1212.19 329.333 1228.14 337.598 1244.07 334.477Z" fill="#91F2E2"/>
<path opacity="0.2" d="M1152.85 357.454C1159.1 357.454 1164.17 353.223 1164.17 348.003C1164.17 342.783 1159.1 338.551 1152.85 338.551C1146.61 338.551 1141.54 342.783 1141.54 348.003C1141.54 353.223 1146.61 357.454 1152.85 357.454Z" fill="#91F2E2"/>
<path opacity="0.2" d="M646.812 175.964C661.341 175.964 673.118 166.123 673.118 153.984C673.118 141.845 661.341 132.005 646.812 132.005C632.284 132.005 620.507 141.845 620.507 153.984C620.507 166.123 632.284 175.964 646.812 175.964Z" fill="#91F2E2"/>
<path opacity="0.2" d="M576.228 141.993C582.833 136.703 583.055 127.941 576.723 122.422C570.392 116.904 559.906 116.719 553.301 122.009C546.696 127.298 546.475 136.06 552.806 141.579C559.137 147.097 569.623 147.282 576.228 141.993Z" fill="#91F2E2"/>
<path opacity="0.2" d="M751.345 132.181C760.494 132.181 767.911 125.984 767.911 118.34C767.911 110.695 760.494 104.499 751.345 104.499C742.196 104.499 734.78 110.695 734.78 118.34C734.78 125.984 742.196 132.181 751.345 132.181Z" fill="#91F2E2"/>
<path opacity="0.2" d="M221.439 483.582C249.328 479.805 268.262 457.856 263.729 434.555C259.197 411.255 232.915 395.428 205.027 399.205C177.138 402.981 158.204 424.931 162.737 448.231C167.269 471.531 193.551 487.358 221.439 483.582Z" fill="#91F2E2"/>
<path opacity="0.2" d="M229.984 250.457C258.236 250.457 281.139 231.321 281.139 207.715C281.139 184.11 258.236 164.974 229.984 164.974C201.732 164.974 178.83 184.11 178.83 207.715C178.83 231.321 201.732 250.457 229.984 250.457Z" fill="#91F2E2"/>
<path opacity="0.2" d="M286.91 378.825C294.968 378.825 301.501 373.367 301.501 366.634C301.501 359.901 294.968 354.443 286.91 354.443C278.851 354.443 272.319 359.901 272.319 366.634C272.319 373.367 278.851 378.825 286.91 378.825Z" fill="#91F2E2"/>
<g opacity="0.2">
<g opacity="0.2">
<path opacity="0.2" d="M836.437 379.914C841.019 380.763 846.004 382.654 849.858 384.48C853.769 386.306 857.604 388.453 861.228 390.776C868.514 395.422 875.205 400.852 881.532 406.059C882.318 406.7 883.105 407.341 883.891 407.981C884.773 408.734 885.655 409.471 886.556 410.24C888.377 411.778 890.122 413.396 891.905 415.046C895.414 418.378 898.884 421.919 902.163 425.699C908.778 433.245 914.798 441.687 919.898 450.851C924.212 458.54 927.989 467.111 930.961 475.602C933.588 483.532 936.56 491.734 938.381 499.263C939.302 503.028 939.915 506.6 940.203 509.837C940.509 513.121 940.279 515.892 940.184 518.295C940.107 519.481 940.126 520.65 940.011 521.611C939.896 522.572 939.589 523.293 939.129 523.742C938.669 524.19 938.094 524.383 937.518 524.447C937.25 524.479 936.886 524.479 936.713 524.479C936.732 524.479 936.752 524.479 936.752 524.479H936.694L936.445 524.495C936.08 524.543 935.62 524.495 933.166 525.152L932.648 525.296C932.591 525.312 932.533 525.312 932.457 525.328C932.342 525.344 932.188 525.328 932.054 525.296C931.766 525.232 931.421 525.072 930.98 524.767C930.75 524.607 930.52 524.399 930.252 524.158C929.983 523.902 929.715 523.63 929.447 523.357C928.929 522.845 928.411 522.284 927.932 521.707C926.935 520.57 925.976 519.368 925.094 518.247C924.193 517.094 923.388 516.212 922.41 515.011C920.454 512.592 918.326 509.965 916.063 507.177C913.744 504.278 911.232 501.074 908.605 497.597C907.301 495.851 905.959 494.025 904.617 492.134C903.313 490.276 901.875 488.097 900.744 486.415C895.989 479.222 891.081 471.981 886.498 465.221C881.225 457.483 876.183 450.13 871.275 443.161C868.801 439.685 866.405 436.273 864.008 432.989C861.515 429.608 859.08 426.276 856.684 423.008C851.909 416.248 848.209 410.128 844.355 404.649C842.438 401.91 840.482 399.363 838.431 396.992C836.398 394.621 834.232 392.522 831.624 390.776L836.437 379.914Z" fill="#14B6A1"/>
<path opacity="0.2" d="M834.749 385.762C838.987 387.38 842.668 389.703 845.64 391.929C848.727 394.188 851.545 396.591 854.191 399.058C859.464 403.976 864.065 409.087 868.725 414.069L875.819 421.55C878.158 424.098 880.439 426.677 882.644 429.288C887.054 434.527 891.177 439.893 895.011 445.388C902.7 456.362 909.295 467.768 915.047 479.415C920.665 491.253 927.587 502.82 931.709 514.322" stroke="#148B7A" stroke-width="1.1255" stroke-miterlimit="10" stroke-linecap="round" stroke-linejoin="round"/>
<path opacity="0.2" d="M917.156 483.692C915.603 487.072 914.089 490.5 912.593 493.897" stroke="#148B7A" stroke-width="1.1255" stroke-miterlimit="10" stroke-linecap="round" stroke-linejoin="round"/>
<path opacity="0.2" d="M913.034 475.409C917.597 475.938 922.122 476.563 926.705 477.236" stroke="#148B7A" stroke-width="1.1255" stroke-miterlimit="10" stroke-linecap="round" stroke-linejoin="round"/>
<path opacity="0.2" d="M903.141 457.755C901.032 460.799 898.922 463.763 896.698 466.727" stroke="#148B7A" stroke-width="1.1255" stroke-miterlimit="10" stroke-linecap="round" stroke-linejoin="round"/>
<path opacity="0.2" d="M895.011 445.372C900.246 446.045 905.518 446.846 910.81 447.759" stroke="#148B7A" stroke-width="1.1255" stroke-miterlimit="10" stroke-linecap="round" stroke-linejoin="round"/>
<path opacity="0.2" d="M884.888 431.995C883.181 436.337 881.398 440.582 879.423 444.779" stroke="#148B7A" stroke-width="1.1255" stroke-miterlimit="10" stroke-linecap="round" stroke-linejoin="round"/>
<path opacity="0.2" d="M866.366 411.522C870.335 411.89 874.285 412.243 878.177 412.451" stroke="#148B7A" stroke-width="1.1255" stroke-miterlimit="10" stroke-linecap="round" stroke-linejoin="round"/>
</g>
<g opacity="0.2">
<path opacity="0.2" d="M704.505 272.036C702.242 273.141 700.383 274.583 699.04 276.137C697.698 277.707 696.874 279.373 696.433 280.975L696.337 281.071C690.182 294.271 687.191 305.966 687.498 312.999C687.939 325.574 693.96 335.427 685.926 346.721C684.737 348.403 679.925 355.067 673.176 355.548C669.648 355.836 667.577 354.298 657.339 348.483C644.953 341.402 642.057 340.217 639.507 341.098C636.382 342.171 635.347 345.808 634.618 348.451C632.873 354.779 636.248 357.166 634.254 363.302C633.717 365.08 632.662 368.444 629.748 369.277C626.738 370.142 624.61 367.499 622.385 368.156C618.187 369.421 623.095 380.058 618.992 389.03C616.844 394.076 611.284 399.218 605.781 398.497C602.273 397.985 599.857 395.037 597.575 392.186C590.462 383.294 593.108 376.118 587.241 373.506C586.819 373.314 584.039 372.145 581.796 373.09C577.942 374.708 580.358 380.411 576.274 387.556C575.181 389.462 572.669 393.868 569.16 393.948C565.46 394.028 564.425 389.094 560.398 388.885C556.928 388.709 555.816 392.282 549.776 396.014C548.53 396.815 539.077 402.551 533.421 400.035C529.51 398.305 527.593 392.874 528.302 388.389C529.222 382.638 534.533 378.777 540.88 374.387C547.226 369.982 554.512 365.128 559.439 357.598C561.031 355.195 562.354 352.552 561.625 349.893C560.379 345.327 554.052 345.087 551.904 341.466C550.39 338.903 550.907 334.962 553.112 331.069C554.224 329.099 555.681 327.241 557.388 325.622C559.113 323.972 561.108 322.595 563.274 321.617C568.969 319.07 573.877 320.256 579.648 321.553C585.419 322.867 592.053 324.277 601.122 322.611C602.886 322.274 612.952 320.384 613.47 316.747C613.968 313.319 605.59 312.15 601.602 305.485C598.496 300.295 598.572 292.493 602.848 288.232C605.954 285.076 610.882 284.499 635.423 285.765C659.774 286.79 663.129 287.479 670.223 285.444C675.131 283.97 681.593 280.975 687.671 274.439L686.885 275.24C689.511 271.763 693.749 267.822 699.712 265.067C699.501 266.701 700.977 267.55 702.242 268.511C703.565 269.456 704.639 270.498 704.505 272.036Z" fill="#13A995"/>
<path opacity="0.2" d="M699.462 269.248C699.462 269.248 698.293 269.745 696.376 270.914C694.477 272.084 691.908 274.102 689.799 276.938L690.317 276.409C686.386 280.702 680.558 286.758 673.387 293.278C666.273 299.798 657.665 306.735 649.037 313.303C640.389 319.855 631.704 326.055 624.38 331.133C617.055 336.212 611.073 340.201 607.526 342.139C603.174 344.526 596.713 348.131 589.638 352.44C582.563 356.733 574.893 361.86 568.029 366.826C561.127 371.792 554.934 376.518 550.39 379.93C545.865 383.343 543.008 385.489 543.008 385.489" stroke="#148B7A" stroke-width="1.5557" stroke-miterlimit="10" stroke-linecap="round" stroke-linejoin="round"/>
<g opacity="0.2">
<path d="M607.507 342.139C594.776 339.832 581.834 337.798 568.47 336.388L607.507 342.139Z" fill="#F29C1F"/>
<path d="M607.507 342.139C594.776 339.832 581.834 337.798 568.47 336.388" stroke="#148B7A" stroke-width="1.5557" stroke-miterlimit="10" stroke-linecap="round" stroke-linejoin="round"/>
</g>
<g opacity="0.2">
<path d="M601.218 345.631C602.426 357.823 604.094 369.95 606.913 381.484L601.218 345.631Z" fill="#F29C1F"/>
<path d="M601.218 345.631C602.426 357.823 604.094 369.95 606.913 381.484" stroke="#148B7A" stroke-width="1.5557" stroke-miterlimit="10" stroke-linecap="round" stroke-linejoin="round"/>
</g>
<g opacity="0.2">
<path d="M661.806 303.227C647.714 301.817 633.909 299.894 620.027 297.908L661.806 303.227Z" fill="#F29C1F"/>
<path d="M661.806 303.227C647.714 301.817 633.909 299.894 620.027 297.908" stroke="#148B7A" stroke-width="1.5557" stroke-miterlimit="10" stroke-linecap="round" stroke-linejoin="round"/>
</g>
<g opacity="0.2">
<path d="M657.204 306.943C661.154 318.013 664.72 329.227 668.191 340.489L657.204 306.943Z" fill="#F29C1F"/>
<path d="M657.204 306.943C661.154 318.013 664.72 329.227 668.191 340.489" stroke="#148B7A" stroke-width="1.5557" stroke-miterlimit="10" stroke-linecap="round" stroke-linejoin="round"/>
</g>
<g opacity="0.2">
<path d="M619.03 334.802C620.564 342.331 622.156 349.829 623.9 357.278L619.03 334.802Z" fill="#F29C1F"/>
<path d="M619.03 334.802C620.564 342.331 622.156 349.829 623.9 357.278" stroke="#148B7A" stroke-width="1.5557" stroke-miterlimit="10" stroke-linecap="round" stroke-linejoin="round"/>
</g>
</g>
<g opacity="0.2">
<path opacity="0.2" d="M989.862 321.121C989.9 320.384 990.379 319.823 990.84 319.327C991.3 318.83 991.817 318.382 992.354 317.965C993.428 317.132 994.54 316.379 995.652 315.626C997.934 314.184 1000.16 312.775 1002.34 311.381C1004.49 310.003 1006.56 308.657 1008.44 307.328C1009.34 306.671 1010.38 305.982 1011.01 305.357C1011.7 304.716 1012.31 304.092 1012.85 303.403L1013.44 302.634L1014.17 301.833C1014.65 301.304 1015.09 300.776 1015.52 300.247C1016.36 299.206 1017.11 298.18 1017.76 297.203C1019.06 295.233 1020 293.406 1020.58 291.788C1022.51 286.406 1022.9 281.183 1023.97 276.393C1025.06 271.587 1026.81 267.198 1031.72 263.289C1032.45 262.712 1034.31 261.238 1036.8 260.037C1039.41 258.819 1042.22 257.906 1045.18 258.435C1048.24 258.979 1049.61 260.79 1056.89 268.223C1065.75 277.226 1068.01 278.876 1070.54 278.604C1073.65 278.283 1075.64 275.208 1077.1 272.981C1080.55 267.63 1078.25 264.779 1081.95 259.652C1083.02 258.162 1085.06 255.343 1088.07 255.199C1091.17 255.054 1092.23 257.89 1094.51 257.778C1096.71 257.682 1097.58 254.958 1098.88 251.354C1099.53 249.56 1100.3 247.541 1101.41 245.523C1101.97 244.513 1102.6 243.52 1103.39 242.511C1104.25 241.469 1105.25 240.46 1106.4 239.483C1111.77 234.965 1120.34 231.665 1125 233.924C1127.99 235.382 1128.64 238.682 1129.25 241.87C1131.17 251.754 1125.38 257.361 1129.52 261.286C1129.83 261.575 1131.78 263.369 1134.2 263.225C1138.3 262.968 1138.86 257.265 1145.78 252.443C1147.62 251.162 1151.78 248.214 1154.75 249.303C1157.92 250.441 1156.57 254.958 1159.89 256.432C1162.75 257.698 1165.32 255.054 1171.99 253.693C1173.43 253.436 1183.65 251.21 1187.77 254.798C1190.63 257.297 1190.3 262.632 1187.63 266.461C1184.22 271.379 1177.47 273.269 1169.92 275.047C1162.35 276.826 1153.89 278.524 1146.7 283.362C1144.4 284.9 1142.31 286.742 1141.96 289.225C1141.41 293.47 1146.43 295.633 1146.93 299.35C1147.29 301.977 1145.64 305.101 1143.04 307.664C1141.7 308.946 1140.22 310.099 1138.47 310.996C1136.56 311.925 1134.49 312.614 1132.36 312.887C1121.24 314.377 1116.79 304.076 1099.55 303.243C1097.88 303.163 1088.28 302.778 1086.71 305.966C1085.23 308.962 1092.46 311.733 1094.05 318.574C1095.3 323.908 1092.86 330.957 1087.47 334.033C1085.5 335.154 1083.31 335.651 1078.75 335.09C1077.62 334.946 1076.31 334.738 1074.86 334.466C1073.44 334.161 1071.87 333.745 1070.04 333.296C1066.42 332.351 1061.9 331.117 1056.12 329.515C1044.68 326.343 1038.18 324.229 1033.71 322.883C1029.22 321.537 1026.69 320.977 1022.92 320.752C1022.32 320.72 1021.69 320.688 1021.04 320.672C1020.69 320.672 1020.37 320.656 1020 320.656C1019.6 320.672 1019.18 320.688 1018.76 320.704C1017.78 320.752 1016.74 320.769 1015.67 320.785C1014.69 320.801 1013.67 320.817 1012.62 320.849C1010.7 320.913 1008.65 321.073 1006.52 321.441C1004.4 321.81 1002.13 322.354 999.985 323.172C998.873 323.588 997.972 324.021 996.994 324.581C996.035 325.158 995.038 325.799 994.348 326.808C993.926 325.382 992.968 324.565 992.067 323.892C991.165 323.22 990.552 322.707 989.862 321.121Z" fill="#13A995"/>
<path opacity="0.2" d="M993.351 323.107C993.351 323.107 993.811 322.771 994.751 322.306C995.729 321.81 997.071 321.233 999.026 320.56C1001 319.871 1003.53 319.118 1006.5 318.317C1008.02 317.933 1009.61 317.516 1011.28 317.084C1012.89 316.651 1014.98 316.235 1016.95 315.578C1031.53 310.788 1048.74 303.611 1064.33 297.459C1079.84 291.212 1093.47 286.005 1099.67 284.451C1104.33 283.234 1111.27 281.439 1119.05 279.421C1126.8 277.322 1135.31 274.967 1143.36 272.901C1151.42 270.77 1158.89 268.816 1164.34 267.374C1169.8 265.868 1173.25 264.907 1173.25 264.907" stroke="#148B7A" stroke-width="1.4541" stroke-miterlimit="10" stroke-linecap="round" stroke-linejoin="round"/>
<g opacity="0.2">
<path d="M1099.69 284.419C1110.46 289.257 1121.35 294.063 1132.34 298.805L1099.69 284.419Z" fill="#F29C1F"/>
<path d="M1099.69 284.419C1110.46 289.257 1121.35 294.063 1132.34 298.805" stroke="#148B7A" stroke-width="1.4541" stroke-miterlimit="10" stroke-linecap="round" stroke-linejoin="round"/>
</g>
<g opacity="0.2">
<path d="M1106.45 282.689L1110.54 266.012C1111.23 263.225 1111.8 260.501 1112.57 257.65L1114.85 249.159" fill="#F29C1F"/>
<path d="M1106.45 282.689L1110.54 266.012C1111.23 263.225 1111.8 260.501 1112.57 257.65L1114.85 249.159" stroke="#148B7A" stroke-width="1.4541" stroke-miterlimit="10" stroke-linecap="round" stroke-linejoin="round"/>
</g>
<g opacity="0.2">
<path d="M1038.68 307.616L1056.8 314.761C1062.84 317.132 1068.7 319.567 1074.82 321.826" fill="#F29C1F"/>
<path d="M1038.68 307.616L1056.8 314.761C1062.84 317.132 1068.7 319.567 1074.82 321.826" stroke="#148B7A" stroke-width="1.4541" stroke-miterlimit="10" stroke-linecap="round" stroke-linejoin="round"/>
</g>
<g opacity="0.2">
<path d="M1044.14 305.469C1044.54 294.672 1044.75 283.891 1045.25 273.061L1044.14 305.469Z" fill="#F29C1F"/>
<path d="M1044.14 305.469C1044.54 294.672 1044.75 283.891 1045.25 273.061" stroke="#148B7A" stroke-width="1.4541" stroke-miterlimit="10" stroke-linecap="round" stroke-linejoin="round"/>
</g>
<path opacity="0.2" d="M1087.11 288.568L1089.54 267.31" stroke="#148B7A" stroke-width="1.4541" stroke-miterlimit="10" stroke-linecap="round" stroke-linejoin="round"/>
</g>
<g opacity="0.2">
<path opacity="0.2" d="M812.432 258.595C814.426 250.601 818.222 242.254 823.226 234.1C824.472 232.066 825.815 230.031 827.195 228.013C827.866 227.035 828.633 225.946 829.419 224.889C830.205 223.863 830.991 222.822 831.778 221.781C834.96 217.696 838.258 213.867 841.268 210.262C842.821 208.404 844.394 206.514 846.004 204.607C847.691 202.637 849.398 200.65 851.123 198.632C854.651 194.579 858.409 190.398 862.474 186.136C866.539 181.875 870.93 177.534 875.704 173.176C880.478 168.835 885.712 164.477 891.215 160.344C900.495 153.375 911.098 146.647 921.796 140.688C932.514 134.712 943.328 129.506 953.106 125.292C958.053 123.178 962.501 121.367 967.045 119.765C971.455 118.292 975.367 117.314 978.76 116.497C982.173 115.696 985.068 115.072 987.388 114.767C989.708 114.479 991.472 114.543 992.431 115.36C993.389 116.145 993.505 117.699 992.757 119.782C992.028 121.864 990.398 124.395 988.213 127.071C986.065 129.714 983.324 132.517 980.965 135.129C979.987 136.298 978.377 137.996 976.785 139.598C975.175 141.232 973.488 142.898 971.724 144.612C964.649 151.453 956.366 158.838 947.949 166.239C939.647 173.529 931.191 180.962 923.234 187.947C905.518 203.55 888.569 219.298 870.661 232.018C866.194 235.158 861.976 237.849 858.045 240.428C854.191 242.943 850.357 245.635 846.809 248.166C839.696 253.276 833.407 258.29 828.269 263.545L812.432 258.595Z" fill="#14B6A1"/>
<path opacity="0.2" d="M820.964 260.389C825.239 252.619 830.8 245.779 836.686 239.435C838.162 237.849 839.658 236.295 841.192 234.757C842.726 233.203 844.317 231.681 845.908 230.207C849.091 227.244 852.293 224.424 855.437 221.589C867.862 210.214 879.768 198.087 892.442 186.681C905.077 175.211 918.767 164.734 932.994 154.833C940.107 149.867 947.354 145.045 954.659 140.271L965.665 133.142L971.187 129.586C973.008 128.416 974.657 127.423 976.555 126.318" stroke="#148B7A" stroke-width="1.3793" stroke-miterlimit="10" stroke-linecap="round" stroke-linejoin="round"/>
<path opacity="0.2" d="M938.209 151.229C943.481 151.581 948.716 151.998 953.931 152.43" stroke="#148B7A" stroke-width="1.3793" stroke-miterlimit="10" stroke-linecap="round" stroke-linejoin="round"/>
<path opacity="0.2" d="M928.124 158.262C927.222 153.616 926.417 148.938 925.669 144.244" stroke="#148B7A" stroke-width="1.3793" stroke-miterlimit="10" stroke-linecap="round" stroke-linejoin="round"/>
<path opacity="0.2" d="M906.899 174.298C911.903 175.259 916.869 176.3 921.777 177.389" stroke="#148B7A" stroke-width="1.3793" stroke-miterlimit="10" stroke-linecap="round" stroke-linejoin="round"/>
<path opacity="0.2" d="M892.423 186.681C891.502 181.314 890.697 175.867 890.122 170.373" stroke="#148B7A" stroke-width="1.3793" stroke-miterlimit="10" stroke-linecap="round" stroke-linejoin="round"/>
<path opacity="0.2" d="M876.988 201.099C883.641 201.436 890.295 201.804 896.909 202.253" stroke="#148B7A" stroke-width="1.3793" stroke-miterlimit="10" stroke-linecap="round" stroke-linejoin="round"/>
<path opacity="0.2" d="M852.216 224.456C851.986 220.355 851.641 216.366 851.181 212.377" stroke="#148B7A" stroke-width="1.3793" stroke-miterlimit="10" stroke-linecap="round" stroke-linejoin="round"/>
</g>
</g>
</g>
<path opacity="0.2" d="M245.419 539.057C253.943 539.057 260.853 533.283 260.853 526.161C260.853 519.039 253.943 513.265 245.419 513.265C236.894 513.265 229.984 519.039 229.984 526.161C229.984 533.283 236.894 539.057 245.419 539.057Z" fill="#14B6A1"/>
<path d="M1034.27 655.779C1034.17 654.097 1034.36 652.335 1034.77 650.588L1035.09 649.275L1035.49 647.929L1035.82 646.872L1036.05 646.023C1036.82 643.508 1037.68 641.04 1038.56 638.669C1040.25 634.344 1042.01 629.842 1043.85 625.133C1047.5 616.017 1051.6 606.197 1056.28 595.784C1060.98 585.371 1066.23 574.349 1072.27 562.847C1075.28 557.096 1078.48 551.216 1081.91 545.241C1083.62 542.245 1085.38 539.233 1087.2 536.19C1089.05 533.13 1091.02 529.894 1093.03 526.77C1099.84 516.181 1107.82 505.223 1115.89 494.762C1123.96 484.301 1132.11 474.272 1139.49 465.429C1140.45 464.276 1141.41 463.138 1142.35 462.017C1143.32 460.896 1144.28 459.822 1145.26 458.781C1147.2 456.73 1149.1 454.856 1150.94 453.11C1154.6 449.649 1157.99 446.702 1160.96 444.203C1166.95 439.269 1171.38 435.92 1174.5 436.753C1176.02 437.154 1177.18 438.644 1177.82 441.063C1178.49 443.482 1178.6 446.798 1178.16 450.643C1177.74 454.471 1176.76 458.845 1175.61 463.266C1175.06 465.381 1174.48 467.608 1173.89 469.915C1173.62 471.004 1173.33 472.11 1173.1 473.183L1172.91 473.984L1172.64 474.993C1172.45 475.666 1172.26 476.355 1172.07 477.044C1168.98 488.065 1164.4 500.177 1159.16 512.16C1153.93 524.143 1148.06 536.013 1142.4 546.827C1141.58 548.365 1140.77 549.903 1139.97 551.441C1139.13 553.011 1138.28 554.58 1137.44 556.134C1135.73 559.258 1133.99 562.318 1132.22 565.33C1128.7 571.353 1125.03 577.153 1121.29 582.744C1113.82 593.91 1105.99 604.162 1098.09 613.486C1090.2 622.81 1082.22 631.156 1074.47 638.573C1070.62 642.306 1066.71 645.75 1063.16 648.922C1061.38 650.524 1059.67 652.11 1058.06 653.696C1057.24 654.529 1056.45 655.25 1055.78 656.083C1055.11 656.9 1054.59 657.797 1054.34 658.71L1034.27 655.779Z" fill="#14B6A1"/>
<path d="M1044.7 656.147C1044.95 654.61 1045.54 653.152 1046.29 651.678C1046.65 650.957 1046.98 650.412 1047.29 649.884L1048.28 648.186C1049.64 645.943 1051.04 643.796 1052.46 641.729L1060.76 629.682C1066.21 621.656 1071.5 613.534 1076.7 605.364C1087.07 589.008 1097 572.395 1106.72 555.686C1111.59 547.324 1116.31 538.913 1121.28 530.631L1136.27 505.736C1141.27 497.421 1146.24 489.075 1151.01 480.6L1154.56 474.224L1157.99 467.896C1160.22 463.907 1162.77 459.902 1165.34 455.721" stroke="#148B7A" stroke-width="1.6463" stroke-miterlimit="10" stroke-linecap="round" stroke-linejoin="round"/>
<path d="M1139.89 499.648C1145.86 497.854 1151.8 496.043 1157.74 494.153" stroke="#148B7A" stroke-width="1.6463" stroke-miterlimit="10" stroke-linecap="round" stroke-linejoin="round"/>
<path d="M1132.8 511.439L1122.18 497.101" stroke="#148B7A" stroke-width="1.6463" stroke-miterlimit="10" stroke-linecap="round" stroke-linejoin="round"/>
<path d="M1117.46 537.055L1135.69 535.308" stroke="#148B7A" stroke-width="1.6463" stroke-miterlimit="10" stroke-linecap="round" stroke-linejoin="round"/>
<path d="M1106.7 555.686L1096.75 538.144" stroke="#148B7A" stroke-width="1.6463" stroke-miterlimit="10" stroke-linecap="round" stroke-linejoin="round"/>
<path d="M1094.53 576.368L1117.98 572.459" stroke="#148B7A" stroke-width="1.6463" stroke-miterlimit="10" stroke-linecap="round" stroke-linejoin="round"/>
<path d="M1074.05 609.497L1068.59 595.656" stroke="#148B7A" stroke-width="1.6463" stroke-miterlimit="10" stroke-linecap="round" stroke-linejoin="round"/>
<path d="M1052.73 653.904C1052.27 652.415 1052.31 650.893 1052.73 649.547C1053.15 648.185 1053.84 646.984 1054.61 645.846C1056.16 643.588 1057.75 641.425 1059.42 639.278C1062.7 635.001 1066.21 631.06 1069.34 627.407C1070.89 625.581 1072.36 623.835 1073.71 622.169C1075.09 620.471 1076.05 618.965 1076.99 617.443C1078.86 614.447 1080.11 611.692 1080.82 609.321C1084.92 595.736 1081.66 583.529 1092.53 573.708C1094.16 572.234 1100.47 566.371 1107.55 567.396C1111.25 567.925 1113.05 570.088 1122.71 578.675C1134.45 589.088 1137.46 590.898 1140.45 590.385C1144.21 589.744 1146.03 585.916 1147.64 582.968C1151.38 576.063 1148.18 572.779 1152.07 566.147C1153.2 564.24 1155.29 560.604 1158.82 560.187C1162.46 559.755 1164.13 563.119 1166.79 562.799C1169.34 562.494 1169.88 559.098 1170.59 554.661C1171.3 550.223 1172.3 544.792 1175.13 540.227C1178.2 535.308 1185.64 530.214 1191.53 531.96C1195.34 533.098 1197.43 536.782 1199.43 540.371C1205.58 551.489 1201.04 559.21 1207.11 563.039C1207.56 563.311 1210.43 565.074 1213.17 564.369C1217.87 563.151 1216.41 556.311 1222.4 548.909C1223.99 546.939 1227.61 542.357 1231.52 542.774C1235.68 543.222 1235.99 548.909 1240.5 549.694C1244.39 550.367 1246.29 546.474 1253.67 542.982C1255.22 542.245 1266.65 536.734 1272.82 540.034C1277.1 542.309 1278.65 548.701 1277.1 553.86C1275.1 560.46 1268.14 564.465 1259.96 568.742C1251.73 573.035 1242.37 577.553 1235.05 585.355C1232.71 587.854 1230.6 590.625 1230.83 593.781C1231.22 599.148 1238.35 600.398 1239.96 604.835C1240.53 606.405 1240.44 608.296 1239.79 610.298C1239.13 612.301 1237.68 614.543 1235.89 616.594C1232.29 620.743 1226.98 624.396 1221.42 625.869C1214.15 627.808 1208.92 625.597 1202.76 623.082C1196.61 620.567 1189.51 617.731 1179.03 617.94C1178.01 617.956 1174.58 618.068 1171.26 618.644C1168.02 619.205 1164.61 620.359 1163.8 622.393C1162.31 626.222 1171.7 628.865 1174.52 637.083C1176.73 643.507 1174.33 652.463 1167.68 656.74C1165.26 658.294 1162.48 659.111 1156.63 658.759C1150.78 658.406 1141.85 656.932 1127.43 653.6C1113.15 650.3 1105.32 647.961 1099.84 646.551C1094.38 645.158 1091.29 644.677 1086.82 644.629C1082.89 644.597 1078.12 644.869 1073.05 646.744C1070.54 647.673 1067.97 649.002 1065.63 650.877C1065.16 651.261 1064.2 652.014 1063.6 652.543C1063.28 652.831 1063.08 653.039 1062.82 653.296C1062.55 653.568 1062.28 653.856 1062.05 654.161C1061.07 655.346 1060.27 656.868 1060.5 658.71C1059.13 657.205 1057.83 656.692 1056.58 656.259C1055.36 655.811 1054.19 655.442 1052.73 653.904Z" fill="#EE5E43"/>
<path d="M1057.1 654.689C1057.1 654.689 1057.18 654.337 1057.49 653.744C1057.79 653.135 1058.37 652.302 1059.29 651.389C1059.77 650.925 1060.29 650.46 1060.9 649.963C1061.59 649.403 1062.36 648.81 1063.16 648.169C1064.66 646.984 1066.46 645.702 1068.57 644.373C1072.81 641.697 1078.27 639.022 1084.85 636.17C1091.46 633.303 1098.59 630.147 1105.88 626.927C1120.47 620.487 1135.56 613.55 1148.2 607.511C1160.83 601.471 1171.26 596.665 1176.78 594.791C1182.32 592.916 1190.51 590.017 1199.6 586.396C1208.69 582.776 1218.52 578.13 1227.4 573.564C1236.3 568.982 1244.37 564.497 1250.2 561.165C1256.03 557.833 1259.67 555.702 1259.67 555.702" stroke="#C4422B" stroke-width="1.784" stroke-miterlimit="10" stroke-linecap="round" stroke-linejoin="round"/>
<path d="M1176.8 594.791C1190.55 599.693 1204.53 604.435 1219.58 608.151L1176.8 594.791Z" fill="#F29C1F"/>
<path d="M1176.8 594.791C1190.55 599.693 1204.53 604.435 1219.58 608.151" stroke="#C4422B" stroke-width="1.784" stroke-miterlimit="10" stroke-linecap="round" stroke-linejoin="round"/>
<path d="M1184.82 592.003C1186.66 578.05 1187.81 564.144 1186.91 550.832L1184.82 592.003Z" fill="#F29C1F"/>
<path d="M1184.82 592.003C1186.66 578.05 1187.81 564.144 1186.91 550.832" stroke="#C4422B" stroke-width="1.784" stroke-miterlimit="10" stroke-linecap="round" stroke-linejoin="round"/>
<path d="M1104.44 627.568C1119.51 632.886 1134.79 637.997 1150.51 642.722L1104.44 627.568Z" fill="#F29C1F"/>
<path d="M1104.44 627.568C1119.51 632.886 1134.79 637.997 1150.51 642.722" stroke="#C4422B" stroke-width="1.784" stroke-miterlimit="10" stroke-linecap="round" stroke-linejoin="round"/>
<path d="M1110.98 624.668C1110.69 611.419 1110.17 598.203 1109.33 585.05" stroke="#C4422B" stroke-width="1.784" stroke-miterlimit="10" stroke-linecap="round" stroke-linejoin="round"/>
<path d="M1161.98 601.022C1162.11 592.26 1162.29 583.497 1162.29 574.782L1161.98 601.022Z" fill="#F29C1F"/>
<path d="M1161.98 601.022C1162.11 592.26 1162.29 583.497 1162.29 574.782" stroke="#C4422B" stroke-width="1.784" stroke-miterlimit="10" stroke-linecap="round" stroke-linejoin="round"/>
<path d="M1025.58 653.296C1018.14 653.616 1000.23 653.536 981.215 644.773C961.044 635.481 951.362 621.816 947.949 616.37C951.362 618.372 956.845 621.432 963.92 624.652C978.358 631.204 986.334 632.47 997.416 636.971C1004.49 639.823 1014.56 644.725 1025.58 653.296Z" fill="#12A189"/>
<path d="M1025.58 652.815C1014.4 649.195 1000.06 642.851 987.733 631.685C983.88 628.192 978.492 623.226 974.408 615.312C969.883 606.549 969.212 598.603 969.25 593.781C972.337 598.651 977.629 605.989 986.084 613.582C993.965 620.679 998.796 622.778 1006.22 629.186C1011.66 633.912 1019.04 641.425 1025.58 652.815Z" fill="#12A189"/>
<path d="M1025.58 652.062C1019.77 648.169 1006.45 638.189 999.18 621.079C991.491 602.945 995.096 587.357 996.879 581.382C1004.13 593.253 1011.49 607.575 1017.51 624.235C1021.08 634.12 1023.68 643.459 1025.58 652.062Z" fill="#12A189"/>
<path d="M1026.67 654.017C1014.02 636.971 1013.31 625.052 1015.17 617.219C1016.3 612.397 1018.89 607.094 1018.89 598.363C1018.89 590.417 1016.74 583.945 1014.94 579.7C1019.33 582.679 1025.79 587.95 1029.55 595.944C1031.66 600.398 1033 605.876 1030.95 625.581C1030.2 632.758 1028.96 642.466 1026.67 654.017Z" fill="#12A189"/>
<path d="M1026.75 653.44C1025.77 636.651 1028.9 623.739 1031.64 615.633C1035.11 605.316 1038.66 600.606 1041.55 597.514C1048.3 590.289 1056.49 586.524 1061.47 584.666C1058.41 588.174 1054 593.813 1050.49 601.391C1045.45 612.236 1046.23 618.42 1042.86 628.16C1040.67 634.44 1036.34 643.411 1026.75 653.44Z" fill="#12A189"/>
<path d="M1025.03 653.392C1026.46 647.288 1030.87 632.79 1045.66 619.494C1061.34 605.396 1079.54 600.846 1086.71 599.404C1077.46 610.266 1065.69 622.361 1050.81 634.536C1041.97 641.745 1033.27 647.993 1025.03 653.392Z" fill="#12A189"/>
<path d="M1022.21 653.376C1026.79 648.009 1038.58 635.706 1059.73 628.24C1080.59 620.871 1099.11 622.249 1106.91 623.21C1080.97 630.131 1066.27 637.676 1057.41 643.764C1053.33 646.567 1042.68 654.401 1028.61 654.081C1025.91 654.017 1023.68 653.68 1022.21 653.376Z" fill="#12A189"/>
<path d="M283.267 642.947C267.449 643.78 254.756 641.681 247.221 640.047C240.53 638.589 235.353 636.923 232.247 635.818C221.203 631.893 195.971 621.736 197.064 612.044C198.118 602.817 222.775 599.18 225.919 598.844C218.116 598.619 204.905 597.45 190.545 591.298C187.88 590.161 180.095 586.861 173.097 582.391C169.588 580.164 166.29 577.633 163.913 574.926C162.743 573.58 161.785 572.17 161.171 570.745C160.558 569.319 160.27 567.877 160.308 566.243C160.519 557.929 173.845 551.985 190.909 551.104C188.934 549.262 186.192 546.458 183.661 543.382C181.073 540.258 178.542 536.702 176.203 532.841C175.628 531.864 174.324 529.701 172.828 527.01C171.314 524.303 169.646 521.115 167.958 517.782C164.546 511.022 160.615 502.788 164.814 497.661C167.383 494.521 172.023 493.192 176.701 492.711C181.38 492.23 186.231 492.775 188.838 493.16C192.865 493.736 196.872 495.002 200.419 496.604C203.947 498.206 207.015 500.096 209.584 501.971C214.761 505.751 217.982 509.42 219.765 511.47C225.824 518.391 226.897 520.49 228.278 524.431C230.368 515.7 234.432 509.436 239.168 505.543C243.904 501.634 249.445 500.224 254.143 500.705C255.696 500.865 257.134 501.346 258.476 501.987C259.722 502.579 261.141 503.653 262.425 504.87C264.995 507.305 267.257 510.461 269.155 513.681C272.932 520.121 275.233 526.834 275.808 528.532C281.522 545.401 277.572 559.274 274.811 566.083C278.148 560.972 289.479 543.639 299.928 546.362C305.968 547.932 310.071 555.846 312.545 565.025C315.018 574.189 315.862 584.698 315.766 591.234C315.708 594.807 315.382 602.128 312.87 610.923C309.208 623.675 303.341 631.845 302.095 633.591C299.603 637.067 297.168 639.807 295.289 641.697C292.508 642.114 288.367 642.674 283.267 642.947Z" fill="#EE5F43"/>
<path d="M305.374 657.316C305.374 657.316 303.859 655.042 301.347 651.021C300.101 649.002 298.586 646.567 296.784 643.812C295.001 641.072 292.796 638.012 290.399 634.648C280.87 621.207 267.334 603.569 252.551 586.156C237.769 568.742 222.046 551.408 209.526 537.775C203.257 530.951 198.003 524.943 193.785 520.49C189.567 516.036 186.461 513.105 185.31 511.903" stroke="#C4422B" stroke-width="2.0192" stroke-miterlimit="10" stroke-linecap="round" stroke-linejoin="round"/>
<path d="M235.218 566.243C239.552 549.374 243.482 532.329 247.259 515.251" stroke="#C4422B" stroke-width="2.0192" stroke-miterlimit="10" stroke-linecap="round" stroke-linejoin="round"/>
<path d="M239.973 572.234C219.803 570.681 199.729 569.543 179.673 568.55" stroke="#C4422B" stroke-width="2.0192" stroke-miterlimit="10" stroke-linecap="round" stroke-linejoin="round"/>
<path d="M279.662 618.853C285.261 603.265 290.112 587.229 294.502 571.049" stroke="#C4422B" stroke-width="2.0192" stroke-miterlimit="10" stroke-linecap="round" stroke-linejoin="round"/>
<path d="M282.749 624.203C261.467 621.143 240.434 619.029 219.42 617.427" stroke="#C4422B" stroke-width="2.0192" stroke-miterlimit="10" stroke-linecap="round" stroke-linejoin="round"/>
<path d="M309.534 658.278C308.844 656.66 307.444 655.298 306.294 654.113C304.664 652.383 303.265 650.556 301.98 648.714C300.695 646.872 299.545 644.949 298.299 643.299C295.845 639.903 293.294 636.859 290.744 634.2C285.663 628.865 280.64 625.036 276.479 622.922C269.941 619.59 263.288 617.699 257.364 615.232C251.42 612.733 246.262 609.898 242.581 603.922C241.488 602.176 237.136 595.079 240.357 589.68C242.044 586.877 244.767 586.156 256.635 581.782C271.034 576.512 273.91 575.07 274.428 572.651C275.08 569.671 271.897 566.74 269.577 564.561C264.036 559.306 259.607 560.348 254.526 554.725C253.05 553.091 250.269 549.935 251.286 546.987C252.34 543.975 256.271 544.248 257.076 542.053C257.843 539.938 254.794 537.92 250.902 534.94C246.991 531.976 242.236 528.051 239.609 522.492C236.561 515.972 236.35 507.498 241.162 504.662C244.268 502.804 248.621 503.685 252.8 504.55C265.781 507.177 270.037 514.579 276.71 512.816C277.189 512.688 280.276 511.839 281.177 509.724C282.692 506.136 275.981 503.124 273.028 495.258C272.626 494.217 271.974 492.503 271.744 490.805C271.514 489.059 271.667 487.521 272.971 486.287C274.351 484.877 276.288 485.182 278.282 485.454C280.276 485.726 282.327 485.951 283.976 484.733C286.814 482.699 284.801 478.934 287.006 472.542C287.236 471.869 288.214 469.114 289.939 466.438C291.665 463.779 294.042 461.12 297.263 460.431C299.507 459.966 302.133 460.527 304.549 461.809C306.984 463.09 309.17 465.093 310.608 467.287C314.27 472.991 312.487 478.982 311.241 484.637C311.068 485.39 310.953 485.983 310.819 486.848C310.704 487.793 310.57 488.77 310.455 489.732C310.225 491.67 310.014 493.656 309.937 495.659C309.764 499.68 310.052 503.813 311.413 508.026C312.276 510.718 313.58 513.377 316.475 514.803C321.422 517.238 326.311 513.858 331.085 515.123C334.46 516.02 337.527 518.904 339.483 522.38C341.439 525.857 342.263 529.878 341.17 533.306C339.751 537.808 335.418 539.954 330.433 542.726C325.467 545.481 319.792 548.845 316.034 555.894C315.286 557.24 311.298 565.266 314.826 567.685C318.105 569.912 324.164 564.689 333.405 565.57C340.595 566.243 348.648 570.328 350.719 575.567C351.466 577.489 351.371 579.411 349.166 583.032C346.961 586.669 342.666 591.971 335.169 601.023C320.291 619.429 317.242 621.304 314.903 627.808C313.906 630.563 313.101 634.056 313.062 638.333C313.062 639.406 313.101 640.528 313.196 641.697C313.292 642.819 313.465 644.228 313.637 645.142C314.021 647.192 314.845 649.387 316.475 651.469C316.801 651.854 317.127 652.238 317.472 652.655C317.913 653.28 318.373 653.969 318.757 654.657C316.839 654.545 315.574 655.571 314.213 656.532C312.813 657.461 311.317 658.374 309.534 658.278Z" fill="#13A995"/>
<path d="M313.752 654.417C313.752 654.417 313.657 654.225 313.446 653.824C313.273 653.52 313.005 653.071 312.64 652.447C311.873 651.133 310.819 648.954 310.033 646.039C309.247 642.722 308.288 638.701 307.214 634.184C305.067 624.988 302.517 613.806 300.043 602.528C297.513 591.282 295.308 579.908 293.946 570.28C292.585 560.652 292.048 552.786 292.355 548.685C292.7 544.151 293.218 537.423 294.042 529.878C294.867 522.332 295.998 513.986 296.976 506.152C297.436 502.227 297.896 498.43 298.299 494.954C298.644 491.494 298.951 488.338 299.219 485.678C299.487 483.227 299.871 481.209 300.139 479.783C300.427 478.357 300.599 477.572 300.599 477.572" stroke="#148B7A" stroke-width="1.6235" stroke-miterlimit="10" stroke-linecap="round" stroke-linejoin="round"/>
<path d="M292.374 548.653C302.613 541.156 313.101 534.155 323.742 527.443L292.374 548.653Z" fill="#F29C1F"/>
<path d="M292.374 548.653C302.613 541.156 313.101 534.155 323.742 527.443" stroke="#148B7A" stroke-width="1.6235" stroke-miterlimit="10" stroke-linecap="round" stroke-linejoin="round"/>
<path d="M292.873 542.085C280.103 535.084 267.564 527.395 255.178 519.721L292.873 542.085Z" fill="#F29C1F"/>
<path d="M292.873 542.085C280.103 535.084 267.564 527.395 255.178 519.721" stroke="#148B7A" stroke-width="1.6235" stroke-miterlimit="10" stroke-linecap="round" stroke-linejoin="round"/>
<path d="M301.827 610.506C311.471 600.942 321.019 591.587 330.874 582.567L301.827 610.506Z" fill="#F29C1F"/>
<path d="M301.827 610.506C311.471 600.942 321.019 591.587 330.874 582.567" stroke="#148B7A" stroke-width="1.6235" stroke-miterlimit="10" stroke-linecap="round" stroke-linejoin="round"/>
<path d="M300.599 604.995C286.775 601.615 272.913 598.139 259.089 594.438L300.599 604.995Z" fill="#F29C1F"/>
<path d="M300.599 604.995C286.775 601.615 272.913 598.139 259.089 594.438" stroke="#148B7A" stroke-width="1.6235" stroke-miterlimit="10" stroke-linecap="round" stroke-linejoin="round"/>
<path d="M292.873 561.277C284.206 557.945 275.578 554.452 267.008 550.8L292.873 561.277Z" fill="#F29C1F"/>
<path d="M292.873 561.277C284.206 557.945 275.578 554.452 267.008 550.8" stroke="#148B7A" stroke-width="1.6235" stroke-miterlimit="10" stroke-linecap="round" stroke-linejoin="round"/>
<path d="M322.649 656.371C322.706 654.321 323.761 619.125 331.641 605.107C332.945 602.785 334.728 599.613 338.678 596.905C343.912 593.333 347.267 594.47 354.496 591.058C360.516 588.206 367.361 583.08 366.153 580.485C365.367 578.787 361.111 578.098 357.774 578.754C351.792 579.94 351.562 584.954 345.005 586.556C342.148 587.245 338.122 587.277 336.971 585.675C335.821 584.073 337.949 581.43 338.678 580.517C341.65 576.784 345.714 575.214 353.326 572.459C363.987 568.598 367.61 567.492 372.806 564.545C380.476 560.187 380.533 558.089 380.437 557.352C380.15 554.885 376.526 552.498 373.286 552.61C371.33 552.674 370.448 553.619 363.872 559.098C361.302 561.245 358.925 563.183 355.416 565.266C351.466 567.605 349.472 568.117 348.034 567.557C347.114 567.204 346.385 566.387 346.155 565.602C344.832 561.084 358.599 554.228 363.2 551.921C368.128 549.454 371.445 548.301 376.603 544.744C382.872 540.419 383.16 538.528 382.872 537.455C382.412 535.853 380.207 534.699 378.328 534.443C376.986 534.251 374.762 534.363 368.914 538.528C365.233 541.14 362.606 543.591 361.111 545.032C355.493 550.447 354.016 553.203 351.313 553.042C350.048 552.962 348.36 552.241 347.823 551.072C345.312 545.705 366.613 531.576 377.868 524.975C382.546 522.236 387.551 519.577 387.282 516.18C387.052 513.489 383.582 510.846 380.207 510.669C375.893 510.445 372.73 514.322 370.582 516.949C367.457 520.778 368.435 522.028 364.715 527.346C360.67 533.098 357.966 533.85 356.777 534.075C355.167 534.379 352.214 534.475 350.987 533.097C350.412 532.441 349.587 530.743 355.55 521.883C360.861 514.002 363.373 512.608 363.431 508.779C363.488 505.255 361.456 501.122 358.676 500.785C356.068 500.465 353.23 503.573 351.946 505.815C349.875 509.436 351.543 511.31 349.875 518.599C348.955 522.636 348.034 523.822 346.846 524.126C345.005 524.607 342.877 522.941 342.321 522.508C336.511 517.975 340.883 511.743 335.859 503.733C334.671 501.843 332.197 497.902 327.097 496.572C322.879 495.467 316.801 496.155 313.867 499.712C310.915 503.3 312.468 508.138 314.596 510.958C317.875 515.251 321.92 514.034 330.836 519.416C334.325 521.515 341.995 526.129 341.036 530.727C340.979 530.999 340.518 533.162 338.659 533.834C334.977 535.164 331.008 528.916 321 525.664C318.392 524.815 311.548 522.604 308.825 525.023C306.793 526.834 307.483 530.871 309.86 533.194C311.471 534.748 313.139 534.86 320.847 536.462C330.241 538.416 332.14 539.185 333.846 540.451C336.319 542.277 338.946 545.529 337.777 547.467C336.684 549.262 332.734 549.246 329.302 549.198C319.811 549.053 317.338 546.01 309.266 546.266C306.754 546.346 300.791 546.538 299.257 549.438C298.299 551.248 299.277 553.731 301.002 555.157C304.166 557.784 309.879 556.903 314.999 556.118C319.696 555.397 320.022 554.644 324.892 554.1C329.666 553.555 332.983 553.235 335.188 554.997C336.991 556.455 337.968 559.258 336.684 560.892C335.437 562.462 332.734 562.126 321.805 561.982C319.6 561.95 316.092 561.998 309.093 562.062C299.564 562.174 297.244 562.35 295.979 563.856C294.56 565.538 294.867 568.374 296.554 569.687C297.206 570.184 298.356 570.696 303.667 570.184C308.633 569.703 309.189 569.126 313.043 568.71C318.91 568.085 322.476 568.918 324.279 569.479C326.138 570.056 328.247 570.712 328.631 572.09C329.11 573.772 326.809 575.823 324.7 576.832C321.326 578.45 318.814 577.281 309.055 576.336C298.912 575.358 296.401 575.935 294.675 577.072C294.426 577.233 291.454 579.267 291.856 581.702C292.24 583.929 295.212 585.13 296.592 585.691C301.577 587.726 307.099 586.732 308.997 586.348C312.698 585.611 314.117 584.458 317.453 584.81C318.412 584.906 320.712 585.146 322.361 586.492C324.259 588.03 324.796 590.577 324.087 594.71C322.917 601.503 319.562 605.524 317.319 609.481C314.826 613.854 314.155 618.981 312.832 629.234C311.95 635.994 311.375 645.125 312.487 656.019C315.9 656.163 319.274 656.259 322.649 656.371Z" fill="#F9AE26"/>
<path d="M1042.78 452.501H636.075C621.599 452.501 609.865 442.697 609.865 430.602V198.472C609.865 186.377 621.599 176.573 636.075 176.573H1042.8C1057.28 176.573 1069.01 186.377 1069.01 198.472V430.602C1068.99 442.697 1057.26 452.501 1042.78 452.501Z" fill="#BEC6C4"/>
<path d="M1032.27 446.446H646.582C632.107 446.446 620.372 436.641 620.372 424.546V204.528C620.372 192.432 632.107 182.628 646.582 182.628H1032.27C1046.75 182.628 1058.48 192.432 1058.48 204.528V424.562C1058.46 436.641 1046.75 446.446 1032.27 446.446Z" fill="#FEFEFE"/>
<path d="M850.261 395.678H846.656C837.299 395.71 829.688 389.398 829.649 381.581V379.947H867.21V381.404C867.248 389.254 859.656 395.646 850.261 395.678Z" fill="#282E5B"/>
<path d="M893.619 315.618C918.822 294.56 918.822 260.418 893.619 239.36C868.415 218.302 827.553 218.302 802.35 239.36C777.147 260.418 777.147 294.56 802.35 315.618C827.553 336.676 868.415 336.676 893.619 315.618Z" fill="#FABB49"/>
<path d="M885.885 359.281H810.802V298.437H885.635L885.885 359.281Z" fill="#FABB49"/>
<path d="M834.289 343.309H832.161V277.531H834.002L834.289 343.309Z" fill="#282E5B"/>
<path d="M864.391 343.228H862.263V276.345H864.104L864.391 343.228Z" fill="#282E5B"/>
<path d="M842.572 280.462C842.553 280.462 842.534 280.462 842.515 280.462C841.019 280.43 840.348 279.101 839.734 277.803C839.14 276.601 838.469 275.24 837.338 275.015C836.571 274.871 835.516 275.208 834.807 275.816C833.772 276.73 833.982 277.995 834.002 278.139L831.912 278.428C831.835 278.059 831.547 276.105 833.273 274.599C834.289 273.718 836.053 272.965 837.798 273.301C840.022 273.718 840.942 275.624 841.69 277.13C841.978 277.707 842.4 278.556 842.668 278.7C842.956 278.556 843.684 277.258 844.068 276.553C844.969 274.935 845.908 273.253 847.672 273.253C849.359 273.253 850.241 274.775 851.066 276.265C851.43 276.906 852.101 278.075 852.466 278.187C852.715 278.059 853.232 277.018 853.558 276.393C854.383 274.743 855.418 272.693 857.777 272.26C859.771 271.908 862.186 272.853 863.375 274.471C864.238 275.672 864.2 276.922 864.104 277.563L861.995 277.338C862.052 276.922 862.091 276.137 861.554 275.4C860.863 274.439 859.31 273.798 858.218 274.006C856.933 274.23 856.185 275.752 855.514 277.082C854.786 278.556 854.076 279.95 852.485 279.966H852.466C850.836 279.966 849.973 278.476 849.168 277.034C848.823 276.409 848.075 275.112 847.691 275.031C847.27 275.031 846.349 276.681 846.004 277.306C845.122 278.86 844.24 280.462 842.572 280.462Z" fill="#282E5B"/>
<path d="M885.904 368.204L810.821 359.216V363.606L885.29 372.513C885.655 371.135 885.866 369.693 885.904 368.204Z" fill="#BEC6C4"/>
<path d="M885.904 359.601L810.783 350.614V355.003L885.904 363.99V359.601Z" fill="#BEC6C4"/>
<path d="M885.827 343.26H810.725V346.384L885.827 355.388V343.26Z" fill="#BEC6C4"/>
<path d="M883.661 376.55L810.84 367.835V368.059C810.84 369.501 811.032 370.927 811.358 372.289L880.785 380.603C881.916 379.338 882.875 377.992 883.661 376.55Z" fill="#BEC6C4"/>
<path d="M813.122 376.71C817.11 384.031 825.949 389.094 836.226 389.062H860.653C866.673 389.046 872.176 387.235 876.528 384.288L813.122 376.71Z" fill="#BEC6C4"/>
<path d="M885.827 355.388L810.725 346.385L810.783 350.614L885.904 359.601L885.827 355.388Z" fill="#EEEFF0"/>
<path d="M885.904 367.755V363.99L810.783 355.003L810.821 359.232L885.904 368.22C885.904 368.059 885.904 367.915 885.904 367.755Z" fill="#EEEFF0"/>
<path d="M885.271 372.529L810.802 363.622L810.821 367.851L883.641 376.566C884.351 375.269 884.907 373.923 885.271 372.529Z" fill="#EEEFF0"/>
<path d="M880.785 380.587L811.358 372.273C811.741 373.827 812.355 375.3 813.103 376.71L876.49 384.304C878.12 383.214 879.538 381.965 880.785 380.587Z" fill="#EEEFF0"/>
<path d="M813.007 372.273C811.914 372.209 810.859 372.081 809.805 371.92C812.853 376.198 818.28 379.193 824.664 379.546C831.068 379.898 836.954 377.527 840.655 373.619C839.581 373.683 838.488 373.699 837.376 373.635L813.007 372.273Z" fill="#282E5B"/>
<path d="M898.462 265.195C900.821 235.478 873.901 209.798 838.354 207.827C802.787 205.857 772.053 228.349 769.694 258.05C768.256 276.089 777.632 292.621 793.143 303.291L791.399 325.174L812.777 326.359L817.934 261.527C817.896 261.014 817.877 259.204 819.603 257.89C820.676 257.073 822.517 256.416 824.242 256.849C826.428 257.393 827.195 259.348 827.809 260.902C828.039 261.494 828.384 262.376 828.652 262.52C828.959 262.392 829.784 261.142 830.244 260.453C831.279 258.883 832.353 257.265 834.117 257.361C835.804 257.457 836.552 259.027 837.261 260.565C837.568 261.222 838.143 262.44 838.507 262.568C838.757 262.456 839.37 261.446 839.735 260.838C840.693 259.236 841.901 257.249 844.279 256.961C846.311 256.721 848.631 257.81 849.666 259.492C850.395 260.677 850.299 261.847 850.165 262.504L844.95 328.122L866.328 329.307L868.073 307.424C885.137 298.597 897.044 283.234 898.462 265.195Z" fill="#FABB49"/>
<path d="M848.132 261.366C848.094 261.046 848.017 260.677 847.787 260.325C847.174 259.332 845.697 258.595 844.566 258.739C843.282 258.899 842.4 260.357 841.613 261.655C840.751 263.08 839.945 264.426 838.335 264.346H838.316C836.686 264.25 835.957 262.712 835.267 261.222C834.96 260.581 834.347 259.252 833.944 259.139C833.522 259.123 832.468 260.709 832.084 261.318C831.087 262.808 830.071 264.362 828.422 264.266C828.403 264.266 828.384 264.266 828.365 264.266C826.869 264.17 826.332 262.776 825.795 261.462C825.316 260.229 824.76 258.835 823.629 258.547C822.881 258.354 821.788 258.627 821.04 259.187C820.369 259.7 820.139 260.357 820.082 260.838H820.12L814.905 326.471L842.841 328.025L848.132 261.366Z" fill="#FABB49"/>
<path d="M820.12 260.854H820.082C820.159 260.373 820.389 259.716 821.04 259.204C821.788 258.643 822.862 258.371 823.629 258.563C824.76 258.851 825.316 260.245 825.795 261.478C826.313 262.792 826.85 264.186 828.365 264.282C828.384 264.282 828.403 264.282 828.422 264.282C830.071 264.378 831.107 262.824 832.084 261.334C832.487 260.726 833.542 259.14 833.944 259.156C834.328 259.252 834.96 260.597 835.267 261.238C835.957 262.728 836.686 264.266 838.316 264.362H838.335C839.945 264.442 840.751 263.096 841.613 261.671C842.4 260.373 843.282 258.915 844.566 258.755C845.678 258.627 847.174 259.348 847.787 260.341C847.998 260.693 848.094 261.062 848.132 261.382L842.841 328.042L844.95 328.154L850.165 262.536C850.299 261.879 850.414 260.709 849.666 259.524C848.631 257.842 846.292 256.753 844.279 256.993C841.882 257.281 840.693 259.268 839.734 260.87C839.37 261.478 838.757 262.488 838.507 262.6C838.143 262.472 837.568 261.254 837.261 260.597C836.552 259.075 835.804 257.489 834.117 257.393C832.353 257.297 831.279 258.915 830.244 260.485C829.803 261.158 828.959 262.424 828.652 262.552C828.403 262.408 828.039 261.51 827.809 260.934C827.195 259.38 826.428 257.425 824.242 256.881C822.536 256.448 820.695 257.089 819.602 257.922C817.877 259.252 817.877 261.046 817.934 261.559L812.777 326.392L814.886 326.504L820.12 260.854Z" fill="#282E5B"/>
<path d="M790.152 340.986L789.807 345.359L863.337 358.592C863.835 357.23 864.161 355.804 864.315 354.33L790.152 340.986Z" fill="#BEC6C4"/>
<path d="M790.823 332.399L790.478 336.772L864.679 350.133L865.024 345.744L790.823 332.399Z" fill="#BEC6C4"/>
<path d="M842.821 328.041L791.399 325.174L791.168 328.186L865.35 341.53L866.328 329.339L842.821 328.041Z" fill="#BEC6C4"/>
<path d="M789.443 349.797C789.328 351.239 789.385 352.664 789.615 354.042L858.179 366.377C859.406 365.192 860.48 363.91 861.381 362.517L789.462 349.573L789.443 349.797Z" fill="#BEC6C4"/>
<path d="M790.996 358.576C794.006 365.32 801.043 370.495 809.805 371.92C810.84 372.097 811.914 372.225 813.007 372.273L837.395 373.618C838.507 373.683 839.6 373.667 840.674 373.602C845.448 373.346 849.896 372 853.616 369.822L790.996 358.576Z" fill="#BEC6C4"/>
<path d="M791.168 328.186L790.823 332.399L865.024 345.744L865.35 341.53L791.168 328.186Z" fill="#EEEFF0"/>
<path d="M790.478 336.772L790.152 340.986L864.315 354.33C864.334 354.186 864.372 354.026 864.372 353.882L864.679 350.117L790.478 336.772Z" fill="#EEEFF0"/>
<path d="M789.462 349.589L861.381 362.533C862.186 361.299 862.838 359.986 863.337 358.608L789.807 345.375L789.462 349.589Z" fill="#EEEFF0"/>
<path d="M790.996 358.576L853.597 369.838C855.284 368.844 856.818 367.691 858.16 366.377L789.596 354.042C789.865 355.612 790.344 357.134 790.996 358.576Z" fill="#EEEFF0"/>
<path d="M941.794 228.894C968.119 228.894 989.459 246.724 989.459 268.72C989.459 289.674 970.075 306.863 945.475 308.433" stroke="#282E5B" stroke-width="1.772" stroke-linecap="round" stroke-linejoin="round"/>
<path d="M954.755 295.361L957.382 297.171L946.741 307.985L960.431 316.059L958.475 318.382L941.794 308.545L954.755 295.361Z" fill="#282E5B"/>
<path d="M652.488 218.369H739.266" stroke="#BACCC6" stroke-width="2.359" stroke-miterlimit="10" stroke-linecap="round" stroke-linejoin="round"/>
<path d="M652.488 228.894H739.266" stroke="#BACCC6" stroke-width="2.359" stroke-miterlimit="10" stroke-linecap="round" stroke-linejoin="round"/>
<path d="M652.488 239.419H739.266" stroke="#BACCC6" stroke-width="2.359" stroke-miterlimit="10" stroke-linecap="round" stroke-linejoin="round"/>
<path d="M652.488 249.944H739.266" stroke="#BACCC6" stroke-width="2.359" stroke-miterlimit="10" stroke-linecap="round" stroke-linejoin="round"/>
<path d="M652.488 260.469H686.137" stroke="#BACCC6" stroke-width="2.359" stroke-miterlimit="10" stroke-linecap="round" stroke-linejoin="round"/>
<path d="M751.345 385.217H762.945C763.175 384.304 763.309 383.359 763.309 382.382V360.739H733.016V395.646H747.434C748.795 395.646 750.099 395.486 751.345 395.23V385.217Z" fill="#EE5E43"/>
<path d="M751.345 395.214C757.136 393.98 761.661 390.103 762.945 385.201H751.345V395.214Z" fill="#C4422B"/>
<path d="M766.128 341.755H777.728C777.958 340.842 778.092 339.896 778.092 338.919V317.276H747.798V352.184H762.217C763.578 352.184 764.882 352.024 766.128 351.767V341.755Z" fill="#38AAE3"/>
<path d="M766.128 351.751C771.918 350.518 776.443 346.641 777.728 341.739H766.128V351.751Z" fill="#0254A9"/>
<path d="M789.117 414.582H803.017C803.305 413.476 803.458 412.355 803.458 411.185V385.217H767.125V427.109H784.419C786.049 427.109 787.602 426.917 789.117 426.597V414.582Z" fill="#FABB49"/>
<path d="M789.117 426.581C796.077 425.107 801.484 420.461 803.018 414.566H789.117V426.581Z" fill="#D38309"/>
<path d="M554.474 348.563H245.515C239.628 348.563 234.854 344.574 234.854 339.656V187.45C234.854 182.532 239.628 178.543 245.515 178.543H554.474C560.36 178.543 565.134 182.532 565.134 187.45V339.656C565.134 344.574 560.36 348.563 554.474 348.563Z" fill="#0254A9"/>
<path d="M542.318 328.955H257.67C247.969 328.955 240.108 322.387 240.108 314.28V200.17C240.108 192.064 247.969 185.496 257.67 185.496H542.318C552.02 185.496 559.881 192.064 559.881 200.17V314.28C559.881 322.37 552.02 328.955 542.318 328.955Z" fill="white"/>
<path d="M357.698 333.232H280.084C276.422 333.232 273.45 330.749 273.45 327.689V312.775C273.45 309.715 276.422 307.232 280.084 307.232H357.698C361.36 307.232 364.332 309.715 364.332 312.775V327.689C364.332 330.749 361.36 333.232 357.698 333.232Z" fill="#EE5E43"/>
<path d="M520.038 333.232H387.57C383.984 333.232 381.089 330.813 381.089 327.817V312.646C381.089 309.651 383.984 307.232 387.57 307.232H520.038C523.624 307.232 526.519 309.651 526.519 312.646V327.817C526.519 330.797 523.624 333.232 520.038 333.232Z" fill="#FB9730"/>
<path d="M405.746 182.484C405.746 181.523 403.177 180.754 399.994 180.754C396.811 180.754 394.242 181.523 394.242 182.484C394.242 183.445 396.811 184.214 399.994 184.214C403.177 184.214 405.746 183.429 405.746 182.484Z" fill="#282E5B"/>
<path d="M404.27 182.484C404.27 181.779 402.352 181.186 399.994 181.186C397.636 181.186 395.718 181.763 395.718 182.484C395.718 183.205 397.636 183.782 399.994 183.782C402.352 183.766 404.27 183.189 404.27 182.484Z" fill="#565699"/>
<path opacity="0.1" d="M263.269 325.735V187.979C263.269 182.772 277.285 178.543 294.579 178.543H266.164C248.87 178.543 234.854 182.772 234.854 187.979V325.735C234.854 330.941 248.87 335.171 266.164 335.171H294.579C277.285 335.187 263.269 330.957 263.269 325.735Z" fill="#034C8A"/>
<path d="M518.827 249.063H281.154C276.917 249.063 273.466 246.195 273.466 242.639V208.452C273.466 204.912 276.898 202.028 281.154 202.028H518.827C523.064 202.028 526.516 204.896 526.516 208.452V242.639C526.516 246.195 523.084 249.063 518.827 249.063Z" fill="#A5DEF6"/>
<path d="M359.27 298.084H278.895C275.885 298.084 273.45 296.05 273.45 293.535V258.034C273.45 255.519 275.885 253.485 278.895 253.485H359.27C362.28 253.485 364.715 255.519 364.715 258.034V293.535C364.715 296.05 362.28 298.084 359.27 298.084Z" fill="#14B6A1"/>
<path d="M346.673 273.509H286.661C284.743 273.509 283.19 272.212 283.19 270.61V260.934C283.19 259.332 284.743 258.034 286.661 258.034H346.673C348.59 258.034 350.143 259.332 350.143 260.934V270.61C350.143 272.212 348.59 273.509 346.673 273.509Z" fill="#FABB49"/>
<path d="M287.274 277.627H348.61" stroke="#FEFEFE" stroke-width="1.0959" stroke-miterlimit="10" stroke-linecap="round" stroke-linejoin="round"/>
<path d="M378.136 253.5H439.491" stroke="#F9AE26" stroke-width="1.0959" stroke-miterlimit="10" stroke-linecap="round" stroke-linejoin="round"/>
<path d="M465.164 275.304H526.519" stroke="#BACCC6" stroke-width="1.0959" stroke-miterlimit="10" stroke-linecap="round" stroke-linejoin="round"/>
<path d="M465.164 279.116H526.519" stroke="#BACCC6" stroke-width="1.0959" stroke-miterlimit="10" stroke-linecap="round" stroke-linejoin="round"/>
<path d="M465.164 282.945H526.519" stroke="#BACCC6" stroke-width="1.0959" stroke-miterlimit="10" stroke-linecap="round" stroke-linejoin="round"/>
<path d="M465.164 286.758H526.519" stroke="#BACCC6" stroke-width="1.0959" stroke-miterlimit="10" stroke-linecap="round" stroke-linejoin="round"/>
<path d="M465.164 290.571H526.519" stroke="#BACCC6" stroke-width="1.0959" stroke-miterlimit="10" stroke-linecap="round" stroke-linejoin="round"/>
<path d="M378.136 257.922H526.519" stroke="#BACCC6" stroke-width="1.0959" stroke-miterlimit="10" stroke-linecap="round" stroke-linejoin="round"/>
<path d="M378.136 262.344H526.519" stroke="#BACCC6" stroke-width="1.0959" stroke-miterlimit="10" stroke-linecap="round" stroke-linejoin="round"/>
<path d="M378.136 266.781H526.519" stroke="#BACCC6" stroke-width="1.0959" stroke-miterlimit="10" stroke-linecap="round" stroke-linejoin="round"/>
<path d="M378.136 271.203H526.519" stroke="#BACCC6" stroke-width="1.0959" stroke-miterlimit="10" stroke-linecap="round" stroke-linejoin="round"/>
<path d="M378.136 294.384H526.519" stroke="#BACCC6" stroke-width="1.0959" stroke-miterlimit="10" stroke-linecap="round" stroke-linejoin="round"/>
<path d="M378.136 298.084H526.519" stroke="#BACCC6" stroke-width="1.0959" stroke-miterlimit="10" stroke-linecap="round" stroke-linejoin="round"/>
<path d="M378.136 301.769H474.885" stroke="#BACCC6" stroke-width="1.0959" stroke-miterlimit="10" stroke-linecap="round" stroke-linejoin="round"/>
<path d="M378.136 277.034H434.506" stroke="#EE5F43" stroke-width="2.0952" stroke-miterlimit="10" stroke-linecap="round" stroke-linejoin="round"/>
<path d="M378.136 282.417H434.506" stroke="#EE5F43" stroke-width="2.0952" stroke-miterlimit="10" stroke-linecap="round" stroke-linejoin="round"/>
<path d="M378.136 287.783H418.4" stroke="#EE5F43" stroke-width="2.0952" stroke-miterlimit="10" stroke-linecap="round" stroke-linejoin="round"/>
<path d="M287.274 281.728H348.61" stroke="#FEFEFE" stroke-width="1.0959" stroke-miterlimit="10" stroke-linecap="round" stroke-linejoin="round"/>
<path d="M287.274 285.845H348.61" stroke="#FEFEFE" stroke-width="1.0959" stroke-miterlimit="10" stroke-linecap="round" stroke-linejoin="round"/>
<path d="M287.274 289.946H325.103" stroke="#FEFEFE" stroke-width="1.0959" stroke-miterlimit="10" stroke-linecap="round" stroke-linejoin="round"/>
<path d="M626.412 619.237C633.334 618.452 640.255 617.683 647.177 616.898C647.522 621.015 648.691 626.462 652.334 631.765C662.88 647.144 685.907 649.403 685.159 653.039C684.872 654.465 681.804 656.211 670.971 655.218C667.462 654.898 656.917 654.161 653.849 650.909C650.781 647.657 644.627 648.41 644.627 648.41L645.164 654.673L628.713 653.696C628.368 649.659 626.776 626.542 626.412 619.237Z" fill="#034C8A"/>
<path d="M654.635 463.443C657.166 503.349 655.134 528.692 652.584 544.872C651.529 551.505 647.694 573.66 648.576 603.377C648.672 606.758 649.784 618.741 649.88 620.615C642.652 621.031 628.943 623.146 621.714 623.563C615.157 606.037 618.723 580.693 618.225 570.488C617.746 560.94 618.743 559.402 618.244 540.355C617.765 522.044 617.535 512.896 615.502 507.033C613.662 501.747 610.651 495.515 610.172 485.823C609.865 479.863 610.69 475.922 610.862 475.073C612.78 466.214 617.707 459.95 620.832 456.586C624.629 456.987 628.617 457.515 632.777 458.236C640.907 459.662 648.212 461.488 654.635 463.443Z" fill="#12A189"/>
<path d="M607.91 619.237C614.831 618.452 621.753 617.683 628.674 616.898C629.02 621.015 630.189 626.462 633.832 631.765C644.377 647.144 667.405 649.403 666.657 653.039C666.369 654.465 663.301 656.211 652.468 655.218C648.96 654.898 638.414 654.161 635.347 650.909C632.279 647.657 626.124 648.41 626.124 648.41L626.661 654.673L610.211 653.696C609.865 649.659 608.274 626.542 607.91 619.237Z" fill="#0254A9"/>
<path d="M638.51 463.443C641.041 503.348 639.009 528.692 636.459 544.872C635.404 551.505 631.57 573.66 632.451 603.377C632.547 606.758 633.659 618.741 633.755 620.615C626.527 621.031 612.818 623.146 605.59 623.563C599.032 606.037 602.599 580.693 602.1 570.488C601.621 560.94 602.618 559.402 602.138 540.355C601.736 524.543 601.64 516.629 599.397 507.033C596.77 495.851 594.469 495.755 592.36 485.374C590.328 475.313 590.73 466.775 591.401 461.168C591.938 458.973 592.456 456.778 592.993 454.6C596.156 454.584 599.32 454.568 602.484 454.552C607.124 455.801 611.763 457.403 616.672 458.252C624.782 459.662 632.087 461.488 638.51 463.443Z" fill="#14B6A1"/>
<path d="M588.583 314.024C588.583 314.024 585.285 309.394 586.167 306.847C587.049 304.3 591.67 300.151 597.997 299.206C604.305 298.261 618.359 300.984 621.159 297.043C623.958 293.102 622.865 289.882 620.775 290.715C621.35 288.328 629.729 288.248 632.471 294.111C635.174 299.927 635.04 305.662 631.09 311.781C627.409 317.501 612.914 321.073 606.989 322.13C606.932 323.524 605.762 336.676 605.762 336.676L606.242 351.062C606.242 351.062 605.11 355.836 598.4 356.285C591.689 356.733 582.007 338.086 581.163 326.039C580.319 314.008 584.978 313.8 588.583 314.024Z" fill="#282E5B"/>
<path d="M633.334 324.613C634.733 326.087 640.236 328.666 641.636 331.726C643.035 334.786 638.319 335.587 638.319 335.587C639.009 340.425 639.757 346.224 636.152 350.389C633.487 353.465 628.463 356.109 624.13 353.674C625.3 356.814 626.7 360.146 628.406 363.638C630.745 368.444 633.276 372.753 635.769 376.534C633.621 376.967 631.282 377.335 628.751 377.591C622.04 378.28 616.135 377.96 611.418 377.367C602.982 373.202 601.122 369.646 601.046 367.146C600.911 362.981 605.686 361.155 607.009 356.093C608.389 350.838 605.13 345.76 602.139 342.267C601.813 342.395 598.975 343.693 596.847 342.315C594.795 340.986 592.782 337.862 594.68 335.971C596.578 334.081 599.282 334.017 601.142 334.69C602.982 332.223 607.009 328.282 604.976 321.618C610.958 320.608 626.489 314.553 629.23 309.106C629.518 309.987 631.953 323.139 633.334 324.613Z" fill="#D08B73"/>
<g opacity="0.5">
<path opacity="0.5" d="M606.683 341.386C606.51 341.45 607.028 342.844 608.523 344.814C610 346.785 612.492 349.284 615.79 351.559C619.088 353.818 622.577 355.356 625.281 356.012C627.984 356.701 629.767 356.605 629.767 356.461C629.786 356.237 628.118 356.012 625.664 355.131C623.191 354.282 619.989 352.696 616.806 350.534C613.643 348.355 611.112 346.064 609.444 344.286C607.756 342.508 606.894 341.29 606.683 341.386Z" fill="#BC6C56"/>
</g>
<path d="M600.777 339.672C600.739 339.48 600.317 339.4 599.799 339.224C599.531 339.128 599.243 339.015 598.956 338.871C598.611 338.695 598.515 338.583 598.515 338.471C598.476 338.295 598.476 337.734 598.496 337.622C598.515 337.478 598.553 337.381 598.764 337.237C599.186 336.997 599.646 336.837 599.608 336.644C599.588 336.484 599.205 336.26 598.38 336.356C597.997 336.388 597.307 336.693 597.077 337.269C596.962 337.526 596.923 337.782 596.904 337.99C596.885 338.182 596.866 338.423 596.923 338.743C596.981 339.063 597.249 339.448 597.518 339.624C597.786 339.816 598.055 339.929 598.285 340.009C598.783 340.169 599.243 340.217 599.627 340.201C600.432 340.105 600.815 339.848 600.777 339.672Z" fill="#BC6C56"/>
<path d="M607.335 352.857C604.343 357.182 600.183 363.782 596.425 372.225C588.046 391.112 587.107 407.181 586.052 429.048C585.63 437.747 585.419 449.585 586.244 463.715C586.263 464.18 592.111 465.205 592.744 465.333C596.118 466.022 599.512 466.711 602.886 467.4C605.034 467.4 607.699 468.377 609.789 468.809C612.224 469.306 614.659 469.803 617.113 470.299C621.542 471.196 625.453 471.309 630.017 471.293C639.68 471.244 649.247 469.723 658.336 466.983C657.434 466.983 656.572 446.301 656.533 444.683C656.495 442.088 656.533 441.303 656.476 439.14C656.361 434.863 655.92 426.773 653.255 414.454C650.11 399.955 648.538 392.714 643.725 384.32C639.373 376.743 634.235 371.168 630.438 367.531C628.406 368.172 624.495 369.085 620.142 368.044C613.144 366.394 607.986 360.338 607.335 352.857Z" fill="#F9AE26"/>
<path d="M656.495 432.316V441.383L629.345 429.4L622.52 432.236H611.476V422.416L620.89 427.125L628.425 424.418L656.495 432.316Z" fill="#D38309"/>
<path d="M622.443 415.559C618.8 417.85 615.138 420.141 611.495 422.432C612.185 425.011 612.856 427.574 613.547 430.153C617.094 430.153 620.622 430.153 624.169 430.153C625.53 428.824 626.91 427.478 628.272 426.148C637.053 429.016 645.854 431.867 654.635 434.735C658.01 435.424 662.995 435.616 665.871 432.444C669.092 428.92 667.213 422.864 664.567 419.003C657.377 408.51 660.31 388.261 647.445 366.65C645.394 370.078 644.818 373.891 642.767 377.335C648.365 389.062 640.159 406.139 645.739 417.866C637.954 417.081 630.208 416.312 622.443 415.559Z" fill="#D08B73"/>
<path d="M654.635 424.402C652.277 425.908 649.113 426.372 646.122 426.388C643.956 426.405 641.751 426.212 639.737 425.555C637.648 424.867 636.459 423.777 635.04 422.4C633.736 421.134 632.202 419.964 630.822 418.731C630.477 418.427 625.166 413.604 625.166 413.604C623.555 414.918 621.599 415.943 619.97 417.257C620.833 416.568 628.406 421.855 629.288 422.4C631.397 423.697 633.525 425.011 635.634 426.308C637.417 427.414 639.009 428.759 641.214 429.048C645.758 429.641 650.264 429.721 654.405 427.75C656.572 426.725 657.78 423.617 658.431 421.743C659.313 419.212 659.543 416.504 659.026 413.893C659.007 415.719 658.911 417.545 658.355 419.324C657.818 421.086 656.802 422.8 655.191 424.018C655.038 424.146 654.846 424.274 654.635 424.402Z" fill="#BC6C56"/>
<path d="M619.97 417.241C619.97 417.241 603.653 409.76 598.802 404.906C593.951 400.052 592.398 385.602 593.913 383.904C595.428 382.189 621.983 403.848 621.983 403.848L628.406 412.083L619.97 417.241Z" fill="#D38309"/>
<path d="M625.07 378.825C629.461 382.109 634.676 384.977 638.51 388.709C640.485 390.632 641.022 393.051 641.195 395.518C641.367 398.129 641.636 400.708 641.885 403.304L622.922 383.134L625.07 378.825Z" fill="#D38309"/>
<path d="M617.362 376.759C621.695 379.37 627.313 383.359 632.624 389.126C637.092 393.996 640.006 398.674 641.904 402.391C642 392.25 642.096 382.125 642.192 371.985C639.162 368.3 636.133 364.615 633.084 360.931C634.561 356.798 636.018 352.681 637.494 348.547C642.096 349.172 646.717 349.781 651.318 350.406C653.657 353.706 655.996 357.006 658.335 360.306C657.262 364.359 656.169 368.428 655.095 372.481C655.958 379.514 657.108 389.414 658.355 401.413C659.428 411.794 660.368 421.887 654.673 425.027C651.241 426.917 647.157 427.093 647.157 427.093C647.157 427.093 644.205 427.222 641.022 426.244C635.864 424.658 618.915 411.746 597.69 392.763C604.248 387.444 610.805 382.093 617.362 376.759Z" fill="#D08B73"/>
<path d="M639.603 394.429L619.433 411.426L622.443 413.957L640.965 398.29L639.603 394.429Z" fill="#BC6C56"/>
<path d="M619.51 414.486L640.639 396.079C635.845 386.867 606.874 356.653 595.581 377.575C584.614 397.857 614.505 411.426 619.51 414.486Z" fill="#F9AE26"/>
<path d="M523.279 474.769C522.761 474.561 522.205 474.4 521.668 474.192C519.847 473.535 517.987 472.702 516.05 472.286C513.807 471.805 511.66 471.18 509.436 470.668C510.394 470.508 511.41 470.411 512.35 470.219C513.174 470.043 513.999 469.739 514.842 469.53C515.648 469.322 516.472 469.066 517.105 468.601C517.661 468.185 518.236 467.4 517.929 466.775C516.683 466.855 515.264 467.432 514.056 467.736C512.676 468.089 504.297 470.139 501.479 470.796C496.647 471.917 491.93 472.943 487.29 473.888L485.795 474.016C485.661 473.712 485.526 473.407 485.392 473.103C478.01 473.135 470.629 473.167 463.247 473.199C453.2 471.885 443.134 470.572 433.087 469.258C428.869 454.728 423.213 443.322 418.516 435.28C408.028 417.289 401.931 415.255 398.269 414.806C392.344 414.069 385.269 416.568 381.952 420.91C376.468 428.087 382.661 438.419 391.922 453.382C403.349 471.821 409.063 481.049 418.669 485.502C436.845 493.945 459.182 489.331 473.14 486.447C479.966 485.038 485.488 483.34 489.265 482.026C489.15 481.77 489.035 481.497 488.92 481.241C491.336 481.177 493.733 481.129 496.148 481.065C498.507 482.026 500.29 483.003 501.498 483.756C503.453 484.958 506.004 486.8 506.004 486.8C506.176 486.88 507.576 487.505 509.071 486.976C509.416 486.848 510.241 486.479 510.356 486.127C510.471 485.759 510.087 485.39 509.704 485.054C508.381 483.884 507.116 483.115 506.809 482.923C506.099 482.491 505.141 481.85 504.105 480.905C505.582 480.552 507.211 480.504 508.726 480.744C510.107 480.969 511.372 481.497 512.58 482.09C513.845 482.715 514.823 483.692 516.127 484.301C517.009 484.701 518.006 484.99 519.022 485.022C520.077 485.054 520.767 484.685 521.496 484.076C519.195 482.442 516.28 480.696 512.676 479.158C511.315 478.582 509.992 478.085 508.726 477.668C508.266 477.236 508.228 477.044 508.285 476.948C508.611 476.483 511.909 477.588 512.081 477.652C512.599 477.829 513.174 478.069 514.344 478.55C515.954 479.206 517.508 479.911 519.08 480.616C520.729 481.369 522.205 481.177 523.509 480.055C523.317 480.184 521.035 478.726 520.786 478.598C519.329 477.797 517.814 477.108 516.242 476.483C514.114 475.65 512.12 475.009 510.318 474.529C510.126 474.24 510.087 474.032 510.183 473.888C510.49 473.455 512.158 473.68 515.149 474.561C516.875 475.073 518.543 475.778 520.403 475.938C521.361 476.018 522.703 475.97 523.509 475.458C524.026 475.105 523.854 475.009 523.279 474.769Z" fill="#C4422B"/>
<path d="M456.268 643.956C458.549 643.267 461.675 642.306 461.272 639.647C460.869 636.987 453.123 633.831 450.573 632.069C450.382 625.373 449.596 619.029 444.936 613.374C444.917 613.358 444.726 613.454 444.726 613.374C444.687 612.525 444.208 612.509 444.419 611.371C444.63 610.234 447.161 607.991 448.273 607.062C449.787 607.078 451.206 607.19 452.702 607.334C471.626 589.055 486.964 569.976 487.348 545.129C487.386 542.678 487.425 540.515 485.776 538.048C482.785 533.546 476.457 530.102 471.453 526.898C465.03 522.765 458.185 519.176 451.014 516.068C450.228 515.732 449.212 515.331 448.579 515.043C444.438 513.169 439.242 511.551 435.1 510.493C428.792 508.875 426.338 507.402 419.052 506.136C411.747 504.854 385.825 501.843 381.319 501.923C376.814 502.003 379.498 511.038 379.306 511.631C377.37 517.286 379.306 520.81 379.996 525.793C380.054 526.193 379.881 526.209 380.13 526.818C380.188 526.946 379.824 526.097 380.629 527.074C384.023 531.223 382.987 534.235 389.986 538.272C400.646 544.44 419.762 540.867 434.238 542.63C440.086 543.334 449.806 547.227 455.309 550.159C453.181 559.354 450.19 561.645 445.243 571.978C442.674 577.345 427.91 599.741 426.377 604.691C424.862 609.641 430.499 603.602 430.384 606.309C429.444 608.087 428.102 610.634 426.798 612.621C422.024 616.033 418.209 620.054 415.467 624.748C417.346 625.485 421.449 627.087 422.81 627.632C424.172 628.176 422.964 627.76 423.731 628.08C423.846 628.128 423.731 628 423.769 628.016C424.594 628.337 425.322 628.673 426.147 629.009C426.492 627.696 428.236 628.112 429.176 628.529C432.359 629.955 435.005 631.765 436.884 634.136C438.763 636.507 438.571 639.438 441.044 641.297C443.518 643.155 445.818 644.084 449.193 644.581C451.321 644.901 453.986 644.645 456.268 643.956Z" fill="#282E5B"/>
<path d="M360.497 532.073C360.497 532.073 392.286 542.518 410.271 544.52C428.256 546.523 440.373 542.646 443.805 543.367C447.237 544.088 457.457 567.204 468.424 576.256C479.391 585.307 510.548 604.787 514.075 607.543C517.603 610.314 523.029 621.817 523.029 621.817L530.737 619.526L529.146 616.242C529.146 616.242 555.509 606.453 558.059 603.249C560.609 600.045 563.274 588.719 559.363 585.003C555.451 581.286 552.288 594.615 547.533 596.233C542.778 597.851 525.503 597.194 520.498 595.832C515.475 594.47 469.459 531.544 463.343 528.276C457.227 525.008 416.752 513.169 407.395 513.297C398.038 513.425 362.165 508.844 362.165 508.844L360.497 532.073Z" fill="#034C8A"/>
<path d="M417.327 547.5C428.16 547.468 437.171 547.932 443.46 548.365C448.119 555.766 452.663 563.904 458.53 570.649C461.579 574.157 502.188 606.069 503.108 605.092L518.198 588.943C501.229 569.063 484.51 549.006 467.043 529.429C465.318 527.491 463.554 525.536 461.234 524.111C456.996 521.531 449.001 521.291 443.786 520.202C437.114 518.792 430.422 517.43 423.711 516.069C414.834 514.274 405.554 512.977 396.888 510.558C392.459 509.324 360.765 506.889 360.555 506.873C361.264 506.921 359.807 516.629 359.692 517.35C358.503 525.024 359.788 528.965 360.938 532.089C361.245 532.906 363.814 539.586 370.084 543.991C379.402 550.544 390.465 547.564 417.327 547.5Z" fill="#0254A9"/>
<path d="M514.075 607.543C517.162 605.797 523.413 596.233 523.413 596.233L547.993 593.493C547.993 593.493 554.359 582.167 556.928 582.872C560.091 583.737 560.782 584.955 561.434 587.598C561.99 589.841 562.085 592.148 561.759 594.406C561.261 597.947 559.746 601.423 557.292 604.355C554.78 607.351 550.428 607.815 546.785 609.593C542.797 611.548 538.79 613.566 534.706 615.441C533.498 616.001 531.849 617.091 533.268 618.244L522.934 622.97L514.075 607.543Z" fill="#EE5F43"/>
<path d="M404.442 393.307L391.385 413.444C398.537 418.314 405.708 423.184 412.859 428.055C411.958 425.988 410.654 422.079 411.441 417.257C412.725 409.423 418.669 404.649 420.51 403.288C415.16 399.955 409.811 396.639 404.442 393.307Z" fill="#D08B73"/>
<g opacity="0.5">
<path opacity="0.5" d="M409.6 396.591C408.449 396.848 409.025 401.477 412.207 406.444C413.818 408.911 415.563 410.897 417.346 412.243C419.187 413.605 420.912 413.717 421.123 413.252C421.372 412.772 420.567 412.003 419.723 410.593C418.861 409.183 417.518 406.988 416.042 404.729C413.109 400.164 410.769 396.303 409.6 396.591Z" fill="#EE5F43"/>
</g>
<path d="M412.495 425.459C410.654 423.168 408.641 420.83 406.456 418.427C402.717 414.325 398.978 410.657 395.335 407.357C379.613 407.901 371.637 412.515 367.572 415.831C359.002 422.8 356.816 432.684 357.487 472.542C357.736 487.425 358.1 499.76 358.388 508.427C360.018 509.837 372.289 520.009 391.021 518.712C408.315 517.51 418.113 507.45 419.723 505.752C419.187 494.377 418.496 485.134 417.979 478.854C416.809 464.756 416.387 456.698 415.16 445.917C414.221 437.362 413.224 430.281 412.495 425.459Z" fill="#EE5F43"/>
<path d="M368.933 425.075C368.799 426.212 368.531 427.253 368.531 428.391C368.55 431.435 368.454 434.462 368.511 437.506C368.607 442.472 370.237 447.182 371.637 451.988C372.883 456.314 374.915 460.335 377.542 464.18C379.824 467.528 382.278 470.924 384.981 474.048C387.11 476.499 389.315 478.822 391.826 480.985C395.833 484.413 400.934 487.2 406.11 489.235C411.977 491.542 418.746 491.894 425.13 492.391C427.872 492.599 430.652 492.15 433.317 492.775" stroke="#C4422B" stroke-width="1.4641" stroke-miterlimit="10"/>
<path d="M382.987 419.083C384.54 420.877 387.723 422.223 389.756 423.649C391.596 424.947 392.842 426.34 394.223 428.022C397.233 431.691 399.994 435.504 402.525 439.429C407.568 447.262 411.613 455.561 414.566 464.099C415.084 465.605 415.563 467.111 416.1 468.601C416.579 469.931 416.617 471.469 417.346 472.734C417.672 473.311 417.959 473.631 417.825 474.336" stroke="#C4422B" stroke-width="1.7716" stroke-miterlimit="10"/>
<path d="M407.606 397.424C406.494 397.633 404.404 394.637 403.656 394.012C401.106 391.897 398.805 390.648 398.249 387.38C397.808 384.72 398.69 382.205 398.978 379.61C399.304 376.807 399.706 374.051 400.569 371.312C402.429 365.4 406.283 360.13 412.821 357.15C424.287 351.911 449.346 356.045 448.158 367.595C447.563 373.362 447.429 378.937 443.978 385.041C443.978 385.041 427.508 395.806 423.155 395.614C418.803 395.406 407.644 397.424 407.606 397.424Z" fill="#034C8A"/>
<path d="M445.799 371.936C445.895 375.925 443.633 387.46 443.019 388.693C442.425 389.927 441.849 391.849 442.597 393.179C443.345 394.493 445.722 398.498 445.492 399.443C445.262 400.388 442.252 401.189 441.274 400.58C440.296 399.971 437.766 398.53 437.766 398.53C437.766 398.53 431.362 409.007 429.464 410.849C427.565 412.691 422.599 412.403 420.395 410.817C418.19 409.231 408.718 402.182 407.242 396.335C405.765 390.488 406.551 387.62 406.551 387.62C406.551 387.62 402.468 382.141 405.535 379.049C408.603 375.957 411.862 376.582 413.626 377.303C415.39 378.024 416.943 380.988 416.943 380.988C416.943 380.988 426.089 375.269 426.664 372.449C427.259 369.63 426.453 369.854 426.453 369.854C426.453 369.854 432.052 373.122 436.117 372.962C440.201 372.802 445.799 371.936 445.799 371.936Z" fill="#D08B73"/>
<g opacity="0.5">
<path opacity="0.5" d="M409.063 384.464C409.14 384.288 408.392 384.064 408.258 383.503C408.066 383.006 408.603 381.901 409.581 381.308C410.578 380.731 411.939 380.715 412.572 381.068C413.358 381.5 414.144 381.757 414.202 381.548C414.24 381.388 413.971 381.052 413.224 380.347C412.303 379.562 410.309 379.354 408.699 380.267C407.184 381.228 406.571 382.782 407.28 383.871C407.644 384.4 408.22 384.544 408.526 384.576C408.852 384.592 409.044 384.544 409.063 384.464Z" fill="#EE5F43"/>
</g>
<path d="M464.071 483.323C469.459 483.195 474.866 483.067 480.254 482.923C482.612 483.884 484.395 484.861 485.603 485.614C487.559 486.816 490.109 488.658 490.109 488.658C490.281 488.738 491.681 489.363 493.176 488.834C493.522 488.706 494.346 488.338 494.461 487.985C494.576 487.617 494.193 487.248 493.809 486.912C492.486 485.742 491.221 484.973 490.914 484.781C490.205 484.349 489.246 483.708 488.211 482.763C489.687 482.41 491.317 482.362 492.831 482.602C494.212 482.827 495.477 483.355 496.685 483.948C497.951 484.573 498.928 485.55 500.232 486.159C501.114 486.559 502.111 486.848 503.127 486.88C504.182 486.912 504.872 486.543 505.601 485.919C503.3 484.285 500.386 482.538 496.781 481C495.42 480.424 494.097 479.927 492.831 479.511C492.371 479.078 492.333 478.886 492.39 478.79C492.716 478.325 496.014 479.431 496.187 479.495C496.704 479.671 497.28 479.911 498.449 480.392C500.06 481.049 501.613 481.753 503.185 482.458C504.834 483.211 506.31 483.019 507.614 481.898C507.422 482.026 505.141 480.568 504.891 480.44C503.434 479.639 501.92 478.95 500.347 478.325C498.219 477.492 496.225 476.851 494.423 476.371C494.231 476.082 494.193 475.874 494.308 475.73C494.614 475.297 496.263 475.522 499.274 476.403C500.999 476.915 502.667 477.62 504.527 477.78C505.486 477.861 506.828 477.813 507.633 477.3C508.189 476.947 508.017 476.835 507.441 476.611C506.924 476.403 506.368 476.243 505.831 476.034C504.009 475.377 502.15 474.544 500.213 474.128C497.97 473.663 495.822 473.023 493.598 472.526C494.557 472.366 495.573 472.27 496.513 472.077C497.337 471.901 498.162 471.597 499.005 471.388C499.81 471.18 500.635 470.924 501.268 470.459C501.824 470.059 502.399 469.258 502.092 468.633C500.846 468.713 499.427 469.29 498.219 469.594C496.839 469.947 488.46 471.997 485.641 472.654C480.81 473.775 476.093 474.801 471.453 475.746L463.86 476.387L464.071 483.323Z" fill="#D08B73"/>
<path d="M366.057 422.768C360.574 429.945 366.767 440.278 376.027 455.24C387.455 473.679 393.168 482.907 402.774 487.36C420.951 495.803 443.287 491.189 457.246 488.306C464.071 486.896 469.593 485.198 473.37 483.884C472.086 480.904 470.801 477.925 469.517 474.961C462.135 474.993 454.753 475.025 447.371 475.057C437.325 473.743 427.259 472.43 417.212 471.116C412.994 456.586 407.337 445.18 402.64 437.138C392.152 419.147 386.055 417.113 382.393 416.664C376.449 415.943 369.374 418.426 366.057 422.768Z" fill="#EE5F43"/>
<path d="M437.785 561.261H358.522C356.317 561.261 354.534 559.771 354.534 557.929V550.688C354.534 548.845 356.317 547.356 358.522 547.356H437.785C439.99 547.356 441.773 548.845 441.773 550.688V557.929C441.792 559.771 439.99 561.261 437.785 561.261Z" fill="#346EC1"/>
<path d="M333.616 503.22C333.616 491.366 333.98 479.671 333.443 467.88C333.079 460.079 333.156 452.213 334.517 444.475C335.112 441.063 337.853 425.523 345.925 428.455C347.478 429.016 348.188 430.874 348.456 431.739C348.092 455.577 347.747 479.399 347.382 503.236C347.382 506.344 344.89 508.859 341.822 508.859H339.195C336.109 508.843 333.616 506.328 333.616 503.22Z" fill="#346EC1"/>
<path d="M333.252 463.106V537.92C333.252 543.943 336.109 549.727 341.209 553.988C346.309 558.249 353.23 560.636 360.44 560.636H427.431" stroke="#034C8A" stroke-width="1.5" stroke-miterlimit="10" stroke-linecap="round" stroke-linejoin="round"/>
<path d="M396.064 561.261H389.276V642.514H396.064V561.261Z" fill="#034C8A" stroke="#034C8A" stroke-miterlimit="10" stroke-linecap="round" stroke-linejoin="round"/>
<path d="M401.49 598.395H383.85V626.19H401.49V598.395Z" fill="#034C8A" stroke="#034C8A" stroke-miterlimit="10" stroke-linecap="round" stroke-linejoin="round"/>
<path d="M452.069 645.238C444.169 640.848 422.235 629.923 391.404 630.227C362.069 630.515 341.247 640.8 333.252 645.238C333.252 643.7 333.252 642.162 333.252 640.64C341.65 636.17 362.434 626.462 391.404 626.174C421.852 625.886 443.728 636.202 452.069 640.64C452.069 642.178 452.069 643.7 452.069 645.238Z" fill="#034C8A" stroke="#034C8A" stroke-miterlimit="10" stroke-linecap="round" stroke-linejoin="round"/>
<path d="M340.844 645.238C340.844 641.729 337.451 638.894 333.252 638.894C329.053 638.894 325.659 641.729 325.659 645.238C325.659 648.746 329.053 651.582 333.252 651.582C337.451 651.582 340.844 648.746 340.844 645.238Z" fill="#034C8A" stroke="#034C8A" stroke-miterlimit="10" stroke-linecap="round" stroke-linejoin="round"/>
<path d="M452.069 651.582C456.262 651.582 459.661 648.741 459.661 645.238C459.661 641.734 456.262 638.894 452.069 638.894C447.876 638.894 444.476 641.734 444.476 645.238C444.476 648.741 447.876 651.582 452.069 651.582Z" fill="#034C8A" stroke="#034C8A" stroke-miterlimit="10" stroke-linecap="round" stroke-linejoin="round"/>
<path d="M392.67 651.229C396.63 651.229 399.841 648.547 399.841 645.238C399.841 641.929 396.63 639.246 392.67 639.246C388.71 639.246 385.499 641.929 385.499 645.238C385.499 648.547 388.71 651.229 392.67 651.229Z" fill="#034C8A" stroke="#034C8A" stroke-miterlimit="10" stroke-linecap="round" stroke-linejoin="round"/>
<path d="M515.475 651.581L640.389 500.881" stroke="#034C8A" stroke-width="2.916" stroke-miterlimit="10" stroke-linecap="round" stroke-linejoin="round"/>
<path d="M517.392 500.881L638.453 651.581" stroke="#034C8A" stroke-width="2.916" stroke-miterlimit="10" stroke-linecap="round" stroke-linejoin="round"/>
<path d="M677.797 509.212H478.049C475.038 509.212 472.603 507.177 472.603 504.662V497.101C472.603 494.586 475.038 492.551 478.049 492.551H677.797C680.807 492.551 683.242 494.586 683.242 497.101V504.662C683.242 507.161 680.807 509.212 677.797 509.212Z" fill="#346EC1"/>
<path d="M674.077 505.223H481.788C477.263 505.223 473.524 502.483 472.776 498.879C472.68 499.311 472.623 499.744 472.623 500.209V501.538C472.623 505.768 476.726 509.196 481.788 509.196H674.077C679.139 509.196 683.242 505.768 683.242 501.538V500.209C683.242 499.76 683.165 499.311 683.088 498.879C682.321 502.483 678.602 505.223 674.077 505.223Z" fill="#0254A9"/>
<path d="M560.513 459.069L555.682 458.492C554.32 458.332 553.362 457.275 553.553 456.121L565.958 383.727C566.15 382.59 567.416 381.789 568.796 381.949L573.628 382.526C574.989 382.686 575.948 383.743 575.756 384.897L563.351 457.291C563.159 458.444 561.894 459.229 560.513 459.069Z" fill="#034C8A"/>
<path d="M588.966 489.427L586.646 489.956C585.707 490.164 584.748 489.7 584.499 488.915L564.463 426.437C564.214 425.652 564.77 424.851 565.709 424.642L568.029 424.114C568.969 423.905 569.927 424.37 570.177 425.155L590.213 487.633C590.462 488.402 589.906 489.219 588.966 489.427Z" fill="#034C8A"/>
<path d="M597.959 492.199H571.48C569.908 492.199 568.643 491.141 568.643 489.828V486.592C568.643 485.278 569.908 484.221 571.48 484.221H597.959C599.531 484.221 600.796 485.278 600.796 486.592V489.828C600.777 491.125 599.512 492.199 597.959 492.199Z" fill="#034C8A"/>
<path d="M539.595 488.21H488.786C488 488.21 487.367 488.738 487.367 489.395V491.013C487.367 491.67 488 492.199 488.786 492.199H539.595C540.381 492.199 541.014 491.67 541.014 491.013V489.395C541.014 488.738 540.381 488.21 539.595 488.21Z" fill="#034C8A"/>
<path d="M937.844 461.504C937.844 461.504 919.917 529.782 917.003 539.938C914.069 550.095 901.453 603.746 901.453 603.746L918.882 608.552C918.882 608.552 934.182 581.126 935.85 574.493C937.518 567.861 934.988 552.946 939.302 546.923C943.635 540.899 962.616 507.418 962.616 507.418L961.332 460.896L937.844 461.504Z" fill="#0254A9"/>
<path d="M956.136 476.499C956.136 476.499 956.193 530.182 958.494 539.73C960.795 549.294 990.935 597.722 990.935 597.722L996.802 604.819L1011.35 597.722C1011.35 597.722 1008.08 578.867 1002.13 564C996.189 549.134 987.062 542.694 988.539 536.91C990.034 531.143 992.834 507.914 990.916 493.016C989.018 478.117 984.474 460.864 984.474 460.864L953.835 461.344L956.136 476.499Z" fill="#346EC1"/>
<path d="M1008.5 590.577C1008.5 590.577 1001.44 568.261 998.931 563.632C996.419 559.002 983.803 540.883 983.803 537.103C983.803 533.322 987.829 516.885 987.829 508.459C987.829 500.032 978.607 470.972 978.607 470.972" stroke="#0254A9" stroke-width="0.5164" stroke-miterlimit="10"/>
<path d="M967.908 471.549C967.851 471.549 967.774 471.917 967.697 472.606C967.621 473.279 967.486 474.32 967.812 475.538C968.081 476.723 968.234 478.181 968.733 479.799C969.212 481.385 969.96 483.115 971.129 484.765C973.43 488.13 977.188 490.1 979.987 490.853C981.406 491.253 982.614 491.398 983.439 491.462C984.263 491.526 984.723 491.478 984.723 491.43C984.742 491.302 982.902 491.253 980.198 490.372C977.533 489.523 974.063 487.601 971.858 484.397C970.746 482.827 969.998 481.161 969.5 479.623C968.982 478.085 968.771 476.643 968.407 475.442C968.023 474.272 968.062 473.311 968.023 472.606C968.004 471.933 967.966 471.565 967.908 471.549Z" fill="#0254A9"/>
<path d="M947.795 470.732C947.757 470.716 947.834 471.26 948.716 471.629C949.578 472.013 950.959 471.997 952.55 471.965C955.752 471.933 960.181 471.821 965.09 471.677C969.979 471.517 974.408 471.341 977.61 471.18C980.812 471.02 982.787 470.86 982.787 470.764C982.787 470.668 980.793 470.636 977.591 470.684C974.389 470.716 969.96 470.828 965.071 470.972C960.181 471.132 955.752 471.308 952.57 471.469C950.959 471.565 949.674 471.645 948.888 471.373C948.045 471.132 947.872 470.684 947.795 470.732Z" fill="#0254A9"/>
<path d="M943.347 467.256C943.347 467.352 945.61 467.32 949.233 467.223C953.164 467.111 958.034 466.983 963.402 466.839C968.771 466.727 973.622 466.615 977.572 466.535C981.195 466.455 983.439 466.374 983.439 466.278C983.439 466.23 982.883 466.182 981.866 466.134C980.85 466.086 979.374 466.054 977.572 466.022C973.948 465.974 968.924 465.99 963.383 466.118C957.842 466.246 952.838 466.487 949.214 466.711C947.412 466.823 945.936 466.935 944.939 467.031C943.903 467.127 943.328 467.208 943.347 467.256Z" fill="#0254A9"/>
<path d="M972.491 465.702C972.261 465.718 972.146 467.047 972.241 468.649C972.337 470.251 972.606 471.549 972.836 471.549C973.066 471.549 973.181 470.235 973.085 468.601C972.989 466.983 972.721 465.686 972.491 465.702Z" fill="#0254A9"/>
<path d="M962.386 464.292C962.156 464.308 962.06 466.006 962.195 468.105C962.329 470.187 962.616 471.885 962.846 471.869C963.077 471.869 963.172 470.155 963.038 468.057C962.904 465.974 962.616 464.276 962.386 464.292Z" fill="#0254A9"/>
<path d="M1011.35 582.583L983.228 595.992C983.228 595.992 994.252 620.519 994.061 628.577C993.754 641.233 967.237 641.473 969.5 652.062C969.826 653.616 981.502 652.254 990.284 652.911C999.065 653.568 1005.74 650.396 1006.54 646.071C1007.35 641.745 1014.31 639.438 1014.31 639.438L1016.76 647.657L1025.77 643.748L1011.35 582.583Z" fill="#282E5B"/>
<path d="M927.663 598.844L895.874 589.857C895.874 589.857 890.985 622.425 883.45 627.455C867.076 638.381 843.627 640.688 845.908 648.49C846.349 650.028 850.126 652.046 862.915 651.549C867.076 651.389 879.538 651.133 882.951 647.817C886.364 644.501 893.746 645.622 893.746 645.622L893.535 652.27L913.015 652.062C912.421 637.708 920.282 619.061 927.663 598.844Z" fill="#282E5B"/>
<path d="M986.487 357.47C983.381 356.269 972.893 353.658 972.299 350.662C972.145 349.893 972.395 349.108 972.721 348.371C979.086 333.457 1004.43 333.505 1017.93 340.746C1022.23 343.052 1025.95 344.078 1031.18 343.325C1036.28 342.588 1041.11 340.73 1046.27 340.217C1057.83 339.08 1069.99 345.776 1074.11 354.715C1079.38 366.137 1069.58 375.285 1068.49 386.387C1068.15 389.799 1068.11 393.548 1069.78 396.768C1070.95 399.01 1071.62 399.571 1068.18 400.212C1065.9 400.644 1063.43 400.468 1061.11 400.292C1057.45 400.004 1053.69 399.555 1050.58 397.905C1044.79 394.845 1045.02 389.863 1044.18 384.881C1042.99 377.912 1042.11 370.895 1040.9 363.927C1040.29 360.418 1036.18 351.111 1031.39 350.63C1025.77 350.149 1026.31 351.351 1026.31 351.351C1027.63 354.315 1026.56 360.514 1025.81 363.526C1024.58 368.54 1021.63 373.282 1017.36 376.951C1012.35 381.228 1005.45 384.144 998.317 384.833C993.121 385.329 986.986 382.285 982.058 380.828L989.363 364.92L986.487 357.47Z" fill="#282E5B"/>
<path d="M974.293 351.495C973.66 352.905 972.759 355.1 972.376 355.628C972.011 356.157 966.451 359.121 965.55 360.402C964.649 361.684 968.234 362.645 968.234 362.645C968.138 362.613 966.048 368.877 965.991 369.502C965.742 372.289 968.234 375.317 970.957 376.694C974.178 378.329 978.492 378.329 981.713 376.694C980.869 379.242 979.987 381.789 979.105 384.32L994.157 388.886C994.157 388.886 994.847 379.786 996.381 376.791C997.914 373.795 1001.35 365.977 1001.35 365.977C1001.35 365.977 1002.82 366.249 1004.43 365.16C1006.06 364.055 1006.89 360.498 1004.24 359.649C1001.6 358.8 999.832 360.21 999.391 361.171C997.435 360.947 995.767 357.054 995.154 355.804C993.198 351.912 994.367 348.131 995.326 344.19C995.23 344.622 992.335 345.439 991.856 345.76C990.207 346.881 989.287 348.948 988.673 350.582C988.347 351.463 988.098 352.376 987.887 353.289C987.446 355.228 988.021 356.285 985.164 355.564C981.291 354.603 977.859 353.113 974.293 351.495Z" fill="#D08B73"/>
<path d="M994.272 370.607C993.965 370.335 990.437 372.705 985.682 375.108C980.946 377.528 976.786 379.065 976.939 379.418C977.054 379.738 981.598 378.729 986.487 376.23C991.396 373.731 994.559 370.847 994.272 370.607Z" fill="#BC6C56"/>
<path d="M1001.42 363.398C1001.29 363.414 1001.35 363.911 1002.09 364.135C1002.44 364.231 1002.94 364.231 1003.4 363.991C1003.84 363.766 1004.17 363.366 1004.32 362.933C1004.45 362.501 1004.49 362.052 1004.22 361.62C1004.09 361.411 1003.84 361.203 1003.55 361.139C1003.26 361.075 1003.05 361.107 1002.88 361.155C1002.25 361.395 1001.98 361.62 1002.04 361.716C1002.11 361.828 1002.5 361.812 1002.98 361.764C1003.26 361.78 1003.28 361.828 1003.34 361.956C1003.42 362.116 1003.4 362.405 1003.3 362.693C1003.11 363.286 1002.65 363.542 1002.21 363.526C1001.79 363.558 1001.54 363.35 1001.42 363.398Z" fill="#BC6C56"/>
<path d="M999.199 341.146C999.142 341.066 997.224 341.803 994.597 343.613C993.946 344.062 993.255 344.575 992.584 345.231C992.239 345.552 991.875 345.872 991.53 346.225C991.204 346.609 990.935 347.01 990.686 347.442C990.188 348.307 989.766 349.204 989.344 350.165C989.133 350.646 988.903 351.127 988.692 351.623C988.462 352.136 988.366 352.713 988.251 353.225C988.059 354.283 987.733 355.212 986.794 355.484C985.854 355.772 984.781 355.516 983.765 355.196C981.732 354.555 980.102 353.658 978.799 352.777C977.495 351.912 976.268 351.271 975.29 351.079C974.331 350.886 973.775 351.031 973.794 351.079C973.794 351.159 974.331 351.127 975.175 351.399C976.038 351.655 977.092 352.312 978.339 353.241C979.585 354.186 981.291 355.212 983.4 355.917C984.397 356.253 985.739 356.67 987.139 356.269C987.829 356.061 988.424 355.564 988.711 355.02C989.018 354.475 989.114 353.914 989.229 353.385C989.344 352.857 989.421 352.36 989.632 351.896C989.843 351.415 990.053 350.934 990.264 350.47C990.667 349.541 991.07 348.612 991.511 347.795C991.741 347.394 991.971 347.01 992.258 346.657C992.584 346.337 992.891 346.016 993.198 345.712C993.792 345.087 994.444 344.542 995.058 344.078C997.531 342.188 999.295 341.258 999.199 341.146Z" fill="#BC6C56"/>
<path d="M1085.58 397.553C1085.61 397.44 1084.69 397.184 1083.18 396.479C1081.68 395.79 1079.61 394.573 1077.71 392.586C1075.8 390.616 1074.11 387.86 1073.46 384.544C1072.77 381.244 1073.05 377.463 1074.32 373.699C1074.95 371.824 1075.78 369.966 1076.28 368.06C1076.76 366.137 1076.85 364.231 1076.62 362.437C1076.2 358.848 1074.59 355.82 1072.81 353.594C1070.98 351.367 1069.01 349.909 1067.55 349.06C1066.09 348.195 1065.16 347.923 1065.12 347.987C1064.89 348.211 1068.55 349.765 1071.79 354.154C1073.34 356.333 1074.74 359.217 1075.05 362.565C1075.22 364.231 1075.09 365.993 1074.63 367.755C1074.15 369.534 1073.32 371.344 1072.67 373.314C1071.37 377.255 1071.1 381.26 1071.92 384.785C1072.71 388.309 1074.65 391.257 1076.81 393.243C1078.98 395.262 1081.28 396.415 1082.93 396.976C1084.56 397.553 1085.56 397.633 1085.58 397.553Z" fill="#282E5B"/>
<path d="M989.037 377.592C989.076 377.72 990.188 377.688 991.894 377.159C993.581 376.646 995.786 375.589 997.723 373.923C999.64 372.257 1000.83 370.367 1001.37 368.941C1001.92 367.499 1001.92 366.57 1001.77 366.538C1001.38 366.442 1000.41 370.03 996.764 373.138C993.179 376.31 988.922 377.271 989.037 377.592Z" fill="#282E5B"/>
<path d="M1031.51 468.297C1031.51 468.297 1015.19 506.488 1015.94 514.29C1016.69 522.092 1025.91 526.674 1026.27 528.852C1026.52 530.262 1023.43 531.816 1021.98 531.383C1021.42 531.223 1021 530.871 1020.58 530.534C1018.54 528.852 1016.61 527.01 1014.44 525.456C1013.18 524.543 1012.64 524.463 1012.77 525.857C1012.85 526.642 1013.39 531.127 1012.56 531.608C1011.95 531.976 1010.55 532.905 1010.43 531.496C1010.32 530.086 1008.82 517.702 1009.21 514.595C1009.57 511.583 1009.25 508.475 1009.21 505.463C1009.15 501.426 1009.32 497.405 1009.74 493.368C1010.28 488.194 1011.16 483.051 1012.37 477.957C1013.48 473.279 1014.37 468.056 1017.76 464.1C1023.53 457.355 1031.51 468.297 1031.51 468.297Z" fill="#D08B73"/>
<path d="M996.381 413.028C997.569 421.15 998.279 430.329 997.953 440.374C997.799 445.244 997.416 449.858 996.898 454.231C1002.38 455.304 1006.25 456.97 1008.75 458.252C1014.54 461.248 1016.38 464.051 1022.3 466.278C1025.98 467.672 1029.34 468.12 1031.51 468.281C1032.37 447.615 1027.84 431.931 1024.2 422.463C1018.24 406.972 1011.53 400.019 1007.9 396.703C1002.09 391.385 996.093 387.972 991.837 385.906C991.683 386.082 991.511 386.242 991.376 386.418C985.394 393.515 991.511 405.514 996.381 413.028Z" fill="#12A189"/>
<path d="M907.301 382.157C907.301 382.157 893.573 367.339 892.826 363.59C892.078 359.841 891.828 355.836 891.963 354.747C892.097 353.658 893.612 350.486 894.033 348.195C894.455 345.904 892.212 342.892 891.924 342.524C891.637 342.155 892.135 335.555 891.215 334.93C890.275 334.306 888.416 334.097 888.857 342.364C883.929 341.643 881.513 341.995 881.456 344.959C881.398 347.923 884.811 355.516 884.811 355.516C884.811 355.516 885.175 360.514 886.249 363.942C887.304 367.371 891.694 386.21 901.952 393.563C909.564 391.785 907.301 382.157 907.301 382.157Z" fill="#D08B73"/>
<path d="M990.494 384.096C988.711 383.695 986.909 383.407 985.126 383.183C979.24 382.478 973.277 382.59 967.352 382.942C962.386 383.247 957.842 382.99 952.896 382.894C946.568 382.766 940.26 382.622 933.952 382.334C930.29 382.157 926.34 382.173 922.774 381.372C914.434 379.53 913.13 377.431 909.564 378.04C904.809 378.857 903.428 383.663 898.309 391.305C895.701 395.182 891.694 400.452 885.635 406.267C896.334 408.59 909.525 409.888 924.557 410.929C934.106 411.586 940.395 411.41 943.903 410.497C943.903 410.497 944.843 412.675 945.821 415.703C945.821 415.703 947.393 420.766 947.93 425.908C948.524 431.643 945.782 446.333 935.831 463.843C938.477 463.187 942.83 462.305 948.217 462.289C957.842 462.273 962.367 464.869 973.143 465.525C976.191 465.718 980.965 465.814 987.005 465.109C987.197 462.69 989.037 461.024 988.903 458.845C988.75 456.522 987.868 453.879 989.286 451.844C989.862 451.027 988.309 448.512 989.191 446.462C991.798 440.358 997.8 431.371 1001.23 427.574C1003.34 425.251 1006.81 420.637 1010.09 413.941C1013.25 407.485 1014.02 400.244 1009.15 394.204C1004.86 388.918 997.838 385.714 990.494 384.096Z" fill="#14B6A1"/>
<path d="M943.903 410.529C943.903 410.529 949.502 409.583 958.322 406.267C948.409 414.982 948.85 425.635 947.699 431.643C945.878 413.973 943.903 410.529 943.903 410.529Z" fill="#12A189"/>
<path d="M1061.51 644.885C1072.77 645.478 1081.8 643.988 1087.15 642.819C1091.9 641.777 1095.58 640.592 1097.81 639.807C1105.65 637.019 1123.61 629.794 1122.83 622.89C1122.08 616.322 1104.54 613.742 1102.29 613.502C1107.84 613.342 1117.25 612.509 1127.47 608.135C1129.37 607.334 1134.91 604.979 1139.89 601.791C1142.39 600.205 1144.74 598.411 1146.41 596.473C1147.26 595.511 1147.93 594.518 1148.37 593.493C1148.79 592.484 1149.02 591.458 1148.98 590.289C1148.83 584.378 1139.36 580.148 1127.2 579.524C1128.6 578.21 1130.56 576.223 1132.36 574.029C1134.2 571.802 1136 569.287 1137.67 566.531C1138.09 565.842 1139.01 564.305 1140.07 562.382C1141.14 560.46 1142.33 558.185 1143.52 555.814C1145.95 550.992 1148.75 545.145 1145.76 541.492C1143.94 539.265 1140.64 538.304 1137.3 537.968C1133.97 537.631 1130.52 538.016 1128.66 538.288C1125.8 538.689 1122.94 539.602 1120.41 540.739C1117.9 541.877 1115.72 543.222 1113.89 544.568C1110.21 547.259 1107.93 549.87 1106.65 551.328C1102.33 556.246 1101.57 557.752 1100.59 560.556C1099.11 554.356 1096.2 549.887 1092.84 547.115C1089.47 544.344 1085.54 543.334 1082.18 543.671C1081.07 543.783 1080.05 544.119 1079.11 544.584C1078.23 545 1077.22 545.769 1076.3 546.634C1074.45 548.365 1072.86 550.607 1071.52 552.898C1068.84 557.48 1067.21 562.254 1066.79 563.455C1062.72 575.454 1065.54 585.323 1067.49 590.161C1065.12 586.524 1057.05 574.189 1049.62 576.127C1045.33 577.249 1042.42 582.872 1040.65 589.408C1038.89 595.928 1038.29 603.409 1038.35 608.055C1038.39 610.602 1038.62 615.809 1040.42 622.057C1043.03 631.124 1047.19 636.939 1048.09 638.173C1049.87 640.656 1051.6 642.594 1052.92 643.94C1054.94 644.292 1057.89 644.693 1061.51 644.885Z" fill="#F29C1F"/>
<path d="M1045.79 655.106C1045.79 655.106 1046.86 653.488 1048.67 650.62C1049.57 649.195 1050.64 647.448 1051.91 645.494C1053.17 643.539 1054.74 641.361 1056.45 638.974C1063.24 629.41 1072.86 616.866 1083.39 604.483C1093.9 592.099 1105.09 579.764 1113.99 570.072C1118.46 565.218 1122.18 560.94 1125.19 557.784C1128.18 554.628 1130.4 552.53 1131.21 551.681" stroke="#805333" stroke-width="1.6688" stroke-miterlimit="10" stroke-linecap="round" stroke-linejoin="round"/>
<path d="M1095.7 590.305C1092.61 578.306 1089.83 566.179 1087.13 554.02" stroke="#805333" stroke-width="1.6688" stroke-miterlimit="10" stroke-linecap="round" stroke-linejoin="round"/>
<path d="M1092.32 594.566C1106.67 593.461 1120.95 592.66 1135.21 591.939" stroke="#805333" stroke-width="1.6688" stroke-miterlimit="10" stroke-linecap="round" stroke-linejoin="round"/>
<path d="M1064.08 627.744C1060.09 616.658 1056.64 605.236 1053.54 593.733" stroke="#805333" stroke-width="1.6688" stroke-miterlimit="10" stroke-linecap="round" stroke-linejoin="round"/>
<path d="M1061.9 631.556C1077.02 629.378 1092 627.888 1106.95 626.734" stroke="#805333" stroke-width="1.6688" stroke-miterlimit="10" stroke-linecap="round" stroke-linejoin="round"/>
<path d="M1038.6 653.023C1041.86 647.881 1046.46 643.924 1050.33 640.864C1052.08 639.518 1053.84 638.157 1055.66 636.763C1057.16 635.545 1058.67 634.296 1060.23 633.046C1067.13 627.503 1074.45 621.896 1081.05 616.145C1087.88 610.25 1095.3 603.233 1104.35 595.576C1113.4 587.998 1123.12 580.597 1133.85 573.228C1169.9 548.541 1222.66 521.195 1229.66 527.859C1236.66 534.555 1197.87 573.949 1163.84 601.375C1154.1 609.225 1144.25 616.482 1134.91 622.906C1125.49 629.442 1115.66 635.898 1105.4 641.056C1095.08 646.263 1085.34 649.643 1076.39 652.559C1066.9 655.907 1058.85 656.596 1052.4 660.713L1038.6 653.023Z" fill="#14B6A1"/>
<path d="M1046.37 656.211C1050.3 652.19 1054.9 649.691 1058.94 647.625L1064.77 644.725L1066.11 644.036L1067.55 643.267L1070.43 641.729C1078.06 637.612 1085.57 633.495 1092.61 628.945C1099.67 624.38 1106.4 619.285 1113.11 614.143C1119.8 608.952 1126.59 603.81 1133.37 598.732C1160.56 578.338 1188.13 558.393 1215.78 538.448" stroke="#148B7A" stroke-width="1.352" stroke-miterlimit="10" stroke-linecap="round" stroke-linejoin="round"/>
<path d="M1179.43 564.737L1194.98 565.363" stroke="#148B7A" stroke-width="1.352" stroke-miterlimit="10" stroke-linecap="round" stroke-linejoin="round"/>
<path d="M1169.69 571.85L1166.91 558.185" stroke="#148B7A" stroke-width="1.352" stroke-miterlimit="10" stroke-linecap="round" stroke-linejoin="round"/>
<path d="M1148.54 587.405L1163.07 590.786" stroke="#148B7A" stroke-width="1.352" stroke-miterlimit="10" stroke-linecap="round" stroke-linejoin="round"/>
<path d="M1133.37 598.716L1132.45 582.744" stroke="#148B7A" stroke-width="1.352" stroke-miterlimit="10" stroke-linecap="round" stroke-linejoin="round"/>
<path d="M1116.58 611.451C1123.04 612.365 1129.44 613.342 1135.85 614.335" stroke="#148B7A" stroke-width="1.352" stroke-miterlimit="10" stroke-linecap="round" stroke-linejoin="round"/>
<path d="M1089.03 631.204C1089.6 627.279 1089.93 623.402 1090.16 619.542" stroke="#148B7A" stroke-width="1.352" stroke-miterlimit="10" stroke-linecap="round" stroke-linejoin="round"/>
<path d="M228.278 655.523H1131.44" stroke="#363A69" stroke-width="5.0228" stroke-miterlimit="10" stroke-linecap="round" stroke-linejoin="round"/>
</svg>
