<svg width="770" height="770" viewBox="0 0 770 770" fill="none" xmlns="http://www.w3.org/2000/svg">
<g clip-path="url(#clip0_4_3074)">
<path d="M770 0H0V770H770V0Z" fill="white"/>
<path d="M613.197 582.305C662 593.085 713.713 560.16 714.329 540.648C714.945 521.136 667.513 561.653 660.629 541.787C653.761 521.921 712.219 513.96 713.051 492.969C713.882 471.979 661.353 521.536 657.287 508.123C653.237 494.71 703.888 462.97 696.373 447.539C688.842 432.109 658.227 486.409 649.51 479.094C640.794 471.779 676.137 421.19 654.839 417.309C633.541 413.428 637.252 459.952 629.829 469.423C622.406 478.878 622.853 424.67 610.179 428.828C597.505 432.986 619.219 485.192 610.641 492.23C602.063 499.268 589.296 452.899 574.897 463.602C560.498 474.305 597.612 503.888 594.07 517.686C590.528 531.485 566.443 490.244 553.538 501.162C540.617 512.065 572.31 573.28 613.197 582.305Z" fill="#4CA5A2"/>
<path d="M649.603 432.37C649.603 432.37 627.488 521.09 600.446 602.309" stroke="#2C7C78" stroke-width="1.9373" stroke-miterlimit="10" stroke-linecap="round"/>
<path d="M693.554 502.548C693.554 502.548 632.986 532.455 613.136 559.682C613.136 559.682 613.875 511.157 582.952 477.954" stroke="#2C7C78" stroke-width="1.9373" stroke-miterlimit="10" stroke-linecap="round"/>
<path d="M679.263 463.879C679.263 463.879 634.095 506.983 619.927 539.2C619.927 539.2 623.608 480.942 614.198 450.142" stroke="#2C7C78" stroke-width="1.9373" stroke-miterlimit="10" stroke-linecap="round"/>
<path d="M702.178 546.407C702.178 546.407 620.266 559.975 609.979 573.542C609.979 573.542 587.31 522.707 559.143 509.139" stroke="#2C7C78" stroke-width="1.9373" stroke-miterlimit="10" stroke-linecap="round"/>
<path d="M617.263 559.39C629.875 530.715 668.945 469.561 702.563 478.047C741.325 487.826 653.545 548.348 653.545 548.348C653.545 548.348 713.882 513.836 730.206 540.956C746.53 568.075 657.765 571.756 657.765 571.756C657.765 571.756 704.658 568.568 697.635 586.078C690.613 603.588 615.338 587.895 607.607 604.619C599.861 621.359 608.608 579.04 617.263 559.39Z" fill="#68BCBC"/>
<path d="M608.747 597.351C620.574 566.72 638.376 537.891 661.753 514.745C670.347 506.244 679.71 498.529 689.781 491.845" stroke="#4CA5A2" stroke-width="1.9373" stroke-miterlimit="10" stroke-linecap="round"/>
<path d="M609.162 597.967C634.511 566.628 673.072 546.515 712.727 545.514" stroke="#4CA5A2" stroke-width="1.9373" stroke-miterlimit="10" stroke-linecap="round"/>
<path d="M609.578 598.305C630.337 585.724 655.101 581.165 679.14 582.751" stroke="#4CA5A2" stroke-width="1.9373" stroke-miterlimit="10" stroke-linecap="round"/>
<path d="M598.937 594.902C603.28 582.151 618.264 572.895 629.906 568.106C658.396 556.402 704.519 546.577 726.125 576.145C733.009 585.554 735.134 598.275 731.685 609.409C725.402 629.752 702.687 639.023 683.329 641.81C657.457 645.553 620.913 640.116 603.742 618.079C600.769 614.275 598.475 609.825 597.874 605.035C597.428 601.447 597.859 598.059 598.937 594.902Z" fill="#4CA5A2"/>
<path d="M602.802 602.448C602.802 602.448 682.189 581.042 725.679 595.687" stroke="#2C7C78" stroke-width="1.9373" stroke-miterlimit="10" stroke-linecap="round"/>
<path d="M708.015 617.093C708.015 617.093 687.471 592.284 675.844 591.191C675.844 591.191 692.384 574.959 704.966 571.309" stroke="#2C7C78" stroke-width="1.9373" stroke-miterlimit="10" stroke-linecap="round"/>
<path d="M675.352 562.008C675.352 562.008 652.005 578.455 651.497 593.008C651.497 593.008 672.333 613.567 680.141 629.891" stroke="#2C7C78" stroke-width="1.9373" stroke-miterlimit="10" stroke-linecap="round"/>
<path d="M634.542 570.909C634.542 570.909 625.533 588.68 626.919 597.52C626.919 597.52 639.993 615.446 647.016 631.539" stroke="#2C7C78" stroke-width="1.9373" stroke-miterlimit="10" stroke-linecap="round"/>
<path d="M388.095 424.932C388.095 424.932 388.927 429.798 389.805 432.062C390.683 434.326 391.637 440.686 386.14 441.918C380.642 443.15 372.649 433.679 372.649 433.679C370.308 429.66 372.387 426.333 372.387 426.333C371.232 424.532 373.096 421.467 373.096 421.467L372.295 417.863C376.33 417.078 374.99 420.728 378.132 425.163C378.886 426.241 381.427 427.565 382.582 428.443C384.153 429.629 385.616 430.43 385.616 430.43C385.616 430.43 385.616 430.43 385.616 430.414C385.647 430.168 386.155 426.98 386.74 425.456C387.372 423.869 388.095 424.932 388.095 424.932Z" fill="#FF8B66"/>
<path d="M372.896 431.308C372.896 431.308 373.342 428.536 374.22 428.674C374.22 428.674 375.206 429.383 375.298 430.368C375.375 431.354 374.697 432.755 376.299 434.773C377.901 436.805 379.425 427.011 379.425 427.011C377.993 428.874 375.252 425.779 375.283 424.039C375.313 422.283 374.79 421.482 374.22 421.036C373.635 420.589 373.111 421.467 373.111 421.467C373.111 421.467 373.696 421.513 374.066 421.975C374.451 422.422 375.56 424.747 375.39 425.64C375.221 426.518 375.36 424.732 374.482 424.87C373.604 425.009 373.173 425.733 373.173 425.733C373.173 425.733 374.128 425.317 374.436 426.102C374.744 426.903 374.559 428.274 374.559 428.274C374.559 428.274 372.295 427.15 372.896 431.308Z" fill="#FF8B66"/>
<path d="M385.647 430.43C385.647 430.43 382.952 431.369 383.86 433.972C384.784 436.574 382.952 437.406 382.952 437.406C382.952 437.406 380.164 431.662 382.598 428.443C384.168 429.629 385.647 430.43 385.647 430.43Z" fill="#FF8B66"/>
<path d="M421.652 432.848C421.652 432.848 421.744 437.776 422.268 440.147C422.807 442.519 422.792 448.956 417.171 449.341C411.55 449.726 405.082 439.177 405.082 439.177C403.372 434.85 405.929 431.877 405.929 431.877C405.051 429.922 407.361 427.165 407.361 427.165L407.114 423.484C411.226 423.315 409.363 426.718 411.796 431.585C412.381 432.755 414.691 434.449 415.708 435.496C417.078 436.898 418.418 437.914 418.418 437.914C418.418 437.914 418.418 437.914 418.418 437.899C418.495 437.668 419.465 434.588 420.266 433.156C421.097 431.677 421.652 432.848 421.652 432.848Z" fill="#EF6E4B"/>
<path d="M405.682 436.852C405.682 436.852 406.545 434.172 407.392 434.449C407.392 434.449 408.269 435.296 408.192 436.282C408.115 437.268 407.238 438.546 408.531 440.794C409.825 443.043 412.782 433.587 412.782 433.587C411.088 435.219 408.839 431.739 409.132 430.014C409.424 428.289 409.039 427.412 408.531 426.888C408.023 426.364 407.376 427.15 407.376 427.15C407.376 427.15 407.946 427.288 408.254 427.797C408.562 428.305 409.317 430.769 409.009 431.616C408.716 432.463 409.116 430.707 408.223 430.723C407.33 430.723 406.806 431.385 406.806 431.385C406.806 431.385 407.823 431.107 408.008 431.954C408.192 432.786 407.807 434.111 407.807 434.111C407.807 434.111 405.713 432.648 405.682 436.852Z" fill="#EF6E4B"/>
<path d="M418.403 437.899C418.403 437.899 415.6 438.423 416.108 441.133C416.632 443.843 414.691 444.382 414.691 444.382C414.691 444.382 412.797 438.284 415.692 435.466C417.078 436.882 418.403 437.899 418.403 437.899Z" fill="#EF6E4B"/>
<path d="M583.136 325.464C583.136 325.464 570.17 328.42 571.925 339.17C573.003 345.776 576.514 364.133 575.021 369.431C573.527 374.728 577.346 379.21 591.945 373.912C606.544 368.614 614.706 364.164 613.367 360.298C612.042 356.448 583.136 325.464 583.136 325.464Z" fill="#662C33"/>
<path d="M633.51 383.968C633.51 383.968 638.022 394.086 617.848 401.555C597.674 409.039 633.51 383.968 633.51 383.968Z" fill="#F2A668"/>
<path d="M586.509 371.617C586.509 371.617 579.856 372.541 575.637 374.805C571.417 377.069 563.871 386.74 563.871 386.74C563.871 386.74 561.546 399.276 569.122 398.367C576.699 397.443 586.509 371.617 586.509 371.617Z" fill="white"/>
<path d="M545.052 628.613C545.376 629.737 545.945 631.523 546.469 633.233H533.117C534.211 631.446 535.104 629.737 535.489 628.428C536.69 624.455 538.061 619.45 539.477 613.906H548.101C546.454 619.758 545.329 624.439 544.729 626.949C544.76 627.55 544.898 628.043 545.052 628.613Z" fill="#DD8866"/>
<path d="M593.3 613.906H602.694C601.416 621.159 600.538 626.41 600.538 626.41V638.161H589.943C591.329 631.754 593.285 621.898 593.285 617.124C593.285 616.062 593.285 614.984 593.3 613.906Z" fill="#F3A17A"/>
<path d="M538.923 616.092C545.237 591.776 553.06 554.954 554.077 548.856C554.739 544.914 555.324 532.409 556.879 517.055C557.28 499.545 559.297 459.521 569.138 436.79L592.284 437.329C591.345 455.378 608.839 474.844 587.541 495.726C584.769 503.518 575.575 529.945 574.235 541.587C572.664 555.324 570.108 561.407 562.162 576.73C555.293 589.989 550.411 605.451 547.501 616.092H538.923Z" fill="#DD8866"/>
<path d="M584.923 371.987C584.923 371.987 595.133 369.261 603.541 370.77C609.717 371.879 619.773 367.798 625.255 374.713C633.494 385.092 620.096 404.219 613.043 414.137C610.41 417.833 604.866 428.089 603.757 437.914C603.757 437.914 585.154 443.32 569.107 436.297L567.906 413.474C567.906 413.474 556.356 392.069 584.923 371.987Z" fill="#FFB878"/>
<path d="M617.386 515.962C615.907 523.646 613.798 528.79 612.643 535.258C610.964 544.683 615.754 558.327 610.918 573.496C608.623 580.672 604.358 604.388 602.063 617.494H593.285C593.285 617.371 593.285 617.247 593.285 617.124C593.285 585.215 597.689 547.162 597.027 532.701C596.75 526.603 595.718 517.948 594.625 510.079C594.625 510.033 590.451 483.175 587.156 481.219C585.169 480.049 569.138 436.79 569.138 436.79L603.788 438.407C603.788 438.407 623.977 455.178 618.664 485.038C618.664 485.038 618.68 485.346 618.71 485.885C619.557 499.915 618.726 509.001 617.386 515.962Z" fill="#F3A17A"/>
<path d="M546.084 536.197C550.812 547.87 564.472 535.458 579.394 546.315C588.434 552.906 604.111 536.028 616.277 540.694C624.609 543.882 626.949 534.934 626.949 534.934C626.949 534.934 626.041 488.904 620.404 464.71C615.538 443.828 604.111 435.512 604.111 435.512C601.416 436.405 597.828 436.883 593.963 437.114C588.342 437.452 582.135 437.252 577.346 436.96C575.775 436.867 574.358 436.759 573.142 436.667C570.647 436.467 569.092 436.297 569.092 436.297C552.46 456.148 546.084 536.197 546.084 536.197Z" fill="#105E99"/>
<path d="M546.9 643.751C546.9 643.751 547.793 631.754 545.453 628.628C543.112 625.502 536.659 631.538 536.659 631.538L530.915 628.92C530.915 628.92 531.208 632.678 526.557 635.743C521.906 638.807 518.118 637.945 517.825 643.751H546.9Z" fill="#11393D"/>
<path d="M602.325 631.246C602.325 631.246 602.186 627.257 596.658 627.719C591.129 628.181 591.529 632.201 591.529 632.201C591.529 632.201 590.698 631.554 589.974 632.201C589.25 632.848 589.866 638.376 588.465 639.531C587.063 640.701 587.495 643.751 587.495 643.751H603.649C603.649 643.751 604.527 639.824 602.925 638.361C601.308 636.913 605.389 631.677 602.325 631.246Z" fill="#11393D"/>
<path d="M582.49 375.76C582.49 375.76 564.81 407.653 562.331 412.119C559.852 416.585 549.102 418.095 548.456 413.197C547.131 403.357 563.086 394.61 576.391 371.463C576.422 371.386 582.49 375.76 582.49 375.76Z" fill="#DD8866"/>
<path d="M563.532 415.43C563.532 415.43 560.021 411.981 557.11 411.011C554.2 410.056 551.135 409.686 551.135 409.686C551.135 409.686 550.427 410.102 552.875 411.242C555.324 412.381 556.587 414.121 556.587 414.121C556.587 414.121 551.397 414.691 550.504 414.398C549.611 414.106 546.869 412.474 545.422 412.689L548.717 415.769C548.717 415.769 549.626 418.002 551.012 418.633C552.398 419.28 551.998 420.404 554.261 421.375C556.525 422.345 563.594 420.451 563.594 420.451L563.532 415.43Z" fill="#F3A17A"/>
<path d="M562.5 414.922C565.473 415.754 604.435 416.97 609.886 419.45C615.338 421.929 614.398 433.756 614.398 433.756C614.398 433.756 608.962 434.357 591.622 429.891C574.266 425.425 562.008 420.204 562.008 420.204L562.5 414.922Z" fill="#F3A17A"/>
<path d="M628.274 378.979C635.958 381.181 630.753 396.334 627.781 405.251C624.809 414.183 618.11 433.756 615.384 434.003C612.658 434.249 605.959 426.072 605.959 426.072C605.959 426.072 615.138 407.484 616.37 398.798C617.617 390.128 624.809 377.993 628.274 378.979Z" fill="#F3A17A"/>
<path d="M618.679 370.894C618.679 370.894 630.938 372.495 633.51 383.968C633.51 383.968 632.493 386.756 627.843 391.098C623.192 395.441 617.786 395.472 615.877 401.54C615.877 401.54 609.008 381.935 618.679 370.894Z" fill="#FFB878"/>
<path d="M597.089 326.064C597.089 326.064 575.436 325.879 575.975 340.894C576.514 355.925 585.154 368.999 595.549 365.226C608.377 360.591 614.768 328.867 597.089 326.064Z" fill="#F3A17A"/>
<path d="M589.219 345.992C589.45 346.885 589.173 347.747 588.603 347.886C588.033 348.024 587.387 347.424 587.156 346.515C586.925 345.622 587.202 344.76 587.772 344.621C588.342 344.482 589.004 345.098 589.219 345.992Z" fill="#1A4850"/>
<path d="M593.531 348.579C593.886 349.38 593.362 350.381 592.376 350.827C591.375 351.274 590.282 350.981 589.928 350.196C589.574 349.395 590.097 348.394 591.083 347.947C592.084 347.485 593.177 347.778 593.531 348.579Z" fill="#ED7D66"/>
<path d="M589.681 345.591C589.681 345.591 588.557 343.713 587.818 343.897C587.079 344.082 586.324 345.822 586.324 345.822L584.692 345.283L586.124 345.376C586.124 345.376 586.725 343.466 587.818 343.466C588.927 343.466 589.681 345.591 589.681 345.591Z" fill="#1A4850"/>
<path d="M580.642 347.378C580.873 348.271 580.595 349.133 580.026 349.272C579.456 349.411 578.809 348.81 578.578 347.901C578.347 347.008 578.624 346.146 579.194 346.007C579.779 345.869 580.426 346.485 580.642 347.378Z" fill="#1A4850"/>
<path d="M581.104 346.977C581.104 346.977 579.979 345.098 579.24 345.283C578.501 345.468 577.746 347.208 577.746 347.208L576.114 346.669L577.546 346.762C577.546 346.762 578.147 344.852 579.24 344.852C580.349 344.852 581.104 346.977 581.104 346.977Z" fill="#1A4850"/>
<path d="M589.281 340.632C589.158 340.663 589.019 340.632 588.896 340.555C587.664 339.554 586.139 340.217 586.124 340.217C585.908 340.309 585.662 340.217 585.554 340.001C585.462 339.785 585.554 339.539 585.77 339.431C585.847 339.4 587.803 338.553 589.42 339.893C589.604 340.047 589.635 340.309 589.481 340.494C589.435 340.571 589.358 340.617 589.281 340.632Z" fill="#662C33"/>
<path d="M579.594 341.479C579.517 341.495 579.425 341.495 579.333 341.464C577.87 340.879 576.653 341.941 576.591 341.988C576.422 342.142 576.145 342.126 575.991 341.957C575.837 341.787 575.852 341.51 576.022 341.356C576.083 341.295 577.685 339.893 579.641 340.679C579.856 340.771 579.964 341.017 579.887 341.233C579.825 341.356 579.718 341.433 579.594 341.479Z" fill="#662C33"/>
<path d="M581.951 349.749C581.951 349.749 578.47 350.92 579.209 352.029C579.949 353.137 582.474 354.092 582.474 354.092C582.474 354.092 583.229 351.012 581.951 349.749Z" fill="#DD774E"/>
<path d="M591.606 335.658C591.606 335.658 597.92 339.893 600.107 347.362C600.107 347.362 602.078 342.28 604.927 345.222C607.776 348.148 602.571 355.478 602.571 355.478C602.571 355.478 605.543 364.318 608.623 363.44C611.703 362.577 614.152 342.989 610.487 337.783C606.806 332.594 599.46 328.636 591.606 335.658Z" fill="#662C33"/>
<path d="M601.324 352.475C601.139 357.003 597.659 365.858 590.929 365.842C590.929 365.842 593.839 373.419 592.022 376.438C592.022 376.438 593.87 382.89 597.397 382.182C601.462 381.366 607.915 371.232 607.915 371.232C601.955 361.607 603.742 352.521 603.742 352.521C602.448 354.138 601.324 352.475 601.324 352.475Z" fill="#DD8866"/>
<path d="M583.198 357.295C583.198 357.295 585.416 357.557 587.556 356.51C587.556 356.51 587.895 358.466 585.924 358.728C583.953 358.974 583.198 357.295 583.198 357.295Z" fill="#1A4850"/>
<path d="M585.523 331.87C585.523 331.87 581.719 332.424 579.902 335.936C578.224 339.185 579.148 348.949 575.867 351.336C575.606 351.52 575.328 351.659 575.005 351.751C575.005 351.751 573.219 338.846 573.865 334.565C574.512 330.284 582.936 322.676 591.93 324.463C600.954 326.28 585.523 331.87 585.523 331.87Z" fill="#662C33"/>
<path d="M585.523 331.87C585.523 331.87 591.56 347.301 599.414 344.513C607.268 341.726 608.762 344.96 606.914 355.078C605.066 365.211 597.905 375.206 606.036 380.411C614.167 385.616 616.046 373.527 625.101 373.096C625.101 373.096 624.84 368.614 619.219 368.784C613.598 368.953 617.863 350.535 614.152 337.26C610.441 323.985 599.199 319.304 587.187 324.463C575.159 329.652 585.523 331.87 585.523 331.87Z" fill="#662C33"/>
<path d="M577.454 363.856C576.222 361.13 584.153 360.391 585.631 360.883C587.125 361.376 588.357 363.363 588.357 363.363L585.631 363.116C585.631 363.116 587.618 367.09 586.863 367.582C586.124 368.075 585.631 373.773 583.645 375.513C581.658 377.254 578.686 376.253 576.946 374.528C575.221 372.772 577.454 363.856 577.454 363.856Z" fill="#DD8866"/>
<path d="M148.533 449.865H195.118C197.49 449.865 199.476 451.667 199.692 454.023C201.032 468.73 206.991 519.041 228.089 550.55H177.593C177.593 550.55 152.876 539.061 143.959 454.962C143.682 452.252 145.807 449.865 148.533 449.865Z" fill="#4C2028"/>
<path d="M198.059 534.072H274.998C278.555 534.072 281.45 536.952 281.45 540.524V550.55H191.622V540.524C191.607 536.967 194.487 534.072 198.059 534.072Z" fill="#F2A668"/>
<path d="M190.467 547.378H282.575C284.176 547.378 285.47 548.671 285.47 550.273V556.972C285.47 558.573 284.176 559.867 282.575 559.867H190.467C188.866 559.867 187.572 558.573 187.572 556.972V550.273C187.572 548.671 188.866 547.378 190.467 547.378Z" fill="#4C2028"/>
<path d="M232.756 591.037H240.271C241.688 591.037 242.843 589.882 242.843 588.465V555.57H230.184V588.465C230.184 589.882 231.339 591.037 232.756 591.037Z" fill="#4C2028"/>
<path d="M232.618 621.132H240.426V587.098H232.618V621.132Z" fill="#4C2028"/>
<path d="M194.394 636.528C205.729 618.356 232.432 617.863 236.513 617.894C240.594 617.863 267.313 618.356 278.648 636.528H272.703C272.703 636.528 258.966 625.425 236.513 625.24C214.06 625.425 200.323 636.528 200.323 636.528H194.394Z" fill="#4C2028"/>
<path d="M271.163 639.023C271.163 636.374 273.304 634.234 275.953 634.234C278.601 634.234 280.742 636.374 280.742 639.023C280.742 641.672 278.601 643.812 275.953 643.812C273.304 643.812 271.163 641.672 271.163 639.023Z" fill="#4C2028"/>
<path d="M192.3 639.023C192.3 636.374 194.44 634.234 197.089 634.234C199.738 634.234 201.879 636.374 201.879 639.023C201.879 641.672 199.738 643.812 197.089 643.812C194.456 643.812 192.3 641.672 192.3 639.023Z" fill="#4C2028"/>
<path d="M234.049 636.636H238.993L240.425 617.894H232.617L234.049 636.636Z" fill="#4C2028"/>
<path d="M237.761 643.812H235.281C234.45 643.812 233.772 643.135 233.772 642.303V635.743C233.772 634.911 234.45 634.234 235.281 634.234H237.761C238.592 634.234 239.27 634.911 239.27 635.743V642.303C239.27 643.135 238.592 643.812 237.761 643.812Z" fill="#4C2028"/>
<path d="M273.766 436.251C273.766 436.251 283.021 455.917 286.486 460.213C289.951 464.51 292.107 468.976 292.107 468.976L310.125 441.041L315.577 443.027C315.577 443.027 307.877 462.539 304.181 470.47C300.546 478.231 295.911 485.008 291.46 483.853C286.994 482.698 264.356 454.931 264.356 454.931L273.766 436.251Z" fill="#EF6E4B"/>
<path d="M233.218 543.004C233.218 543.004 224.024 547.301 221.837 547.131C198.198 545.345 192.823 525.294 194.887 517.409C200.385 496.265 211.488 487.641 211.488 487.641C214.245 488.55 217.895 489.027 221.837 489.273C227.566 489.612 233.895 489.412 238.777 489.119C240.379 489.012 241.826 488.919 243.058 488.811C245.599 488.611 247.185 488.442 247.185 488.442C250.219 494.309 253.084 507.707 255.332 520.72C255.44 521.398 255.563 522.06 255.671 522.722C257.334 532.547 262.385 540.971 257.965 544.313C249.187 550.95 233.218 543.004 233.218 543.004Z" fill="#0C476B"/>
<path d="M226.01 501.763C248.695 497.22 284.038 499.761 287.795 501.763C292.677 504.365 298.375 524.154 298.775 526.603C300.007 534.01 311.111 585.954 317.717 607.73C318.302 609.64 319.92 612.427 321.721 615.076H305.798C306.414 612.92 307.461 609.655 307.969 607.93C308.138 607.345 308.277 606.837 308.308 606.236C306.598 599.091 300.731 574.697 290.536 555.031C283.637 541.726 280.726 535.227 279.017 524.94C256.472 526.264 221.144 544.344 221.144 544.344C214.091 521.937 226.01 501.763 226.01 501.763Z" fill="#FF8B66"/>
<path d="M268.838 628.135C269.284 630.168 271.009 633.109 272.95 635.835H256.826C257.426 633.71 258.612 630.168 259.09 628.335C262 617.093 264.387 614.183 266.204 583.367C267.19 566.535 266.204 553.815 273.165 545.345C273.165 545.345 246.847 547.378 231.416 541.603L241.641 516.454C264.326 511.911 273.627 521.783 279.772 521.875C289.612 522.045 290.506 538.769 288.319 549.102C287.21 554.338 268.052 624.655 268.838 628.135Z" fill="#EF6E4B"/>
<path d="M226.01 501.763C248.695 497.22 284.038 499.761 287.795 501.763C292.677 504.365 282.159 521.906 276.907 521.305C254.362 522.63 248.156 541.171 221.159 544.328C221.159 544.328 216.278 534.95 218.418 522.784C220.728 509.725 226.01 501.763 226.01 501.763Z" fill="#FF8B66"/>
<path d="M224.594 499.222C224.594 499.222 256.117 494.248 279.048 500.207C279.048 500.207 261.369 520.335 267.344 545.622C267.344 545.622 267.097 548.194 261.861 550.411C256.625 552.629 243.228 547.147 221.837 547.131C207.453 547.131 216.478 504.689 224.594 499.222Z" fill="#0C476B"/>
<path d="M256.472 643.812C256.472 643.812 255.578 631.785 257.935 628.643C260.291 625.502 266.743 631.554 266.743 631.554L272.503 628.936C272.503 628.936 272.21 632.694 276.876 635.774C281.543 638.854 285.331 637.976 285.624 643.812H256.472Z" fill="#105E99"/>
<path d="M302.333 619.172C302.333 619.172 305.166 607.453 308.37 605.189C311.573 602.925 315.869 610.672 315.869 610.672L322.153 609.948C322.153 609.948 320.72 613.444 324.216 617.802C327.712 622.16 331.593 622.483 330.084 628.135L302.333 619.172Z" fill="#105E99"/>
<path d="M262.647 470.917C254.331 477.092 250.296 495.356 250.296 495.356C228.659 505.644 204.728 495.356 204.728 495.356C211.627 486.317 214.26 464.002 214.26 464.002C214.26 464.002 213.69 442.935 218.942 435.25C221.544 431.446 225.687 428.197 231.2 426.072C236.837 423.916 243.89 422.946 252.206 423.746C259.567 424.486 264.942 426.595 268.622 428.751C273.181 431.369 275.167 433.987 275.167 433.987C278.817 445.014 270.948 464.741 262.647 470.917Z" fill="#105E99"/>
<path d="M269.161 436.39C266.897 444.429 259.382 455.47 256.749 454.593C253.592 453.545 245.676 441.456 241.287 435.296C240.825 434.665 240.44 434.111 240.055 433.618C237.006 429.552 232.971 427.057 231.293 426.118C231.246 426.103 231.231 426.072 231.2 426.056C231.216 426.041 231.262 426.041 231.277 426.041C236.883 423.9 243.936 422.93 252.206 423.746C259.567 424.486 264.942 426.595 268.622 428.751C268.976 429.213 269.269 429.66 269.469 430.153C270.101 431.6 269.9 433.849 269.161 436.39Z" fill="#FF8B66"/>
<path d="M227.165 429.798C235.127 427.92 250.219 468.468 250.219 468.468L288.642 451.851L292.354 456.564C292.354 456.564 259.382 480.603 249.957 483.837C240.533 487.056 232.848 467.482 226.657 456.071C220.466 444.675 218.726 431.785 227.165 429.798Z" fill="#FF8B66"/>
<path d="M285.177 456.24C285.839 455.085 288.488 445.491 289.15 444.182C289.813 442.858 294.941 432.771 295.434 433.11C295.926 433.433 295.603 435.589 292.631 441.872C292.631 441.872 298.575 436.421 300.562 434.927C302.548 433.433 301.886 435.912 300.885 436.913C299.9 437.899 294.941 443.197 294.941 443.197C294.941 443.197 302.379 439.732 303.365 439.562C304.35 439.393 303.688 440.548 301.547 441.872C299.391 443.197 296.419 445.507 296.419 445.507C296.419 445.507 303.688 444.013 304.181 444.352C304.674 444.675 298.56 447 297.574 448.155C296.589 449.31 294.433 455.101 291.46 457.087C288.473 459.058 285.177 456.24 285.177 456.24Z" fill="#FF8B66"/>
<path d="M269.161 436.39C265.434 438.192 260.368 439.701 259.382 439.963C258.012 440.332 256.148 444.798 256.148 444.798C256.148 444.798 254.3 441.21 252.822 440.224C251.882 439.608 246.261 437.606 241.272 435.312C240.81 434.68 240.425 434.126 240.04 433.633C236.991 429.568 232.956 427.073 231.277 426.133C231.277 426.118 231.262 426.087 231.262 426.056C236.867 423.916 243.921 422.946 252.19 423.762C259.552 424.501 264.926 426.611 268.607 428.767C268.961 429.229 269.254 429.675 269.454 430.168C270.101 431.6 269.9 433.849 269.161 436.39Z" fill="#EF6E4B"/>
<path d="M277.739 417.155C274.182 429.983 275.029 436.713 268.283 433.956C261.538 431.2 250.666 418.88 232.632 425.563C232.632 425.563 228.936 419.172 236.544 415.707C244.152 412.242 241.965 399.06 241.965 399.06L274.289 387.649C274.259 387.649 284.253 393.608 277.739 417.155Z" fill="#CE364C"/>
<path d="M265.342 423.654C272.903 424.855 276.076 420.019 277.631 410.795C277.801 409.794 277.908 408.747 277.985 407.684C278.232 404.789 278.109 401.709 277.616 398.613C275.337 384.107 254.623 388.326 254.623 388.326C238.192 394.301 252.19 421.575 265.342 423.654Z" fill="#FF8B66"/>
<path d="M266.096 405.605C266.05 406.514 266.466 407.268 267.036 407.299C267.606 407.33 268.114 406.622 268.175 405.713C268.222 404.804 267.806 404.05 267.236 404.019C266.651 404.003 266.143 404.712 266.096 405.605Z" fill="#1A4850"/>
<path d="M262.216 409.239C262.031 410.071 262.709 410.933 263.74 411.18C264.772 411.426 265.773 410.949 265.958 410.117C266.158 409.286 265.465 408.423 264.433 408.177C263.402 407.946 262.401 408.423 262.216 409.239Z" fill="#ED7D66"/>
<path d="M275.953 409.609C276.076 410.302 276.769 410.779 277.631 410.795C277.801 409.794 277.908 408.747 277.985 407.684C277.847 407.684 277.708 407.699 277.57 407.715C276.507 407.93 275.799 408.762 275.953 409.609Z" fill="#ED7D66"/>
<path d="M265.342 405.667C265.342 405.667 266.066 403.649 266.805 403.696C267.544 403.742 268.607 405.266 268.607 405.266L270.07 404.45L268.714 404.804C268.714 404.804 267.79 403.095 266.728 403.28C265.681 403.495 265.342 405.667 265.342 405.667Z" fill="#1A4850"/>
<path d="M274.643 405.359C274.597 406.267 275.013 407.022 275.583 407.053C276.153 407.084 276.661 406.375 276.723 405.467C276.769 404.558 276.353 403.803 275.783 403.773C275.213 403.742 274.705 404.45 274.643 405.359Z" fill="#1A4850"/>
<path d="M273.827 405.42C273.827 405.42 274.551 403.403 275.29 403.449C276.029 403.495 277.092 405.02 277.092 405.02L278.555 404.204L277.2 404.558C277.2 404.558 276.276 402.849 275.213 403.033C274.151 403.234 273.827 405.42 273.827 405.42Z" fill="#1A4850"/>
<path d="M264.818 400.847C264.942 400.862 265.08 400.8 265.173 400.693C266.158 399.507 267.744 399.846 267.76 399.861C267.991 399.907 268.206 399.769 268.253 399.553C268.299 399.322 268.16 399.106 267.945 399.06C267.868 399.045 265.835 398.598 264.526 400.184C264.372 400.369 264.402 400.631 264.587 400.77C264.649 400.816 264.741 400.847 264.818 400.847Z" fill="#8B383E"/>
<path d="M274.259 399.846C274.351 399.846 274.428 399.83 274.505 399.784C275.799 398.952 277.169 399.738 277.231 399.769C277.431 399.892 277.677 399.815 277.8 399.615C277.924 399.414 277.847 399.168 277.662 399.045C277.585 398.999 275.799 397.951 274.058 399.06C273.858 399.183 273.812 399.445 273.935 399.63C273.997 399.784 274.12 399.846 274.259 399.846Z" fill="#8B383E"/>
<path d="M272.503 408.1C272.503 408.1 276.045 408.577 275.552 409.778C275.059 410.98 272.796 412.35 272.796 412.35C272.796 412.35 271.517 409.547 272.503 408.1Z" fill="#DD774E"/>
<path d="M255.47 414.429C256.487 418.726 260.383 422.576 266.82 423.823C266.82 423.823 258.72 426.518 256.163 433.541C256.163 433.541 249.541 436.759 243.951 425.179C243.951 425.179 249.141 423.007 251.528 420.189C252.822 418.664 253.16 414.907 253.16 414.907C254.7 416.231 255.47 414.429 255.47 414.429Z" fill="#EF6E4B"/>
<path d="M244.121 412.243C246.677 416.354 251.528 420.204 251.528 420.204C253.469 419.126 254.346 415.384 254.346 415.384C252.113 415.415 249.588 409.779 250.666 408.146C252.006 406.113 253.576 406.991 254.593 407.977C254.593 407.977 258.304 405.79 259.074 400.985C259.336 399.337 256.795 394.394 262.478 392.762C268.16 391.114 277.693 392.592 277.693 392.592C277.693 392.592 276.907 388.095 270.655 385.154C263.063 381.581 247.94 382.166 243.474 392.839C241.072 398.66 241.087 407.376 244.121 412.243Z" fill="#CE364C"/>
<path d="M275.013 415.045C275.013 415.045 271.918 415.661 269.315 415.784C269.315 415.784 268.699 417.648 270.932 418.51C273.15 419.388 275.013 415.045 275.013 415.045Z" fill="#1A4850"/>
<path d="M262.616 390.375C262.616 390.375 260.383 427.196 250.466 430.291C240.548 433.387 234.973 422.36 232.74 425.456C232.74 425.456 232.74 422.853 236.451 419.126C240.163 415.415 241.41 407.73 241.903 400.169C242.411 392.608 262.616 390.375 262.616 390.375Z" fill="#CE364C"/>
<path d="M261.122 390.759C261.122 390.759 263.355 392.992 264.464 397.705C264.464 397.705 276.738 395.841 279.217 397.582C279.217 397.582 278.601 388.157 268.561 384.815C258.52 381.458 261.122 390.759 261.122 390.759Z" fill="#CE364C"/>
<path d="M228.397 427.566C228.397 427.566 218.973 433.756 217.741 441.949C216.509 450.127 219.481 459.305 219.481 459.305C219.481 459.305 221.221 447.909 227.658 449.141C234.111 450.373 246.492 455.594 246.492 455.594C246.492 455.594 235.836 430.291 228.397 427.566Z" fill="#105E99"/>
<path d="M309.956 442.365C309.956 442.365 308.138 436.913 308.462 435.419C308.785 433.926 309.124 426.487 309.124 426.487C309.124 426.487 310.618 427.981 310.448 428.797C310.279 429.629 310.941 433.417 310.941 433.417C310.941 433.417 316.886 428.951 317.394 427.966C317.887 426.98 322.014 423.5 322.676 424.162C323.338 424.824 317.548 430.445 317.717 431.261C317.887 432.078 326.649 426.303 328.79 426.965C330.946 427.627 322.399 429.968 320.921 432.432C320.736 432.74 325.941 431.508 327.235 431.261C328.544 431.015 329.16 431.446 329.16 431.693C329.16 431.939 322.399 434.11 321.968 434.665C321.537 435.219 326.187 432.986 327.727 433.171C329.283 433.356 325.864 434.665 324.817 435.219C320.536 437.452 317.255 442.226 315.761 443.15C314.268 444.074 309.694 442.288 309.694 442.288" fill="#EF6E4B"/>
<path d="M341.403 485.731H329.19V638.515H341.403V485.731Z" fill="#662C33"/>
<path d="M362.932 496.788H307.661C302.856 496.788 298.96 492.892 298.96 488.087V485.747H371.633V488.087C371.648 492.892 367.737 496.788 362.932 496.788Z" fill="#662C33"/>
<path d="M445.014 480.495H225.348C224.501 480.495 223.824 481.173 223.824 482.02V489.443C223.824 490.29 224.501 490.967 225.348 490.967H445.014C445.999 490.967 446.785 490.166 446.785 489.196V482.266C446.785 481.296 445.999 480.495 445.014 480.495Z" fill="#FFB878"/>
<path d="M390.205 638.16H280.403C279.187 638.16 278.201 639.146 278.201 640.363V641.579C278.201 642.796 279.187 643.781 280.403 643.781H390.205C391.422 643.781 392.407 642.796 392.407 641.579V640.363C392.392 639.131 391.422 638.16 390.205 638.16Z" fill="#662C33"/>
<path d="M356.048 643.812H314.576V641.009C314.576 636.713 318.056 633.232 322.353 633.232H348.271C352.568 633.232 356.048 636.713 356.048 641.009V643.812Z" fill="#662C33"/>
<path d="M488.519 643.812C488.734 634.68 485.454 625.794 485.454 625.794C485.454 625.794 476.784 621.482 474.828 628.397C472.872 635.312 463.894 636.682 459.32 637.175C455.979 637.529 455.517 641.903 455.517 643.828H488.519V643.812Z" fill="#0C2B2D"/>
<path d="M533.071 502.748L527.866 505.12C527.866 505.12 481.774 508.508 459.413 522.845C450.373 528.636 472.041 628.613 472.041 628.613H488.55L482.682 545.299C482.682 545.299 506.953 545.545 522.845 535.258C541.526 523.123 533.071 502.748 533.071 502.748Z" fill="#6097B2"/>
<path d="M430.969 643.812C431.185 634.68 427.904 625.794 427.904 625.794C427.904 625.794 419.234 621.482 417.278 628.397C415.323 635.312 406.344 636.682 401.771 637.175C398.429 637.529 397.967 641.903 397.967 643.828H430.969V643.812Z" fill="#11393D"/>
<path d="M520.967 502.748L470.301 505.12C470.301 505.12 424.208 508.508 401.848 522.845C392.808 528.636 414.476 628.613 414.476 628.613H430.984L425.117 545.299C425.117 545.299 486.255 543.928 500.423 538.307C526.68 527.866 520.967 502.748 520.967 502.748Z" fill="#8BBDDB"/>
<path d="M421.698 404.342C421.698 404.342 419.85 407.484 418.603 406.822C417.371 406.16 420.451 409.963 421.698 409.794C422.946 409.64 421.698 404.342 421.698 404.342Z" fill="#DD774E"/>
<path d="M421.128 388.419C423.823 378.994 445.337 386.432 446.646 392.7C447.94 398.968 448.309 419.065 434.188 422.514C419.404 426.133 418.68 396.981 421.128 388.419Z" fill="#FF8B66"/>
<path d="M429.398 409.024C429.398 409.024 425.933 420.959 431.462 422.822C436.99 424.67 446.446 406.929 429.398 409.024Z" fill="#EF6E4B"/>
<path d="M431.816 420.451C431.816 420.451 433.156 425.872 437.114 431.631C437.114 431.631 446.877 433.31 457.38 424.178C457.38 424.178 448.848 422.576 446.061 413.567L444.952 412.412C434.834 411.688 431.816 420.451 431.816 420.451Z" fill="#FF8B66"/>
<path d="M436.143 378.701C460.722 380.272 455.455 411.257 446.076 413.552C434.141 416.478 429.398 409.008 429.398 409.008C430.445 406.945 429.398 400.924 427.227 401.278C425.055 401.632 425.271 403.48 425.271 403.48C422.283 397.104 421.883 392.792 421.975 390.498C419.896 391.083 425.502 378.024 436.143 378.701Z" fill="#0C476B"/>
<path d="M443.828 379.225C441.934 378.655 440.24 378.44 438.731 378.409C437.021 378.101 435.065 377.916 432.755 377.916C417.879 377.916 408.624 397.089 425.81 400.4C435.127 402.186 441.179 397.628 444.783 393.054C449.11 396.997 453.068 399.676 453.9 397.258C455.902 391.453 450.943 381.381 443.828 379.225Z" fill="#0C476B"/>
<path d="M423.207 432.632C440.471 415.276 476.183 419.696 487.487 426.811C506.691 438.915 535.504 487.04 535.504 502.748C535.504 502.748 531.793 508.369 510.88 510.587C493.401 512.45 468.422 507.368 468.422 507.368C468.422 507.368 464.757 492.877 451.513 482.574C430.23 466.05 416.108 439.762 423.207 432.632Z" fill="#F24052"/>
<path d="M436.143 424.84C436.143 424.84 445.075 413.444 459.444 413.69C473.827 413.937 480.264 425.348 474.32 429.552C468.376 433.772 447.047 422.114 436.143 424.84Z" fill="#CE364C"/>
<path d="M421.852 435.42C427.473 433.433 436.729 443.027 438.715 447.647C440.702 452.267 407.638 488.303 393.763 488.303C379.887 488.303 377.562 443.351 381.535 439.377C385.508 435.404 390.128 434.757 393.439 441.687C396.75 448.633 399.722 461.523 399.722 461.523L421.852 435.42Z" fill="#CE364C"/>
<path d="M533.887 534.072H456.949C453.391 534.072 450.496 536.952 450.496 540.524V550.55H540.324V540.524C540.34 536.967 537.46 534.072 533.887 534.072Z" fill="#FFB878"/>
<path d="M541.479 547.378H449.372C447.77 547.378 446.477 548.671 446.477 550.273V556.972C446.477 558.573 447.77 559.867 449.372 559.867H541.479C543.081 559.867 544.375 558.573 544.375 556.972V550.273C544.375 548.671 543.081 547.378 541.479 547.378Z" fill="#662C33"/>
<path d="M499.191 591.037H491.676C490.259 591.037 489.104 589.882 489.104 588.465V555.57H501.763V588.465C501.763 589.882 500.608 591.037 499.191 591.037Z" fill="#662C33"/>
<path d="M499.33 587.094H491.522V621.128H499.33V587.094Z" fill="#662C33"/>
<path d="M537.552 636.528C526.218 618.356 499.514 617.863 495.418 617.894C491.337 617.863 464.618 618.356 453.299 636.528H459.243C459.243 636.528 472.98 625.425 495.433 625.24C517.887 625.425 531.623 636.528 531.623 636.528H537.552Z" fill="#662C33"/>
<path d="M455.994 643.812C458.639 643.812 460.783 641.668 460.783 639.023C460.783 636.378 458.639 634.234 455.994 634.234C453.349 634.234 451.205 636.378 451.205 639.023C451.205 641.668 453.349 643.812 455.994 643.812Z" fill="#662C33"/>
<path d="M539.631 639.023C539.631 636.374 537.491 634.234 534.842 634.234C532.193 634.234 530.053 636.374 530.053 639.023C530.053 641.672 532.193 643.812 534.842 643.812C537.491 643.812 539.631 641.672 539.631 639.023Z" fill="#662C33"/>
<path d="M497.897 636.636H492.954L491.522 617.894H499.33L497.897 636.636Z" fill="#662C33"/>
<path d="M494.186 643.812H496.665C497.497 643.812 498.175 643.135 498.175 642.303V635.743C498.175 634.911 497.497 634.234 496.665 634.234H494.186C493.354 634.234 492.677 634.911 492.677 635.743V642.303C492.677 643.135 493.354 643.812 494.186 643.812Z" fill="#662C33"/>
<path d="M573.434 449.865H526.849C524.478 449.865 522.491 451.667 522.276 454.023C520.936 468.73 514.976 519.041 493.878 550.55H544.375C544.375 550.55 569.092 539.061 578.008 454.962C578.285 452.252 576.176 449.865 573.434 449.865Z" fill="#662C33"/>
<path d="M109.602 414.799C102.872 418.387 95.1104 439.377 114.607 460.86L109.602 414.799Z" fill="#6097B2"/>
<path d="M200.385 480.665C197.582 482.343 169.308 477.554 169.308 477.554L170.955 465.496C170.955 465.496 190.128 464.51 193.763 465.496C197.413 466.481 200.385 480.665 200.385 480.665Z" fill="#EF6E4B"/>
<path d="M166.597 643.812C166.382 634.68 169.662 625.794 169.662 625.794C169.662 625.794 178.332 621.482 180.288 628.397C182.244 635.312 191.222 636.682 195.796 637.175C199.137 637.529 199.599 641.903 199.599 643.828H166.597V643.812Z" fill="#6097B2"/>
<path d="M122.06 502.748L127.266 505.12C127.266 505.12 173.358 508.508 195.719 522.845C204.758 528.636 183.091 628.612 183.091 628.612H166.582L172.449 545.298C172.449 545.298 148.179 545.545 132.286 535.258C113.606 523.122 122.06 502.748 122.06 502.748Z" fill="#0C2B2D"/>
<path d="M224.147 643.812C223.931 634.68 227.212 625.794 227.212 625.794C227.212 625.794 235.882 621.482 237.838 628.397C239.793 635.312 248.772 636.682 253.345 637.175C256.687 637.529 257.149 641.903 257.149 643.828H224.147V643.812Z" fill="#8BBDDB"/>
<path d="M134.149 502.748L184.815 505.12C184.815 505.12 230.908 508.508 253.268 522.845C262.308 528.636 240.64 628.612 240.64 628.612H224.132L229.999 545.298C229.999 545.298 168.861 543.928 154.693 538.307C128.436 527.866 134.149 502.748 134.149 502.748Z" fill="#11393D"/>
<path d="M154.462 385.924C154.462 385.924 163.163 384.769 162.624 386.771C162.085 388.788 154.77 388.603 154.77 388.603C154.77 388.603 153.861 387.572 154.462 385.924Z" fill="#DD774E"/>
<path d="M159.205 368.645C156.51 359.22 134.996 366.659 133.687 372.926C132.394 379.194 132.024 399.291 146.146 402.741C160.93 406.36 161.654 377.223 159.205 368.645Z" fill="#FF8B66"/>
<path d="M150.935 389.266C150.935 389.266 154.4 401.201 148.872 403.064C143.343 404.897 133.888 387.171 150.935 389.266Z" fill="#EF6E4B"/>
<path d="M148.518 400.692C148.518 400.692 147.039 408.654 146.993 415.861C146.993 415.861 141.957 420.481 131.439 411.334C131.439 411.334 135.15 399.368 134.273 393.809L135.381 392.654C145.499 391.93 148.518 400.692 148.518 400.692Z" fill="#FF8B66"/>
<path d="M160.622 367.244C160.622 367.244 163.071 367.167 162.208 366.119C161.346 365.072 154.816 358.265 144.19 358.943C119.612 360.514 124.879 391.499 134.257 393.793C146.192 396.719 150.935 389.25 150.935 389.25C149.888 387.187 150.935 381.165 153.107 381.519C155.278 381.874 155.063 383.722 155.063 383.722C158.05 377.346 158.451 373.034 158.358 370.739C160.422 371.294 162.378 371.694 163.24 371.54C165.473 371.171 160.622 367.244 160.622 367.244Z" fill="#FFB878"/>
<path d="M183.337 486.255C181.381 468.283 184.184 424.84 168.122 415.538C150.381 405.251 120.135 406.637 109.602 414.814C100.485 421.898 109.586 464.341 115.577 490.243C119.935 509.062 115.577 518.518 115.577 518.518C115.577 518.518 118.996 529.206 139.755 531.223C165.673 533.749 191.761 518.872 196.504 509.278C196.504 509.263 185.339 504.642 183.337 486.255Z" fill="#8BBDDB"/>
<path d="M152.306 408.269C152.306 408.269 141.695 401.247 129.591 402.156L124.879 408.808C124.879 408.808 125.71 411.965 152.922 410.379L152.306 408.269Z" fill="#6097B2"/>
<path d="M168.122 415.538C160.329 413.474 159.005 432.878 163.825 444.398C168.645 455.917 192.777 482.297 200.385 480.68C207.992 479.063 203.511 468.745 196.504 459.305C189.482 449.865 179.148 418.449 168.122 415.538Z" fill="#FF8B66"/>
<path d="M164.518 413.675C164.518 413.675 158.82 420.805 158.451 428.443C158.081 436.082 162.054 448.047 174.282 461.723C174.282 461.723 194.533 457.719 194.487 448.063C194.487 448.063 185 434.111 180.888 427.997C176.777 421.868 171.987 416.416 164.518 413.675Z" fill="#6097B2"/>
<path d="M133.395 534.072H210.333C213.891 534.072 216.786 536.952 216.786 540.524V550.55H126.958V540.524C126.958 536.967 129.837 534.072 133.395 534.072Z" fill="#FFB878"/>
<path d="M125.818 547.378H217.925C219.527 547.378 220.821 548.671 220.821 550.273V556.972C220.821 558.573 219.527 559.867 217.925 559.867H125.818C124.216 559.867 122.923 558.573 122.923 556.972V550.273C122.923 548.671 124.216 547.378 125.818 547.378Z" fill="#662C33"/>
<path d="M168.106 591.037H175.622C177.038 591.037 178.193 589.882 178.193 588.465V555.57H165.535V588.465C165.535 589.882 166.69 591.037 168.106 591.037Z" fill="#662C33"/>
<path d="M167.964 621.132H175.771V587.098H167.964V621.132Z" fill="#662C33"/>
<path d="M129.745 636.528C141.079 618.356 167.783 617.863 171.879 617.894C175.96 617.863 202.679 618.356 213.998 636.528H208.054C208.054 636.528 194.317 625.425 171.864 625.24C149.411 625.425 135.674 636.528 135.674 636.528H129.745Z" fill="#662C33"/>
<path d="M206.514 639.023C206.514 636.374 208.655 634.234 211.303 634.234C213.952 634.234 216.093 636.374 216.093 639.023C216.093 641.672 213.952 643.812 211.303 643.812C208.655 643.812 206.514 641.672 206.514 639.023Z" fill="#662C33"/>
<path d="M132.44 643.812C135.085 643.812 137.229 641.668 137.229 639.023C137.229 636.378 135.085 634.234 132.44 634.234C129.795 634.234 127.651 636.378 127.651 639.023C127.651 641.668 129.795 643.812 132.44 643.812Z" fill="#662C33"/>
<path d="M169.4 636.636H174.343L175.776 617.894H167.968L169.4 636.636Z" fill="#662C33"/>
<path d="M173.111 643.812H170.632C169.8 643.812 169.123 643.135 169.123 642.303V635.743C169.123 634.911 169.8 634.234 170.632 634.234H173.111C173.943 634.234 174.621 634.911 174.621 635.743V642.303C174.605 643.135 173.943 643.812 173.111 643.812Z" fill="#662C33"/>
<path d="M93.863 449.865H140.448C142.82 449.865 144.806 451.667 145.022 454.023C146.362 468.73 152.321 519.041 173.419 550.55H122.923C122.923 550.55 98.2058 539.061 89.2892 454.962C88.9966 452.252 91.1218 449.865 93.863 449.865Z" fill="#662C33"/>
<path d="M60.6452 615.492C60.6452 615.492 56.8722 607.453 62.2776 603.187C67.683 598.921 78.0164 592.7 75.229 589.912C72.4416 587.125 69.8236 593.685 65.8812 591.884C61.9388 590.082 63.4172 568.429 68.1758 562.362C72.9344 556.294 76.8614 552.691 73.4272 548.594C69.9776 544.498 66.8668 557.126 62.2776 554.492C57.6884 551.874 70.3164 534.164 67.3596 525.14C64.4028 516.116 56.5334 517.44 57.365 524.154C58.1812 530.884 58.52 545.145 54.4082 550.396C50.3118 555.647 39.809 537.445 39.809 547.285C39.809 557.126 49.4802 564.672 49.973 578.116C50.4658 591.56 51.9442 595.01 47.0162 592.053C42.1036 589.096 37.345 592.869 41.7648 597.304C46.1846 601.724 51.1126 608.777 49.3108 614.029L60.6452 615.492Z" fill="#4CA5A2"/>
<path d="M59.0898 614.737C59.0898 614.737 53.8076 601.832 64.8802 592.007C75.9528 582.166 78.9712 568.83 74.1818 566.643C69.4078 564.456 68.8996 574.944 65.373 578.455C61.8464 581.951 58.5816 571.017 59.8444 565.334C61.1072 559.651 69.9006 550.904 64.372 544.559C58.8434 538.215 58.8434 551.335 55.825 554.831C52.8066 558.327 47.0162 545.437 48.279 539.092C49.5418 532.748 51.051 519.196 44.7524 522.045C38.4538 524.894 38.2074 539.092 43.7514 547.193C49.28 555.278 53.3148 561.838 52.052 566.874C50.7892 571.91 48.279 571.679 44.7524 566.212C41.2258 560.745 36.6982 559.651 36.6982 566.874C36.6982 574.081 56.0714 592.453 51.7902 614.968L59.0898 614.737Z" fill="#68BCBC"/>
<path d="M55.2398 612.874C55.2398 612.874 52.283 597.458 54.747 584.676C57.211 571.879 56.8722 562.547 55.0704 559.42" stroke="#4CA5A2" stroke-width="1.1938" stroke-miterlimit="10" stroke-linecap="round"/>
<path d="M41.2566 641.564L38.9004 616.431H71.2558L68.8996 641.564H41.2566Z" fill="#CE364C"/>
<path d="M37.3142 617.956L36.729 611.611H73.4272L72.842 617.956H37.3142Z" fill="#F24052"/>
<path d="M490.829 211.812L488.303 211.319V214.491V217.848L458.181 217.017L490.398 223.3L492.923 223.793V220.605V217.248L523.061 218.095L490.829 211.812Z" fill="#FFB878"/>
<path d="M248.171 211.812L245.645 211.319V214.491V217.848L215.523 217.017L247.74 223.3L250.265 223.793V220.605V217.248L280.388 218.095L248.171 211.812Z" fill="#FFB878"/>
<path d="M458.982 135.967L461.122 134.534L458.874 132.286L456.502 129.914L478.401 109.201L451.174 127.543L449.033 128.99L451.282 131.239L453.653 133.61L431.754 154.323L458.982 135.967Z" fill="#FFB878"/>
<path d="M279.587 299.13L277.446 300.577L279.695 302.826L282.066 305.197L260.168 325.91L287.395 307.553L289.535 306.121L287.287 303.873L284.915 301.501L306.814 280.788L279.587 299.13Z" fill="#FFB878"/>
<path d="M280.711 137.799L282.96 135.551L285.347 133.179L306.044 155.078L287.703 127.851L286.271 125.726L284.022 127.959L281.651 130.346L260.938 108.447L279.279 135.659L280.711 137.799Z" fill="#FFB878"/>
<path d="M457.857 297.297L455.609 299.545L453.237 301.932L432.524 280.034L450.866 307.245L452.298 309.386L454.546 307.138L456.933 304.766L477.631 326.665L459.29 299.438L457.857 297.297Z" fill="#FFB878"/>
<path d="M368.984 93.9092L369.831 63.7868L363.548 96.0036L363.055 98.5292H366.227H369.585L368.753 128.667L375.021 96.4348L375.514 93.9092H372.341H368.984Z" fill="#FFB878"/>
<path d="M448.356 217.741C448.356 172.08 409.64 135.443 363.255 138.893C324.17 141.788 292.785 173.62 290.367 212.736C288.935 236.113 297.651 257.442 312.543 272.78C319.827 280.28 324.863 289.689 327.188 299.884H411.396C413.706 289.705 418.695 280.311 425.979 272.826C439.824 258.597 448.356 239.177 448.356 217.741Z" fill="#FFB878"/>
<path d="M382.582 299.884C382.582 299.884 384.938 267.005 402.233 245.969" stroke="#F2A668" stroke-width="3" stroke-miterlimit="10" stroke-linecap="round"/>
<path d="M356.002 299.884C356.002 299.884 353.646 267.005 336.351 245.969" stroke="#F2A668" stroke-width="3" stroke-miterlimit="10" stroke-linecap="round"/>
<path d="M340.54 252.067H351.443L354.446 240.841L359.713 261.631L364.903 244.429L369.169 258.812L374.081 245.969L378.193 262.909L384.091 236.221L386.155 252.067H397.582" stroke="#F2A668" stroke-width="3" stroke-miterlimit="10" stroke-linecap="round" stroke-linejoin="round"/>
<path d="M384.846 346.977C384.846 352.86 377.87 357.634 369.277 357.634C360.683 357.634 353.707 352.86 353.707 346.977C353.707 341.095 360.683 336.321 369.277 336.321C377.885 336.321 384.846 341.095 384.846 346.977Z" fill="#0C476B"/>
<path d="M347.855 352.752H390.729C397.258 350.088 401.386 346.223 401.386 341.926C401.386 333.872 387.017 327.342 369.307 327.342C351.582 327.342 337.229 333.872 337.229 341.926C337.198 346.223 341.326 350.073 347.855 352.752Z" fill="#105E99"/>
<path d="M405.975 345.792H332.609C331.177 345.792 329.806 344.406 329.575 342.665L323.693 299.977C323.369 297.667 324.478 295.772 326.172 295.772H412.412C414.106 295.772 415.215 297.667 414.891 299.977L409.009 342.665C408.762 344.406 407.407 345.792 405.975 345.792Z" fill="#0C476B"/>
<path d="M324.031 305.921L368.707 300.192" stroke="#105E99" stroke-width="3" stroke-miterlimit="10" stroke-linecap="round" stroke-linejoin="round"/>
<path d="M325.571 316.116L414.938 304.674" stroke="#105E99" stroke-width="3" stroke-miterlimit="10" stroke-linecap="round" stroke-linejoin="round"/>
<path d="M327.111 326.326L412.766 315.361" stroke="#105E99" stroke-width="3" stroke-miterlimit="10" stroke-linecap="round" stroke-linejoin="round"/>
<path d="M328.667 336.136L411.365 325.541" stroke="#105E99" stroke-width="3" stroke-miterlimit="10" stroke-linecap="round" stroke-linejoin="round"/>
<path d="M370.016 341.033L409.933 335.935" stroke="#105E99" stroke-width="3" stroke-miterlimit="10" stroke-linecap="round" stroke-linejoin="round"/>
</g>
<defs>
<clipPath id="clip0_4_3074">
<rect width="770" height="770" fill="white"/>
</clipPath>
</defs>
</svg>
