<svg width="190" height="219" viewBox="0 0 190 219" fill="none" xmlns="http://www.w3.org/2000/svg">
<path d="M21.3419 98.5413C23.0461 96.8371 23.046 94.119 21.3634 92.4148C19.6808 90.7322 16.9412 90.7322 15.2585 92.4148L15.2369 92.4364C13.5543 94.119 13.5543 96.8586 15.2369 98.5413C16.9196 100.245 19.6592 100.245 21.3419 98.5413Z" fill="#4F4F4F" fill-opacity="0.3"/>
<path d="M5.61785 114.289C7.32205 112.584 7.32204 109.866 5.63941 108.162C3.95679 106.479 1.21713 106.479 -0.465495 108.162L-0.487055 108.184C-2.16968 109.866 -2.16968 112.606 -0.487055 114.289C1.19557 115.971 3.93523 115.971 5.61785 114.289Z" fill="#4F4F4F" fill-opacity="0.3"/>
<path d="M37.093 82.8146C37.8912 82.0164 38.3658 80.8947 38.3658 79.7729C38.3658 78.6296 37.9128 77.5295 37.093 76.7313C36.2949 75.9331 35.1731 75.4585 34.0514 75.4585C32.908 75.4585 31.8079 75.9116 31.0097 76.7313C30.2115 77.5295 29.7369 78.6512 29.7369 79.7729C29.7369 80.9162 30.1899 82.0164 31.0097 82.8146C31.8079 83.6128 32.9296 84.0873 34.0514 84.0873C35.1731 84.0658 36.2733 83.6128 37.093 82.8146Z" fill="#4F4F4F" fill-opacity="0.3"/>
<path d="M52.8171 67.0885C53.6152 66.2903 54.0898 65.1686 54.0898 64.0468C54.0898 62.9035 53.6368 61.8033 52.8171 61.0052C52.0189 60.207 50.8972 59.7324 49.7754 59.7324C48.6321 59.7324 47.5319 60.1854 46.7337 61.0052C45.9356 61.8033 45.461 62.9251 45.461 64.0468C45.461 65.1902 45.914 66.2903 46.7337 67.0885C47.5319 67.8867 48.6537 68.3613 49.7754 68.3613C50.8972 68.3397 52.0189 67.8867 52.8171 67.0885Z" fill="#4F4F4F" fill-opacity="0.3"/>
<path d="M84.2675 35.6367C85.9717 33.9325 85.9717 31.2145 84.2891 29.5103C82.6065 27.8276 79.8668 27.8276 78.1842 29.5103L78.1626 29.5319C76.48 31.2145 76.48 33.9541 78.1626 35.6367C79.8452 37.3194 82.5849 37.3194 84.2675 35.6367Z" fill="#4F4F4F" fill-opacity="0.3"/>
<path d="M68.5435 51.3628C70.2477 49.6586 70.2477 46.9405 68.5651 45.2363C66.8825 43.5537 64.1428 43.5537 62.4602 45.2363L62.4386 45.2579C60.756 46.9405 60.756 49.6802 62.4386 51.3628C64.1212 53.0454 66.8609 53.0454 68.5435 51.3628Z" fill="#4F4F4F" fill-opacity="0.3"/>
<path d="M100.019 19.8888C100.817 19.0906 101.291 17.9689 101.291 16.8471C101.291 15.7038 100.838 14.6036 100.019 13.8055C99.2205 13.0073 98.0988 12.5327 96.977 12.5327C95.8337 12.5327 94.7335 12.9857 93.9353 13.8055C93.1372 14.6036 92.6626 15.7254 92.6626 16.8471C92.6626 17.9905 93.1156 19.0906 93.9353 19.8888C94.7335 20.687 95.8553 21.1616 96.977 21.1616C98.0988 21.1616 99.1989 20.687 100.019 19.8888Z" fill="#4F4F4F" fill-opacity="0.3"/>
<path d="M8.80651 86.0298C10.5107 84.3256 10.5107 81.6075 8.82807 79.9033C7.14545 78.2207 4.40579 78.2207 2.72316 79.9033L2.7016 79.9249C1.01898 81.6075 1.01898 84.3472 2.7016 86.0298C4.38423 87.7124 7.12389 87.7124 8.80651 86.0298Z" fill="#4F4F4F" fill-opacity="0.3"/>
<path d="M24.5577 70.2819C25.3559 69.4837 25.8304 68.362 25.8304 67.2402C25.8304 66.0969 25.3774 64.9968 24.5577 64.1986C23.7595 63.4004 22.6378 62.9258 21.516 62.9258C20.3727 62.9258 19.2725 63.3789 18.4743 64.1986C17.6762 64.9968 17.2016 66.1185 17.2016 67.2402C17.2016 68.3835 17.6546 69.4837 18.4743 70.2819C19.2725 71.08 20.3943 71.5546 21.516 71.5546C22.6378 71.5546 23.7595 71.08 24.5577 70.2819Z" fill="#4F4F4F" fill-opacity="0.3"/>
<path d="M40.2818 54.5558C41.0799 53.7576 41.5545 52.6359 41.5545 51.5141C41.5545 50.3708 41.1015 49.2706 40.2818 48.4725C39.462 47.6743 38.3618 47.1997 37.2401 47.1997C36.0968 47.1997 34.9966 47.6527 34.1984 48.4725C33.4003 49.2706 32.9257 50.3924 32.9257 51.5141C32.9257 52.6574 33.3787 53.7576 34.1984 54.5558C34.9966 55.354 36.1183 55.8285 37.2401 55.8285C38.3618 55.807 39.4836 55.354 40.2818 54.5558Z" fill="#4F4F4F" fill-opacity="0.3"/>
<path d="M71.7322 23.104C73.4364 21.3998 73.4364 18.6817 71.7538 16.9775C70.0712 15.2949 67.3315 15.2949 65.6489 16.9775L65.6273 16.9991C63.9447 18.6818 63.9447 21.4214 65.6273 23.104C67.3099 24.7866 70.0496 24.7866 71.7322 23.104Z" fill="#4F4F4F" fill-opacity="0.3"/>
<path d="M56.0082 38.8301C57.7124 37.1259 57.7124 34.4078 56.0297 32.7036C54.3471 31.021 51.6074 31.021 49.9248 32.7036L49.9033 32.7251C48.2206 34.4078 48.2206 37.1475 49.9033 38.8301C51.5859 40.5127 54.3256 40.5127 56.0082 38.8301Z" fill="#4F4F4F" fill-opacity="0.3"/>
<path d="M87.4834 7.3561C88.2816 6.55793 88.7562 5.43617 88.7562 4.31442C88.7562 3.1711 88.3032 2.07091 87.4834 1.27275C86.6852 0.474578 85.5635 0 84.4417 0C83.2984 0 82.1982 0.453006 81.4001 1.27275C80.6019 2.07091 80.1273 3.19267 80.1273 4.31442C80.1273 5.45774 80.5803 6.55793 81.4001 7.3561C82.1982 8.15426 83.32 8.62884 84.4417 8.62884C85.5635 8.62884 86.6637 8.15426 87.4834 7.3561Z" fill="#4F4F4F" fill-opacity="0.3"/>
<path d="M2.42149 142.527C3.21966 141.729 3.69427 140.607 3.69427 139.485C3.69427 138.342 3.24123 137.242 2.42149 136.444C1.62332 135.645 0.5016 135.171 -0.620149 135.171C-1.76347 135.171 -2.86366 135.624 -3.66182 136.444C-4.45999 137.242 -4.93457 138.364 -4.93457 139.485C-4.93457 140.629 -4.48156 141.729 -3.66182 142.527C-2.86366 143.325 -1.7419 143.8 -0.620149 143.8C0.5016 143.8 1.62332 143.347 2.42149 142.527Z" fill="#4F4F4F" fill-opacity="0.3"/>
<path d="M33.8719 111.075C35.5761 109.371 35.5762 106.653 33.8935 104.949C32.2109 103.266 29.4713 103.266 27.7886 104.949L27.767 104.971C26.0844 106.653 26.0844 109.393 27.767 111.075C29.4497 112.758 32.1893 112.758 33.8719 111.075Z" fill="#4F4F4F" fill-opacity="0.3"/>
<path d="M18.1492 126.824C19.8534 125.119 19.8534 122.401 18.1707 120.697C16.4881 119.014 13.7484 119.014 12.0658 120.697L12.0443 120.719C10.3616 122.401 10.3616 125.141 12.0443 126.824C13.7269 128.506 16.4665 128.506 18.1492 126.824Z" fill="#4F4F4F" fill-opacity="0.3"/>
<path d="M49.6231 95.3485C50.4213 94.5503 50.8959 93.4286 50.8959 92.3069C50.8959 91.1635 50.4429 90.0633 49.6231 89.2652C48.825 88.467 47.7032 87.9924 46.5814 87.9924C45.4381 87.9924 44.3379 88.4454 43.5398 89.2652C42.7416 90.0633 42.267 91.1851 42.267 92.3069C42.267 93.4286 42.72 94.5503 43.5398 95.3485C44.3379 96.1466 45.4597 96.6213 46.5814 96.6213C47.7032 96.5997 48.8034 96.1466 49.6231 95.3485Z" fill="#4F4F4F" fill-opacity="0.3"/>
<path d="M65.3472 79.6222C66.1453 78.824 66.6199 77.7023 66.6199 76.5805C66.6199 75.4372 66.1669 74.337 65.3472 73.5389C64.549 72.7407 63.4273 72.2661 62.3055 72.2661C61.1622 72.2661 60.062 72.7191 59.2638 73.5389C58.4657 74.337 57.9911 75.4588 57.9911 76.5805C57.9911 77.7239 58.4441 78.824 59.2638 79.6222C60.062 80.4204 61.1838 80.895 62.3055 80.895C63.4273 80.8734 64.549 80.4204 65.3472 79.6222Z" fill="#4F4F4F" fill-opacity="0.3"/>
<path d="M96.7976 48.1707C98.5018 46.4665 98.5018 43.7484 96.8192 42.0442C95.1366 40.3616 92.3969 40.3616 90.7143 42.0442L90.6928 42.0658C89.0101 43.7484 89.0101 46.488 90.6928 48.1707C92.3754 49.8533 95.115 49.8533 96.7976 48.1707Z" fill="#4F4F4F" fill-opacity="0.3"/>
<path d="M81.0747 63.898C82.7789 62.1938 82.7789 59.4757 81.0963 57.7715C79.4136 56.0889 76.674 56.0889 74.9914 57.7715L74.9698 57.7931C73.2872 59.4757 73.2872 62.2153 74.9698 63.898C76.6524 65.5806 79.3921 65.5806 81.0747 63.898Z" fill="#4F4F4F" fill-opacity="0.3"/>
<path d="M112.524 32.423C113.322 31.6248 113.796 30.5031 113.796 29.3813C113.796 28.238 113.343 27.1378 112.524 26.3396C111.725 25.5415 110.604 25.0669 109.482 25.0669C108.339 25.0669 107.238 25.5199 106.44 26.3396C105.642 27.1594 105.167 28.2596 105.167 29.3813C105.167 30.5031 105.62 31.6248 106.44 32.423C107.238 33.2212 108.36 33.6957 109.482 33.6957C110.604 33.6957 111.725 33.2212 112.524 32.423Z" fill="#4F4F4F" fill-opacity="0.3"/>
<path d="M14.9555 155.06C15.7537 154.262 16.2283 153.14 16.2283 152.018C16.2283 150.896 15.7752 149.775 14.9555 148.976C14.1573 148.178 13.0356 147.704 11.9138 147.704C10.7705 147.704 9.67034 148.157 8.87217 148.976C8.074 149.775 7.59943 150.896 7.59943 152.018C7.59943 153.161 8.05243 154.262 8.87217 155.06C9.67034 155.858 10.7921 156.332 11.9138 156.332C13.0356 156.332 14.1573 155.879 14.9555 155.06Z" fill="#4F4F4F" fill-opacity="0.3"/>
<path d="M46.4059 123.608C48.1101 121.904 48.1102 119.186 46.4275 117.482C44.7449 115.799 42.0052 115.799 40.3226 117.482L40.301 117.503C38.6184 119.186 38.6184 121.926 40.301 123.608C41.9837 125.291 44.7233 125.291 46.4059 123.608Z" fill="#4F4F4F" fill-opacity="0.3"/>
<path d="M30.6819 139.355C32.3861 137.651 32.3861 134.933 30.7035 133.229C29.0209 131.546 26.2812 131.546 24.5986 133.229L24.577 133.25C22.8944 134.933 22.8944 137.673 24.577 139.355C26.2597 141.038 28.9993 141.038 30.6819 139.355Z" fill="#4F4F4F" fill-opacity="0.3"/>
<path d="M62.1571 107.881C62.9553 107.083 63.4299 105.961 63.4299 104.84C63.4299 103.696 62.9769 102.596 62.1571 101.798C61.359 101 60.2372 100.525 59.1154 100.525C57.9721 100.525 56.872 100.978 56.0738 101.798C55.2756 102.596 54.801 103.718 54.801 104.84C54.801 105.983 55.2541 107.083 56.0738 107.881C56.872 108.679 57.9937 109.154 59.1154 109.154C60.2372 109.132 61.3374 108.679 62.1571 107.881Z" fill="#4F4F4F" fill-opacity="0.3"/>
<path d="M77.8812 92.1549C78.6793 91.3568 79.1539 90.235 79.1539 89.1132C79.1539 87.9699 78.7009 86.8697 77.8812 86.0716C77.083 85.2734 75.9613 84.7988 74.8395 84.7988C73.6962 84.7988 72.596 85.2518 71.7978 86.0716C70.9997 86.8697 70.5251 87.9915 70.5251 89.1132C70.5251 90.2566 70.9781 91.3568 71.7978 92.1549C72.596 92.9531 73.7178 93.4277 74.8395 93.4277C75.9613 93.4061 77.0614 92.9531 77.8812 92.1549Z" fill="#4F4F4F" fill-opacity="0.3"/>
<path d="M109.332 60.6824C111.036 58.9782 111.036 56.2601 109.353 54.5559C107.671 52.8733 104.931 52.8733 103.248 54.5559L103.227 54.5774C101.544 56.2601 101.544 58.9998 103.227 60.6824C104.909 62.3866 107.649 62.3866 109.332 60.6824Z" fill="#4F4F4F" fill-opacity="0.3"/>
<path d="M93.6076 76.4297C95.3118 74.7255 95.3118 72.0074 93.6292 70.3032C91.9465 68.6206 89.2069 68.6206 87.5243 70.3032L87.5027 70.3248C85.8201 72.0074 85.8201 74.7471 87.5027 76.4297C89.1853 78.1123 91.9034 78.1123 93.6076 76.4297Z" fill="#4F4F4F" fill-opacity="0.3"/>
<path d="M125.058 44.9557C125.856 44.1575 126.33 43.0358 126.33 41.914C126.33 40.7707 125.877 39.6705 125.058 38.8724C124.259 38.0742 123.138 37.5996 122.016 37.5996C120.873 37.5996 119.772 38.0526 118.974 38.8724C118.176 39.6705 117.701 40.7923 117.701 41.914C117.701 43.0358 118.154 44.1575 118.974 44.9557C119.772 45.7539 120.894 46.2285 122.016 46.2285C123.159 46.2069 124.259 45.7539 125.058 44.9557Z" fill="#4F4F4F" fill-opacity="0.3"/>
<path d="M27.4907 167.594C28.2889 166.796 28.7635 165.674 28.7635 164.552C28.7635 163.409 28.3105 162.309 27.4907 161.511C26.6926 160.712 25.5708 160.238 24.4491 160.238C23.3057 160.238 22.2056 160.691 21.4074 161.511C20.6092 162.309 20.1346 163.43 20.1346 164.552C20.1346 165.696 20.5876 166.796 21.4074 167.594C22.2056 168.392 23.3273 168.867 24.4491 168.867C25.5708 168.867 26.6926 168.414 27.4907 167.594Z" fill="#4F4F4F" fill-opacity="0.3"/>
<path d="M58.9412 136.142C60.6454 134.438 60.6453 131.72 58.9627 130.016C57.2801 128.333 54.5404 128.333 52.8578 130.016L52.8362 130.037C51.1536 131.72 51.1536 134.46 52.8362 136.142C54.5189 137.825 57.2585 137.825 58.9412 136.142Z" fill="#4F4F4F" fill-opacity="0.3"/>
<path d="M43.2172 151.869C44.9214 150.164 44.9213 147.446 43.2387 145.742C41.5561 144.06 38.8165 144.06 37.1338 145.742L37.1122 145.764C35.4296 147.446 35.4296 150.186 37.1122 151.869C38.7949 153.573 41.5345 153.573 43.2172 151.869Z" fill="#4F4F4F" fill-opacity="0.3"/>
<path d="M74.6671 120.416C75.4652 119.617 75.9398 118.496 75.9398 117.374C75.9398 116.252 75.4868 115.13 74.6671 114.332C73.8689 113.534 72.7471 113.06 71.6254 113.06C70.4821 113.06 69.3819 113.513 68.5837 114.332C67.7856 115.13 67.311 116.252 67.311 117.374C67.311 118.517 67.764 119.617 68.5837 120.416C69.3819 121.214 70.5036 121.688 71.6254 121.688C72.7687 121.667 73.8689 121.214 74.6671 120.416Z" fill="#4F4F4F" fill-opacity="0.3"/>
<path d="M90.4164 104.668C91.2146 103.87 91.6891 102.748 91.6891 101.627C91.6891 100.483 91.2361 99.3832 90.4164 98.585C89.6182 97.7868 88.4965 97.3123 87.3747 97.3123C86.2314 97.3123 85.1312 97.7653 84.333 98.585C83.5349 99.3832 83.0603 100.505 83.0603 101.627C83.0603 102.77 83.5133 103.87 84.333 104.668C85.1312 105.467 86.253 105.941 87.3747 105.941C88.4965 105.941 89.5967 105.488 90.4164 104.668Z" fill="#4F4F4F" fill-opacity="0.3"/>
<path d="M121.867 73.2168C123.571 71.5126 123.571 68.7945 121.888 67.0903C120.206 65.4077 117.466 65.4077 115.784 67.0903L115.762 67.1119C114.079 68.7945 114.079 71.5342 115.762 73.2168C117.445 74.8994 120.184 74.8994 121.867 73.2168Z" fill="#4F4F4F" fill-opacity="0.3"/>
<path d="M106.143 88.9639C107.847 87.2597 107.847 84.5416 106.164 82.8374C104.482 81.1548 101.742 81.1548 100.06 82.8374L100.038 82.859C98.3553 84.5416 98.3553 87.2813 100.038 88.9639C101.721 90.6465 104.439 90.6465 106.143 88.9639Z" fill="#4F4F4F" fill-opacity="0.3"/>
<path d="M137.593 57.4899C138.391 56.6917 138.865 55.57 138.865 54.4482C138.865 53.3049 138.412 52.2047 137.593 51.4065C136.795 50.6084 135.673 50.1338 134.551 50.1338C133.408 50.1338 132.308 50.5868 131.509 51.4065C130.711 52.2047 130.237 53.3265 130.237 54.4482C130.237 55.5915 130.69 56.6917 131.509 57.4899C132.308 58.2881 133.429 58.7626 134.551 58.7626C135.694 58.7411 136.795 58.2881 137.593 57.4899Z" fill="#4F4F4F" fill-opacity="0.3"/>
<path d="M40.0242 180.127C40.8224 179.329 41.2969 178.207 41.2969 177.085C41.2969 175.942 40.8439 174.842 40.0242 174.043C39.226 173.245 38.1043 172.771 36.9825 172.771C35.8392 172.771 34.739 173.224 33.9408 174.043C33.1427 174.842 32.6681 175.963 32.6681 177.085C32.6681 178.228 33.1211 179.329 33.9408 180.127C34.739 180.925 35.8608 181.4 36.9825 181.4C38.1043 181.4 39.2044 180.925 40.0242 180.127Z" fill="#4F4F4F" fill-opacity="0.3"/>
<path d="M71.4746 148.675C73.1788 146.971 73.1788 144.253 71.4962 142.549C69.8135 140.866 67.0739 140.866 65.3913 142.549L65.3697 142.57C63.6871 144.253 63.6871 146.993 65.3697 148.675C67.0523 150.358 69.792 150.358 71.4746 148.675Z" fill="#4F4F4F" fill-opacity="0.3"/>
<path d="M55.7506 164.402C57.4548 162.697 57.4548 159.979 55.7722 158.275C54.0896 156.593 51.3499 156.593 49.6673 158.275L49.6457 158.297C47.9631 159.979 47.9631 162.719 49.6457 164.402C51.3283 166.084 54.0464 166.084 55.7506 164.402Z" fill="#4F4F4F" fill-opacity="0.3"/>
<path d="M87.2005 132.949C87.9987 132.15 88.4733 131.029 88.4733 129.907C88.4733 128.764 88.0203 127.663 87.2005 126.865C86.4023 126.067 85.2806 125.593 84.1588 125.593C83.0155 125.593 81.9154 126.046 81.1172 126.865C80.319 127.663 79.8444 128.785 79.8444 129.907C79.8444 131.05 80.2975 132.15 81.1172 132.949C81.9154 133.747 83.0371 134.221 84.1588 134.221C85.2806 134.221 86.4023 133.747 87.2005 132.949Z" fill="#4F4F4F" fill-opacity="0.3"/>
<path d="M102.95 117.201C103.748 116.403 104.223 115.281 104.223 114.16C104.223 113.016 103.77 111.916 102.95 111.118C102.152 110.32 101.03 109.845 99.9082 109.845C98.7648 109.845 97.6647 110.298 96.8665 111.118C96.0683 111.916 95.5938 113.038 95.5938 114.16C95.5938 115.303 96.0468 116.403 96.8665 117.201C97.6647 117.999 98.7864 118.474 99.9082 118.474C101.03 118.474 102.13 118.021 102.95 117.201Z" fill="#4F4F4F" fill-opacity="0.3"/>
<path d="M134.4 85.7498C136.104 84.0456 136.105 81.3275 134.422 79.6233C132.739 77.9407 130 77.9407 128.317 79.6233L128.295 79.6448C126.613 81.3274 126.613 84.0671 128.295 85.7498C129.978 87.4324 132.718 87.4324 134.4 85.7498Z" fill="#4F4F4F" fill-opacity="0.3"/>
<path d="M118.655 101.476C120.359 99.7717 120.359 97.0536 118.677 95.3494C116.994 93.6667 114.254 93.6667 112.572 95.3494L112.55 95.371C110.868 97.0536 110.868 99.7933 112.55 101.476C114.254 103.18 116.973 103.18 118.655 101.476Z" fill="#4F4F4F" fill-opacity="0.3"/>
<path d="M150.126 70.0228C150.924 69.2247 151.399 68.1029 151.399 66.9812C151.399 65.8378 150.946 64.7377 150.126 63.9395C149.328 63.1413 148.206 62.6667 147.085 62.6667C145.941 62.6667 144.841 63.1198 144.043 63.9395C143.245 64.7377 142.77 65.8594 142.77 66.9812C142.77 68.1245 143.223 69.2247 144.043 70.0228C144.841 70.821 145.963 71.2956 147.085 71.2956C148.206 71.274 149.328 70.821 150.126 70.0228Z" fill="#4F4F4F" fill-opacity="0.3"/>
<path d="M52.5549 192.661C53.3531 191.863 53.8276 190.741 53.8276 189.62C53.8276 188.476 53.3746 187.376 52.5549 186.578C51.7567 185.78 50.635 185.305 49.5132 185.305C48.3699 185.305 47.2697 185.758 46.4715 186.578C45.6734 187.376 45.1988 188.498 45.1988 189.62C45.1988 190.763 45.6518 191.863 46.4715 192.661C47.2697 193.459 48.3915 193.934 49.5132 193.934C50.635 193.934 51.7351 193.459 52.5549 192.661Z" fill="#4F4F4F" fill-opacity="0.3"/>
<path d="M84.0053 161.21C85.7095 159.506 85.7095 156.787 84.0269 155.083C82.3442 153.401 79.6046 153.401 77.922 155.083L77.9004 155.105C76.2178 156.787 76.2178 159.527 77.9004 161.21C79.583 162.892 82.3227 162.892 84.0053 161.21Z" fill="#4F4F4F" fill-opacity="0.3"/>
<path d="M68.2602 176.936C69.9644 175.232 69.9644 172.514 68.2817 170.81C66.5991 169.127 63.8595 169.127 62.1769 170.81L62.1553 170.831C60.4727 172.514 60.4727 175.253 62.1553 176.936C63.8595 178.619 66.5776 178.619 68.2602 176.936Z" fill="#4F4F4F" fill-opacity="0.3"/>
<path d="M99.7312 145.462C100.529 144.664 101.004 143.542 101.004 142.42C101.004 141.277 100.551 140.177 99.7312 139.378C98.9331 138.58 97.8113 138.106 96.6895 138.106C95.5462 138.106 94.446 138.559 93.6479 139.378C92.8497 140.177 92.3751 141.298 92.3751 142.42C92.3751 143.563 92.8281 144.664 93.6479 145.462C94.446 146.26 95.5678 146.735 96.6895 146.735C97.8113 146.735 98.9331 146.282 99.7312 145.462Z" fill="#4F4F4F" fill-opacity="0.3"/>
<path d="M115.459 129.736C116.258 128.938 116.732 127.816 116.732 126.694C116.732 125.551 116.279 124.451 115.459 123.652C114.661 122.854 113.54 122.38 112.418 122.38C111.274 122.38 110.174 122.833 109.376 123.652C108.578 124.451 108.103 125.572 108.103 126.694C108.103 127.816 108.556 128.938 109.376 129.736C110.174 130.534 111.296 131.008 112.418 131.008C113.561 131.008 114.661 130.534 115.459 129.736Z" fill="#4F4F4F" fill-opacity="0.3"/>
<path d="M146.931 98.2842C148.635 96.58 148.635 93.8619 146.953 92.1577C145.27 90.4751 142.53 90.4751 140.848 92.1577L140.826 92.1792C139.143 93.8619 139.143 96.6016 140.826 98.2842C142.509 99.9668 145.227 99.9668 146.931 98.2842Z" fill="#4F4F4F" fill-opacity="0.3"/>
<path d="M131.185 114.01C132.889 112.306 132.889 109.588 131.206 107.884C129.524 106.201 126.784 106.201 125.101 107.884L125.08 107.905C123.397 109.588 123.397 112.327 125.08 114.01C126.784 115.693 129.502 115.693 131.185 114.01Z" fill="#4F4F4F" fill-opacity="0.3"/>
<path d="M162.657 82.5573C163.455 81.7591 163.93 80.6373 163.93 79.5156C163.93 78.3723 163.477 77.2721 162.657 76.4739C161.859 75.6758 160.737 75.2012 159.615 75.2012C158.472 75.2012 157.372 75.6542 156.574 76.4739C155.775 77.2721 155.301 78.3938 155.301 79.5156C155.301 80.6589 155.754 81.7591 156.574 82.5573C157.372 83.3554 158.493 83.83 159.615 83.83C160.737 83.8084 161.859 83.3554 162.657 82.5573Z" fill="#4F4F4F" fill-opacity="0.3"/>
<path d="M65.09 205.194C65.8882 204.396 66.3628 203.274 66.3628 202.152C66.3628 201.009 65.9098 199.909 65.09 199.111C64.2919 198.312 63.1701 197.838 62.0484 197.838C60.905 197.838 59.8049 198.291 59.0067 199.111C58.2086 199.909 57.7339 201.031 57.7339 202.152C57.7339 203.296 58.187 204.396 59.0067 205.194C59.8049 205.992 60.9266 206.467 62.0484 206.467C63.1701 206.467 64.2703 205.992 65.09 205.194Z" fill="#4F4F4F" fill-opacity="0.3"/>
<path d="M96.5404 173.743C98.2446 172.038 98.2446 169.32 96.562 167.616C94.8794 165.933 92.1397 165.933 90.4571 167.616L90.4356 167.638C88.7529 169.32 88.7529 172.06 90.4356 173.743C92.1182 175.425 94.8362 175.425 96.5404 173.743Z" fill="#4F4F4F" fill-opacity="0.3"/>
<path d="M80.7953 189.469C82.4995 187.765 82.4996 185.046 80.8169 183.342C79.1343 181.66 76.3947 181.66 74.712 183.342L74.6904 183.364C73.0078 185.047 73.0078 187.786 74.6904 189.469C76.3946 191.151 79.1127 191.151 80.7953 189.469Z" fill="#4F4F4F" fill-opacity="0.3"/>
<path d="M112.266 157.995C113.065 157.196 113.539 156.075 113.539 154.953C113.539 153.81 113.086 152.709 112.266 151.911C111.468 151.113 110.346 150.638 109.225 150.638C108.081 150.638 106.981 151.091 106.183 151.911C105.385 152.709 104.91 153.831 104.91 154.953C104.91 156.096 105.363 157.196 106.183 157.995C106.981 158.793 108.103 159.267 109.225 159.267C110.346 159.267 111.468 158.814 112.266 157.995Z" fill="#4F4F4F" fill-opacity="0.3"/>
<path d="M127.995 142.268C128.793 141.47 129.267 140.349 129.267 139.227C129.267 138.083 128.814 136.983 127.995 136.185C127.196 135.387 126.075 134.912 124.953 134.912C123.81 134.912 122.709 135.365 121.911 136.185C121.113 137.005 120.639 138.105 120.639 139.227C120.639 140.37 121.092 141.47 121.911 142.268C122.709 143.067 123.831 143.541 124.953 143.541C126.096 143.541 127.196 143.067 127.995 142.268Z" fill="#4F4F4F" fill-opacity="0.3"/>
<path d="M159.445 110.817C161.149 109.113 161.149 106.395 159.467 104.69C157.784 103.008 155.044 103.008 153.362 104.69L153.34 104.712C151.658 106.395 151.658 109.134 153.34 110.817C155.044 112.5 157.762 112.5 159.445 110.817Z" fill="#4F4F4F" fill-opacity="0.3"/>
<path d="M143.721 126.543C145.425 124.839 145.425 122.121 143.743 120.417C142.06 118.734 139.32 118.734 137.638 120.417L137.616 120.438C135.934 122.121 135.934 124.86 137.616 126.543C139.32 128.226 142.038 128.226 143.721 126.543Z" fill="#4F4F4F" fill-opacity="0.3"/>
<path d="M175.192 95.09C175.99 94.2918 176.465 93.1701 176.465 92.0483C176.465 90.905 176.012 89.8049 175.192 89.0067C174.394 88.2085 173.272 87.7339 172.15 87.7339C171.007 87.7339 169.907 88.187 169.109 89.0067C168.311 89.8049 167.836 90.9266 167.836 92.0483C167.836 93.1916 168.289 94.2918 169.109 95.09C169.907 95.8882 171.029 96.3627 172.15 96.3627C173.272 96.3412 174.394 95.8882 175.192 95.09Z" fill="#4F4F4F" fill-opacity="0.3"/>
<path d="M77.6032 217.726C78.4014 216.928 78.876 215.806 78.876 214.685C78.876 213.541 78.423 212.441 77.6032 211.643C76.8051 210.845 75.6833 210.37 74.5616 210.37C73.4398 210.37 72.318 210.823 71.5199 211.643C70.7217 212.441 70.2471 213.563 70.2471 214.685C70.2471 215.828 70.7001 216.928 71.5199 217.726C72.318 218.524 73.4398 218.999 74.5616 218.999C75.7049 218.999 76.8051 218.524 77.6032 217.726Z" fill="#4F4F4F" fill-opacity="0.3"/>
<path d="M109.079 186.274C110.783 184.57 110.783 181.852 109.101 180.148C107.418 178.465 104.678 178.465 102.996 180.148L102.974 180.169C101.291 181.852 101.291 184.592 102.974 186.274C104.657 187.957 107.375 187.957 109.079 186.274Z" fill="#4F4F4F" fill-opacity="0.3"/>
<path d="M93.3297 202C95.0339 200.296 95.0338 197.578 93.3512 195.874C91.6686 194.191 88.929 194.191 87.2463 195.874L87.2247 195.896C85.5421 197.578 85.5421 200.318 87.2247 202C88.9289 203.683 91.6471 203.683 93.3297 202Z" fill="#4F4F4F" fill-opacity="0.3"/>
<path d="M124.805 170.526C125.603 169.728 126.078 168.606 126.078 167.485C126.078 166.341 125.625 165.241 124.805 164.443C124.007 163.645 122.885 163.17 121.764 163.17C120.642 163.17 119.52 163.623 118.722 164.443C117.924 165.241 117.449 166.363 117.449 167.485C117.449 168.628 117.902 169.728 118.722 170.526C119.52 171.324 120.642 171.799 121.764 171.799C122.885 171.799 124.007 171.346 124.805 170.526Z" fill="#4F4F4F" fill-opacity="0.3"/>
<path d="M140.529 154.8C141.327 154.002 141.802 152.88 141.802 151.759C141.802 150.615 141.349 149.515 140.529 148.717C139.709 147.919 138.609 147.444 137.487 147.444C136.344 147.444 135.244 147.897 134.446 148.717C133.647 149.515 133.173 150.637 133.173 151.759C133.173 152.902 133.626 154.002 134.446 154.8C135.244 155.598 136.365 156.073 137.487 156.073C138.631 156.073 139.731 155.598 140.529 154.8Z" fill="#4F4F4F" fill-opacity="0.3"/>
<path d="M171.979 123.349C173.683 121.644 173.683 118.926 172.001 117.222C170.318 115.54 167.579 115.54 165.896 117.222L165.874 117.244C164.192 118.926 164.192 121.666 165.874 123.349C167.579 125.031 170.297 125.031 171.979 123.349Z" fill="#4F4F4F" fill-opacity="0.3"/>
<path d="M156.255 139.075C157.959 137.371 157.959 134.652 156.277 132.948C154.594 131.266 151.855 131.266 150.172 132.948L150.15 132.97C148.468 134.652 148.468 137.392 150.15 139.075C151.833 140.757 154.573 140.757 156.255 139.075Z" fill="#4F4F4F" fill-opacity="0.3"/>
<path d="M187.73 107.601C188.529 106.803 189.003 105.681 189.003 104.559C189.003 103.437 188.55 102.316 187.73 101.517C186.911 100.719 185.811 100.245 184.689 100.245C183.545 100.245 182.445 100.698 181.647 101.517C180.849 102.337 180.374 103.437 180.374 104.559C180.374 105.702 180.827 106.803 181.647 107.601C182.445 108.399 183.567 108.873 184.689 108.873C185.811 108.873 186.932 108.42 187.73 107.601Z" fill="#4F4F4F" fill-opacity="0.3"/>
</svg>
