<svg width="30" height="30" viewBox="0 0 30 30" fill="none" xmlns="http://www.w3.org/2000/svg">
<circle cx="15" cy="15" r="15" fill="#C92225"/>
<path d="M17.7637 9.0027L16.0779 9C14.184 9 12.9601 10.2557 12.9601 12.1993V13.6744H11.2651C11.1186 13.6744 11 13.7932 11 13.9396V16.0769C11 16.2233 11.1187 16.342 11.2651 16.342H12.9601V21.7349C12.9601 21.8814 13.0787 22 13.2251 22H15.4366C15.5831 22 15.7017 21.8813 15.7017 21.7349V16.342H17.6835C17.83 16.342 17.9486 16.2233 17.9486 16.0769L17.9494 13.9396C17.9494 13.8693 17.9214 13.802 17.8718 13.7522C17.8221 13.7024 17.7545 13.6744 17.6842 13.6744H15.7017V12.424C15.7017 11.8229 15.8449 11.5178 16.6278 11.5178L17.7635 11.5174C17.9098 11.5174 18.0284 11.3987 18.0284 11.2523V9.26778C18.0284 9.12158 17.9099 9.00298 17.7637 9.0027Z" fill="white"/>
</svg>
