<svg width="762" height="348" viewBox="0 0 762 348" fill="none" xmlns="http://www.w3.org/2000/svg">
<path d="M121.17 343.337C121.17 343.337 42.4139 275.392 32.7852 248.27C23.1565 221.144 46.2891 225.614 46.2891 225.614C46.2891 225.614 15.9703 176.27 25.8124 161.23C35.6544 146.191 52.7856 167.293 52.7856 167.293C52.7856 167.293 41.3966 102.426 55.0642 99.728C80.5248 94.706 96.6883 164.766 96.6883 164.766C96.6883 164.766 96.6654 136.105 112.093 140.948C135.359 148.253 118.941 208.905 118.941 208.905C118.941 208.905 127.529 186.23 139.829 197.421C161.898 217.501 121.17 343.337 121.17 343.337Z" fill="#50BFA5"/>
<path d="M139.829 197.421C127.529 186.23 118.941 208.905 118.941 208.905C118.941 208.905 135.359 148.249 112.093 140.948C96.6654 136.105 96.6883 164.766 96.6883 164.766C96.6883 164.766 80.5248 94.7058 55.0642 99.7279L121.116 343.364C126.565 329.045 160.443 216.179 139.829 197.421Z" fill="#3C8F7C"/>
<path d="M137.988 343.318C137.988 343.318 49.6651 344.747 34.0084 328.466C22.5813 316.585 42.9208 306.926 42.9208 306.926C42.9208 306.926 4.29929 283.157 5.78532 269.047C7.27134 254.934 20.638 258.649 20.638 258.649C20.638 258.649 -5.41324 232.137 1.0224 220.504C10.914 202.622 56.2874 246.025 56.2874 246.025C56.2874 246.025 46.0719 225.892 58.5165 223.743C77.2823 220.504 92.6799 274.248 92.6799 274.248C92.6799 274.248 85.3488 250.015 97.8772 253.452C120.362 259.621 137.988 343.318 137.988 343.318Z" fill="#466EB6"/>
<path d="M1.02619 220.5C-5.40946 232.137 20.6418 258.645 20.6418 258.645C20.6418 258.645 7.27132 254.93 5.7891 269.044C4.30307 283.157 42.9245 306.922 42.9245 306.922C42.9245 306.922 14.4957 316.535 31.8289 331.022C53.9478 349.51 137.992 343.314 137.992 343.314L1.02619 220.5Z" fill="#355389"/>
<path d="M159.109 343.531C159.109 343.531 91.2053 345.071 81.7328 344.187C72.2641 343.299 82.5101 334.634 82.5101 334.634C82.5101 334.634 61.3971 335.876 58.063 330.809C54.729 325.741 63.3136 323.523 63.3136 323.523C63.3136 323.523 46.0491 316.028 46.9559 311.532C48.6401 303.157 68.088 309.936 68.088 309.936C68.088 309.936 59.9072 305.729 63.3289 301.755C68.4881 295.761 84.3276 309.395 84.3276 309.395C84.3276 309.395 80.5516 295.449 85.9508 295.327C99.0698 295.037 159.109 343.531 159.109 343.531Z" fill="#50BFA5"/>
<path d="M320.724 314.006L345.491 260.848C345.491 260.848 346.928 256.74 360.032 267.154C373.135 277.567 373.135 298.391 373.135 298.391C373.135 298.391 380.722 273.376 392.465 273.376C398.596 273.376 389.859 314.185 389.859 314.185C389.859 314.185 398.211 299.214 405.797 299.214C413.384 299.214 401.659 317.983 401.659 317.983C401.659 317.983 415.605 308.202 424.571 309.357C433.537 310.515 416.066 326.713 416.066 326.713C416.066 326.713 438.597 315.64 443.501 323.916C446.088 328.283 415.914 330.71 415.914 330.71L312.159 330.965L320.724 314.006Z" fill="#50BFA5"/>
<path d="M363.194 328.591L123.075 328.687C115.062 328.69 108.306 323.981 107.346 317.717L60.7417 14.2887C59.9682 9.24768 65.0969 4.85436 71.5439 5.03725L304.801 11.7282C309.956 11.8768 314.209 14.9479 314.837 18.9793L363.194 328.591Z" fill="#355389"/>
<path d="M84.1485 14.1593L294.921 20.2063C300.076 20.3549 304.328 23.426 304.957 27.4573L350.624 319.843L118.887 319.934L73.3425 23.4107C72.569 18.3697 77.7015 13.9764 84.1485 14.1593Z" fill="#184655"/>
<path d="M218.893 13.5915C218.893 14.6812 217.99 15.5614 216.878 15.5614C215.765 15.5614 214.862 14.6812 214.862 13.5915C214.862 12.5055 215.765 11.6215 216.878 11.6215C217.99 11.6215 218.893 12.5017 218.893 13.5915Z" fill="#F47458"/>
<path d="M275.031 280.234C272.444 284.079 269.494 287.173 269.121 287.527C268.942 287.695 267.742 288.084 267.551 288.255C265.871 293.578 268.031 298.097 270.355 301.656C270.74 298.772 271.015 294.832 271.46 294.344C272.165 293.567 274.581 290.24 279.447 286.14C276.875 284.692 276.566 282.73 275.031 280.234Z" fill="#F7A491"/>
<path d="M268.972 287.619C267.071 287.733 263.478 288.918 263.501 289.299C263.527 289.752 265.566 305.443 268.043 306.823C269.532 307.653 269.807 305.211 270.355 301.652C268.031 298.097 267.799 288.106 268.972 287.619Z" fill="#F47458"/>
<path d="M235.601 272.9C231.623 275.277 227.68 277.079 227.188 277.24C226.952 277.316 225.702 277.156 225.458 277.228C221.671 281.328 221.701 286.339 222.288 290.549C223.866 288.103 225.794 284.654 226.4 284.403C227.367 284.003 230.873 282.479 237.023 280.84C235.316 278.436 235.929 275.811 235.601 272.9Z" fill="#F7A491"/>
<path d="M279.134 167.284C279.134 167.284 285.151 155.968 286.039 151.914C286.927 147.859 290.013 127.447 289.754 126.133C289.495 124.818 284.617 121.656 285.22 120.539C285.822 119.423 290.466 119.419 291.529 119.514C292.593 119.61 294.73 120.231 295.645 120.985C296.559 121.739 294.616 146.202 294.037 151.468C293.458 156.734 284.637 173.987 284.637 173.987L279.134 167.284Z" fill="#F7A491"/>
<path d="M252.104 183.642C252.104 183.642 239.846 203.273 237.705 207.129C235.563 210.985 227.584 220.812 227.184 221.288C226.784 221.764 218.344 221.334 218.584 222.313C218.825 223.289 222.7 222.325 222.776 223.471C222.848 224.618 216.104 231.915 216.782 232.209C218.047 232.757 221.08 227.899 221.621 228.269C222.162 228.638 217.99 233.047 218.672 233.988C219.35 234.929 222.235 229.446 222.776 229.507C223.317 229.572 220.745 235.024 221.926 235.078C222.566 235.108 224.094 230.174 224.704 230.608C225.314 231.043 224.727 234.994 225.47 234.956C226.213 234.918 225.519 231.58 226.659 229.819C227.798 228.059 227.722 226.203 230.339 223.929C232.961 221.654 243.112 214.719 246.792 208.592C250.473 202.465 258.639 188.95 258.639 188.95L252.104 183.642Z" fill="#F7A491"/>
<path d="M281.394 212.841L260.106 219.7C260.106 219.7 271.815 239.612 274.132 243.583C276.448 247.553 286.416 257.353 286.431 259.918C286.443 261.731 277.046 273.768 271.38 281.111C272.661 283.488 276.159 286.552 278.372 287.908C287.807 278.965 301.562 264.867 301.817 260.245C302.187 253.493 281.394 212.841 281.394 212.841Z" fill="#E07274"/>
<path d="M227.017 277.258C225.245 276.553 221.492 276.096 221.351 276.447C221.179 276.866 216.344 291.932 217.998 294.237C218.992 295.624 220.284 293.532 222.292 290.545C221.705 286.338 225.748 277.201 227.017 277.258Z" fill="#F47458"/>
<path d="M277.027 225.13C277.298 223.819 279.054 219.967 279.957 216.899C280.708 214.358 280.845 211.675 280.361 209.069L264.701 208.341L264.103 209.503C263.455 210.761 262.544 211.866 261.416 212.719C259.069 214.491 254.954 218.382 255.08 223.796C255.255 231.352 260.632 259.049 258.841 260.086C255.613 261.956 242.151 268.506 234.115 272.534C234.226 275.464 235.045 279.633 236.573 282.155C242.936 279.72 265.333 269.806 269.498 267.375C271.384 266.277 276.566 227.359 277.027 225.13Z" fill="#EC2529"/>
<path d="M239.195 137C240.437 140.28 238.471 142.727 237.107 145.958C236.188 148.126 238.212 151.57 240.498 153.159C246.289 157.179 247.646 157.282 247.227 162.742C246.217 175.888 261.938 170.283 264.465 169.868C266.995 169.448 268.9 169.563 270.108 168.728C273.751 166.21 277.165 158.642 276.524 152.268C275.884 145.893 268.294 148.084 266.557 145.158C264.819 142.231 270.066 138.589 265.596 133.7C252.756 119.663 239.355 129.078 238.878 134.447C238.791 135.441 238.924 136.287 239.195 137Z" fill="#F47458"/>
<path d="M283.299 183.44C283.299 183.44 287.67 173.061 288.367 171.335C288.367 171.335 282.267 165.901 278.624 166.324C278.624 166.324 273.903 173.739 271.121 174.006C268.34 174.273 258.551 174.688 256.836 175.709C255.122 176.73 247.84 187.693 247.84 187.693C247.84 187.693 254.383 194.246 257.012 194.231C257.012 194.231 258.799 189.804 259.412 190.611C260.022 191.419 262.441 208.615 263.661 209.922C264.792 211.134 278.494 215.76 282.453 214.906C282.453 214.906 284.583 198.354 284.469 188.165C284.457 186.614 283.299 183.44 283.299 183.44Z" fill="#FAE0B2"/>
<path d="M264.213 169.133C264.213 169.133 265.756 174.235 265.768 176.311C265.779 178.388 267.433 184.908 271.784 184.481C276.136 184.054 271.739 175.98 271.121 174.006C270.504 172.036 269.765 165.814 269.765 165.814L264.213 169.133Z" fill="#F7A491"/>
<path d="M270.176 168.931C269.933 167.235 269.765 165.814 269.765 165.814L264.213 169.133C264.213 169.133 264.53 170.177 264.876 171.51C267.483 171.762 269.235 170.626 270.176 168.931Z" fill="#F47458"/>
<path d="M260.597 154.981C260.597 154.981 258.479 156.46 257.938 159.245C257.397 162.03 259.05 168.904 265.029 169.99C271.007 171.072 272.95 165.292 271.308 161.101C269.67 156.909 266.503 151.712 260.597 154.981Z" fill="#F7A491"/>
<path d="M271.861 159.352C271.868 160.521 271.319 161.474 270.637 161.478C269.955 161.482 269.399 160.533 269.391 159.363C269.384 158.193 269.932 157.241 270.615 157.237C271.297 157.237 271.857 158.182 271.861 159.352Z" fill="#F7A491"/>
<path d="M260.536 165.185C261.321 166.13 261.443 167.323 260.807 167.856C260.17 168.39 259.016 168.055 258.227 167.113C257.442 166.172 257.32 164.976 257.957 164.442C258.597 163.909 259.751 164.244 260.536 165.185Z" fill="#F7A491"/>
<path d="M254.474 102.951L269.254 111.471C270.009 111.905 270.496 112.683 270.565 113.551L271.914 130.599C272.085 132.786 274.688 133.818 276.315 132.348L288.999 120.871C289.647 120.288 290.539 120.059 291.381 120.257L307.979 124.201C310.109 124.708 311.899 122.544 311.008 120.543L304.065 104.932C303.711 104.136 303.772 103.218 304.225 102.475L313.134 87.862C314.277 85.9874 312.783 83.6173 310.604 83.8536L293.629 85.6825C292.764 85.7778 291.91 85.4349 291.347 84.7757L280.255 71.8015C278.833 70.1364 276.117 70.8337 275.663 72.9827L272.112 89.7215C271.933 90.575 271.342 91.2837 270.538 91.619L254.771 98.2109C252.763 99.0568 252.58 101.857 254.474 102.951Z" fill="#F7CC7F"/>
<path d="M289.369 120.601C289.243 120.681 289.117 120.768 289.007 120.871L288.34 121.473C288.874 121.443 290.024 121.298 290.924 122.22C290.92 122.22 290.733 121.439 289.369 120.601Z" fill="#F47257"/>
<path d="M288.771 122.967L288.394 121.477C287.22 121.503 286.351 121.225 285.696 121.05L284.656 120.597C284.324 120.452 283.939 120.608 283.806 120.943C283.699 121.206 283.779 121.511 284 121.686C284 121.686 286.808 123.999 287.799 124.704C288.287 125.051 289.826 125.992 289.826 125.992L290.722 124.315L288.771 122.967Z" fill="#F7A491"/>
<path d="M731.562 347.133H48.4686C47.3331 347.133 46.4148 346.226 46.4148 345.102C46.4148 343.981 47.3369 343.071 48.4686 343.071H731.562C732.697 343.071 733.619 343.978 733.619 345.102C733.619 346.226 732.697 347.133 731.562 347.133Z" fill="#07345A"/>
<path d="M671.591 327.452C671.591 327.452 669.43 329.59 669.381 330.371C669.331 331.156 669.19 339.55 670.07 340.335C670.95 341.12 673.541 341.676 672.707 342.556C672.078 343.223 667.235 343.082 664.031 342.903C663.094 342.849 661.92 335.275 661.55 334.162C661.013 332.546 659.07 329.026 659.561 327.898C659.801 327.349 661.573 326.099 663.181 325.044C664.873 323.935 666.492 321.47 666.492 321.47L671.591 327.452Z" fill="#F7A491"/>
<path d="M700.481 332.699C700.481 332.699 698.549 338.232 698.545 338.247C698.4 339.123 697.836 341.291 697.836 342.088C697.836 345.083 711.157 339.546 708.174 338.22C707.903 338.102 707.057 337.142 706.966 336.121C706.829 334.551 708.086 332.581 708.086 332.581L700.481 332.699Z" fill="#F7A491"/>
<path d="M722.721 228.067C722.721 228.067 723.723 237.223 723.723 237.372C723.723 253.421 725.598 284.765 725 287.783C723.544 295.14 707.644 335.195 707.644 335.195L699.406 334.017L710.441 286.712L706.379 268.621L700.633 232.861L722.721 228.067Z" fill="#184655"/>
<path d="M691.667 236.077L690.059 245.481L685.712 284.174L664.431 323.444C664.431 323.444 667.632 328.355 671.069 329.129L701.277 289.44L717.646 239.754L717.071 228.715L691.667 236.077Z" fill="#355389"/>
<path d="M725.823 128.328C726.082 128.835 727.138 130.188 727.138 130.188C727.138 130.188 724.733 155.934 724.543 157.542L717.223 168.619L725.423 174.635C725.423 174.635 733.775 161.257 733.851 160.606C733.928 159.954 733.585 140.674 733.585 140.674C733.585 140.674 732.971 130.672 732.971 130.173C732.971 129.673 734.442 126.45 734.735 125.151C735.006 123.95 735.082 120.243 735.082 120.243L734.469 119.363L731.622 118.742L729.61 118.97C729.61 118.97 724.966 120.849 724.783 121.443C724.699 121.714 724.939 125.284 725.213 126.53C725.312 126.999 725.61 127.909 725.823 128.328Z" fill="#F7A491"/>
<path d="M726.726 123.489C726.726 123.489 727.187 124.583 727.896 125.425C728.605 126.267 730.003 126.057 730.826 124.964C731.649 123.87 731.958 122.78 731.958 122.78L726.726 123.489Z" fill="#FE875E"/>
<path d="M703.685 101.039L719.692 105.729C720.508 105.969 721.152 106.594 721.418 107.406L726.627 123.299C727.294 125.337 730.003 125.718 731.211 123.946L740.618 110.115C741.099 109.41 741.891 108.987 742.741 108.983L759.422 108.907C761.564 108.896 762.764 106.43 761.457 104.731L751.265 91.4939C750.746 90.8194 750.59 89.9316 750.849 89.12L755.948 73.1776C756.603 71.1315 754.637 69.2263 752.621 69.9503L736.915 75.601C736.115 75.8906 735.223 75.7648 734.537 75.2657L721.007 65.4922C719.273 64.2386 716.853 65.5265 716.918 67.6717L717.402 84.4029C717.425 85.2564 717.033 86.0642 716.347 86.5709L702.885 96.4702C701.159 97.7352 701.631 100.437 703.685 101.039Z" fill="#F7CC7F"/>
<path d="M726.707 123.576C726.741 123.016 726.65 121.839 726.65 121.839C726.65 121.839 727.842 119.507 727.568 119.351C726.619 118.806 724.76 121.431 724.76 121.431C724.76 121.431 726.596 125.398 726.707 123.576Z" fill="#F7A491"/>
<path d="M734.671 125.105C734.671 125.105 735.958 120.273 735.406 118.909C735.052 118.037 730.273 116.151 729.66 116.993C729.1 117.762 733.687 119.359 733.55 119.542C733.322 119.847 730.083 117.644 729.488 118.067C728.822 118.54 732.613 120.845 732.438 121.211C732.327 121.443 730.209 119.237 729.988 120.212C729.759 121.192 734.671 125.105 734.671 125.105Z" fill="#F7A491"/>
<path d="M722.862 222.485L721.19 199.608C720.652 193.961 720.443 189.45 720.904 187.823C721.879 184.359 728.989 172.723 728.989 172.723C728.989 172.723 722.169 165.136 717.341 165.136C717.341 165.136 711.988 175.451 705.621 176.361C699.257 177.268 700.625 177.31 698.034 177.585C694.997 177.905 692.121 178.389 689.785 179.36C684.927 181.387 688.585 199.582 689.137 202.542C689.975 207.016 688.406 244.707 688.406 244.707C688.406 244.707 702.351 247.847 723.735 237.376L722.862 222.485Z" fill="#EC2529"/>
<path d="M699.334 167.578L697.825 177.771C697.825 177.771 703.414 189.648 706.771 188.608C709.587 187.735 707.819 176.864 707.819 176.864C707.819 176.864 706.318 171.423 706.779 168.569C707.24 165.715 699.334 167.578 699.334 167.578Z" fill="#F7A491"/>
<path d="M700.42 170.661C701.864 171.389 704.714 172.379 706.931 172.619C706.718 171.194 706.6 169.685 706.779 168.569C706.992 167.254 705.423 166.942 703.67 166.988C701.38 167.197 699.334 167.578 699.334 167.578L699.044 169.537C699.482 170.028 699.939 170.417 700.42 170.661Z" fill="#FE875E"/>
<path d="M692.071 155.82C691.835 155.82 694.346 167.209 698.232 169.167C702.119 171.126 707.918 170.105 709.008 167.037C710.212 163.646 705.823 152.025 700.351 150.55C694.887 149.076 692.071 155.82 692.071 155.82Z" fill="#F7A491"/>
<path d="M654.299 233.291L670.821 235.601C671.663 235.719 672.391 236.244 672.772 237.007L680.24 251.974C681.196 253.894 683.932 253.879 684.87 251.947L692.166 236.892C692.536 236.126 693.264 235.593 694.102 235.463L710.593 232.96C712.708 232.64 713.538 230.022 711.999 228.532L699.989 216.919C699.375 216.328 699.094 215.471 699.235 214.629L701.959 198.115C702.309 195.996 700.088 194.396 698.198 195.405L683.479 203.281C682.728 203.681 681.829 203.689 681.078 203.297L666.271 195.596C664.37 194.609 662.168 196.236 662.541 198.351L665.452 214.83C665.601 215.669 665.326 216.53 664.724 217.128L652.848 228.883C651.32 230.392 652.181 232.998 654.299 233.291Z" fill="#F7CC7F"/>
<path d="M676.266 198.172C676.266 198.172 671.286 204.916 670.977 206.105C670.672 207.293 672.856 235.311 672.97 237.784C672.97 237.784 672.052 240.775 671.534 242.672C671.015 244.57 670.787 245.98 671.046 246.353C671.305 246.727 672.109 246.467 672.425 247.188C672.741 247.908 673.66 247.793 673.949 247.934C674.235 248.079 675.085 249.142 675.401 249.112C675.717 249.081 676.235 249.024 676.506 249.199C676.78 249.371 677.238 249.847 677.885 249.733C678.533 249.619 678.853 249.249 678.853 249.249C678.853 249.249 678.346 244.097 678.72 244.113C679.093 244.128 680.042 244.558 680.172 244.875C680.301 245.191 680.244 245.896 680.373 246.212C680.503 246.528 680.934 246.829 681.322 246.7C681.711 246.57 681.654 244.802 681.654 244.802C681.654 244.802 681.597 243.366 681.078 242.516C679.287 239.578 678.895 239.99 678.666 239.613C678.552 239.426 678.697 232.167 678.697 232.167C678.697 232.167 679.413 211.55 679.489 210.441L684.74 202.66L676.266 198.172Z" fill="#F8A492"/>
<path d="M674.197 198.248L684.694 206.143C684.694 206.143 690.429 197.494 693.508 194.415C697.364 190.559 691.945 178.309 689.617 179.41C683.898 182.119 674.197 198.248 674.197 198.248Z" fill="#EC2529"/>
<path d="M696.571 145.356C693.466 147.269 692.041 150.104 691.561 151.266C690.101 152.005 688.337 153.602 687.491 157.904C686.451 163.192 690.151 167.273 694.075 168.496C698 169.723 698.663 172.493 698.663 172.493L699.052 169.51C699.052 169.51 698.179 166.915 696.868 165.616C695.554 164.316 697.489 162.423 697.661 160.876C697.79 159.687 696.971 157.378 697.15 155.427L697.627 153.811C697.627 153.811 699.181 151.335 701.479 151.026C703.773 150.721 700.557 142.902 696.571 145.356Z" fill="#13375B"/>
<path d="M698.225 162.857C698.732 164.172 698.526 165.479 697.76 165.772C696.994 166.069 695.965 165.243 695.455 163.924C694.948 162.61 695.154 161.303 695.92 161.009C696.682 160.716 697.714 161.543 698.225 162.857Z" fill="#F7A491"/>
<path d="M663.284 324.995C663.284 324.995 668.26 339.2 670.207 339.885C670.726 340.068 673.206 340.529 673.675 341.642C673.816 341.977 673.675 343.098 673.675 343.098H663.303C663.303 343.098 661.992 336.837 661.474 334.09C661.474 334.09 658.727 327.372 659.032 326.759C659.337 326.149 663.284 324.995 663.284 324.995Z" fill="#E44B4E"/>
<path d="M697.078 343.075L698.602 338.19C698.602 338.19 701.807 339.565 703.407 339.337C705.007 339.108 708.135 338.19 708.135 338.19C714.529 340.323 719.768 341.36 718.816 343.075H697.078Z" fill="#E44B4E"/>
<path d="M148.478 130.248C147.568 130.793 146.794 131.54 146.223 132.432C145.057 134.245 143.098 137.279 142.847 137.595C140.625 140.38 134.201 147.018 134.201 147.018L140.404 148.923L152.517 135.328C152.517 135.328 157.798 130.187 156.914 130.348C156.533 130.416 151.767 133.925 151.679 133.712C151.656 133.655 158.103 128.488 156.991 128.202C156.69 128.126 151.363 132.131 151.088 132.032C150.963 131.986 156.366 128.259 155.352 127.856C154.849 127.657 150.566 130.652 150.246 130.576C149.888 130.492 154.129 127.421 153.169 127.627C152.773 127.711 150.147 129.25 148.478 130.248Z" fill="#F7A491"/>
<path d="M132.563 125.348L148.703 129.547C149.526 129.761 150.193 130.366 150.483 131.17L156.171 146.892C156.899 148.904 159.623 149.205 160.774 147.399L169.759 133.293C170.216 132.576 170.997 132.127 171.851 132.096L188.51 131.513C190.655 131.437 191.783 128.938 190.422 127.28L179.833 114.363C179.292 113.704 179.109 112.82 179.346 112.001L183.96 95.9173C184.551 93.8559 182.527 92.0079 180.538 92.7928L165.007 98.916C164.219 99.2284 163.323 99.1294 162.618 98.6531L148.798 89.2949C147.027 88.0947 144.649 89.455 144.775 91.5964L145.765 108.301C145.815 109.151 145.445 109.97 144.775 110.496L131.614 120.803C129.933 122.125 130.49 124.807 132.563 125.348Z" fill="#F7CC7F"/>
<path d="M156.24 315.827C156.24 315.827 154.243 325.215 154.461 327.28C154.773 330.256 168.886 323.596 165.781 322.586C165.065 322.354 162.798 321.451 162.622 321.321C161.662 320.635 161.933 316.208 161.933 316.208L156.24 315.827Z" fill="#F7A491"/>
<path d="M172.502 276.02C173.002 273.151 163.746 239.445 158.591 229.085L145.602 227.149L146.947 248.033C150.208 248.975 159.513 280.391 159.513 280.391L154.99 317.4L162.729 317.861C162.733 317.858 171.356 282.608 172.502 276.02Z" fill="#B75742"/>
<path d="M152.049 230.308L136.739 229.596L131.778 231.653C131.088 231.958 134.651 274.641 133.77 275.868C133.279 276.55 121.425 283.702 114.029 288.252L115.645 298.826C127.179 293.922 144.577 284.373 146.988 281.191C147.945 278.547 149.503 250.255 150.014 245.29C150.242 243.077 155.607 230.346 155.607 230.346L152.049 230.308Z" fill="#F47458"/>
<path d="M162.081 183.764L153.992 183.38C153.992 183.38 147.606 182.465 146.821 182.335C146.032 182.206 137.036 205.792 134.079 214.739C131.126 223.685 131.877 227.313 131.877 227.313C131.877 227.313 136.807 231.222 145.723 232.727C152.719 233.908 160.435 228.513 160.435 228.513C160.435 228.513 162.371 210.852 161.963 205.125C161.555 199.394 162.081 183.764 162.081 183.764Z" fill="white"/>
<path d="M154.015 178.819L153.679 183.425C153.679 183.425 154.571 190.292 152.753 191.206C150.936 192.121 147.225 182.412 147.225 182.412L149.134 170.749L154.015 178.819Z" fill="#F7A491"/>
<path d="M153.782 182.02C151.336 180.751 148.623 176.758 149.134 170.81L154.011 178.823L153.782 182.02Z" fill="#F47458"/>
<path d="M159.166 162.812C160.801 163.33 161.906 164.938 161.955 166.756C161.997 168.265 161.963 170.471 161.612 172.902C160.965 177.379 157.311 180.496 155.112 180.134C152.913 179.772 148.364 176.777 149.187 170.406C149.538 167.674 149.999 164.092 152.685 162.991C154.773 162.138 157.288 162.218 159.166 162.812Z" fill="#F7A491"/>
<path d="M145.175 143.436C145.476 143.806 145.361 144.286 145.06 144.655C143.346 146.778 135.592 158.456 135.622 158.551C135.74 158.963 136.083 160.129 136.297 160.647C138.899 166.938 147.225 182.385 147.225 182.385L146.078 235.794C146.074 236.057 145.876 236.275 145.617 236.305C144.1 236.484 139.135 237.037 136.529 236.941C128.916 236.659 122.98 230.978 123.14 228.78C123.3 226.581 128.432 218.591 130.97 205.011C132.566 196.479 133.77 186.999 133.77 186.999C133.77 186.999 132.391 182.835 131.93 181.539C129.095 173.572 124.229 158.837 124.603 157.648C125.883 153.598 137.44 140.681 139.105 138.909C140.252 137.69 143.807 141.767 145.175 143.436Z" fill="#EC2529"/>
<path d="M171.973 323.405L163.034 321.39C163.034 321.39 159.867 323.969 154.796 323.405C154.796 323.405 153.527 325.368 153.832 328.496C153.832 328.496 159.018 328.961 165.945 328.504C165.945 328.504 170.266 328.469 174.59 326.598C178.911 324.727 171.973 323.405 171.973 323.405Z" fill="#F7CC7F"/>
<path d="M148.326 175.328C148.326 175.328 143.125 166.229 144.455 160.96C145.788 155.69 151.428 154.444 155.539 155.602C157.394 156.124 158.614 156.604 160.431 157.454C164.341 159.276 166.398 161.931 164.398 164.983C161.712 169.08 154.472 162.579 152.296 163.421C150.502 164.115 151.927 167.628 150.201 168.241C148.581 168.817 149.225 168.744 149.05 170.771C148.882 172.795 148.326 175.328 148.326 175.328Z" fill="#F7CC7F"/>
<path d="M147.469 168.306C147.255 169.602 147.716 170.76 148.497 170.886C149.278 171.015 150.086 170.067 150.3 168.771C150.513 167.475 150.052 166.317 149.271 166.191C148.49 166.066 147.682 167.011 147.469 168.306Z" fill="#F7A491"/>
<path d="M156.248 132.87C155.489 132.687 154.693 132.938 154.179 133.521L152.7 135.202C152.426 135.514 152.037 135.701 151.622 135.72L148.551 135.861L145.575 142.498L148.829 139.305C149.442 138.703 150.246 138.345 151.104 138.288L152.727 138.029C153.131 137.999 153.836 137.526 154.049 137.183L156.571 133.62C156.743 133.319 156.579 132.95 156.248 132.87Z" fill="#F7A491"/>
<path d="M175.555 129.357V133.571C175.555 133.571 176.69 136.562 177.326 137.404C177.601 137.763 178.702 138.578 178.702 138.578C179.06 138.883 179.254 139.34 179.228 139.812L178.851 146.187L184.711 147.25L184.76 138.608L185.618 135.175V131.62L177.54 131.895L175.555 129.357Z" fill="#F7A491"/>
<path d="M180.016 134.604L177.326 137.408L175.555 133.575C175.555 133.575 174.751 128.366 174.983 128.187C175.288 127.947 176.141 128.031 176.492 128.564C176.961 129.285 177.502 131.841 177.502 131.841L180.02 133.461V134.604H180.016Z" fill="#F7A491"/>
<path d="M177.578 131.891L178.748 132.622C179.517 133.118 180.104 133.853 180.413 134.714L180.622 135.293L180.683 134.379C180.737 133.613 180.557 132.851 180.176 132.184L179.959 131.814L177.578 131.891Z" fill="#F57258"/>
<path d="M151.93 135.175C151.93 135.175 151.546 135.305 151.412 135.305C151.13 135.309 150.307 135.05 150.307 135.05C150.307 135.05 150.886 135.534 151.107 135.64C151.405 135.785 151.77 135.709 152.09 135.621L151.93 135.175Z" fill="#F57258"/>
<path d="M177.681 146.058C177.189 147.578 173.314 168.318 173.314 168.318C173.314 168.318 153.58 183.167 153.649 183.33C153.695 183.433 153.737 183.54 153.782 183.647C154.087 183.757 154.83 184.176 155.84 185.742C157.25 187.93 159.551 191.035 159.772 199.566C159.787 200.157 158.808 229.519 158.808 229.519L159.605 231.203L160.915 234.362C161.822 234.747 164.501 235.059 164.92 234.583C165.781 233.604 165.808 226.532 165.495 220.733C164.969 211.035 163.198 195.943 163.35 194.026C163.735 192.952 182.611 175.969 182.611 175.969C182.775 175.813 182.882 175.611 182.916 175.386C183.171 173.671 184.311 166.07 184.387 165.67C186.021 156.94 186.342 147.586 186.342 147.586C184.92 144.679 178.062 144.873 177.681 146.058Z" fill="#DD484B"/>
<path d="M302.282 55.0211C302.282 55.0211 302.37 52.3996 304.904 50.6697C307.159 49.1265 309.941 49.8505 311.366 51.9347C313.016 54.3467 312.848 58.6524 309.042 64.9013C301.84 66.1854 297.763 64.7832 296.113 62.3674C294.688 60.2832 295.02 57.4292 297.275 55.8822C299.809 54.1562 302.282 55.0211 302.282 55.0211Z" fill="#F47458"/>
<path d="M335.375 10.5126C335.375 10.5126 337.234 9.16373 339.795 9.98295C342.077 10.7145 343.072 13.0274 342.397 15.1345C341.616 17.5769 338.549 19.7793 332.174 20.5071C327.407 16.2166 326.184 12.6425 326.966 10.2001C327.64 8.0892 329.793 6.78226 332.075 7.51384C334.643 8.33306 335.375 10.5126 335.375 10.5126Z" fill="#F47458"/>
<path d="M337.01 37.8403C337.01 37.8403 339.989 35.5122 344.062 36.7734C347.694 37.8975 349.256 41.7192 348.159 45.2666C346.89 49.3742 341.971 53.1769 331.805 54.6553C324.253 47.69 322.344 41.7764 323.612 37.6688C324.71 34.1214 328.158 31.8505 331.789 32.9745C335.866 34.2357 337.01 37.8403 337.01 37.8403Z" fill="#F47458"/>
<path d="M571.836 46.242C570.815 48.1357 571.249 50.3724 572.835 51.2678C574.442 52.1785 576.626 51.3631 577.708 49.4503C578.79 47.5375 578.363 45.2475 576.755 44.3368C576.336 44.1006 575.875 43.9825 575.41 43.9672L578.653 38.6747L585.367 45.7467L579.823 54.8C579.815 54.8114 579.807 54.819 579.804 54.8305C578.721 56.7433 579.148 59.0333 580.756 59.9439C582.364 60.8546 584.547 60.0392 585.63 58.1264C586.712 56.2136 586.285 53.9236 584.677 53.013C584.258 52.7767 583.801 52.6586 583.332 52.6433L589.272 42.946C589.463 42.6336 589.444 42.245 589.223 42.024L580.588 33.3974C580.299 33.1078 579.8 33.2221 579.552 33.6298L571.832 46.2306L571.836 46.242Z" fill="#50BFA5"/>
<path d="M599.229 29.4769C599.93 32.2241 602.342 34.0035 604.681 33.4587C607.051 32.9062 608.442 30.1703 607.787 27.3507C607.128 24.5311 604.674 22.6907 602.3 23.2432C601.679 23.388 601.13 23.6813 600.665 24.0852L599.088 16.0607L611.906 16.9295L614.603 30.6543C614.607 30.6695 614.607 30.6848 614.611 30.7038C615.266 33.5234 617.724 35.3638 620.098 34.8113C622.472 34.2588 623.862 31.523 623.203 28.7034C622.548 25.8837 620.09 24.0433 617.716 24.5958C617.099 24.7406 616.55 25.034 616.086 25.4379L613.194 10.7377C613.098 10.2614 612.736 9.90703 612.325 9.88798L596.257 9.22877C595.719 9.20591 595.335 9.75842 595.456 10.3795L599.213 29.4845L599.229 29.4769Z" fill="#3C8F7C"/>
<path d="M586.319 343.413H257.256C247.859 343.413 240.239 336.791 240.239 328.622V328.477H603.5C603.504 336.726 595.807 343.413 586.319 343.413Z" fill="#355389"/>
<path d="M423.881 343.413H135.737C127.506 343.413 120.838 336.791 120.838 328.622V328.477H438.928C438.928 336.726 432.192 343.413 423.881 343.413Z" fill="#466EB6"/>
<path d="M396.378 152.462C396.378 152.462 392.934 148.831 390.164 153.247C390.164 153.247 388.03 152.051 386.532 154.185C386.532 154.185 382.676 153.026 381.739 158.791C381.739 158.791 379.754 158.418 379.495 160.776C379.232 163.135 380.432 164.705 380.432 164.705C380.432 164.705 379.319 165.539 379.822 167.707C380.253 169.552 381.777 169.834 381.777 169.834C381.777 169.834 382.189 172.939 383.537 173.876C384.886 174.814 386.719 174.364 386.719 174.364C386.719 174.364 387.207 176.048 388.777 175.9C390.35 175.751 392.297 174.254 394.054 174.928C395.814 175.602 400.379 174.89 400.379 174.89C400.379 174.89 405.508 172.608 403.972 167.365C403.972 167.365 406.666 164.93 404.308 162.011C404.308 162.011 406.03 157.446 402.623 154.749C399.225 152.051 396.378 152.462 396.378 152.462Z" fill="#07345A"/>
<path d="M356.313 117.099L354.507 123.855L353.665 135.815L360.188 137.202C360.188 137.202 360.222 129.544 361.579 127.997C362.645 126.781 364.048 124.849 364.28 124.095C365.061 121.523 356.313 117.099 356.313 117.099Z" fill="#F7A491"/>
<path d="M363.994 122.586L360.131 127.322C358.988 128.713 357.162 128.29 356.758 126.526L356.282 123.226C356.286 123.23 361.788 120.178 363.994 122.586Z" fill="#F47458"/>
<path d="M390.945 114.035L374.187 112.385C373.333 112.301 372.495 112.637 371.946 113.281L361.159 125.927C359.776 127.55 357.094 126.891 356.618 124.815L352.925 108.625C352.739 107.801 352.148 107.116 351.355 106.796L335.737 100.524C333.733 99.7198 333.519 97.0068 335.379 95.9361L349.854 87.58C350.593 87.1533 351.066 86.3988 351.123 85.5568L352.258 69.0352C352.403 66.9166 354.956 65.8955 356.579 67.3129L369.218 78.3362C369.862 78.8963 370.742 79.1135 371.573 78.9116L387.893 74.9717C389.988 74.4649 391.775 76.5492 390.922 78.4924L384.258 93.6613C383.918 94.4348 383.987 95.3226 384.444 96.0428L393.395 110.133C394.542 111.943 393.094 114.249 390.945 114.035Z" fill="#F7CC7F"/>
<path d="M362.139 125.36L361.308 123.169C361.308 123.169 359.567 120.871 360.275 120.235C361.457 119.179 364.07 122.849 364.07 122.849C364.07 122.849 363.884 125.63 362.139 125.36Z" fill="#F7A491"/>
<path d="M354.507 123.858C354.507 123.858 354.872 119.107 355.009 118.993C355.779 118.349 357.982 117.461 358.641 117.895C359.3 118.33 357.147 120.456 357.147 120.456C357.147 120.456 358.138 120.879 358.164 121.835C358.191 122.792 354.507 123.858 354.507 123.858Z" fill="#F7A491"/>
<path d="M426.186 122.742L426.617 129.722L425.066 141.611L418.398 141.675C418.398 141.675 419.884 134.161 418.863 132.378C418.059 130.976 417.065 128.804 416.992 128.015C416.737 125.337 426.186 122.742 426.186 122.742Z" fill="#F7A491"/>
<path d="M417.571 126.594L420.414 132.005C421.256 133.597 423.131 133.544 423.877 131.894L424.998 128.754C424.998 128.754 420.212 124.67 417.571 126.594Z" fill="#F47458"/>
<path d="M397.178 116.249L411.425 117.704C412.153 117.777 412.793 118.2 413.144 118.828L420.002 131.189C420.882 132.774 423.23 132.679 423.976 131.029L429.787 118.158C430.084 117.502 430.69 117.03 431.407 116.9L445.486 114.309C447.292 113.978 447.928 111.753 446.56 110.545L435.903 101.137C435.362 100.657 435.091 99.9482 435.187 99.2356L437.031 85.2708C437.267 83.4799 435.312 82.1996 433.723 83.1027L421.328 90.1594C420.696 90.5176 419.926 90.5481 419.267 90.2432L406.327 84.2039C404.666 83.4304 402.825 84.8631 403.21 86.6272L406.205 100.398C406.358 101.099 406.148 101.83 405.649 102.352L395.807 112.583C394.534 113.898 395.35 116.062 397.178 116.249Z" fill="#F7CC7F"/>
<path d="M372.663 304.59C372.663 304.59 368.91 309.242 367.976 309.814C367.042 310.386 368.391 317.145 370.94 317.587C372.377 317.838 373.173 316.257 373.173 316.257L372.762 314.31L378.123 308.785L372.663 304.59Z" fill="#F7A491"/>
<path d="M391.993 305.737C391.993 305.737 388.864 310.831 388.011 311.517C387.157 312.203 389.36 318.734 391.943 318.848C393.399 318.913 393.989 317.244 393.989 317.244L393.334 315.366L397.944 309.204L391.993 305.737Z" fill="#F7A491"/>
<path d="M388.197 311.319C388.197 311.319 389.992 313.609 390.975 314.523C392.24 315.701 393.86 316.852 393.86 316.852C393.86 316.852 395.696 320.182 396.195 321.344C397.312 323.931 398.565 326.816 398.386 328.263C398.329 328.728 397.285 329.22 396.413 328.953C392.789 327.841 383.522 319.363 382.352 317.088C381.004 314.459 388.197 311.319 388.197 311.319Z" fill="#07345A"/>
<path d="M414.653 233.744C414.317 232.803 413.993 231.931 413.681 231.111C409.825 231.953 405.474 232.879 400.993 233.832L400.448 250.247C400.451 248.978 403.816 276.431 403.816 276.431C403.816 276.431 395.898 295.506 389.946 306.735C392.389 309.783 393.037 310.218 396.573 312.294C405.813 301.218 417.621 281.693 418.124 278.321C418.41 276.386 418.669 245.05 414.653 233.744Z" fill="#B75742"/>
<path d="M380.245 238.492C381.423 251.283 384.04 275.742 383.823 277.708C383.164 280.158 371.992 302.791 369.896 306.083C371.562 308.591 374.015 310.949 376.786 311.7C377.33 311.848 396.203 284.841 397.255 282.673C398.44 280.219 400.413 266.829 400.448 250.251L400.993 233.836C393.528 235.425 386.666 236.983 380.245 238.492Z" fill="#F47458"/>
<path d="M404.749 180.183L395.967 181.391C395.967 181.391 388.925 181.562 388.053 181.562C387.18 181.562 381.663 213.603 380.066 225.663C378.47 237.722 379.704 239.856 379.704 239.856C379.704 239.856 390.842 242.36 399.08 241.632C407.649 240.874 417.289 236.248 417.289 236.248C417.289 236.248 407.36 213.603 405.908 206.367C404.46 199.132 404.749 180.183 404.749 180.183Z" fill="white"/>
<path d="M426.049 141.363C426.049 141.363 426.613 165.254 425.714 167.083C424.403 169.738 409.654 188.588 409.654 188.588C409.654 188.588 416.699 218.076 419.663 228.257C419.96 229.282 421.283 235.909 421.283 236.552C421.283 237.985 415.049 239.803 414.31 239.696C413.647 239.601 408.209 211.549 404.734 197.824C403.557 193.172 401.541 188.779 398.779 184.854L396.363 181.425L414.893 162.849C414.893 162.849 417.175 142.174 417.175 140.464C417.179 140.018 425.154 139.679 426.049 141.363Z" fill="#466EB6"/>
<path d="M388.373 181.516L365.267 157.972C365.267 157.972 362.047 135.709 361.819 134.87C361.594 134.047 355.855 133.601 353.543 133.377C352.8 133.304 353.931 157.092 355.036 161.078C356.343 165.787 373.81 187.251 373.81 187.251C373.81 187.251 376.942 198.876 376.187 207.4C374.934 221.563 371.558 241.041 372.164 241.655C375.917 244.021 390.331 244.272 391.246 242.805C401.316 226.577 388.373 181.516 388.373 181.516Z" fill="#466EB6"/>
<path d="M395.799 177.119L396.424 181.745C396.424 181.745 397.822 188.409 396.024 189.693C394.229 190.978 388.384 181.555 388.384 181.555L389.002 169.834L395.799 177.119Z" fill="#F7A491"/>
<path d="M388.8 173.633C390.286 177.63 393.818 180.088 396.329 181.04L395.799 177.119L388.998 169.834L388.8 173.633Z" fill="#F47458"/>
<path d="M379.434 161.867C379.434 163.654 380.447 165.098 381.701 165.098C382.954 165.098 383.968 163.65 383.968 161.867C383.968 160.084 382.951 158.636 381.701 158.636C380.451 158.636 379.434 160.084 379.434 161.867Z" fill="#07345A"/>
<path d="M386.239 154.92C386.239 155.945 387.474 156.776 388.998 156.776C390.522 156.776 391.756 155.945 391.756 154.92C391.756 153.895 390.522 153.061 388.998 153.061C387.474 153.061 386.239 153.895 386.239 154.92Z" fill="#07345A"/>
<path d="M393.151 157.519C396.797 156.265 400.684 158.685 401.24 162.446C401.48 164.08 401.701 166.134 401.743 168.378C401.842 173.781 399.045 179.04 396.592 179.04C394.138 179.04 387.359 175.542 387.111 167.872C386.959 163.139 389.325 158.837 393.151 157.519Z" fill="#F7A491"/>
<path d="M388.918 168.477C388.918 169.67 388.129 170.634 387.153 170.634C386.178 170.634 385.389 169.666 385.389 168.477C385.389 167.285 386.178 166.321 387.153 166.321C388.129 166.321 388.918 167.289 388.918 168.477Z" fill="#F7A491"/>
<path d="M403.778 154.832C406.312 156.84 407.2 159.889 405.763 161.645C404.323 163.402 401.103 163.196 398.569 161.188C396.035 159.18 395.148 156.132 396.584 154.375C398.024 152.619 401.244 152.824 403.778 154.832Z" fill="#07345A"/>
<path d="M397.152 156.479C397.152 157.351 396.1 158.06 394.801 158.06C393.501 158.06 392.45 157.351 392.45 156.479C392.45 155.606 393.501 154.897 394.801 154.897C396.1 154.897 397.152 155.606 397.152 156.479Z" fill="#07345A"/>
<path d="M404.155 163.193C404.155 164.313 403.256 165.224 402.147 165.224C401.038 165.224 400.139 164.313 400.139 163.193C400.139 162.072 401.038 161.162 402.147 161.162C403.256 161.162 404.155 162.069 404.155 163.193Z" fill="#07345A"/>
<path d="M418.84 129.684L420.09 127.703C420.09 127.703 422.25 125.794 421.683 125.032C420.738 123.763 417.446 126.842 417.446 126.842C417.446 126.842 417.072 129.597 418.84 129.684Z" fill="#F7A491"/>
<path d="M426.617 129.722C426.617 129.722 427.2 124.994 427.086 124.853C426.457 124.068 424.476 122.761 423.744 123.054C423.012 123.352 424.697 125.863 424.697 125.863C424.697 125.863 423.641 126.08 423.428 127.013C423.218 127.947 426.617 129.722 426.617 129.722Z" fill="#F7A491"/>
<path d="M368.189 309.638C368.189 309.638 369.679 312.138 370.533 313.167C371.638 314.497 373.097 315.845 373.097 315.845C373.097 315.845 374.492 319.381 374.842 320.601C375.62 323.31 376.496 326.579 376.13 327.993C376.012 328.446 375.014 329.311 374.191 328.778C371.013 326.709 362.523 317.015 361.651 314.611C360.649 311.833 368.189 309.638 368.189 309.638Z" fill="#07345A"/>
<path d="M505.655 183.662C504.188 180.133 502.698 176.597 498.895 174.814C495.816 173.37 492.6 173.911 489.865 175.969C482.114 181.795 488.866 188.215 480.045 199.269C477.306 202.702 473.987 205.476 472.345 209.499C470.047 215.131 472.783 217.836 477.172 220.534C498.171 233.44 509.179 206.943 508.783 200.88C508.486 196.365 506.596 185.933 505.655 183.662Z" fill="#13375B"/>
<path d="M518.297 301.176C517.261 305.859 515.63 309.955 515.413 310.435C515.306 310.667 514.342 311.49 514.228 311.727C514.533 317.492 518.076 321.031 521.429 323.584C520.785 320.658 519.238 317.278 519.475 316.642C519.852 315.628 521.342 310.991 524.379 305.196C521.525 304.777 520.564 303.001 518.297 301.176Z" fill="#F7A491"/>
<path d="M505.335 232.7L487.46 246.276C487.46 246.276 496.312 254.792 499.63 257.955C502.949 261.121 523.434 275.86 523.723 276.584C523.937 277.121 519.063 294.065 515.92 303.107C517.81 305.039 521.97 306.933 524.436 307.554C530.631 295.727 538.248 275.547 538.248 272.808C538.248 268.346 505.335 232.7 505.335 232.7Z" fill="#355389"/>
<path d="M455.191 259.788C455.774 260.36 459.656 267.916 461.131 271.962C463.291 270.602 464.598 268.979 467.014 268.064C465.109 265.306 461.394 258.672 461.089 257.095C460.365 253.349 459.515 252.797 459.515 252.797C459.515 252.797 446.957 257.045 446.122 258.238C445.284 259.426 452.844 257.498 455.191 259.788Z" fill="#F7A491"/>
<path d="M461.238 257.925C462.213 257.929 461.154 253.524 460.929 252.51C460.678 251.367 460.018 251.028 459.851 250.986C459.405 250.876 445.448 255.597 443.089 257.292C442.929 257.407 442.643 257.769 442.597 257.853C441.306 260.261 452.813 260.722 454.467 259.666C455.945 258.733 456.856 257.913 461.238 257.925Z" fill="#EC2529"/>
<path d="M509.156 236.709C509.156 236.709 493.553 230.407 493.553 230.403C493.614 230.43 493.458 231.04 493.446 231.085C491.983 236.782 484.172 234.583 480.952 244.479C478.678 251.471 475.343 277.621 475.343 277.621C475.343 277.621 472.981 273.125 465.639 264.853C465.071 264.212 457.839 269.177 457.839 269.177C463.219 283.435 476.426 295.023 478.213 294.203C490.295 288.659 504.805 244.924 504.79 244.928C506.158 242.261 509.156 236.709 509.156 236.709Z" fill="#466EB6"/>
<path d="M509.732 190.685C509.732 190.685 517.051 179.097 518.32 175.245C519.593 171.393 518.332 153.035 518.21 151.732C518.088 150.428 513.664 146.862 514.361 145.837C515.059 144.812 521.163 143.974 522.188 144.176C523.213 144.378 525.205 144.195 526.017 145.018C526.124 145.125 524.074 149.96 524.116 150.707C524.405 155.82 527.313 172.105 526.36 176.51C525.266 181.574 514.399 197.757 514.399 197.757L509.732 190.685Z" fill="#F7A491"/>
<path d="M483.155 197.432C483.155 197.432 463.577 197.92 459.279 198.271C454.981 198.621 439.385 197.326 438.78 197.257C438.174 197.188 434.18 190.421 433.517 191.149C432.854 191.877 435.739 194.502 434.847 195.184C433.956 195.866 424.361 194.338 424.491 195.047C424.731 196.373 430.324 196.205 430.321 196.845C430.313 197.486 424.464 196.487 424.068 197.55C423.672 198.613 429.696 197.985 429.936 198.457C430.176 198.93 424.346 199.802 424.944 200.789C425.268 201.326 430.107 199.894 430.084 200.625C430.062 201.357 426.529 203.022 426.96 203.609C427.394 204.192 429.734 201.818 431.78 201.787C433.83 201.757 435.297 200.69 438.566 201.585C441.839 202.485 452.988 206.981 459.969 206.649C466.949 206.318 482.37 205.628 482.37 205.628L483.155 197.432Z" fill="#F7A491"/>
<path d="M511.888 217.875C512.155 214.647 512.605 205.933 512.46 204.862C513.435 201.509 517.002 196.537 517.749 195.131C517.749 195.131 512.913 189.655 509.328 189.701C509.328 189.701 505.514 194.517 502.686 195.992C502.644 195.98 501.684 196.419 501.261 196.415C498.529 196.396 488.981 196.106 487.197 196.64L488.207 211.393C488.721 212.239 489.343 229.206 490.402 230.601C491.457 231.999 506.828 238.355 509.377 236.713C509.476 236.652 511.351 224.402 511.888 217.875Z" fill="#EC2529"/>
<path d="M492.174 196.979C490.413 196.137 477.546 196.163 477.546 196.163C477.546 196.163 475.767 205.038 477.203 207.171C477.203 207.171 488.6 208.867 488.276 209.801L492.174 196.979Z" fill="#EC2529"/>
<path d="M495.035 190.981C495.035 190.981 496.026 196.098 495.828 198.118C495.63 200.137 496.582 206.645 500.857 206.664C505.133 206.687 501.669 198.392 501.265 196.411C500.861 194.433 500.766 188.306 500.766 188.306L495.035 190.981Z" fill="#F7A491"/>
<path d="M500.854 191.385C500.785 189.709 500.766 188.314 500.766 188.314L495.035 190.985C495.035 190.985 495.237 192.033 495.439 193.367C497.946 193.866 499.768 192.936 500.854 191.385Z" fill="#F47458"/>
<path d="M492.94 176.853C492.94 176.853 490.733 178.08 489.926 180.735C489.118 183.391 490.036 190.242 495.74 191.896C501.444 193.55 503.917 188.124 502.74 183.883C501.566 179.638 499.01 174.269 492.94 176.853Z" fill="#F7A491"/>
<path d="M503.456 182.237C503.346 183.376 502.717 184.245 502.054 184.18C501.391 184.115 500.941 183.14 501.055 182C501.166 180.861 501.795 179.992 502.458 180.057C503.121 180.122 503.567 181.097 503.456 182.237Z" fill="#F7A491"/>
<path d="M515.36 310.576C515.032 309.658 511.294 312.417 510.418 312.973C509.431 313.598 509.332 314.337 509.351 314.505C509.396 314.95 518.255 326.663 520.907 328.332C521.159 328.489 521.696 328.511 521.856 328.458C523.38 327.932 521.254 318.525 519.345 316.612C518.114 315.377 516.842 314.703 515.36 310.576Z" fill="#EC2529"/>
<path d="M482.861 135.541L498.579 141.127C499.379 141.413 499.989 142.072 500.21 142.895L504.512 159.055C505.064 161.128 507.746 161.661 509.053 159.962L519.231 146.69C519.749 146.016 520.564 145.635 521.414 145.68L538.073 146.549C540.211 146.66 541.552 144.267 540.34 142.499L530.913 128.709C530.433 128.008 530.33 127.113 530.635 126.316L536.629 110.694C537.398 108.69 535.543 106.674 533.489 107.284L517.486 112.031C516.67 112.275 515.79 112.096 515.131 111.563L502.176 101.039C500.515 99.6898 498.026 100.837 497.969 102.982L497.504 119.705C497.482 120.559 497.039 121.344 496.327 121.809L482.32 130.931C480.526 132.1 480.842 134.825 482.861 135.541Z" fill="#F7CC7F"/>
<path d="M514.472 145.997C513.885 146.858 517.063 149.586 517.943 151.091L519.94 148.375C518.953 148.18 515.138 145.01 514.472 145.997Z" fill="#F7A491"/>
<path d="M493.61 176.51C493.61 176.51 492.578 184.154 490.105 185.533C487.632 186.912 488.668 190.303 488.668 190.303C488.668 190.303 486.428 182.431 488.379 179.901C490.333 177.371 493.61 176.51 493.61 176.51Z" fill="#13375B"/>
<path d="M491.568 186.63C492.239 187.625 492.235 188.802 491.564 189.252C490.89 189.705 489.8 189.263 489.133 188.269C488.462 187.274 488.466 186.097 489.137 185.647C489.807 185.198 490.897 185.632 491.568 186.63Z" fill="#F7A491"/>
<path d="M519.269 146.637C519.254 146.656 519.238 146.671 519.223 146.69L518.499 147.631C519.033 147.486 520.042 147.201 521.029 147.875C521.033 147.875 520.709 147.178 519.269 146.637Z" fill="#F47257"/>
<path d="M597.022 240.953C597.224 241.037 594.344 244.752 591.536 247.377C589.272 250.216 587.15 253.581 586.418 257.246C585.306 262.821 586.232 290.362 585.264 292.32C576.957 300.44 570.945 320.821 569.253 327.04C568.925 328.252 568.258 329.341 567.332 330.195L567.702 337.221L571.829 341.024C571.829 341.024 570.91 335.297 572.747 331.052C572.747 331.052 593.658 299.381 594.9 296.961C597.274 290.068 605.908 254.743 605.908 254.743L607.912 246.623C607.916 246.623 597.038 240.961 597.022 240.953Z" fill="#F7A491"/>
<path d="M562.813 332.455C562.813 332.455 565.427 336.479 565.648 338.048C565.873 339.618 567.264 343.177 568.803 343.402C569.154 343.451 575.136 343.893 575.094 343.143C575.06 342.571 572.895 341.756 571.89 341.059C570.152 339.858 567.45 330.077 567.45 330.077C567.45 330.077 562.924 331.201 562.813 332.455Z" fill="#F47458"/>
<path d="M614.897 253.162C614.897 253.162 628.366 281.964 628.454 287.028C628.526 291.368 626.099 315.724 626.777 336.002C626.8 336.734 627.73 337.709 629.079 338.327C629.837 338.673 633.506 340.312 633.506 340.312L634.009 341.623L621.378 340.723L621.199 337.275C621.199 337.275 616.169 306.937 616.684 298.356C616.764 297.007 617.419 288.937 617.419 288.937L602.227 259.605L611.784 247.05L614.897 253.162Z" fill="#F7A491"/>
<path d="M616.158 188.516C614.116 183.079 608.785 179.786 603.233 180.804C601.53 178.053 598.688 176.01 595.597 175.351C589.501 174.044 581.255 176.452 581.48 182.907C579.114 187.243 579.023 193.443 582.642 196.742C581.385 202.572 586.845 208.211 593.944 208.006C596.417 212.083 601.126 214.704 605.813 214.144C606.937 214.011 608.652 213.729 608.937 213.801C608.579 213.736 616.463 219.776 623.142 210.486C629.951 201.006 625.166 189.526 616.158 188.516Z" fill="#355389"/>
<path d="M615.354 155.9C615.682 155.118 616.089 154.375 616.566 153.678L617.091 152.912C617.156 152.775 617.206 152.661 617.232 152.585C617.461 151.906 617.286 149.719 617.286 149.719L612.679 150.836L611.669 153.495C610.644 153.023 608.892 149.456 608.252 150.31C607.497 151.32 610.343 155.705 610.568 156.894C610.793 158.079 608.122 176.51 607.348 180.168C606.575 183.826 601.362 194.045 601.362 194.045L606.133 200.096C606.133 200.096 613.78 184.519 614.283 179.764C614.337 179.265 614.394 178.514 614.459 177.588L615.354 155.9Z" fill="#F7A491"/>
<path d="M583.587 213.603L577.925 208.802C577.925 208.802 573.341 216.446 569.668 222.68C566.025 221.361 556.61 215.223 556.145 214.941C555.68 214.659 554.648 207.72 553.851 208.09C553.055 208.459 554.465 211.751 553.497 211.995C552.529 212.243 545.282 207.396 545.13 208.044C544.852 209.256 549.458 211.184 549.226 211.725C548.993 212.266 544.596 209.252 543.895 210.006C543.194 210.757 548.315 212.456 548.342 212.948C548.368 213.439 543.324 212.014 543.457 213.074C543.529 213.649 547.972 214.228 547.694 214.838C547.412 215.448 543.952 215.55 544.097 216.202C544.242 216.857 546.985 215.714 548.662 216.45C550.338 217.185 551.908 216.823 554.248 218.793C556.583 220.763 568.072 232.007 571.65 231.043C574.766 230.201 583.587 213.603 583.587 213.603Z" fill="#F7A491"/>
<path d="M584.018 287.76C584.018 287.765 584.023 287.765 584.023 287.76C584.028 287.755 584.018 287.76 584.018 287.76Z" fill="#F47458"/>
<path d="M603.287 206.463C603.649 204.249 607.074 198.705 607.615 197.348C607.615 197.348 603.641 192.3 600.417 192.681C600.417 192.681 596.081 199.867 593.62 200.107C591.155 200.347 582.49 200.724 580.97 201.646C579.449 202.568 573.002 212.468 573.002 212.468C573.002 212.468 578.798 218.385 581.126 218.37C581.126 218.37 582.364 215.931 582.86 215.398C583.21 216.529 588.609 234.019 588.602 237.982L588.644 238.016C593.688 242.108 601.05 241.163 604.944 235.92C604.944 235.92 604.487 230.468 604.746 225.442C605.15 217.566 606.743 213.378 603.287 206.463Z" fill="#F47458"/>
<path d="M631.38 274.115L604.94 235.92C603.31 236.58 601.766 237.155 600.025 237.49C596.234 238.222 592.439 238.104 588.598 237.982C588.598 238.127 588.59 238.252 588.575 238.355C588.133 241.503 583.957 246.38 583.096 255.936C582.12 266.784 582.711 285.622 583.039 286.861C600.623 284.723 626.393 279.347 631.38 274.115Z" fill="#466EB6"/>
<path d="M615.964 153.03C615.964 153.03 614.302 154.142 612.893 153.784C611.483 153.426 610.835 152.9 610.835 152.9C610.835 152.9 611.616 154.325 612.767 154.943C614.748 156.01 615.964 153.03 615.964 153.03Z" fill="#F47458"/>
<path d="M583.18 145.147L598.55 141.977C599.332 141.817 600.143 142.068 600.715 142.647L611.955 154.074C613.396 155.541 615.819 154.646 616.055 152.562L617.892 136.311C617.987 135.484 618.463 134.756 619.168 134.371L633.034 126.762C634.813 125.787 634.745 123.104 632.916 122.22L618.677 115.35C617.953 115 617.438 114.298 617.301 113.479L614.63 97.3463C614.287 95.2773 611.822 94.5115 610.458 96.0508L599.823 108.053C599.282 108.663 598.486 108.96 597.697 108.838L582.181 106.48C580.192 106.179 578.737 108.389 579.72 110.221L587.386 124.51C587.779 125.238 587.798 126.118 587.447 126.869L580.531 141.542C579.64 143.425 581.206 145.555 583.18 145.147Z" fill="#F7CC7F"/>
<path d="M589.162 193.74C589.162 193.74 590.092 198.747 589.905 200.724C589.718 202.698 590.614 209.065 594.63 209.088C598.646 209.107 595.392 200.995 595.014 199.059C594.637 197.123 594.546 191.13 594.546 191.13L589.162 193.74Z" fill="#F7A491"/>
<path d="M594.63 194.132C594.569 192.494 594.546 191.126 594.546 191.126L589.162 193.736C589.162 193.736 589.352 194.761 589.543 196.064C591.901 196.559 593.608 195.653 594.63 194.132Z" fill="#F47458"/>
<path d="M587.196 179.92C587.196 179.92 585.123 181.12 584.361 183.715C583.603 186.314 584.467 193.016 589.825 194.631C595.186 196.251 597.506 190.943 596.401 186.79C595.3 182.644 592.9 177.386 587.196 179.92Z" fill="#F7A491"/>
<path d="M597.076 185.186C596.969 186.298 596.379 187.152 595.758 187.087C595.133 187.022 594.713 186.07 594.82 184.953C594.923 183.837 595.517 182.987 596.139 183.052C596.76 183.117 597.179 184.069 597.076 185.186Z" fill="#F7A491"/>
<path d="M585.904 189.48C586.533 190.455 586.533 191.602 585.9 192.048C585.268 192.49 584.243 192.059 583.614 191.088C582.985 190.112 582.985 188.965 583.618 188.52C584.25 188.074 585.275 188.504 585.904 189.48Z" fill="#F7A491"/>
<path d="M616.745 146.911C615.704 146.709 611.307 150.161 611.346 150.679C611.387 151.213 615.678 149.007 615.8 149.357C615.895 149.631 610.995 150.916 611.25 151.411C611.426 151.746 615.823 150.82 615.941 151.037C616.124 151.377 612.271 151.518 612.523 151.891C612.809 152.322 616.478 152.146 616.478 152.146C616.478 152.146 617.217 150.957 617.29 150.515C617.324 150.325 617.324 150.062 617.309 149.757C617.293 149.513 617.404 149.3 617.37 149.026C617.225 147.909 617.316 147.025 616.745 146.911Z" fill="#F7A491"/>
<path d="M610.881 149.555L609.242 151.579L608.164 150.771C608.164 150.771 608.072 150.603 608.198 150.321C608.324 150.043 610.843 148.805 610.881 149.555Z" fill="#F7A491"/>
<path d="M621.332 343.128H637.29C637.881 343.074 638.026 342.598 637.82 342.305C637.397 341.699 635.537 341.257 633.446 340.293C629.776 340.674 621.782 338.167 621.203 337.325C620.868 339.009 621.005 343.055 621.332 343.128Z" fill="#F47458"/>
<path d="M609.36 151.438C609.36 151.438 611.525 152.76 612.424 154.307C613.319 155.854 612.908 157.134 612.908 157.134L609.197 152.57L609.36 151.438Z" fill="#F7A491"/>
<path d="M252.314 71.8133L227.741 77.1631C224.841 77.7956 221.98 75.9552 221.351 73.0555L218.337 59.2164C217.704 56.3167 219.545 53.4552 222.444 52.8265L247.017 47.4768C249.917 46.8443 252.778 48.6847 253.407 51.5805L256.421 65.4196C257.05 68.3193 255.209 71.1808 252.314 71.8133Z" fill="#50BFA5"/>
<path d="M220.89 65.7853L212.85 78.7824L225.188 73.4708L220.89 65.7853Z" fill="#50BFA5"/>
<path d="M229.97 62.1621L233.098 61.3963C233.098 61.3963 236.39 57.5478 236.276 56.4733C236.162 55.4026 235.015 53.3374 235.563 52.9183C236.116 52.503 237.366 51.9885 238.501 53.1888C239.324 54.0576 239.656 57.8374 240.079 57.9974C240.345 58.1003 242.155 57.7078 243.474 57.403C244.342 57.2011 245.245 57.4983 245.825 58.1765C246.217 58.6338 246.236 59.3006 245.87 59.7807L245.303 60.5237L246.019 61.1333C246.552 61.5868 246.621 62.3869 246.171 62.9204L245.714 63.4691L246.19 63.8158C246.804 64.2616 246.895 65.1418 246.385 65.7019L245.969 66.1592L246.072 66.2773C246.507 66.7726 246.491 67.5195 246.034 67.9958L245.615 68.4339L237.278 70.4725C236.497 70.663 235.685 70.6935 234.893 70.5601L231.845 70.7925C231.517 70.8192 231.22 70.5982 231.147 70.2781L229.474 62.9585C229.398 62.6003 229.619 62.2498 229.97 62.1621Z" fill="white"/>
<path d="M437.08 3.50932C454.002 6.66046 466.149 17.6418 464.213 28.0364C463.246 33.2337 458.94 37.2993 452.76 39.6732L456.772 56.2786L444.537 41.6736C440.071 42.2299 435.141 42.0965 430.065 41.1516C413.144 38.0004 400.996 27.0191 402.932 16.6245C404.871 6.22991 420.158 0.358177 437.08 3.50932Z" fill="#FAE0B2"/>
<path d="M444.827 26.3488C442.228 31.7556 435.743 34.0342 430.336 31.4356C424.929 28.8369 422.65 22.3479 425.249 16.9411C427.848 11.5342 434.333 9.25564 439.74 11.8543C445.147 14.4529 447.425 20.9419 444.827 26.3488Z" fill="#F7CC7F"/>
<path d="M429.059 20.6827C427.672 23.5747 428.888 27.0421 431.78 28.4329C434.672 29.8199 438.139 28.6044 439.526 25.7123L429.059 20.6827Z" fill="#EFEFEF"/>
<path d="M525.766 22.7591L494.064 22.7553C492.002 22.7553 490.604 20.6634 491.385 18.7582L498.354 1.79465C498.8 0.708706 499.859 0 501.033 0L532.735 0.00381405C534.796 0.00381405 536.194 2.09568 535.413 4.00084L528.444 20.9644C527.995 22.0504 526.939 22.7591 525.766 22.7591Z" fill="#466EB6"/>
<path d="M513.752 13.031L501.486 4.12248C501.018 3.78336 500.911 3.12416 501.254 2.65549C501.593 2.18682 502.252 2.08013 502.721 2.42306L514.011 10.6191L530.281 3.43281C530.81 3.20038 531.432 3.44042 531.668 3.97006C531.904 4.49969 531.66 5.12078 531.131 5.35702L513.752 13.031Z" fill="white"/>
</svg>
