<svg width="30" height="30" viewBox="0 0 30 30" fill="none" xmlns="http://www.w3.org/2000/svg">
<circle cx="15" cy="15" r="15" fill="#E9E9E9"/>
<g clip-path="url(#clip0_4_4766)">
<path d="M19.9492 8H10.0508C8.92007 8 8 8.92007 8 10.0508V19.9492C8 21.0799 8.92007 22 10.0508 22H19.9492C21.0799 22 22 21.0799 22 19.9492V10.0508C22 8.92007 21.0799 8 19.9492 8ZM15.0273 18.6641C12.9918 18.6641 11.3359 17.0082 11.3359 14.9727C11.3359 12.9371 12.9918 11.2812 15.0273 11.2812C17.0629 11.2812 18.7188 12.9371 18.7188 14.9727C18.7188 17.0082 17.0629 18.6641 15.0273 18.6641ZM19.1289 12.1016C18.4504 12.1016 17.8984 11.5496 17.8984 10.8711C17.8984 10.1926 18.4504 9.64062 19.1289 9.64062C19.8074 9.64062 20.3594 10.1926 20.3594 10.8711C20.3594 11.5496 19.8074 12.1016 19.1289 12.1016Z" fill="#C92225"/>
<path d="M19.1289 10.4609C18.9026 10.4609 18.7188 10.6448 18.7188 10.8711C18.7188 11.0974 18.9026 11.2812 19.1289 11.2812C19.3552 11.2812 19.5391 11.0974 19.5391 10.8711C19.5391 10.6448 19.3552 10.4609 19.1289 10.4609Z" fill="#C92225"/>
<path d="M15.0273 12.1016C13.4444 12.1016 12.1562 13.3897 12.1562 14.9727C12.1562 16.5556 13.4444 17.8438 15.0273 17.8438C16.6103 17.8438 17.8984 16.5556 17.8984 14.9727C17.8984 13.3897 16.6103 12.1016 15.0273 12.1016Z" fill="#C92225"/>
</g>
<defs>
<clipPath id="clip0_4_4766">
<rect width="14" height="14" fill="white" transform="translate(8 8)"/>
</clipPath>
</defs>
</svg>
