<svg width="50" height="50" viewBox="0 0 50 50" fill="none" xmlns="http://www.w3.org/2000/svg">
<circle r="25" transform="matrix(-1 0 0 1 25 25)" fill="#EC2529"/>
<path d="M13.3405 23.78L20.78 16.3404C21.234 15.8865 21.9701 15.8865 22.424 16.3404C22.878 16.7944 22.878 17.5304 22.424 17.9844L16.9688 23.4396H36.8376C37.4795 23.4396 38 23.9601 38 24.602C38 25.2439 37.4795 25.7644 36.8376 25.7644H16.9688L22.4238 31.2196C22.8778 31.6736 22.8778 32.4096 22.4238 32.8636C22.1969 33.0904 21.8993 33.204 21.6018 33.204C21.3044 33.204 21.0069 33.0904 20.7799 32.8636L13.3405 25.424C12.8865 24.97 12.8865 24.234 13.3405 23.78Z" fill="white"/>
</svg>
