<svg width="130" height="45" viewBox="0 0 130 45" fill="none" xmlns="http://www.w3.org/2000/svg">
<rect x="0.5" y="0.5" width="129" height="44" stroke="#C92225"/>
<rect width="50" height="2" fill="#C92225"/>
<rect x="128" y="5" width="2" height="40" fill="#C92225"/>
<rect x="130" y="43" width="2" height="40" transform="rotate(90 130 43)" fill="#C92225"/>
<rect x="91" y="16" width="24" height="3" fill="#C92225"/>
<rect x="84" y="25" width="24" height="3" fill="#C92225"/>
<path d="M30.3659 16.832V28H28.1259V20.736L25.1339 28H23.4379L20.4299 20.736V28H18.1899V16.832H20.7339L24.2859 25.136L27.8379 16.832H30.3659ZM34.8206 18.64V21.44H38.5806V23.216H34.8206V26.176H39.0606V28H32.5806V16.816H39.0606V18.64H34.8206ZM50.6482 28H48.4082L43.3362 20.336V28H41.0962V16.816H43.3362L48.4082 24.496V16.816H50.6482V28ZM55.0698 16.832V23.744C55.0698 24.5013 55.2671 25.0827 55.6618 25.488C56.0565 25.8827 56.6111 26.08 57.3258 26.08C58.0511 26.08 58.6111 25.8827 59.0058 25.488C59.4005 25.0827 59.5978 24.5013 59.5978 23.744V16.832H61.8538V23.728C61.8538 24.6773 61.6458 25.4827 61.2298 26.144C60.8245 26.7947 60.2751 27.2853 59.5818 27.616C58.8991 27.9467 58.1365 28.112 57.2938 28.112C56.4618 28.112 55.7045 27.9467 55.0218 27.616C54.3498 27.2853 53.8165 26.7947 53.4218 26.144C53.0271 25.4827 52.8298 24.6773 52.8298 23.728V16.832H55.0698Z" fill="#C92225"/>
</svg>
