<svg width="1118" height="485" viewBox="0 0 1118 485" fill="none" xmlns="http://www.w3.org/2000/svg">
<path d="M874.267 479.779C874.171 478.097 874.363 476.335 874.766 474.588L875.092 473.275L875.494 471.929L875.82 470.872L876.05 470.023C876.817 467.508 877.68 465.04 878.562 462.67C880.249 458.344 882.013 453.842 883.854 449.133C887.497 440.017 891.6 430.197 896.278 419.784C900.975 409.371 906.229 398.349 912.269 386.847C915.279 381.096 918.481 375.216 921.913 369.241C923.619 366.245 925.383 363.233 927.205 360.19C929.045 357.13 931.02 353.894 933.033 350.77C939.84 340.181 947.816 329.223 955.888 318.762C963.96 308.301 972.108 298.272 979.49 289.429C980.449 288.276 981.408 287.138 982.347 286.017C983.325 284.896 984.284 283.822 985.261 282.781C987.198 280.73 989.096 278.856 990.937 277.11C994.599 273.649 997.992 270.702 1000.96 268.203C1006.95 263.269 1011.38 259.92 1014.5 260.753C1016.02 261.154 1017.18 262.644 1017.82 265.063C1018.49 267.482 1018.6 270.798 1018.16 274.643C1017.74 278.471 1016.76 282.845 1015.61 287.266C1015.06 289.381 1014.48 291.608 1013.89 293.915C1013.62 295.004 1013.33 296.11 1013.1 297.183L1012.91 297.984L1012.64 298.993C1012.45 299.666 1012.26 300.355 1012.07 301.044C1008.98 312.065 1004.4 324.177 999.162 336.16C993.928 348.143 988.061 360.013 982.405 370.827C981.58 372.365 980.775 373.903 979.97 375.441C979.126 377.011 978.282 378.58 977.439 380.134C975.732 383.258 973.988 386.318 972.224 389.33C968.696 395.353 965.034 401.153 961.295 406.744C953.817 417.91 945.994 428.162 938.095 437.486C930.196 446.81 922.22 455.156 914.474 462.573C910.62 466.306 906.708 469.75 903.161 472.922C901.378 474.524 899.672 476.11 898.061 477.696C897.237 478.529 896.451 479.25 895.78 480.083C895.109 480.9 894.591 481.797 894.342 482.71L874.267 479.779Z" fill="#14B6A1"/>
<path d="M884.697 480.147C884.947 478.61 885.541 477.152 886.289 475.678C886.653 474.957 886.979 474.412 887.286 473.884L888.283 472.186C889.644 469.943 891.044 467.796 892.463 465.729L900.765 453.682C906.21 445.656 911.502 437.534 916.698 429.364C927.071 413.008 937.002 396.395 946.723 379.686C951.593 371.324 956.31 362.913 961.276 354.631L976.269 329.736C981.274 321.421 986.24 313.075 991.014 304.6L994.561 298.224L997.993 291.896C1000.22 287.907 1002.77 283.902 1005.34 279.721" stroke="#148B7A" stroke-width="1.6463" stroke-miterlimit="10" stroke-linecap="round" stroke-linejoin="round"/>
<path d="M979.893 323.648C985.856 321.854 991.8 320.043 997.744 318.153" stroke="#148B7A" stroke-width="1.6463" stroke-miterlimit="10" stroke-linecap="round" stroke-linejoin="round"/>
<path d="M972.799 335.439L962.177 321.101" stroke="#148B7A" stroke-width="1.6463" stroke-miterlimit="10" stroke-linecap="round" stroke-linejoin="round"/>
<path d="M957.46 361.055L975.694 359.308" stroke="#148B7A" stroke-width="1.6463" stroke-miterlimit="10" stroke-linecap="round" stroke-linejoin="round"/>
<path d="M946.704 379.686L936.753 362.144" stroke="#148B7A" stroke-width="1.6463" stroke-miterlimit="10" stroke-linecap="round" stroke-linejoin="round"/>
<path d="M934.529 400.368L957.978 396.459" stroke="#148B7A" stroke-width="1.6463" stroke-miterlimit="10" stroke-linecap="round" stroke-linejoin="round"/>
<path d="M914.052 433.497L908.587 419.656" stroke="#148B7A" stroke-width="1.6463" stroke-miterlimit="10" stroke-linecap="round" stroke-linejoin="round"/>
<path d="M892.731 477.904C892.271 476.415 892.309 474.893 892.731 473.547C893.153 472.185 893.843 470.984 894.61 469.846C896.163 467.588 897.754 465.425 899.423 463.278C902.701 459.001 906.21 455.06 909.335 451.407C910.888 449.581 912.365 447.835 913.707 446.169C915.087 444.471 916.046 442.965 916.985 441.443C918.864 438.447 920.111 435.692 920.82 433.321C924.923 419.736 921.664 407.529 932.535 397.708C934.165 396.234 940.473 390.371 947.548 391.396C951.248 391.925 953.05 394.088 962.714 402.675C974.448 413.088 977.458 414.898 980.449 414.385C984.207 413.744 986.029 409.916 987.639 406.968C991.378 400.063 988.176 396.779 992.068 390.147C993.199 388.24 995.289 384.604 998.817 384.187C1002.46 383.755 1004.13 387.119 1006.79 386.799C1009.34 386.494 1009.88 383.098 1010.59 378.661C1011.3 374.223 1012.3 368.792 1015.13 364.227C1018.2 359.308 1025.64 354.214 1031.53 355.96C1035.34 357.098 1037.43 360.782 1039.43 364.371C1045.58 375.489 1041.04 383.21 1047.11 387.039C1047.56 387.311 1050.43 389.074 1053.17 388.369C1057.87 387.151 1056.41 380.311 1062.4 372.909C1063.99 370.939 1067.61 366.357 1071.52 366.774C1075.68 367.222 1075.99 372.909 1080.5 373.694C1084.39 374.367 1086.29 370.474 1093.67 366.982C1095.22 366.245 1106.65 360.734 1112.82 364.034C1117.1 366.309 1118.65 372.701 1117.1 377.86C1115.1 384.46 1108.14 388.465 1099.96 392.742C1091.73 397.035 1082.37 401.553 1075.05 409.355C1072.71 411.854 1070.6 414.625 1070.83 417.781C1071.22 423.148 1078.35 424.398 1079.96 428.835C1080.53 430.405 1080.44 432.296 1079.79 434.298C1079.13 436.301 1077.68 438.543 1075.89 440.594C1072.29 444.743 1066.98 448.396 1061.42 449.869C1054.15 451.808 1048.92 449.597 1042.76 447.082C1036.61 444.567 1029.51 441.731 1019.03 441.94C1018.01 441.956 1014.58 442.068 1011.26 442.644C1008.02 443.205 1004.61 444.359 1003.8 446.393C1002.31 450.222 1011.7 452.865 1014.52 461.083C1016.73 467.507 1014.33 476.463 1007.68 480.74C1005.26 482.294 1002.48 483.111 996.631 482.759C990.784 482.406 981.849 480.932 967.43 477.6C953.146 474.3 945.324 471.961 939.84 470.551C934.376 469.158 931.289 468.677 926.821 468.629C922.891 468.597 918.117 468.869 913.055 470.744C910.543 471.673 907.974 473.002 905.635 474.877C905.155 475.261 904.197 476.014 903.602 476.543C903.276 476.831 903.085 477.039 902.816 477.296C902.548 477.568 902.279 477.856 902.049 478.161C901.071 479.346 900.266 480.868 900.496 482.71C899.135 481.205 897.831 480.692 896.585 480.259C895.358 479.811 894.188 479.442 892.731 477.904Z" fill="#EE5E43"/>
<path d="M897.103 478.689C897.103 478.689 897.179 478.337 897.486 477.744C897.793 477.135 898.368 476.302 899.288 475.389C899.768 474.925 900.285 474.46 900.899 473.963C901.589 473.403 902.356 472.81 903.161 472.169C904.657 470.984 906.459 469.702 908.568 468.373C912.806 465.697 918.27 463.022 924.846 460.17C931.461 457.303 938.594 454.147 945.88 450.927C960.471 444.487 975.56 437.55 988.195 431.511C1000.83 425.471 1011.26 420.665 1016.78 418.791C1022.32 416.916 1030.51 414.017 1039.6 410.396C1048.69 406.776 1058.52 402.13 1067.4 397.564C1076.3 392.982 1084.37 388.497 1090.2 385.165C1096.03 381.833 1099.67 379.702 1099.67 379.702" stroke="#C4422B" stroke-width="1.784" stroke-miterlimit="10" stroke-linecap="round" stroke-linejoin="round"/>
<path d="M1016.8 418.791C1030.55 423.693 1044.53 428.435 1059.58 432.151Z" fill="#F29C1F"/>
<path d="M1016.8 418.791C1030.55 423.693 1044.53 428.435 1059.58 432.151" stroke="#C4422B" stroke-width="1.784" stroke-miterlimit="10" stroke-linecap="round" stroke-linejoin="round"/>
<path d="M1024.82 416.003C1026.66 402.05 1027.81 388.144 1026.91 374.832Z" fill="#F29C1F"/>
<path d="M1024.82 416.003C1026.66 402.05 1027.81 388.144 1026.91 374.832" stroke="#C4422B" stroke-width="1.784" stroke-miterlimit="10" stroke-linecap="round" stroke-linejoin="round"/>
<path d="M944.442 451.568C959.512 456.886 974.793 461.997 990.515 466.722Z" fill="#F29C1F"/>
<path d="M944.442 451.568C959.512 456.886 974.793 461.997 990.515 466.722" stroke="#C4422B" stroke-width="1.784" stroke-miterlimit="10" stroke-linecap="round" stroke-linejoin="round"/>
<path d="M950.98 448.668C950.692 435.419 950.174 422.203 949.331 409.05" stroke="#C4422B" stroke-width="1.784" stroke-miterlimit="10" stroke-linecap="round" stroke-linejoin="round"/>
<path d="M1001.98 425.022C1002.11 416.26 1002.29 407.497 1002.29 398.782Z" fill="#F29C1F"/>
<path d="M1001.98 425.022C1002.11 416.26 1002.29 407.497 1002.29 398.782" stroke="#C4422B" stroke-width="1.784" stroke-miterlimit="10" stroke-linecap="round" stroke-linejoin="round"/>
<path d="M865.582 477.296C858.142 477.616 840.234 477.536 821.215 468.773C801.044 459.481 791.362 445.816 787.949 440.37C791.362 442.372 796.845 445.432 803.92 448.652C818.358 455.204 826.334 456.47 837.416 460.971C844.491 463.823 854.557 468.725 865.582 477.296Z" fill="#12A189"/>
<path d="M865.582 476.815C854.404 473.195 840.062 466.851 827.733 455.685C823.88 452.192 818.492 447.226 814.408 439.312C809.883 430.549 809.212 422.603 809.25 417.781C812.337 422.651 817.629 429.989 826.084 437.582C833.965 444.679 838.796 446.778 846.216 453.186C851.662 457.912 859.044 465.425 865.582 476.815Z" fill="#12A189"/>
<path d="M865.582 476.062C859.772 472.169 846.447 462.189 839.18 445.079C831.491 426.945 835.096 411.357 836.879 405.382C844.127 417.253 851.489 431.575 857.51 448.235C861.076 458.12 863.683 467.459 865.582 476.062Z" fill="#12A189"/>
<path d="M866.674 478.017C854.02 460.971 853.311 449.052 855.17 441.219C856.302 436.397 858.89 431.094 858.89 422.363C858.89 414.417 856.743 407.945 854.94 403.7C859.331 406.679 865.792 411.95 869.55 419.944C871.659 424.398 873.002 429.876 870.95 449.581C870.202 456.758 868.956 466.466 866.674 478.017Z" fill="#12A189"/>
<path d="M866.751 477.44C865.773 460.651 868.899 447.739 871.64 439.633C875.111 429.316 878.658 424.606 881.553 421.514C888.302 414.289 896.489 410.524 901.474 408.666C898.406 412.174 893.996 417.813 890.488 425.391C885.445 436.236 886.231 442.42 882.857 452.16C880.671 458.44 876.338 467.411 866.751 477.44Z" fill="#12A189"/>
<path d="M865.026 477.392C866.464 471.288 870.873 456.79 885.656 443.494C901.34 429.396 919.535 424.846 926.706 423.404C917.465 434.266 905.692 446.361 890.814 458.536C881.975 465.745 873.27 471.993 865.026 477.392Z" fill="#12A189"/>
<path d="M862.207 477.376C866.79 472.009 878.581 459.706 899.729 452.24C920.59 444.871 939.111 446.249 946.915 447.21C920.973 454.131 906.267 461.676 897.409 467.764C893.325 470.567 882.684 478.401 868.611 478.081C865.908 478.017 863.683 477.68 862.207 477.376Z" fill="#12A189"/>
<path d="M123.267 466.947C107.449 467.78 94.7561 465.681 87.221 464.047C80.5295 462.589 75.3527 460.923 72.2466 459.818C61.2028 455.893 35.9707 445.736 37.0635 436.044C38.1181 426.817 62.775 423.18 65.9194 422.844C58.1159 422.619 44.9054 421.45 30.5446 415.298C27.8795 414.161 20.0951 410.861 13.0969 406.391C9.58815 404.164 6.29033 401.633 3.91284 398.926C2.74326 397.58 1.7846 396.17 1.17105 394.745C0.557502 393.319 0.269908 391.877 0.308254 390.243C0.519161 381.929 13.8446 375.985 30.9089 375.104C28.934 373.262 26.1923 370.458 23.6614 367.382C21.073 364.258 18.5421 360.702 16.203 356.841C15.6278 355.864 14.324 353.701 12.8284 351.01C11.3137 348.303 9.64567 345.115 7.95841 341.782C4.54556 335.022 0.615025 326.788 4.81399 321.661C7.38321 318.521 12.0232 317.192 16.7015 316.711C21.3798 316.23 26.2306 316.775 28.8382 317.16C32.8646 317.736 36.8718 319.002 40.4189 320.604C43.9468 322.206 47.0145 324.096 49.5837 325.971C54.7605 329.751 57.9817 333.42 59.7648 335.47C65.8236 342.391 66.8973 344.49 68.2777 348.431C70.3676 339.7 74.4324 333.436 79.1682 329.543C83.904 325.634 89.4451 324.224 94.1426 324.705C95.6956 324.865 97.1336 325.346 98.4757 325.987C99.722 326.579 101.141 327.653 102.425 328.87C104.995 331.305 107.257 334.461 109.155 337.681C112.932 344.121 115.233 350.834 115.808 352.532C121.522 369.401 117.572 383.274 114.811 390.083C118.148 384.972 129.479 367.639 139.928 370.362C145.968 371.932 150.071 379.846 152.545 389.025C155.018 398.189 155.862 408.698 155.766 415.234C155.708 418.807 155.382 426.128 152.87 434.923C149.208 447.675 143.341 455.845 142.095 457.591C139.603 461.067 137.168 463.807 135.289 465.697C132.508 466.114 128.367 466.674 123.267 466.947Z" fill="#EE5F43"/>
<path d="M145.374 481.316C145.374 481.316 143.859 479.042 141.347 475.021C140.101 473.002 138.586 470.567 136.784 467.812C135.001 465.072 132.796 462.012 130.399 458.648C120.87 445.207 107.334 427.569 92.5512 410.156C77.7685 392.742 62.0464 375.408 49.5262 361.775C43.2565 354.951 38.003 348.943 33.7849 344.49C29.5668 340.036 26.4607 337.105 25.3103 335.903" stroke="#C4422B" stroke-width="2.0192" stroke-miterlimit="10" stroke-linecap="round" stroke-linejoin="round"/>
<path d="M75.2184 390.243C79.5516 373.374 83.4822 356.329 87.2593 339.251" stroke="#C4422B" stroke-width="2.0192" stroke-miterlimit="10" stroke-linecap="round" stroke-linejoin="round"/>
<path d="M79.9735 396.234C59.8031 394.681 39.7286 393.543 19.6733 392.55" stroke="#C4422B" stroke-width="2.0192" stroke-miterlimit="10" stroke-linecap="round" stroke-linejoin="round"/>
<path d="M119.662 442.853C125.261 427.265 130.112 411.229 134.502 395.049" stroke="#C4422B" stroke-width="2.0192" stroke-miterlimit="10" stroke-linecap="round" stroke-linejoin="round"/>
<path d="M122.749 448.203C101.467 445.143 80.4336 443.029 59.4196 441.427" stroke="#C4422B" stroke-width="2.0192" stroke-miterlimit="10" stroke-linecap="round" stroke-linejoin="round"/>
<path d="M149.534 482.278C148.844 480.66 147.444 479.298 146.294 478.113C144.664 476.383 143.265 474.556 141.98 472.714C140.695 470.872 139.545 468.949 138.299 467.299C135.845 463.903 133.294 460.859 130.744 458.2C125.663 452.865 120.64 449.036 116.479 446.922C109.941 443.59 103.288 441.699 97.3636 439.232C91.4199 436.733 86.2623 433.898 82.581 427.922C81.4881 426.176 77.1358 419.079 80.3569 413.68C82.0441 410.877 84.7668 410.156 96.6351 405.782C111.034 400.512 113.91 399.07 114.428 396.651C115.08 393.671 111.897 390.74 109.577 388.561C104.036 383.306 99.6069 384.348 94.526 378.725C93.0496 377.091 90.2695 373.935 91.2857 370.987C92.3402 367.975 96.2707 368.248 97.076 366.053C97.843 363.938 94.7944 361.92 90.9022 358.94C86.9908 355.976 82.2359 352.051 79.6091 346.492C76.5606 339.972 76.3496 331.498 81.1622 328.662C84.2682 326.804 88.6206 327.685 92.8004 328.55C105.781 331.177 110.037 338.579 116.71 336.816C117.189 336.688 120.276 335.839 121.177 333.724C122.692 330.136 115.981 327.124 113.028 319.258C112.626 318.217 111.974 316.503 111.744 314.805C111.514 313.059 111.667 311.521 112.971 310.287C114.351 308.877 116.288 309.182 118.282 309.454C120.276 309.726 122.327 309.951 123.976 308.733C126.814 306.699 124.801 302.934 127.006 296.542C127.236 295.869 128.214 293.114 129.939 290.438C131.665 287.779 134.042 285.12 137.263 284.431C139.507 283.966 142.133 284.527 144.549 285.809C146.984 287.09 149.17 289.093 150.608 291.287C154.27 296.991 152.487 302.982 151.241 308.637C151.068 309.39 150.953 309.983 150.819 310.848C150.704 311.793 150.57 312.77 150.455 313.732C150.225 315.67 150.014 317.656 149.937 319.659C149.764 323.68 150.052 327.813 151.413 332.026C152.276 334.718 153.58 337.377 156.475 338.803C161.422 341.238 166.311 337.858 171.085 339.123C174.46 340.02 177.527 342.904 179.483 346.38C181.439 349.857 182.263 353.878 181.17 357.306C179.751 361.808 175.418 363.954 170.433 366.726C165.467 369.481 159.792 372.845 156.034 379.894C155.286 381.24 151.298 389.266 154.826 391.685C158.105 393.912 164.164 388.689 173.405 389.57C180.595 390.243 188.648 394.328 190.719 399.567C191.466 401.489 191.371 403.411 189.166 407.032C186.961 410.669 182.666 415.971 175.169 425.023C160.291 443.429 157.242 445.304 154.903 451.808C153.906 454.563 153.101 458.056 153.062 462.333C153.062 463.406 153.101 464.528 153.196 465.697C153.292 466.819 153.465 468.228 153.637 469.142C154.021 471.192 154.845 473.387 156.475 475.469C156.801 475.854 157.127 476.238 157.472 476.655C157.913 477.28 158.373 477.969 158.757 478.657C156.839 478.545 155.574 479.571 154.213 480.532C152.813 481.461 151.317 482.374 149.534 482.278Z" fill="#13A995"/>
<path d="M153.752 478.417C153.752 478.417 153.657 478.225 153.446 477.824C153.273 477.52 153.005 477.071 152.64 476.447C151.873 475.133 150.819 472.954 150.033 470.039C149.247 466.722 148.288 462.701 147.214 458.184C145.067 448.988 142.517 437.806 140.043 426.528C137.513 415.282 135.308 403.908 133.946 394.28C132.585 384.652 132.048 376.786 132.355 372.685C132.7 368.151 133.218 361.423 134.042 353.878C134.867 346.332 135.998 337.986 136.976 330.152C137.436 326.227 137.896 322.43 138.299 318.954C138.644 315.494 138.951 312.338 139.219 309.678C139.487 307.227 139.871 305.209 140.139 303.783C140.427 302.357 140.599 301.572 140.599 301.572" stroke="#148B7A" stroke-width="1.6235" stroke-miterlimit="10" stroke-linecap="round" stroke-linejoin="round"/>
<path d="M132.374 372.653C142.613 365.156 153.101 358.155 163.742 351.443Z" fill="#F29C1F"/>
<path d="M132.374 372.653C142.613 365.156 153.101 358.155 163.742 351.443" stroke="#148B7A" stroke-width="1.6235" stroke-miterlimit="10" stroke-linecap="round" stroke-linejoin="round"/>
<path d="M132.873 366.085C120.103 359.084 107.564 351.395 95.1779 343.721Z" fill="#F29C1F"/>
<path d="M132.873 366.085C120.103 359.084 107.564 351.395 95.1779 343.721" stroke="#148B7A" stroke-width="1.6235" stroke-miterlimit="10" stroke-linecap="round" stroke-linejoin="round"/>
<path d="M141.827 434.506C151.471 424.942 161.019 415.587 170.874 406.567Z" fill="#F29C1F"/>
<path d="M141.827 434.506C151.471 424.942 161.019 415.587 170.874 406.567" stroke="#148B7A" stroke-width="1.6235" stroke-miterlimit="10" stroke-linecap="round" stroke-linejoin="round"/>
<path d="M140.599 428.995C126.775 425.615 112.913 422.139 99.0892 418.438Z" fill="#F29C1F"/>
<path d="M140.599 428.995C126.775 425.615 112.913 422.139 99.0892 418.438" stroke="#148B7A" stroke-width="1.6235" stroke-miterlimit="10" stroke-linecap="round" stroke-linejoin="round"/>
<path d="M132.873 385.277C124.206 381.945 115.578 378.452 107.008 374.8Z" fill="#F29C1F"/>
<path d="M132.873 385.277C124.206 381.945 115.578 378.452 107.008 374.8" stroke="#148B7A" stroke-width="1.6235" stroke-miterlimit="10" stroke-linecap="round" stroke-linejoin="round"/>
<path d="M162.649 480.371C162.706 478.321 163.761 443.125 171.641 429.107C172.945 426.785 174.728 423.613 178.678 420.905C183.912 417.333 187.267 418.47 194.496 415.058C200.516 412.206 207.361 407.08 206.153 404.485C205.367 402.787 201.111 402.098 197.774 402.754C191.792 403.94 191.562 408.954 185.005 410.556C182.148 411.245 178.122 411.277 176.971 409.675C175.821 408.073 177.949 405.43 178.678 404.517C181.65 400.784 185.714 399.214 193.326 396.459C203.987 392.598 207.61 391.492 212.806 388.545C220.476 384.187 220.533 382.089 220.437 381.352C220.15 378.885 216.526 376.498 213.286 376.61C211.33 376.674 210.448 377.619 203.872 383.098C201.302 385.245 198.925 387.183 195.416 389.266C191.466 391.605 189.472 392.117 188.034 391.557C187.114 391.204 186.385 390.387 186.155 389.602C184.832 385.084 198.599 378.228 203.2 375.921C208.128 373.454 211.445 372.301 216.603 368.744C222.872 364.419 223.16 362.528 222.872 361.455C222.412 359.853 220.207 358.699 218.328 358.443C216.986 358.251 214.762 358.363 208.914 362.528C205.233 365.14 202.606 367.591 201.111 369.032C195.493 374.447 194.016 377.203 191.313 377.042C190.048 376.962 188.36 376.241 187.823 375.072C185.312 369.705 206.613 355.576 217.868 348.975C222.546 346.236 227.551 343.577 227.282 340.18C227.052 337.489 223.582 334.846 220.207 334.669C215.893 334.445 212.73 338.322 210.582 340.949C207.457 344.778 208.435 346.028 204.715 351.346C200.67 357.098 197.966 357.85 196.777 358.075C195.167 358.379 192.214 358.475 190.987 357.097C190.412 356.441 189.587 354.743 195.55 345.883C200.861 338.002 203.373 336.608 203.431 332.779C203.488 329.255 201.456 325.122 198.676 324.785C196.068 324.465 193.23 327.573 191.946 329.815C189.875 333.436 191.543 335.31 189.875 342.599C188.955 346.636 188.034 347.822 186.846 348.126C185.005 348.607 182.877 346.941 182.321 346.508C176.511 341.975 180.883 335.743 175.859 327.733C174.671 325.843 172.197 321.902 167.097 320.572C162.879 319.467 156.801 320.155 153.867 323.712C150.915 327.3 152.468 332.138 154.596 334.958C157.875 339.251 161.92 338.034 170.836 343.416C174.325 345.515 181.995 350.129 181.036 354.727C180.979 354.999 180.518 357.162 178.659 357.834C174.977 359.164 171.008 352.916 161 349.664C158.392 348.815 151.548 346.604 148.825 349.023C146.793 350.834 147.483 354.871 149.86 357.194C151.471 358.748 153.139 358.86 160.847 360.462C170.241 362.416 172.14 363.185 173.846 364.451C176.319 366.277 178.946 369.529 177.777 371.467C176.684 373.262 172.734 373.246 169.302 373.198C159.811 373.053 157.338 370.01 149.266 370.266C146.754 370.346 140.791 370.538 139.257 373.438C138.299 375.248 139.277 377.731 141.002 379.157C144.166 381.784 149.879 380.903 154.999 380.118C159.696 379.397 160.022 378.644 164.892 378.1C169.666 377.555 172.983 377.235 175.188 378.997C176.991 380.455 177.968 383.258 176.684 384.892C175.437 386.462 172.734 386.126 161.805 385.982C159.6 385.95 156.092 385.998 149.093 386.062C139.564 386.174 137.244 386.35 135.979 387.856C134.56 389.538 134.867 392.374 136.554 393.687C137.206 394.184 138.356 394.696 143.667 394.184C148.633 393.703 149.189 393.126 153.043 392.71C158.91 392.085 162.476 392.918 164.279 393.479C166.138 394.056 168.247 394.712 168.631 396.09C169.11 397.772 166.809 399.823 164.7 400.832C161.326 402.45 158.814 401.281 149.055 400.336C138.912 399.358 136.401 399.935 134.675 401.072C134.426 401.233 131.454 403.267 131.856 405.702C132.24 407.929 135.212 409.13 136.592 409.691C141.577 411.726 147.099 410.732 148.997 410.348C152.698 409.611 154.117 408.458 157.453 408.81C158.412 408.906 160.712 409.146 162.361 410.492C164.259 412.03 164.796 414.577 164.087 418.71C162.917 425.503 159.562 429.524 157.319 433.481C154.826 437.854 154.155 442.981 152.832 453.234C151.95 459.994 151.375 469.125 152.487 480.019C155.9 480.163 159.274 480.259 162.649 480.371Z" fill="#F9AE26"/>
<path d="M882.78 276.501H476.075C461.599 276.501 449.865 266.697 449.865 254.602V22.4718C449.865 10.3767 461.599 0.57251 476.075 0.57251H882.799C897.275 0.57251 909.009 10.3767 909.009 22.4718V254.602C908.99 266.697 897.256 276.501 882.78 276.501Z" fill="#BEC6C4"/>
<path d="M872.273 270.446H486.582C472.107 270.446 460.372 260.641 460.372 248.546V28.5275C460.372 16.4324 472.107 6.62817 486.582 6.62817H872.273C886.749 6.62817 898.483 16.4324 898.483 28.5275V248.562C898.464 260.641 886.749 270.446 872.273 270.446Z" fill="#FEFEFE"/>
<path d="M690.261 219.678H686.656C677.299 219.71 669.688 213.398 669.649 205.581V203.947H707.21V205.404C707.248 213.254 699.656 219.646 690.261 219.678Z" fill="#282E5B"/>
<path d="M733.619 139.618C758.822 118.56 758.822 84.418 733.619 63.3598C708.415 42.3017 667.553 42.3017 642.35 63.3598C617.147 84.418 617.147 118.56 642.35 139.618C667.553 160.676 708.415 160.676 733.619 139.618Z" fill="#FABB49"/>
<path d="M725.885 183.281H650.802V122.437H725.635L725.885 183.281Z" fill="#FABB49"/>
<path d="M674.289 167.309H672.161V101.531H674.002L674.289 167.309Z" fill="#282E5B"/>
<path d="M704.391 167.228H702.263V100.345H704.104L704.391 167.228Z" fill="#282E5B"/>
<path d="M682.572 104.462C682.553 104.462 682.534 104.462 682.515 104.462C681.019 104.43 680.348 103.101 679.734 101.803C679.14 100.601 678.469 99.2397 677.338 99.0154C676.571 98.8712 675.516 99.2076 674.807 99.8164C673.772 100.73 673.982 101.995 674.002 102.139L671.912 102.428C671.835 102.059 671.547 100.105 673.273 98.5989C674.289 97.7178 676.053 96.9649 677.798 97.3013C680.022 97.7178 680.942 99.6242 681.69 101.13C681.978 101.707 682.4 102.556 682.668 102.7C682.956 102.556 683.684 101.258 684.068 100.553C684.969 98.9353 685.908 97.2532 687.672 97.2532C689.359 97.2532 690.241 98.7751 691.066 100.265C691.43 100.906 692.101 102.075 692.466 102.187C692.715 102.059 693.232 101.018 693.558 100.393C694.383 98.7431 695.418 96.6925 697.777 96.26C699.771 95.9075 702.186 96.8527 703.375 98.4707C704.238 99.6722 704.2 100.922 704.104 101.563L701.995 101.338C702.052 100.922 702.091 100.137 701.554 99.3999C700.863 98.4387 699.31 97.7979 698.218 98.0061C696.933 98.2304 696.185 99.7523 695.514 101.082C694.786 102.556 694.076 103.95 692.485 103.966H692.466C690.836 103.966 689.973 102.476 689.168 101.034C688.823 100.409 688.075 99.1115 687.691 99.0314C687.27 99.0314 686.349 100.681 686.004 101.306C685.122 102.86 684.24 104.462 682.572 104.462Z" fill="#282E5B"/>
<path d="M725.904 192.204L650.821 183.216V187.606L725.29 196.513C725.655 195.135 725.866 193.693 725.904 192.204Z" fill="#BEC6C4"/>
<path d="M725.904 183.601L650.783 174.614V179.003L725.904 187.99V183.601Z" fill="#BEC6C4"/>
<path d="M725.827 167.26H650.725V170.384L725.827 179.388V167.26Z" fill="#BEC6C4"/>
<path d="M723.661 200.55L650.84 191.835V192.059C650.84 193.501 651.032 194.927 651.358 196.289L720.785 204.603C721.916 203.338 722.875 201.992 723.661 200.55Z" fill="#BEC6C4"/>
<path d="M653.122 200.71C657.11 208.031 665.949 213.094 676.226 213.062H700.653C706.673 213.046 712.176 211.235 716.528 208.288L653.122 200.71Z" fill="#BEC6C4"/>
<path d="M725.827 179.388L650.725 170.385L650.783 174.614L725.904 183.601L725.827 179.388Z" fill="#EEEFF0"/>
<path d="M725.904 191.755V187.99L650.783 179.003L650.821 183.232L725.904 192.22C725.904 192.059 725.904 191.915 725.904 191.755Z" fill="#EEEFF0"/>
<path d="M725.271 196.529L650.802 187.622L650.821 191.851L723.641 200.566C724.351 199.269 724.907 197.923 725.271 196.529Z" fill="#EEEFF0"/>
<path d="M720.785 204.587L651.358 196.273C651.741 197.827 652.355 199.3 653.103 200.71L716.49 208.304C718.12 207.214 719.538 205.965 720.785 204.587Z" fill="#EEEFF0"/>
<path d="M653.007 196.273C651.914 196.209 650.859 196.081 649.805 195.92C652.853 200.198 658.28 203.193 664.664 203.546C671.068 203.898 676.954 201.527 680.655 197.619C679.581 197.683 678.488 197.699 677.376 197.635L653.007 196.273Z" fill="#282E5B"/>
<path d="M738.462 89.1951C740.821 59.478 713.901 33.7979 678.354 31.8275C642.787 29.857 612.053 52.3491 609.694 82.0502C608.256 100.089 617.632 116.621 633.143 127.291L631.399 149.174L652.777 150.359L657.934 85.5265C657.896 85.0139 657.877 83.2036 659.603 81.89C660.676 81.0729 662.517 80.4161 664.242 80.8487C666.428 81.3934 667.195 83.3478 667.809 84.9017C668.039 85.4945 668.384 86.3756 668.652 86.5198C668.959 86.3916 669.784 85.142 670.244 84.4532C671.279 82.8832 672.353 81.2652 674.117 81.3613C675.804 81.4574 676.552 83.0274 677.261 84.5653C677.568 85.2221 678.143 86.4397 678.507 86.5678C678.757 86.4557 679.37 85.4464 679.735 84.8377C680.693 83.2357 681.901 81.2492 684.279 80.9608C686.311 80.7205 688.631 81.8099 689.666 83.492C690.395 84.6775 690.299 85.8469 690.165 86.5037L684.95 152.122L706.328 153.307L708.073 131.424C725.137 122.597 737.044 107.234 738.462 89.1951Z" fill="#FABB49"/>
<path d="M688.132 85.3662C688.094 85.0458 688.017 84.6773 687.787 84.3249C687.174 83.3317 685.697 82.5947 684.566 82.7389C683.282 82.8991 682.4 84.3569 681.613 85.6546C680.751 87.0803 679.945 88.426 678.335 88.3459H678.316C676.686 88.2498 675.957 86.7119 675.267 85.222C674.96 84.5812 674.347 83.2515 673.944 83.1394C673.522 83.1234 672.468 84.7094 672.084 85.3181C671.087 86.808 670.071 88.3619 668.422 88.2658C668.403 88.2658 668.384 88.2658 668.365 88.2658C666.869 88.1697 666.332 86.776 665.795 85.4623C665.316 84.2288 664.76 82.835 663.629 82.5467C662.881 82.3544 661.788 82.6268 661.04 83.1875C660.369 83.7001 660.139 84.3569 660.082 84.8375H660.12L654.905 150.471L682.841 152.025L688.132 85.3662Z" fill="#FABB49"/>
<path d="M660.12 84.8537H660.082C660.159 84.3731 660.389 83.7163 661.04 83.2036C661.788 82.6429 662.862 82.3706 663.629 82.5628C664.76 82.8512 665.316 84.2449 665.795 85.4784C666.313 86.7921 666.85 88.1858 668.365 88.2819C668.384 88.2819 668.403 88.2819 668.422 88.2819C670.071 88.3781 671.107 86.8241 672.084 85.3343C672.487 84.7255 673.542 83.1395 673.944 83.1556C674.328 83.2517 674.96 84.5974 675.267 85.2382C675.957 86.728 676.686 88.2659 678.316 88.3621H678.335C679.945 88.4422 680.751 87.0965 681.613 85.6707C682.4 84.3731 683.282 82.9153 684.566 82.7551C685.678 82.6269 687.174 83.3478 687.787 84.341C687.998 84.6935 688.094 85.0619 688.132 85.3823L682.841 152.042L684.95 152.154L690.165 86.5358C690.299 85.879 690.414 84.7095 689.666 83.524C688.631 81.8419 686.292 80.7525 684.279 80.9928C681.882 81.2812 680.693 83.2677 679.734 84.8697C679.37 85.4784 678.757 86.4877 678.507 86.5998C678.143 86.4717 677.568 85.2542 677.261 84.5973C676.552 83.0754 675.804 81.4895 674.117 81.3933C672.353 81.2972 671.279 82.9153 670.244 84.4852C669.803 85.1581 668.959 86.4236 668.652 86.5518C668.403 86.4076 668.039 85.5105 667.809 84.9338C667.195 83.3798 666.428 81.4254 664.242 80.8807C662.536 80.4482 660.695 81.089 659.602 81.922C657.877 83.2517 657.877 85.0459 657.934 85.5586L652.777 150.391L654.886 150.504L660.12 84.8537Z" fill="#282E5B"/>
<path d="M630.152 164.986L629.807 169.359L703.337 182.592C703.835 181.23 704.161 179.804 704.315 178.33L630.152 164.986Z" fill="#BEC6C4"/>
<path d="M630.823 156.399L630.478 160.772L704.679 174.133L705.024 169.744L630.823 156.399Z" fill="#BEC6C4"/>
<path d="M682.821 152.041L631.399 149.174L631.168 152.186L705.35 165.53L706.328 153.339L682.821 152.041Z" fill="#BEC6C4"/>
<path d="M629.443 173.797C629.328 175.239 629.385 176.664 629.615 178.042L698.179 190.377C699.406 189.192 700.48 187.91 701.381 186.517L629.462 173.573L629.443 173.797Z" fill="#BEC6C4"/>
<path d="M630.996 182.576C634.006 189.32 641.043 194.495 649.805 195.92C650.84 196.097 651.914 196.225 653.007 196.273L677.395 197.618C678.507 197.683 679.6 197.667 680.674 197.602C685.448 197.346 689.896 196 693.616 193.822L630.996 182.576Z" fill="#BEC6C4"/>
<path d="M631.168 152.186L630.823 156.399L705.024 169.744L705.35 165.53L631.168 152.186Z" fill="#EEEFF0"/>
<path d="M630.478 160.772L630.152 164.986L704.315 178.33C704.334 178.186 704.372 178.026 704.372 177.882L704.679 174.117L630.478 160.772Z" fill="#EEEFF0"/>
<path d="M629.462 173.589L701.381 186.533C702.186 185.299 702.838 183.986 703.337 182.608L629.807 169.375L629.462 173.589Z" fill="#EEEFF0"/>
<path d="M630.996 182.576L693.597 193.838C695.284 192.844 696.818 191.691 698.16 190.377L629.596 178.042C629.865 179.612 630.344 181.134 630.996 182.576Z" fill="#EEEFF0"/>
<path d="M781.794 52.8938C808.119 52.8938 829.459 70.7241 829.459 92.7195C829.459 113.674 810.075 130.863 785.475 132.433" stroke="#282E5B" stroke-width="1.772" stroke-linecap="round" stroke-linejoin="round"/>
<path d="M794.755 119.361L797.382 121.171L786.741 131.985L800.431 140.059L798.475 142.382L781.794 132.545L794.755 119.361Z" fill="#282E5B"/>
<path d="M492.488 42.3687H579.266" stroke="#BACCC6" stroke-width="2.359" stroke-miterlimit="10" stroke-linecap="round" stroke-linejoin="round"/>
<path d="M492.488 52.8938H579.266" stroke="#BACCC6" stroke-width="2.359" stroke-miterlimit="10" stroke-linecap="round" stroke-linejoin="round"/>
<path d="M492.488 63.4189H579.266" stroke="#BACCC6" stroke-width="2.359" stroke-miterlimit="10" stroke-linecap="round" stroke-linejoin="round"/>
<path d="M492.488 73.9441H579.266" stroke="#BACCC6" stroke-width="2.359" stroke-miterlimit="10" stroke-linecap="round" stroke-linejoin="round"/>
<path d="M492.488 84.4692H526.137" stroke="#BACCC6" stroke-width="2.359" stroke-miterlimit="10" stroke-linecap="round" stroke-linejoin="round"/>
<path d="M591.345 209.217H602.945C603.175 208.304 603.309 207.359 603.309 206.382V184.739H573.016V219.646H587.434C588.795 219.646 590.099 219.486 591.345 219.23V209.217Z" fill="#EE5E43"/>
<path d="M591.345 219.214C597.136 217.98 601.661 214.103 602.945 209.201H591.345V219.214Z" fill="#C4422B"/>
<path d="M606.128 165.755H617.728C617.958 164.842 618.092 163.896 618.092 162.919V141.276H587.798V176.184H602.217C603.578 176.184 604.882 176.024 606.128 175.767V165.755Z" fill="#38AAE3"/>
<path d="M606.128 175.751C611.918 174.518 616.443 170.641 617.728 165.739H606.128V175.751Z" fill="#0254A9"/>
<path d="M629.117 238.582H643.017C643.305 237.476 643.458 236.355 643.458 235.185V209.217H607.125V251.109H624.419C626.049 251.109 627.602 250.917 629.117 250.597V238.582Z" fill="#FABB49"/>
<path d="M629.117 250.581C636.077 249.107 641.484 244.461 643.018 238.566H629.117V250.581Z" fill="#D38309"/>
<path d="M394.474 172.563H85.5145C79.6283 172.563 74.8541 168.574 74.8541 163.656V11.4501C74.8541 6.53196 79.6283 2.54297 85.5145 2.54297H394.474C400.36 2.54297 405.134 6.53196 405.134 11.4501V163.656C405.134 168.574 400.36 172.563 394.474 172.563Z" fill="#0254A9"/>
<path d="M382.318 152.955H97.6704C87.9687 152.955 80.1077 146.387 80.1077 138.28V24.1699C80.1077 16.0638 87.9687 9.49561 97.6704 9.49561H382.318C392.02 9.49561 399.881 16.0638 399.881 24.1699V138.28C399.881 146.37 392.02 152.955 382.318 152.955Z" fill="white"/>
<path d="M197.698 157.232H120.084C116.422 157.232 113.45 154.749 113.45 151.689V136.775C113.45 133.715 116.422 131.232 120.084 131.232H197.698C201.36 131.232 204.332 133.715 204.332 136.775V151.689C204.332 154.749 201.36 157.232 197.698 157.232Z" fill="#EE5E43"/>
<path d="M360.038 157.232H227.57C223.984 157.232 221.089 154.813 221.089 151.817V136.646C221.089 133.651 223.984 131.232 227.57 131.232H360.038C363.624 131.232 366.519 133.651 366.519 136.646V151.817C366.519 154.797 363.624 157.232 360.038 157.232Z" fill="#FB9730"/>
<path d="M245.746 6.48383C245.746 5.52263 243.177 4.75366 239.994 4.75366C236.811 4.75366 234.242 5.52263 234.242 6.48383C234.242 7.44503 236.811 8.21398 239.994 8.21398C243.177 8.21398 245.746 7.42901 245.746 6.48383Z" fill="#282E5B"/>
<path d="M244.27 6.48391C244.27 5.77903 242.352 5.18628 239.994 5.18628C237.636 5.18628 235.718 5.76301 235.718 6.48391C235.718 7.20481 237.636 7.78153 239.994 7.78153C242.352 7.76551 244.27 7.18879 244.27 6.48391Z" fill="#565699"/>
<path opacity="0.1" d="M103.269 149.735V11.9787C103.269 6.77225 117.285 2.54297 134.579 2.54297H106.164C88.8698 2.54297 74.8541 6.77225 74.8541 11.9787V149.735C74.8541 154.941 88.8698 159.171 106.164 159.171H134.579C117.285 159.187 103.269 154.957 103.269 149.735Z" fill="#034C8A"/>
<path d="M358.827 73.063H121.154C116.917 73.063 113.466 70.1955 113.466 66.639V32.4523C113.466 28.9119 116.898 26.0283 121.154 26.0283H358.827C363.064 26.0283 366.516 28.8959 366.516 32.4523V66.639C366.516 70.1955 363.084 73.063 358.827 73.063Z" fill="#A5DEF6"/>
<path d="M199.27 122.084H118.895C115.885 122.084 113.45 120.05 113.45 117.535V82.0343C113.45 79.5192 115.885 77.4846 118.895 77.4846H199.27C202.28 77.4846 204.715 79.5192 204.715 82.0343V117.535C204.715 120.05 202.28 122.084 199.27 122.084Z" fill="#14B6A1"/>
<path d="M186.673 97.5095H126.661C124.743 97.5095 123.19 96.2119 123.19 94.6099V84.9338C123.19 83.3318 124.743 82.0342 126.661 82.0342H186.673C188.59 82.0342 190.143 83.3318 190.143 84.9338V94.6099C190.143 96.2119 188.59 97.5095 186.673 97.5095Z" fill="#FABB49"/>
<path d="M127.274 101.627H188.61" stroke="#FEFEFE" stroke-width="1.0959" stroke-miterlimit="10" stroke-linecap="round" stroke-linejoin="round"/>
<path d="M218.136 77.5005H279.491" stroke="#F9AE26" stroke-width="1.0959" stroke-miterlimit="10" stroke-linecap="round" stroke-linejoin="round"/>
<path d="M305.164 99.3037H366.519" stroke="#BACCC6" stroke-width="1.0959" stroke-miterlimit="10" stroke-linecap="round" stroke-linejoin="round"/>
<path d="M305.164 103.116H366.519" stroke="#BACCC6" stroke-width="1.0959" stroke-miterlimit="10" stroke-linecap="round" stroke-linejoin="round"/>
<path d="M305.164 106.945H366.519" stroke="#BACCC6" stroke-width="1.0959" stroke-miterlimit="10" stroke-linecap="round" stroke-linejoin="round"/>
<path d="M305.164 110.758H366.519" stroke="#BACCC6" stroke-width="1.0959" stroke-miterlimit="10" stroke-linecap="round" stroke-linejoin="round"/>
<path d="M305.164 114.571H366.519" stroke="#BACCC6" stroke-width="1.0959" stroke-miterlimit="10" stroke-linecap="round" stroke-linejoin="round"/>
<path d="M218.136 81.9221H366.519" stroke="#BACCC6" stroke-width="1.0959" stroke-miterlimit="10" stroke-linecap="round" stroke-linejoin="round"/>
<path d="M218.136 86.3435H366.519" stroke="#BACCC6" stroke-width="1.0959" stroke-miterlimit="10" stroke-linecap="round" stroke-linejoin="round"/>
<path d="M218.136 90.7812H366.519" stroke="#BACCC6" stroke-width="1.0959" stroke-miterlimit="10" stroke-linecap="round" stroke-linejoin="round"/>
<path d="M218.136 95.2026H366.519" stroke="#BACCC6" stroke-width="1.0959" stroke-miterlimit="10" stroke-linecap="round" stroke-linejoin="round"/>
<path d="M218.136 118.384H366.519" stroke="#BACCC6" stroke-width="1.0959" stroke-miterlimit="10" stroke-linecap="round" stroke-linejoin="round"/>
<path d="M218.136 122.084H366.519" stroke="#BACCC6" stroke-width="1.0959" stroke-miterlimit="10" stroke-linecap="round" stroke-linejoin="round"/>
<path d="M218.136 125.769H314.885" stroke="#BACCC6" stroke-width="1.0959" stroke-miterlimit="10" stroke-linecap="round" stroke-linejoin="round"/>
<path d="M218.136 101.034H274.506" stroke="#EE5F43" stroke-width="2.0952" stroke-miterlimit="10" stroke-linecap="round" stroke-linejoin="round"/>
<path d="M218.136 106.417H274.506" stroke="#EE5F43" stroke-width="2.0952" stroke-miterlimit="10" stroke-linecap="round" stroke-linejoin="round"/>
<path d="M218.136 111.783H258.4" stroke="#EE5F43" stroke-width="2.0952" stroke-miterlimit="10" stroke-linecap="round" stroke-linejoin="round"/>
<path d="M127.274 105.728H188.61" stroke="#FEFEFE" stroke-width="1.0959" stroke-miterlimit="10" stroke-linecap="round" stroke-linejoin="round"/>
<path d="M127.274 109.845H188.61" stroke="#FEFEFE" stroke-width="1.0959" stroke-miterlimit="10" stroke-linecap="round" stroke-linejoin="round"/>
<path d="M127.274 113.946H165.103" stroke="#FEFEFE" stroke-width="1.0959" stroke-miterlimit="10" stroke-linecap="round" stroke-linejoin="round"/>
<path d="M466.412 443.237C473.334 442.452 480.255 441.683 487.177 440.898C487.522 445.015 488.691 450.462 492.334 455.765C502.88 471.144 525.907 473.403 525.159 477.039C524.872 478.465 521.804 480.211 510.971 479.218C507.462 478.898 496.917 478.161 493.849 474.909C490.781 471.657 484.627 472.41 484.627 472.41L485.164 478.673L468.713 477.696C468.368 473.659 466.776 450.542 466.412 443.237Z" fill="#034C8A"/>
<path d="M494.635 287.443C497.166 327.349 495.134 352.692 492.584 368.872C491.529 375.505 487.694 397.66 488.576 427.377C488.672 430.758 489.784 442.741 489.88 444.615C482.652 445.031 468.943 447.146 461.714 447.563C455.157 430.037 458.723 404.693 458.225 394.488C457.746 384.94 458.743 383.402 458.244 364.355C457.765 346.044 457.535 336.896 455.502 331.033C453.662 325.747 450.651 319.515 450.172 309.823C449.865 303.863 450.69 299.922 450.862 299.073C452.78 290.214 457.707 283.95 460.832 280.586C464.629 280.987 468.617 281.515 472.777 282.236C480.907 283.662 488.212 285.488 494.635 287.443Z" fill="#12A189"/>
<path d="M447.91 443.237C454.831 442.452 461.753 441.683 468.674 440.898C469.02 445.015 470.189 450.462 473.832 455.765C484.377 471.144 507.405 473.403 506.657 477.039C506.369 478.465 503.301 480.211 492.468 479.218C488.96 478.898 478.414 478.161 475.347 474.909C472.279 471.657 466.124 472.41 466.124 472.41L466.661 478.673L450.211 477.696C449.865 473.659 448.274 450.542 447.91 443.237Z" fill="#0254A9"/>
<path d="M478.51 287.443C481.041 327.348 479.009 352.692 476.459 368.872C475.404 375.505 471.57 397.66 472.452 427.377C472.547 430.758 473.659 442.741 473.755 444.615C466.527 445.031 452.818 447.146 445.59 447.563C439.032 430.037 442.599 404.693 442.1 394.488C441.621 384.94 442.618 383.402 442.138 364.355C441.736 348.543 441.64 340.629 439.397 331.033C436.77 319.851 434.469 319.755 432.36 309.374C430.328 299.313 430.73 290.775 431.401 285.168C431.938 282.973 432.456 280.778 432.993 278.6C436.156 278.584 439.32 278.568 442.484 278.552C447.124 279.801 451.763 281.403 456.672 282.252C464.782 283.662 472.087 285.488 478.51 287.443Z" fill="#14B6A1"/>
<path d="M428.583 138.024C428.583 138.024 425.285 133.394 426.167 130.847C427.049 128.3 431.67 124.151 437.997 123.206C444.305 122.261 458.359 124.984 461.159 121.043C463.958 117.102 462.865 113.882 460.775 114.715C461.35 112.328 469.729 112.248 472.471 118.111C475.174 123.927 475.04 129.662 471.09 135.781C467.409 141.501 452.914 145.073 446.989 146.13C446.932 147.524 445.762 160.676 445.762 160.676L446.242 175.062C446.242 175.062 445.11 179.836 438.4 180.285C431.689 180.734 422.007 162.086 421.163 150.039C420.319 138.008 424.978 137.8 428.583 138.024Z" fill="#282E5B"/>
<path d="M473.334 148.613C474.733 150.087 480.236 152.666 481.636 155.726C483.035 158.786 478.319 159.587 478.319 159.587C479.009 164.425 479.757 170.224 476.152 174.389C473.487 177.465 468.463 180.109 464.13 177.674C465.3 180.814 466.7 184.146 468.406 187.638C470.745 192.444 473.276 196.753 475.769 200.534C473.621 200.967 471.282 201.335 468.751 201.591C462.04 202.28 456.135 201.96 451.418 201.367C442.982 197.202 441.122 193.645 441.046 191.146C440.911 186.981 445.686 185.155 447.009 180.093C448.389 174.838 445.13 169.76 442.139 166.267C441.813 166.395 438.975 167.693 436.847 166.315C434.795 164.986 432.782 161.862 434.68 159.971C436.578 158.081 439.282 158.017 441.142 158.69C442.982 156.223 447.009 152.282 444.976 145.618C450.958 144.608 466.489 138.553 469.23 133.106C469.518 133.987 471.953 147.139 473.334 148.613Z" fill="#D08B73"/>
<g opacity="0.5">
<path opacity="0.5" d="M446.683 165.386C446.51 165.45 447.028 166.844 448.523 168.814C450 170.785 452.492 173.284 455.79 175.559C459.088 177.818 462.577 179.356 465.281 180.012C467.984 180.701 469.767 180.605 469.767 180.461C469.786 180.237 468.118 180.012 465.664 179.131C463.191 178.282 459.989 176.696 456.806 174.534C453.643 172.355 451.112 170.064 449.444 168.286C447.756 166.508 446.894 165.29 446.683 165.386Z" fill="#BC6C56"/>
</g>
<path d="M440.777 163.672C440.739 163.48 440.317 163.4 439.799 163.224C439.531 163.128 439.243 163.015 438.956 162.871C438.611 162.695 438.515 162.583 438.515 162.471C438.476 162.295 438.476 161.734 438.496 161.622C438.515 161.478 438.553 161.381 438.764 161.237C439.186 160.997 439.646 160.837 439.608 160.644C439.588 160.484 439.205 160.26 438.38 160.356C437.997 160.388 437.307 160.693 437.077 161.269C436.962 161.526 436.923 161.782 436.904 161.99C436.885 162.182 436.866 162.423 436.923 162.743C436.981 163.063 437.249 163.448 437.518 163.624C437.786 163.816 438.055 163.929 438.285 164.009C438.783 164.169 439.243 164.217 439.627 164.201C440.432 164.105 440.815 163.848 440.777 163.672Z" fill="#BC6C56"/>
<path d="M447.335 176.857C444.343 181.182 440.183 187.782 436.425 196.225C428.046 215.112 427.107 231.181 426.052 253.048C425.63 261.747 425.419 273.585 426.244 287.715C426.263 288.18 432.111 289.205 432.744 289.333C436.118 290.022 439.512 290.711 442.886 291.4C445.034 291.4 447.699 292.377 449.789 292.809C452.224 293.306 454.659 293.803 457.113 294.299C461.542 295.196 465.453 295.309 470.017 295.293C479.68 295.244 489.247 293.723 498.336 290.983C497.434 290.983 496.572 270.301 496.533 268.683C496.495 266.088 496.533 265.303 496.476 263.14C496.361 258.863 495.92 250.773 493.255 238.454C490.11 223.955 488.538 216.714 483.725 208.32C479.373 200.743 474.235 195.168 470.438 191.531C468.406 192.172 464.495 193.085 460.142 192.044C453.144 190.394 447.986 184.338 447.335 176.857Z" fill="#F9AE26"/>
<path d="M496.495 256.316V265.383L469.345 253.4L462.52 256.236H451.476V246.416L460.89 251.125L468.425 248.418L496.495 256.316Z" fill="#D38309"/>
<path d="M462.443 239.559C458.8 241.85 455.138 244.141 451.495 246.432C452.185 249.011 452.856 251.574 453.547 254.153C457.094 254.153 460.622 254.153 464.169 254.153C465.53 252.824 466.91 251.478 468.272 250.148C477.053 253.016 485.854 255.867 494.635 258.735C498.01 259.424 502.995 259.616 505.871 256.444C509.092 252.92 507.213 246.864 504.567 243.003C497.377 232.51 500.31 212.261 487.445 190.65C485.394 194.078 484.818 197.891 482.767 201.335C488.365 213.062 480.159 230.139 485.739 241.866C477.954 241.081 470.208 240.312 462.443 239.559Z" fill="#D08B73"/>
<path d="M494.635 248.402C492.277 249.908 489.113 250.372 486.122 250.388C483.956 250.405 481.751 250.212 479.737 249.555C477.648 248.867 476.459 247.777 475.04 246.4C473.736 245.134 472.202 243.964 470.822 242.731C470.477 242.427 465.166 237.604 465.166 237.604C463.555 238.918 461.599 239.943 459.97 241.257C460.833 240.568 468.406 245.855 469.288 246.4C471.397 247.697 473.525 249.011 475.634 250.308C477.417 251.414 479.009 252.759 481.214 253.048C485.758 253.641 490.264 253.721 494.405 251.75C496.572 250.725 497.78 247.617 498.431 245.743C499.313 243.212 499.543 240.504 499.026 237.893C499.007 239.719 498.911 241.545 498.355 243.324C497.818 245.086 496.802 246.8 495.191 248.018C495.038 248.146 494.846 248.274 494.635 248.402Z" fill="#BC6C56"/>
<path d="M459.97 241.241C459.97 241.241 443.653 233.76 438.802 228.906C433.951 224.052 432.398 209.602 433.913 207.904C435.428 206.189 461.983 227.848 461.983 227.848L468.406 236.083L459.97 241.241Z" fill="#D38309"/>
<path d="M465.07 202.825C469.461 206.109 474.676 208.977 478.51 212.709C480.485 214.632 481.022 217.051 481.195 219.518C481.367 222.129 481.636 224.708 481.885 227.304L462.922 207.134L465.07 202.825Z" fill="#D38309"/>
<path d="M457.362 200.759C461.695 203.37 467.313 207.359 472.624 213.126C477.092 217.996 480.006 222.674 481.904 226.391C482 216.25 482.096 206.125 482.192 195.985C479.162 192.3 476.133 188.615 473.084 184.931C474.561 180.798 476.018 176.681 477.494 172.547C482.096 173.172 486.717 173.781 491.318 174.406C493.657 177.706 495.996 181.006 498.335 184.306C497.262 188.359 496.169 192.428 495.095 196.481C495.958 203.514 497.108 213.414 498.355 225.413C499.428 235.794 500.368 245.887 494.673 249.027C491.241 250.917 487.157 251.093 487.157 251.093C487.157 251.093 484.205 251.222 481.022 250.244C475.864 248.658 458.915 235.746 437.69 216.763C444.248 211.444 450.805 206.093 457.362 200.759Z" fill="#D08B73"/>
<path d="M479.603 218.429L459.433 235.426L462.443 237.957L480.965 222.29L479.603 218.429Z" fill="#BC6C56"/>
<path d="M459.51 238.486L480.639 220.079C475.845 210.867 446.874 180.653 435.581 201.575C424.614 221.857 454.505 235.426 459.51 238.486Z" fill="#F9AE26"/>
<path d="M363.279 298.769C362.761 298.561 362.205 298.4 361.668 298.192C359.847 297.535 357.987 296.702 356.05 296.286C353.807 295.805 351.66 295.18 349.436 294.668C350.394 294.508 351.41 294.411 352.35 294.219C353.174 294.043 353.999 293.739 354.842 293.53C355.648 293.322 356.472 293.066 357.105 292.601C357.661 292.185 358.236 291.4 357.929 290.775C356.683 290.855 355.264 291.432 354.056 291.736C352.676 292.089 344.297 294.139 341.479 294.796C336.647 295.917 331.93 296.943 327.29 297.888L325.795 298.016C325.661 297.712 325.526 297.407 325.392 297.103C318.01 297.135 310.629 297.167 303.247 297.199C293.2 295.885 283.134 294.572 273.087 293.258C268.869 278.728 263.213 267.322 258.516 259.28C248.028 241.289 241.931 239.255 238.269 238.806C232.344 238.069 225.269 240.568 221.952 244.91C216.468 252.087 222.661 262.419 231.922 277.382C243.349 295.821 249.063 305.049 258.669 309.502C276.845 317.945 299.182 313.331 313.14 310.447C319.966 309.038 325.488 307.34 329.265 306.026C329.15 305.77 329.035 305.497 328.92 305.241C331.336 305.177 333.733 305.129 336.148 305.065C338.507 306.026 340.29 307.003 341.498 307.756C343.453 308.958 346.004 310.8 346.004 310.8C346.176 310.88 347.576 311.505 349.071 310.976C349.416 310.848 350.241 310.479 350.356 310.127C350.471 309.759 350.087 309.39 349.704 309.054C348.381 307.884 347.116 307.115 346.809 306.923C346.099 306.491 345.141 305.85 344.105 304.905C345.582 304.552 347.211 304.504 348.726 304.744C350.107 304.969 351.372 305.497 352.58 306.09C353.845 306.715 354.823 307.692 356.127 308.301C357.009 308.701 358.006 308.99 359.022 309.022C360.077 309.054 360.767 308.685 361.496 308.076C359.195 306.442 356.28 304.696 352.676 303.158C351.315 302.582 349.992 302.085 348.726 301.668C348.266 301.236 348.228 301.044 348.285 300.948C348.611 300.483 351.909 301.588 352.081 301.652C352.599 301.829 353.174 302.069 354.344 302.55C355.954 303.206 357.508 303.911 359.08 304.616C360.729 305.369 362.205 305.177 363.509 304.055C363.317 304.184 361.035 302.726 360.786 302.598C359.329 301.797 357.814 301.108 356.242 300.483C354.114 299.65 352.12 299.009 350.318 298.529C350.126 298.24 350.087 298.032 350.183 297.888C350.49 297.455 352.158 297.68 355.149 298.561C356.875 299.073 358.543 299.778 360.403 299.938C361.361 300.018 362.703 299.97 363.509 299.458C364.026 299.105 363.854 299.009 363.279 298.769Z" fill="#C4422B"/>
<path d="M296.268 467.956C298.549 467.267 301.675 466.306 301.272 463.647C300.869 460.987 293.123 457.831 290.573 456.069C290.382 449.373 289.596 443.029 284.936 437.374C284.917 437.358 284.726 437.454 284.726 437.374C284.687 436.525 284.208 436.509 284.419 435.371C284.63 434.234 287.161 431.991 288.273 431.062C289.787 431.078 291.206 431.19 292.702 431.334C311.626 413.055 326.964 393.976 327.348 369.129C327.386 366.678 327.425 364.515 325.776 362.048C322.785 357.546 316.457 354.102 311.453 350.898C305.03 346.765 298.185 343.176 291.014 340.068C290.228 339.732 289.212 339.331 288.579 339.043C284.438 337.169 279.242 335.551 275.1 334.493C268.792 332.875 266.338 331.402 259.052 330.136C251.747 328.854 225.825 325.843 221.319 325.923C216.814 326.003 219.498 335.038 219.306 335.631C217.37 341.286 219.306 344.81 219.996 349.793C220.054 350.193 219.881 350.209 220.13 350.818C220.188 350.946 219.824 350.097 220.629 351.074C224.023 355.223 222.987 358.235 229.986 362.272C240.646 368.44 259.762 364.867 274.238 366.63C280.086 367.334 289.806 371.227 295.309 374.159C293.181 383.354 290.19 385.645 285.243 395.978C282.674 401.345 267.91 423.741 266.377 428.691C264.862 433.641 270.499 427.602 270.384 430.309C269.444 432.087 268.102 434.634 266.798 436.621C262.024 440.033 258.209 444.054 255.467 448.748C257.346 449.485 261.449 451.087 262.81 451.632C264.172 452.176 262.964 451.76 263.731 452.08C263.846 452.128 263.731 452 263.769 452.016C264.594 452.337 265.322 452.673 266.147 453.009C266.492 451.696 268.236 452.112 269.176 452.529C272.359 453.955 275.005 455.765 276.884 458.136C278.763 460.507 278.571 463.438 281.044 465.297C283.518 467.155 285.818 468.084 289.193 468.581C291.321 468.901 293.986 468.645 296.268 467.956Z" fill="#282E5B"/>
<path d="M200.497 356.073C200.497 356.073 232.286 366.518 250.271 368.52C268.256 370.523 280.373 366.646 283.805 367.367C287.237 368.088 297.457 391.204 308.424 400.256C319.391 409.307 350.548 428.787 354.075 431.543C357.603 434.314 363.029 445.817 363.029 445.817L370.737 443.526L369.146 440.242C369.146 440.242 395.509 430.453 398.059 427.249C400.609 424.045 403.274 412.719 399.363 409.003C395.451 405.286 392.288 418.615 387.533 420.233C382.778 421.851 365.503 421.194 360.498 419.832C355.475 418.47 309.459 355.544 303.343 352.276C297.227 349.008 256.752 337.169 247.395 337.297C238.038 337.425 202.165 332.844 202.165 332.844L200.497 356.073Z" fill="#034C8A"/>
<path d="M257.327 371.5C268.16 371.468 277.171 371.932 283.46 372.365C288.119 379.766 292.663 387.904 298.53 394.649C301.579 398.157 342.188 430.069 343.108 429.092L358.198 412.943C341.229 393.063 324.51 373.006 307.043 353.429C305.318 351.491 303.554 349.536 301.234 348.111C296.996 345.531 289.001 345.291 283.786 344.202C277.114 342.792 270.422 341.43 263.711 340.069C254.834 338.274 245.554 336.977 236.888 334.558C232.459 333.324 200.765 330.889 200.555 330.873C201.264 330.921 199.807 340.629 199.692 341.35C198.503 349.024 199.788 352.965 200.938 356.089C201.245 356.906 203.814 363.586 210.084 367.991C219.402 374.544 230.465 371.564 257.327 371.5Z" fill="#0254A9"/>
<path d="M354.075 431.543C357.162 429.797 363.413 420.233 363.413 420.233L387.993 417.493C387.993 417.493 394.359 406.167 396.928 406.872C400.091 407.737 400.782 408.955 401.434 411.598C401.99 413.841 402.085 416.148 401.759 418.406C401.261 421.947 399.746 425.423 397.292 428.355C394.78 431.351 390.428 431.815 386.785 433.593C382.797 435.548 378.79 437.566 374.706 439.441C373.498 440.001 371.849 441.091 373.268 442.244L362.934 446.97L354.075 431.543Z" fill="#EE5F43"/>
<path d="M244.442 217.307L231.385 237.444C238.537 242.314 245.708 247.184 252.859 252.055C251.958 249.988 250.654 246.079 251.441 241.257C252.725 233.423 258.669 228.649 260.51 227.288C255.16 223.955 249.811 220.639 244.442 217.307Z" fill="#D08B73"/>
<g opacity="0.5">
<path opacity="0.5" d="M249.6 220.591C248.449 220.848 249.025 225.477 252.207 230.444C253.818 232.911 255.563 234.897 257.346 236.243C259.187 237.605 260.912 237.717 261.123 237.252C261.372 236.772 260.567 236.003 259.723 234.593C258.861 233.183 257.518 230.988 256.042 228.729C253.109 224.164 250.769 220.303 249.6 220.591Z" fill="#EE5F43"/>
</g>
<path d="M252.495 249.459C250.654 247.168 248.641 244.83 246.456 242.427C242.717 238.325 238.978 234.657 235.335 231.357C219.613 231.901 211.637 236.515 207.572 239.831C199.002 246.8 196.816 256.684 197.487 296.542C197.736 311.425 198.1 323.76 198.388 332.427C200.018 333.837 212.289 344.009 231.021 342.712C248.315 341.51 258.113 331.45 259.723 329.752C259.187 318.377 258.496 309.134 257.979 302.854C256.809 288.756 256.387 280.698 255.16 269.917C254.221 261.362 253.224 254.281 252.495 249.459Z" fill="#EE5F43"/>
<path d="M208.933 249.075C208.799 250.212 208.531 251.253 208.531 252.391C208.55 255.435 208.454 258.462 208.511 261.506C208.607 266.472 210.237 271.182 211.637 275.988C212.883 280.314 214.915 284.335 217.542 288.18C219.824 291.528 222.278 294.924 224.981 298.048C227.11 300.499 229.315 302.822 231.826 304.985C235.833 308.413 240.934 311.2 246.11 313.235C251.977 315.542 258.746 315.894 265.13 316.391C267.872 316.599 270.652 316.15 273.317 316.775" stroke="#C4422B" stroke-width="1.4641" stroke-miterlimit="10"/>
<path d="M222.987 243.083C224.54 244.877 227.723 246.223 229.756 247.649C231.596 248.947 232.842 250.34 234.223 252.022C237.233 255.691 239.994 259.504 242.525 263.429C247.568 271.262 251.613 279.561 254.566 288.099C255.084 289.605 255.563 291.111 256.1 292.601C256.579 293.931 256.617 295.469 257.346 296.734C257.672 297.311 257.959 297.631 257.825 298.336" stroke="#C4422B" stroke-width="1.7716" stroke-miterlimit="10"/>
<path d="M247.606 221.424C246.494 221.633 244.404 218.637 243.656 218.012C241.106 215.897 238.805 214.648 238.249 211.38C237.808 208.72 238.69 206.205 238.978 203.61C239.304 200.807 239.706 198.051 240.569 195.312C242.429 189.4 246.283 184.13 252.821 181.15C264.287 175.911 289.346 180.045 288.158 191.595C287.563 197.362 287.429 202.937 283.978 209.041C283.978 209.041 267.508 219.806 263.155 219.614C258.803 219.406 247.644 221.424 247.606 221.424Z" fill="#034C8A"/>
<path d="M285.799 195.936C285.895 199.925 283.633 211.46 283.019 212.693C282.425 213.927 281.849 215.849 282.597 217.179C283.345 218.493 285.722 222.498 285.492 223.443C285.262 224.388 282.252 225.189 281.274 224.58C280.296 223.971 277.766 222.53 277.766 222.53C277.766 222.53 271.362 233.007 269.464 234.849C267.565 236.691 262.599 236.403 260.395 234.817C258.19 233.231 248.718 226.182 247.242 220.335C245.765 214.488 246.551 211.62 246.551 211.62C246.551 211.62 242.468 206.141 245.535 203.049C248.603 199.957 251.862 200.582 253.626 201.303C255.39 202.024 256.943 204.988 256.943 204.988C256.943 204.988 266.089 199.269 266.664 196.449C267.259 193.63 266.453 193.854 266.453 193.854C266.453 193.854 272.052 197.122 276.117 196.962C280.201 196.802 285.799 195.936 285.799 195.936Z" fill="#D08B73"/>
<g opacity="0.5">
<path opacity="0.5" d="M249.063 208.464C249.14 208.288 248.392 208.064 248.258 207.503C248.066 207.006 248.603 205.901 249.581 205.308C250.578 204.731 251.939 204.715 252.572 205.068C253.358 205.5 254.144 205.757 254.202 205.548C254.24 205.388 253.971 205.052 253.224 204.347C252.303 203.562 250.309 203.354 248.699 204.267C247.184 205.228 246.571 206.782 247.28 207.871C247.644 208.4 248.22 208.544 248.526 208.576C248.852 208.592 249.044 208.544 249.063 208.464Z" fill="#EE5F43"/>
</g>
<path d="M304.071 307.323C309.459 307.195 314.866 307.067 320.254 306.923C322.612 307.884 324.395 308.861 325.603 309.614C327.559 310.816 330.109 312.658 330.109 312.658C330.281 312.738 331.681 313.363 333.176 312.834C333.522 312.706 334.346 312.338 334.461 311.985C334.576 311.617 334.193 311.248 333.809 310.912C332.486 309.742 331.221 308.973 330.914 308.781C330.205 308.349 329.246 307.708 328.211 306.763C329.687 306.41 331.317 306.362 332.831 306.602C334.212 306.827 335.477 307.355 336.685 307.948C337.951 308.573 338.928 309.55 340.232 310.159C341.114 310.559 342.111 310.848 343.127 310.88C344.182 310.912 344.872 310.543 345.601 309.919C343.3 308.285 340.386 306.538 336.781 305C335.42 304.424 334.097 303.927 332.831 303.511C332.371 303.078 332.333 302.886 332.39 302.79C332.716 302.325 336.014 303.431 336.187 303.495C336.704 303.671 337.28 303.911 338.449 304.392C340.06 305.049 341.613 305.753 343.185 306.458C344.834 307.211 346.31 307.019 347.614 305.898C347.422 306.026 345.141 304.568 344.891 304.44C343.434 303.639 341.92 302.95 340.347 302.325C338.219 301.492 336.225 300.851 334.423 300.371C334.231 300.082 334.193 299.874 334.308 299.73C334.614 299.297 336.263 299.522 339.274 300.403C340.999 300.915 342.667 301.62 344.527 301.78C345.486 301.861 346.828 301.813 347.633 301.3C348.189 300.947 348.017 300.835 347.441 300.611C346.924 300.403 346.368 300.243 345.831 300.034C344.009 299.377 342.15 298.544 340.213 298.128C337.97 297.663 335.822 297.023 333.598 296.526C334.557 296.366 335.573 296.27 336.513 296.077C337.337 295.901 338.162 295.597 339.005 295.388C339.81 295.18 340.635 294.924 341.268 294.459C341.824 294.059 342.399 293.258 342.092 292.633C340.846 292.713 339.427 293.29 338.219 293.594C336.839 293.947 328.46 295.997 325.641 296.654C320.81 297.775 316.093 298.801 311.453 299.746L303.86 300.387L304.071 307.323Z" fill="#D08B73"/>
<path d="M206.057 246.768C200.574 253.945 206.767 264.278 216.027 279.24C227.455 297.679 233.168 306.907 242.774 311.36C260.951 319.803 283.287 315.189 297.246 312.306C304.071 310.896 309.593 309.198 313.37 307.884C312.086 304.904 310.801 301.925 309.517 298.961C302.135 298.993 294.753 299.025 287.371 299.057C277.325 297.743 267.259 296.43 257.212 295.116C252.994 280.586 247.337 269.18 242.64 261.138C232.152 243.147 226.055 241.113 222.393 240.664C216.449 239.943 209.374 242.426 206.057 246.768Z" fill="#EE5F43"/>
<path d="M277.785 385.261H198.522C196.317 385.261 194.534 383.771 194.534 381.929V374.688C194.534 372.845 196.317 371.356 198.522 371.356H277.785C279.99 371.356 281.773 372.845 281.773 374.688V381.929C281.792 383.771 279.99 385.261 277.785 385.261Z" fill="#346EC1"/>
<path d="M173.616 327.22C173.616 315.366 173.98 303.671 173.443 291.88C173.079 284.079 173.156 276.213 174.517 268.475C175.112 265.063 177.853 249.523 185.925 252.455C187.478 253.016 188.188 254.874 188.456 255.739C188.092 279.577 187.747 303.399 187.382 327.236C187.382 330.344 184.89 332.859 181.822 332.859H179.195C176.109 332.843 173.616 330.328 173.616 327.22Z" fill="#346EC1"/>
<path d="M173.252 287.106V361.92C173.252 367.943 176.109 373.727 181.209 377.988C186.309 382.249 193.23 384.636 200.44 384.636H267.431" stroke="#034C8A" stroke-width="1.5" stroke-miterlimit="10" stroke-linecap="round" stroke-linejoin="round"/>
<path d="M236.064 385.261H229.276V466.514H236.064V385.261Z" fill="#034C8A" stroke="#034C8A" stroke-miterlimit="10" stroke-linecap="round" stroke-linejoin="round"/>
<path d="M241.49 422.395H223.85V450.19H241.49V422.395Z" fill="#034C8A" stroke="#034C8A" stroke-miterlimit="10" stroke-linecap="round" stroke-linejoin="round"/>
<path d="M292.069 469.238C284.169 464.848 262.235 453.923 231.404 454.227C202.069 454.515 181.247 464.8 173.252 469.238C173.252 467.7 173.252 466.162 173.252 464.64C181.65 460.17 202.434 450.462 231.404 450.174C261.852 449.886 283.728 460.202 292.069 464.64C292.069 466.178 292.069 467.7 292.069 469.238Z" fill="#034C8A" stroke="#034C8A" stroke-miterlimit="10" stroke-linecap="round" stroke-linejoin="round"/>
<path d="M180.844 469.238C180.844 465.729 177.451 462.894 173.252 462.894C169.053 462.894 165.659 465.729 165.659 469.238C165.659 472.746 169.053 475.582 173.252 475.582C177.451 475.582 180.844 472.746 180.844 469.238Z" fill="#034C8A" stroke="#034C8A" stroke-miterlimit="10" stroke-linecap="round" stroke-linejoin="round"/>
<path d="M292.069 475.582C296.262 475.582 299.661 472.741 299.661 469.238C299.661 465.734 296.262 462.894 292.069 462.894C287.876 462.894 284.476 465.734 284.476 469.238C284.476 472.741 287.876 475.582 292.069 475.582Z" fill="#034C8A" stroke="#034C8A" stroke-miterlimit="10" stroke-linecap="round" stroke-linejoin="round"/>
<path d="M232.67 475.229C236.63 475.229 239.841 472.547 239.841 469.238C239.841 465.929 236.63 463.246 232.67 463.246C228.71 463.246 225.499 465.929 225.499 469.238C225.499 472.547 228.71 475.229 232.67 475.229Z" fill="#034C8A" stroke="#034C8A" stroke-miterlimit="10" stroke-linecap="round" stroke-linejoin="round"/>
<path d="M355.475 475.581L480.389 324.881" stroke="#034C8A" stroke-width="2.916" stroke-miterlimit="10" stroke-linecap="round" stroke-linejoin="round"/>
<path d="M357.392 324.881L478.453 475.581" stroke="#034C8A" stroke-width="2.916" stroke-miterlimit="10" stroke-linecap="round" stroke-linejoin="round"/>
<path d="M517.797 333.212H318.049C315.038 333.212 312.603 331.177 312.603 328.662V321.101C312.603 318.586 315.038 316.551 318.049 316.551H517.797C520.807 316.551 523.242 318.586 523.242 321.101V328.662C523.242 331.161 520.807 333.212 517.797 333.212Z" fill="#346EC1"/>
<path d="M514.077 329.223H321.788C317.263 329.223 313.524 326.483 312.776 322.879C312.68 323.311 312.623 323.744 312.623 324.209V325.538C312.623 329.768 316.726 333.196 321.788 333.196H514.077C519.139 333.196 523.242 329.768 523.242 325.538V324.209C523.242 323.76 523.165 323.311 523.088 322.879C522.321 326.483 518.602 329.223 514.077 329.223Z" fill="#0254A9"/>
<path d="M400.513 283.069L395.682 282.492C394.32 282.332 393.362 281.275 393.553 280.121L405.958 207.727C406.15 206.59 407.416 205.789 408.796 205.949L413.628 206.526C414.989 206.686 415.948 207.743 415.756 208.897L403.351 281.291C403.159 282.444 401.894 283.229 400.513 283.069Z" fill="#034C8A"/>
<path d="M428.966 313.427L426.646 313.956C425.707 314.164 424.748 313.7 424.499 312.915L404.463 250.437C404.214 249.652 404.77 248.851 405.709 248.642L408.029 248.114C408.969 247.905 409.927 248.37 410.177 249.155L430.213 311.633C430.462 312.402 429.906 313.219 428.966 313.427Z" fill="#034C8A"/>
<path d="M437.959 316.199H411.48C409.908 316.199 408.643 315.141 408.643 313.828V310.592C408.643 309.278 409.908 308.221 411.48 308.221H437.959C439.531 308.221 440.796 309.278 440.796 310.592V313.828C440.777 315.125 439.512 316.199 437.959 316.199Z" fill="#034C8A"/>
<path d="M379.595 312.21H328.786C328 312.21 327.367 312.738 327.367 313.395V315.013C327.367 315.67 328 316.199 328.786 316.199H379.595C380.381 316.199 381.014 315.67 381.014 315.013V313.395C381.014 312.738 380.381 312.21 379.595 312.21Z" fill="#034C8A"/>
<path d="M777.844 285.504C777.844 285.504 759.917 353.782 757.003 363.938C754.069 374.095 741.453 427.746 741.453 427.746L758.882 432.552C758.882 432.552 774.182 405.126 775.85 398.493C777.518 391.861 774.988 376.946 779.302 370.923C783.635 364.899 802.616 331.418 802.616 331.418L801.332 284.896L777.844 285.504Z" fill="#0254A9"/>
<path d="M796.136 300.499C796.136 300.499 796.193 354.182 798.494 363.73C800.795 373.294 830.935 421.722 830.935 421.722L836.802 428.819L851.355 421.722C851.355 421.722 848.076 402.867 842.133 388C836.189 373.134 827.062 366.694 828.539 360.91C830.034 355.143 832.834 331.914 830.916 317.016C829.018 302.117 824.474 284.864 824.474 284.864L793.835 285.344L796.136 300.499Z" fill="#346EC1"/>
<path d="M848.498 414.577C848.498 414.577 841.442 392.261 838.931 387.632C836.419 383.002 823.803 364.883 823.803 361.103C823.803 357.322 827.829 340.885 827.829 332.459C827.829 324.032 818.607 294.972 818.607 294.972" stroke="#0254A9" stroke-width="0.5164" stroke-miterlimit="10"/>
<path d="M807.908 295.549C807.851 295.549 807.774 295.917 807.697 296.606C807.621 297.279 807.486 298.32 807.812 299.538C808.081 300.723 808.234 302.181 808.733 303.799C809.212 305.385 809.96 307.115 811.129 308.765C813.43 312.13 817.188 314.1 819.987 314.853C821.406 315.253 822.614 315.398 823.439 315.462C824.263 315.526 824.723 315.478 824.723 315.43C824.742 315.302 822.902 315.253 820.198 314.372C817.533 313.523 814.063 311.601 811.858 308.397C810.746 306.827 809.998 305.161 809.5 303.623C808.982 302.085 808.771 300.643 808.407 299.442C808.023 298.272 808.062 297.311 808.023 296.606C808.004 295.933 807.966 295.565 807.908 295.549Z" fill="#0254A9"/>
<path d="M787.795 294.732C787.757 294.716 787.834 295.26 788.716 295.629C789.578 296.013 790.959 295.997 792.55 295.965C795.752 295.933 800.181 295.821 805.09 295.677C809.979 295.517 814.408 295.341 817.61 295.18C820.812 295.02 822.787 294.86 822.787 294.764C822.787 294.668 820.793 294.636 817.591 294.684C814.389 294.716 809.96 294.828 805.071 294.972C800.181 295.132 795.752 295.308 792.57 295.469C790.959 295.565 789.674 295.645 788.888 295.373C788.045 295.132 787.872 294.684 787.795 294.732Z" fill="#0254A9"/>
<path d="M783.347 291.256C783.347 291.352 785.61 291.32 789.233 291.223C793.164 291.111 798.034 290.983 803.402 290.839C808.771 290.727 813.622 290.615 817.572 290.535C821.195 290.455 823.439 290.374 823.439 290.278C823.439 290.23 822.883 290.182 821.866 290.134C820.85 290.086 819.374 290.054 817.572 290.022C813.948 289.974 808.924 289.99 803.383 290.118C797.842 290.246 792.838 290.487 789.214 290.711C787.412 290.823 785.936 290.935 784.939 291.031C783.903 291.127 783.328 291.208 783.347 291.256Z" fill="#0254A9"/>
<path d="M812.491 289.702C812.261 289.718 812.146 291.047 812.241 292.649C812.337 294.251 812.606 295.549 812.836 295.549C813.066 295.549 813.181 294.235 813.085 292.601C812.989 290.983 812.721 289.686 812.491 289.702Z" fill="#0254A9"/>
<path d="M802.386 288.292C802.156 288.308 802.06 290.006 802.195 292.105C802.329 294.187 802.616 295.885 802.846 295.869C803.077 295.869 803.172 294.155 803.038 292.057C802.904 289.974 802.616 288.276 802.386 288.292Z" fill="#0254A9"/>
<path d="M851.355 406.583L823.228 419.992C823.228 419.992 834.252 444.519 834.061 452.577C833.754 465.233 807.237 465.473 809.5 476.062C809.826 477.616 821.502 476.254 830.284 476.911C839.065 477.568 845.737 474.396 846.542 470.071C847.348 465.745 854.308 463.438 854.308 463.438L856.762 471.657L865.773 467.748L851.355 406.583Z" fill="#282E5B"/>
<path d="M767.663 422.844L735.874 413.857C735.874 413.857 730.985 446.425 723.45 451.455C707.076 462.381 683.627 464.688 685.908 472.49C686.349 474.028 690.126 476.046 702.915 475.549C707.076 475.389 719.538 475.133 722.951 471.817C726.364 468.501 733.746 469.622 733.746 469.622L733.535 476.27L753.015 476.062C752.421 461.708 760.282 443.061 767.663 422.844Z" fill="#282E5B"/>
<path d="M826.487 181.47C823.381 180.269 812.893 177.658 812.299 174.662C812.145 173.893 812.395 173.108 812.721 172.371C819.086 157.457 844.433 157.505 857.931 164.746C862.226 167.052 865.946 168.078 871.18 167.325C876.28 166.588 881.112 164.73 886.27 164.217C897.831 163.08 909.987 169.776 914.109 178.715C919.382 190.137 909.584 199.285 908.492 210.387C908.146 213.799 908.108 217.548 909.776 220.768C910.946 223.01 911.617 223.571 908.185 224.212C905.903 224.644 903.43 224.468 901.11 224.292C897.448 224.004 893.69 223.555 890.584 221.905C884.793 218.845 885.023 213.863 884.18 208.881C882.991 201.912 882.109 194.895 880.901 187.927C880.288 184.418 876.184 175.111 871.391 174.63C865.773 174.149 866.31 175.351 866.31 175.351C867.633 178.315 866.559 184.514 865.812 187.526C864.585 192.54 861.632 197.282 857.356 200.951C852.352 205.228 845.45 208.144 838.317 208.833C833.121 209.329 826.986 206.285 822.058 204.828L829.363 188.92L826.487 181.47Z" fill="#282E5B"/>
<path d="M814.293 175.495C813.66 176.905 812.759 179.1 812.376 179.628C812.011 180.157 806.451 183.121 805.55 184.402C804.649 185.684 808.234 186.645 808.234 186.645C808.138 186.613 806.048 192.877 805.991 193.502C805.742 196.289 808.234 199.317 810.957 200.695C814.178 202.329 818.492 202.329 821.713 200.695C820.869 203.242 819.987 205.789 819.105 208.32L834.157 212.886C834.157 212.886 834.847 203.786 836.381 200.791C837.914 197.795 841.347 189.977 841.347 189.977C841.347 189.977 842.823 190.249 844.433 189.16C846.063 188.055 846.888 184.498 844.242 183.649C841.596 182.8 839.832 184.21 839.391 185.171C837.435 184.947 835.767 181.054 835.154 179.804C833.198 175.912 834.367 172.131 835.326 168.19C835.23 168.622 832.335 169.439 831.856 169.76C830.207 170.881 829.287 172.948 828.673 174.582C828.347 175.463 828.098 176.376 827.887 177.289C827.446 179.228 828.021 180.285 825.164 179.564C821.291 178.603 817.859 177.113 814.293 175.495Z" fill="#D08B73"/>
<path d="M834.272 194.607C833.965 194.335 830.437 196.705 825.682 199.108C820.946 201.528 816.786 203.065 816.939 203.418C817.054 203.738 821.598 202.729 826.487 200.23C831.396 197.731 834.559 194.847 834.272 194.607Z" fill="#BC6C56"/>
<path d="M841.423 187.398C841.289 187.414 841.347 187.911 842.094 188.135C842.439 188.231 842.938 188.231 843.398 187.991C843.839 187.766 844.165 187.366 844.318 186.933C844.453 186.501 844.491 186.052 844.223 185.62C844.088 185.411 843.839 185.203 843.551 185.139C843.264 185.075 843.053 185.107 842.88 185.155C842.248 185.395 841.979 185.62 842.037 185.716C842.113 185.828 842.497 185.812 842.976 185.764C843.264 185.78 843.283 185.828 843.341 185.956C843.417 186.116 843.398 186.405 843.302 186.693C843.111 187.286 842.65 187.542 842.209 187.526C841.788 187.558 841.538 187.35 841.423 187.398Z" fill="#BC6C56"/>
<path d="M839.199 165.146C839.142 165.066 837.224 165.803 834.597 167.613C833.946 168.062 833.255 168.575 832.584 169.231C832.239 169.552 831.875 169.872 831.53 170.225C831.204 170.609 830.935 171.01 830.686 171.442C830.188 172.307 829.766 173.204 829.344 174.165C829.133 174.646 828.903 175.127 828.692 175.623C828.462 176.136 828.366 176.713 828.251 177.225C828.059 178.283 827.733 179.212 826.794 179.484C825.854 179.772 824.781 179.516 823.765 179.196C821.732 178.555 820.102 177.658 818.799 176.777C817.495 175.912 816.268 175.271 815.29 175.079C814.331 174.886 813.775 175.031 813.794 175.079C813.794 175.159 814.331 175.127 815.175 175.399C816.038 175.655 817.092 176.312 818.339 177.241C819.585 178.186 821.291 179.212 823.4 179.917C824.397 180.253 825.739 180.67 827.139 180.269C827.829 180.061 828.424 179.564 828.711 179.02C829.018 178.475 829.114 177.914 829.229 177.385C829.344 176.857 829.421 176.36 829.632 175.896C829.843 175.415 830.053 174.934 830.264 174.47C830.667 173.541 831.07 172.612 831.511 171.795C831.741 171.394 831.971 171.01 832.258 170.657C832.584 170.337 832.891 170.016 833.198 169.712C833.792 169.087 834.444 168.542 835.058 168.078C837.531 166.188 839.295 165.258 839.199 165.146Z" fill="#BC6C56"/>
<path d="M925.575 221.553C925.613 221.44 924.693 221.184 923.178 220.479C921.683 219.79 919.612 218.573 917.714 216.586C915.797 214.616 914.109 211.86 913.457 208.544C912.767 205.244 913.055 201.463 914.32 197.699C914.953 195.824 915.777 193.966 916.276 192.06C916.755 190.137 916.851 188.231 916.621 186.437C916.199 182.848 914.589 179.82 912.806 177.594C910.984 175.367 909.009 173.909 907.552 173.06C906.095 172.195 905.155 171.923 905.117 171.987C904.887 172.211 908.549 173.765 911.789 178.154C913.342 180.333 914.742 183.217 915.049 186.565C915.221 188.231 915.087 189.993 914.627 191.755C914.148 193.534 913.323 195.344 912.671 197.314C911.368 201.255 911.099 205.26 911.924 208.785C912.71 212.309 914.646 215.257 916.813 217.243C918.979 219.262 921.28 220.415 922.929 220.976C924.559 221.553 925.556 221.633 925.575 221.553Z" fill="#282E5B"/>
<path d="M829.037 201.592C829.076 201.72 830.188 201.688 831.894 201.159C833.581 200.646 835.786 199.589 837.723 197.923C839.64 196.257 840.829 194.367 841.366 192.941C841.922 191.499 841.922 190.57 841.768 190.538C841.385 190.442 840.407 194.03 836.764 197.138C833.179 200.31 828.922 201.271 829.037 201.592Z" fill="#282E5B"/>
<path d="M871.506 292.297C871.506 292.297 855.19 330.488 855.937 338.29C856.685 346.092 865.908 350.674 866.272 352.852C866.521 354.262 863.434 355.816 861.977 355.384C861.421 355.223 860.999 354.871 860.577 354.534C858.545 352.852 856.609 351.01 854.442 349.456C853.177 348.543 852.64 348.463 852.774 349.857C852.85 350.642 853.387 355.127 852.563 355.608C851.949 355.976 850.55 356.905 850.435 355.496C850.32 354.086 848.824 341.702 849.208 338.595C849.572 335.583 849.246 332.475 849.208 329.463C849.15 325.426 849.323 321.405 849.744 317.368C850.281 312.194 851.163 307.051 852.371 301.957C853.483 297.279 854.365 292.056 857.759 288.1C863.53 281.355 871.506 292.297 871.506 292.297Z" fill="#D08B73"/>
<path d="M836.381 237.028C837.569 245.15 838.279 254.329 837.953 264.374C837.799 269.244 837.416 273.858 836.898 278.231C842.382 279.304 846.255 280.97 848.748 282.252C854.538 285.248 856.379 288.051 862.303 290.278C865.984 291.672 869.34 292.12 871.506 292.281C872.369 271.615 867.844 255.931 864.201 246.463C858.238 230.972 851.528 224.019 847.904 220.703C842.094 215.385 836.093 211.972 831.837 209.906C831.683 210.082 831.511 210.242 831.376 210.418C825.394 217.515 831.511 229.514 836.381 237.028Z" fill="#12A189"/>
<path d="M747.301 206.157C747.301 206.157 733.573 191.339 732.826 187.59C732.078 183.841 731.828 179.836 731.963 178.747C732.097 177.658 733.612 174.486 734.033 172.195C734.455 169.904 732.212 166.892 731.924 166.524C731.637 166.155 732.135 159.555 731.215 158.93C730.275 158.306 728.416 158.097 728.857 166.364C723.929 165.643 721.513 165.995 721.456 168.959C721.398 171.923 724.811 179.516 724.811 179.516C724.811 179.516 725.175 184.514 726.249 187.942C727.304 191.371 731.694 210.21 741.952 217.563C749.564 215.785 747.301 206.157 747.301 206.157Z" fill="#D08B73"/>
<path d="M830.494 208.096C828.711 207.695 826.909 207.407 825.126 207.183C819.24 206.478 813.277 206.59 807.352 206.942C802.386 207.247 797.842 206.99 792.896 206.894C786.568 206.766 780.26 206.622 773.952 206.334C770.29 206.157 766.34 206.173 762.774 205.372C754.434 203.53 753.13 201.431 749.564 202.04C744.809 202.857 743.428 207.663 738.309 215.305C735.701 219.182 731.694 224.452 725.635 230.267C736.334 232.59 749.525 233.888 764.557 234.929C774.106 235.586 780.395 235.41 783.903 234.497C783.903 234.497 784.843 236.675 785.821 239.703C785.821 239.703 787.393 244.766 787.93 249.908C788.524 255.643 785.782 270.333 775.831 287.843C778.477 287.187 782.83 286.305 788.217 286.289C797.842 286.273 802.367 288.869 813.143 289.525C816.191 289.718 820.965 289.814 827.005 289.109C827.197 286.69 829.037 285.024 828.903 282.845C828.75 280.522 827.868 277.879 829.287 275.844C829.862 275.027 828.309 272.512 829.191 270.462C831.798 264.358 837.8 255.371 841.232 251.574C843.341 249.251 846.811 244.637 850.09 237.941C853.253 231.485 854.02 224.244 849.15 218.204C844.855 212.918 837.838 209.714 830.494 208.096Z" fill="#14B6A1"/>
<path d="M783.903 234.529C783.903 234.529 789.502 233.583 798.322 230.267C788.409 238.982 788.85 249.635 787.699 255.643C785.878 237.973 783.903 234.529 783.903 234.529Z" fill="#12A189"/>
<path d="M901.512 468.885C912.767 469.478 921.798 467.988 927.147 466.819C931.902 465.777 935.583 464.592 937.808 463.807C945.649 461.019 963.615 453.794 962.829 446.89C962.081 440.322 944.537 437.742 942.294 437.502C947.835 437.342 957.249 436.509 967.469 432.135C969.367 431.334 974.908 428.979 979.893 425.791C982.386 424.205 984.744 422.411 986.412 420.473C987.255 419.511 987.927 418.518 988.368 417.493C988.789 416.484 989.019 415.458 988.981 414.289C988.828 408.378 979.356 404.148 967.2 403.524C968.6 402.21 970.556 400.223 972.358 398.029C974.199 395.802 976.001 393.287 977.669 390.531C978.091 389.842 979.011 388.305 980.065 386.382C981.139 384.46 982.328 382.185 983.517 379.814C985.952 374.992 988.751 369.145 985.76 365.492C983.939 363.265 980.641 362.304 977.305 361.968C973.968 361.631 970.517 362.016 968.657 362.288C965.8 362.689 962.944 363.602 960.413 364.739C957.901 365.877 955.715 367.222 953.894 368.568C950.213 371.259 947.931 373.87 946.646 375.328C942.332 380.246 941.566 381.752 940.588 384.556C939.111 378.356 936.197 373.887 932.842 371.115C929.467 368.344 925.537 367.334 922.181 367.671C921.069 367.783 920.053 368.119 919.114 368.584C918.232 369 917.215 369.769 916.295 370.634C914.454 372.365 912.863 374.607 911.521 376.898C908.837 381.48 907.207 386.254 906.785 387.455C902.72 399.454 905.539 409.323 907.495 414.161C905.117 410.524 897.045 398.189 889.625 400.127C885.33 401.249 882.416 406.872 880.652 413.408C878.888 419.928 878.294 427.409 878.351 432.055C878.389 434.602 878.62 439.809 880.422 446.057C883.029 455.124 887.19 460.939 888.091 462.173C889.874 464.656 891.6 466.594 892.923 467.94C894.936 468.292 897.889 468.693 901.512 468.885Z" fill="#F29C1F"/>
<path d="M885.79 479.106C885.79 479.106 886.864 477.488 888.666 474.62C889.567 473.195 890.641 471.448 891.907 469.494C893.172 467.539 894.744 465.361 896.451 462.974C903.238 453.41 912.863 440.866 923.389 428.483C933.896 416.099 945.093 403.764 953.99 394.072C958.457 389.218 962.177 384.94 965.187 381.784C968.178 378.628 970.402 376.53 971.207 375.681" stroke="#805333" stroke-width="1.6688" stroke-miterlimit="10" stroke-linecap="round" stroke-linejoin="round"/>
<path d="M935.698 414.305C932.611 402.306 929.831 390.179 927.128 378.02" stroke="#805333" stroke-width="1.6688" stroke-miterlimit="10" stroke-linecap="round" stroke-linejoin="round"/>
<path d="M932.324 418.566C946.666 417.461 960.95 416.66 975.215 415.939" stroke="#805333" stroke-width="1.6688" stroke-miterlimit="10" stroke-linecap="round" stroke-linejoin="round"/>
<path d="M904.082 451.744C900.094 440.658 896.642 429.236 893.536 417.733" stroke="#805333" stroke-width="1.6688" stroke-miterlimit="10" stroke-linecap="round" stroke-linejoin="round"/>
<path d="M901.896 455.556C917.024 453.378 931.998 451.888 946.953 450.734" stroke="#805333" stroke-width="1.6688" stroke-miterlimit="10" stroke-linecap="round" stroke-linejoin="round"/>
<path d="M878.6 477.023C881.86 471.881 886.461 467.924 890.334 464.864C892.079 463.518 893.843 462.157 895.664 460.763C897.16 459.545 898.675 458.296 900.228 457.046C907.13 451.503 914.454 445.896 921.05 440.145C927.876 434.25 935.296 427.233 944.345 419.576C953.395 411.998 963.116 404.597 973.853 397.228C1009.9 372.541 1062.66 345.195 1069.66 351.859C1076.66 358.555 1037.87 397.949 1003.84 425.375C994.1 433.225 984.245 440.482 974.908 446.906C965.494 453.442 955.658 459.898 945.4 465.056C935.085 470.263 925.345 473.643 916.391 476.559C906.9 479.907 898.847 480.596 892.405 484.713L878.6 477.023Z" fill="#14B6A1"/>
<path d="M886.365 480.211C890.296 476.19 894.898 473.691 898.943 471.625L904.772 468.725L906.114 468.036L907.552 467.267L910.428 465.729C918.059 461.612 925.575 457.495 932.611 452.945C939.667 448.38 946.397 443.285 953.108 438.143C959.799 432.952 966.587 427.81 973.374 422.732C1000.56 402.338 1028.13 382.393 1055.78 362.448" stroke="#148B7A" stroke-width="1.352" stroke-miterlimit="10" stroke-linecap="round" stroke-linejoin="round"/>
<path d="M1019.43 388.737L1034.98 389.363" stroke="#148B7A" stroke-width="1.352" stroke-miterlimit="10" stroke-linecap="round" stroke-linejoin="round"/>
<path d="M1009.69 395.85L1006.91 382.185" stroke="#148B7A" stroke-width="1.352" stroke-miterlimit="10" stroke-linecap="round" stroke-linejoin="round"/>
<path d="M988.54 411.405L1003.07 414.786" stroke="#148B7A" stroke-width="1.352" stroke-miterlimit="10" stroke-linecap="round" stroke-linejoin="round"/>
<path d="M973.374 422.716L972.454 406.744" stroke="#148B7A" stroke-width="1.352" stroke-miterlimit="10" stroke-linecap="round" stroke-linejoin="round"/>
<path d="M956.578 435.451C963.04 436.365 969.444 437.342 975.847 438.335" stroke="#148B7A" stroke-width="1.352" stroke-miterlimit="10" stroke-linecap="round" stroke-linejoin="round"/>
<path d="M929.026 455.204C929.601 451.279 929.927 447.402 930.157 443.542" stroke="#148B7A" stroke-width="1.352" stroke-miterlimit="10" stroke-linecap="round" stroke-linejoin="round"/>
<path d="M68.2777 479.523H971.437" stroke="#363A69" stroke-width="5.0228" stroke-miterlimit="10" stroke-linecap="round" stroke-linejoin="round"/>
</svg>
