<svg width="50" height="50" viewBox="0 0 50 50" fill="none" xmlns="http://www.w3.org/2000/svg">
<circle cx="25" cy="25" r="25" fill="#EC2529"/>
<path d="M36.6595 23.78L29.22 16.3404C28.766 15.8865 28.0299 15.8865 27.576 16.3404C27.122 16.7944 27.122 17.5304 27.576 17.9844L33.0312 23.4396H13.1624C12.5205 23.4396 12 23.9601 12 24.602C12 25.2439 12.5205 25.7644 13.1624 25.7644H33.0312L27.5762 31.2196C27.1222 31.6736 27.1222 32.4096 27.5762 32.8636C27.8031 33.0904 28.1007 33.204 28.3982 33.204C28.6956 33.204 28.9931 33.0904 29.2201 32.8636L36.6595 25.424C37.1135 24.97 37.1135 24.234 36.6595 23.78Z" fill="white"/>
</svg>
