<svg width="125" height="99" viewBox="0 0 125 99" fill="none" xmlns="http://www.w3.org/2000/svg">
<g clip-path="url(#clip0_4_2961)">
<path d="M62.2574 97.9054C78.2737 97.9054 91.2575 84.8369 91.2575 68.7162C91.2575 52.5954 78.2737 39.527 62.2574 39.527C46.241 39.527 33.2572 52.5954 33.2572 68.7162C33.2572 84.8369 46.241 97.9054 62.2574 97.9054Z" fill="#F2F2F2"/>
<path d="M64.3115 98.2702C63.9763 98.2702 63.6376 98.2649 63.3052 98.2544L63.3128 98.0114C63.7901 98.0264 64.2772 98.0305 64.7568 98.0239L64.7601 98.2671C64.6108 98.2691 64.4613 98.2702 64.3115 98.2702ZM66.2141 98.2138L66.1999 97.971C66.6779 97.9426 67.1621 97.9027 67.639 97.8525L67.6642 98.0943C67.1837 98.145 66.6959 98.1853 66.2141 98.2138H66.2141ZM61.8525 98.1759C61.3705 98.1387 60.8834 98.09 60.4046 98.0309L60.4341 97.7895C60.9092 97.8481 61.3925 97.8966 61.8709 97.9334L61.8525 98.1759ZM69.1073 97.9084L69.071 97.668C69.546 97.5955 70.0246 97.5113 70.4932 97.4176L70.5403 97.6561C70.068 97.7505 69.5859 97.8354 69.1072 97.9084H69.1073ZM58.9651 97.8195C58.4889 97.7382 58.0082 97.6449 57.5364 97.5418L57.5877 97.304C58.0559 97.4064 58.5328 97.499 59.0054 97.5796L58.9651 97.8195ZM71.9605 97.3376L71.9025 97.1015C72.3687 96.9855 72.8375 96.8572 73.296 96.7204L73.3646 96.9536C72.9027 97.0915 72.4303 97.2208 71.9605 97.3376ZM56.1221 97.1982C55.655 97.0731 55.1849 96.9356 54.725 96.7891L54.7978 96.5573C55.2543 96.7026 55.7207 96.839 56.1842 96.963L56.1221 97.1982ZM74.7496 96.5048L74.6703 96.2751C75.1227 96.1168 75.5778 95.9456 76.023 95.7663L76.1127 95.9922C75.6641 96.1728 75.2056 96.3453 74.7496 96.5048ZM53.3445 96.3143C52.8908 96.1465 52.4343 95.9654 51.9878 95.776L52.0816 95.5518C52.5247 95.7397 52.9776 95.9194 53.4279 96.086L53.3445 96.3143ZM77.4477 95.4182L77.3477 95.1968C77.7822 94.9981 78.2189 94.786 78.6457 94.5663L78.7557 94.783C78.3255 95.0043 77.8855 95.2179 77.4477 95.4182ZM50.6576 95.1756C50.2215 94.9665 49.7838 94.744 49.3568 94.5143L49.4706 94.2998C49.8945 94.5277 50.3288 94.7485 50.7616 94.9562L50.6576 95.1756ZM80.0334 94.0878L79.9137 93.8766C80.3304 93.6373 80.7464 93.3858 81.1498 93.1289L81.2789 93.3343C80.8724 93.5933 80.4534 93.8468 80.0334 94.0878V94.0878ZM48.0878 93.7937C47.673 93.5454 47.2577 93.2835 46.8533 93.0154L46.9863 92.8123C47.3875 93.0784 47.7997 93.3382 48.2114 93.5847L48.0878 93.7937ZM82.4891 92.5241L82.3508 92.3248C82.7432 92.0489 83.1347 91.7599 83.5146 91.4661L83.6618 91.6589C83.2791 91.955 82.8846 92.2461 82.4891 92.5241H82.4891ZM45.6559 92.1815C45.2658 91.8964 44.8762 91.5977 44.4977 91.2935L44.6485 91.1035C45.0241 91.4053 45.4108 91.7017 45.7978 91.9846L45.6559 92.1815ZM84.7943 90.7408L84.6385 90.5548C85.0042 90.2443 85.3681 89.9206 85.7204 89.5928L85.8844 89.7714C85.5296 90.1017 85.1628 90.4279 84.7943 90.7408ZM43.3812 90.3534C43.0179 90.0332 42.657 89.7002 42.3085 89.3635L42.4758 89.1879C42.8217 89.5221 43.1798 89.8527 43.5403 90.1705L43.3812 90.3534ZM86.9298 88.7527L86.7577 88.5819C87.0949 88.2381 87.4283 87.8823 87.7487 87.5244L87.9283 87.6871C87.6054 88.0478 87.2695 88.4063 86.9298 88.7527ZM41.282 88.3256C40.9487 87.9729 40.6195 87.6083 40.3037 87.242L40.4862 87.0826C40.7997 87.4461 41.1263 87.8079 41.4571 88.1579L41.282 88.3256ZM88.8776 86.5767L88.6909 86.4223C88.9955 86.0493 89.2953 85.6643 89.5824 85.278L89.776 85.4236C89.4868 85.8129 89.1845 86.2009 88.8776 86.5767ZM39.3755 86.1149C39.0762 85.7343 38.7815 85.3413 38.4995 84.9468L38.6956 84.8048C38.9755 85.1961 39.2679 85.5862 39.565 85.9641L39.3755 86.1149ZM90.6211 84.2302L90.4212 84.0936C90.6907 83.6942 90.9547 83.2831 91.2057 82.8715L91.4117 82.9989C91.1586 83.4135 90.8926 83.8278 90.6211 84.2302ZM37.6776 83.7401C37.4143 83.3338 37.1566 82.9157 36.9116 82.4972L37.1197 82.3737C37.3629 82.789 37.6187 83.204 37.88 83.6071L37.6776 83.7401ZM92.1454 81.7321L91.934 81.6145C92.166 81.1919 92.3914 80.7579 92.6041 80.3245L92.8208 80.4323C92.6065 80.8689 92.3792 81.3063 92.1455 81.7321H92.1454ZM36.2029 81.2206C35.9775 80.7919 35.759 80.3519 35.5534 79.9132L35.7719 79.8094C35.976 80.2448 36.1928 80.6814 36.4165 81.1068L36.2029 81.2206ZM93.436 79.1025L93.2147 79.0048C93.4072 78.5622 93.5922 78.1088 93.7643 77.6575L93.9899 77.7447C93.8165 78.1996 93.63 78.6564 93.436 79.1025ZM34.9643 78.5776C34.779 78.1301 34.6016 77.6722 34.437 77.2166L34.6641 77.1335C34.8274 77.5856 35.0035 78.0399 35.1873 78.484L34.9643 78.5776ZM94.4811 76.3622L94.2517 76.2857C94.4025 75.8283 94.5448 75.3608 94.6746 74.8961L94.9073 74.9619C94.7764 75.4302 94.6329 75.9013 94.4811 76.3622ZM33.9714 75.8291C33.8277 75.3656 33.6925 74.892 33.5699 74.4215L33.8036 74.3597C33.9254 74.8267 34.0595 75.2967 34.2021 75.7567L33.9714 75.8291ZM95.2687 73.5433L95.0333 73.4882C95.1415 73.0194 95.2404 72.5406 95.3274 72.0654L95.565 72.1093C95.4775 72.5883 95.3778 73.0707 95.2687 73.5433ZM33.2333 72.9967C33.1326 72.5216 33.0414 72.0376 32.9623 71.5579L33.2007 71.518C33.2792 71.9941 33.3697 72.4744 33.4697 72.9458L33.2333 72.9967ZM95.7954 70.6635L95.5558 70.6305C95.6208 70.1541 95.6757 69.6684 95.719 69.1866L95.9597 69.2085C95.9161 69.694 95.8607 70.1835 95.7954 70.6635H95.7954ZM32.7571 70.1082C32.7001 69.6267 32.6533 69.1363 32.618 68.6506L32.859 68.6328C32.894 69.1149 32.9405 69.6015 32.9971 70.0794L32.7571 70.1082ZM96.0582 67.7476L95.8167 67.7367C95.8382 67.2547 95.8492 66.7658 95.8492 66.2837H96.0909C96.0908 66.7695 96.0799 67.2621 96.0582 67.7476ZM32.5448 67.1879C32.5365 66.8897 32.5323 66.5854 32.5322 66.2837C32.5322 66.0965 32.5338 65.9097 32.537 65.7233L32.7787 65.7275C32.7755 65.9126 32.7739 66.098 32.7739 66.2837C32.774 66.5832 32.7782 66.8852 32.7863 67.1813L32.5448 67.1879ZM95.8474 65.9444C95.8425 65.4621 95.8264 64.9733 95.7998 64.4915L96.041 64.4779C96.0678 64.9635 96.084 65.456 96.0891 65.9418L95.8474 65.9444ZM32.836 64.2754L32.5948 64.2602C32.625 63.7742 32.6666 63.2833 32.7185 62.8011L32.9588 62.8273C32.9072 63.3058 32.866 63.793 32.836 64.2754ZM95.6868 63.0428C95.6385 62.5632 95.5785 62.078 95.5084 61.6006L95.7475 61.5651C95.818 62.0462 95.8786 62.535 95.9273 63.0182L95.6868 63.0428ZM33.1469 61.3865L32.9081 61.3493C32.9821 60.8681 33.0681 60.3831 33.1638 59.9076L33.4006 59.9558C33.3057 60.4277 33.2204 60.909 33.1469 61.3865ZM95.2645 60.1684C95.1723 59.6939 95.0684 59.2163 94.9553 58.7488L95.1901 58.6913C95.304 59.1623 95.4088 59.6437 95.5017 60.1217L95.2645 60.1684ZM33.7193 58.5385L33.4849 58.4793C33.6023 58.0082 33.7323 57.5332 33.8713 57.0674L34.1027 57.1373C33.9648 57.5996 33.8358 58.071 33.7193 58.5385ZM94.5815 57.345C94.4467 56.8818 94.2994 56.4159 94.1438 55.9601L94.3723 55.881C94.5292 56.3403 94.6777 56.8099 94.8135 57.2765L94.5815 57.345ZM34.5513 55.7517L34.3233 55.6711C34.4839 55.2112 34.6573 54.7492 34.8386 54.2978L35.0627 54.389C34.8827 54.8369 34.7106 55.2954 34.5513 55.7517ZM93.643 54.597C93.4667 54.1493 93.2779 53.7001 93.0818 53.2616L93.3022 53.1617C93.4999 53.6035 93.6901 54.0562 93.8677 54.5073L93.643 54.597ZM35.6359 53.052L35.4163 52.9505C35.6182 52.5081 35.833 52.0644 36.0548 51.6318L36.2696 51.7434C36.0494 52.1727 35.8362 52.6129 35.6359 53.052ZM92.4603 51.9531C92.244 51.5237 92.0148 51.0934 91.7792 50.6743L91.9894 50.5545C92.227 50.9768 92.4578 51.4104 92.6758 51.8431L92.4603 51.9531ZM36.9623 50.4657L36.7529 50.3444C36.9939 49.923 37.2482 49.5013 37.5086 49.0909L37.7122 49.2218C37.4539 49.6291 37.2015 50.0476 36.9623 50.4657ZM91.0405 49.4277C90.7851 49.0185 90.5177 48.6109 90.2457 48.2161L90.4442 48.0775C90.7183 48.4753 90.9879 48.886 91.2451 49.2983L91.0405 49.4277ZM38.5178 48.014L38.3203 47.8739C38.5989 47.4761 38.8902 47.0798 39.1862 46.6956L39.3772 46.8447C39.0834 47.226 38.7942 47.6193 38.5178 48.014ZM89.3966 47.042C89.1054 46.6581 88.8021 46.2764 88.4949 45.9076L88.6802 45.7514C88.9896 46.123 89.2952 46.5075 89.5887 46.8943L89.3966 47.042ZM40.2884 45.7164L40.1045 45.5587C40.4171 45.1891 40.743 44.8212 41.073 44.4652L41.2496 44.6312C40.9222 44.9844 40.5988 45.3496 40.2884 45.7164ZM87.5429 44.8154C87.2183 44.4598 86.8815 44.1073 86.5421 43.7678L86.7125 43.5952C87.0545 43.9374 87.3938 44.2925 87.7209 44.6508L87.5429 44.8154ZM42.2586 43.5914L42.0896 43.4176C42.4352 43.0773 42.7928 42.7409 43.1524 42.4177L43.3134 42.5992C42.9565 42.9199 42.6016 43.2537 42.2586 43.5914ZM85.4951 42.7669C85.1393 42.4421 84.772 42.1218 84.4033 41.8148L84.5575 41.6274C84.9288 41.9367 85.299 42.2594 85.6575 42.5867L85.4951 42.7669ZM44.4117 41.6562L44.2591 41.4676C44.6329 41.1613 45.0191 40.8591 45.4072 40.5695L45.5512 40.7649C45.166 41.0524 44.7826 41.3522 44.4117 41.6562ZM83.2696 40.9135C82.8857 40.6226 82.4908 40.3371 82.0957 40.0651L82.2321 39.8643C82.6303 40.1384 83.0282 40.426 83.415 40.7192L83.2696 40.9135ZM46.7295 39.9271L46.5946 39.7253C46.9947 39.4544 47.4065 39.1891 47.8187 38.9367L47.9443 39.1445C47.5352 39.395 47.1265 39.6583 46.7295 39.9271ZM80.8843 39.2714C80.4759 39.017 80.0565 38.769 79.6379 38.5342L79.7554 38.3217C80.1773 38.5583 80.5999 38.8083 81.0115 39.0645L80.8843 39.2714ZM49.193 38.4188L49.077 38.2054C49.5002 37.9723 49.9342 37.7462 50.3668 37.5332L50.473 37.7517C50.0437 37.9631 49.6131 38.1875 49.193 38.4188V38.4188ZM78.3587 37.8553C77.9287 37.6396 77.4882 37.4313 77.0495 37.2361L77.1472 37.0137C77.5893 37.2103 78.0333 37.4203 78.4666 37.6376L78.3587 37.8553ZM51.7815 37.1445L51.6855 36.9213C52.1277 36.7284 52.5802 36.5433 53.0301 36.3713L53.1159 36.5987C52.6694 36.7694 52.2204 36.953 51.7815 37.1445V37.1445ZM75.7129 36.6781C75.2654 36.5035 74.8074 36.3368 74.3516 36.1829L74.4285 35.9523C74.8878 36.1074 75.3493 36.2753 75.8002 36.4514L75.7129 36.6781ZM54.4772 36.1142L54.4019 35.8831C54.8611 35.7315 55.3297 35.5888 55.7945 35.4591L55.8591 35.6934C55.3979 35.8222 54.9329 35.9638 54.4772 36.1142V36.1142ZM72.9724 35.7525C72.5115 35.6203 72.0414 35.4971 71.5751 35.3865L71.6306 35.1498C72.1005 35.2612 72.5741 35.3854 73.0387 35.5186L72.9724 35.7525ZM57.259 35.3371L57.2052 35.1C57.676 34.9918 58.1556 34.8931 58.6306 34.8069L58.6736 35.0462C58.2021 35.1319 57.7262 35.2297 57.259 35.3371V35.3371ZM70.1625 35.0858C69.692 34.9969 69.2126 34.9178 68.7378 34.8507L68.7713 34.6098C69.2498 34.6774 69.7329 34.7571 70.2071 34.8467L70.1625 35.0858ZM60.1001 34.8211L60.0681 34.58C60.5465 34.5157 61.033 34.4617 61.5141 34.4195L61.5351 34.6618C61.0576 34.7037 60.5749 34.7573 60.1001 34.8211V34.8211ZM67.3037 34.6815C66.8277 34.6364 66.3432 34.6016 65.8635 34.5783L65.8753 34.3353C66.3585 34.3588 66.8467 34.3939 67.3264 34.4394L67.3037 34.6815ZM62.9761 34.5685L62.966 34.3255C63.4101 34.3069 63.8628 34.2974 64.3115 34.2972L64.4209 34.2974L64.4202 34.5407L64.3115 34.5405C63.8662 34.5406 63.4169 34.55 62.9761 34.5685V34.5685Z" fill="#3F3D56"/>
<path d="M62.8914 99C73.8359 99 82.7082 98.5099 82.7082 97.9054C82.7082 97.3009 73.8359 96.8108 62.8914 96.8108C51.9469 96.8108 43.0747 97.3009 43.0747 97.9054C43.0747 98.5099 51.9469 99 62.8914 99Z" fill="#3F3D56"/>
<path d="M64.3162 16.7628C64.3162 16.7628 62.4728 18.8037 62.3806 20.288C62.2885 21.7723 59.1261 25.4502 62.2598 26.6562C62.2598 26.6562 62.8128 26.2852 63.3658 26.6562C63.9188 27.0273 67.623 26.229 67.623 26.229L64.3162 16.7628Z" fill="#2F2E41"/>
<path d="M65.9289 24.9979C65.9289 24.9979 67.9499 27.8457 66.131 28.456C64.3121 29.0663 67.3436 41.2715 67.3436 41.2715L75.0235 29.2697C75.0235 29.2697 70.9814 24.7945 70.9814 22.7603L65.9289 24.9979Z" fill="#FFB9B9"/>
<path d="M84.1181 39.4408C84.1181 39.4408 86.7454 42.0853 85.937 42.6955C85.1286 43.3058 77.0445 47.1707 77.0445 47.3742C77.0445 47.5776 75.8319 48.5947 75.8319 48.5947L74.4172 46.3571L79.8739 42.8989L84.1181 39.4408Z" fill="#FFB9B9"/>
<path d="M55.2175 38.0168C55.2175 38.0168 53.1965 41.2716 54.8133 42.6955C56.4301 44.1195 61.2805 47.9844 61.2805 47.9844C61.2805 47.9844 60.2239 51.2883 61.2574 51.4671C62.291 51.646 63.9078 46.9673 63.7057 46.5605C63.5036 46.1536 58.1189 42.6279 58.1189 42.6279L55.2175 38.0168Z" fill="#FFB9B9"/>
<path d="M53.359 87.731L51.8666 93.2838L54.7666 93.4054L55.9863 88.9514L53.359 87.731Z" fill="#FFB9B9"/>
<path d="M70.9814 88.0581V92.5333H73.0025L74.013 88.0581H70.9814Z" fill="#FFB9B9"/>
<path d="M67.3436 26.2184C69.7992 26.2184 71.7899 24.2148 71.7899 21.7432C71.7899 19.2716 69.7992 17.2679 67.3436 17.2679C64.888 17.2679 62.8974 19.2716 62.8974 21.7432C62.8974 24.2148 64.888 26.2184 67.3436 26.2184Z" fill="#FFB9B9"/>
<path d="M68.7583 37.61L66.131 28.4561C66.131 28.4561 61.2805 27.8458 59.0574 30.6937C56.8343 33.5416 54.4091 38.8305 54.4091 38.8305C54.4091 38.8305 55.6217 40.6613 55.8238 41.8818C56.0259 43.1023 59.2595 42.492 59.2595 42.492C59.2595 42.492 62.2911 43.1023 62.2911 45.7468C62.2911 48.3912 52.7922 88.8718 52.7922 88.8718C52.7922 88.8718 64.3121 91.5162 65.1205 89.482C65.9289 87.4478 69.9709 63.0374 69.9709 63.0374L70.3752 90.2957C70.3752 90.2957 80.0761 91.7196 80.4803 89.2786C80.8845 86.8376 78.8635 56.528 78.8635 56.528C78.8635 56.528 78.4592 49.6117 75.2256 45.5433C75.2256 45.5433 75.0235 44.3228 75.0235 44.1194C75.0235 43.916 80.0761 43.1023 80.0761 43.1023C80.0761 43.1023 85.5328 44.3228 85.3307 40.051C85.1286 35.7792 78.8635 29.88 76.6403 29.2697C74.4172 28.6595 73.8242 27.8459 73.8242 27.8459L68.7583 37.61Z" fill="#2F2E41"/>
<path d="M52.2291 92.1892C52.2291 92.1892 52.8793 91.8222 51.2624 92.4325C49.6456 93.0427 46.0666 94.7433 46.0666 94.7433C46.0666 94.7433 40.0598 95.4167 45.3145 97.8578C45.3145 97.8578 49.3565 98.1452 49.3565 97.7383C49.3565 97.3315 50.7712 96.7212 51.1754 97.3315C51.5796 97.9417 55.6125 97.7838 55.6238 97.2099C55.6365 96.5667 55.2196 92.0404 55.2196 92.0404C55.2196 92.0404 52.6333 93.6132 52.2291 92.1892Z" fill="#2F2E41"/>
<path d="M73.6088 91.3128C73.6088 91.3128 70.173 89.8889 69.9709 90.7026C69.7688 91.5162 69.3646 94.5675 69.3646 94.9744C69.3646 95.3812 68.5562 98.4325 71.3857 98.8394C74.2151 99.2462 74.8214 96.6017 74.6193 96.3983C74.4172 96.1949 73.6088 91.3128 73.6088 91.3128Z" fill="#2F2E41"/>
<path d="M67.7772 15.0466C67.7772 15.0466 70.9827 11.7947 74.9459 19.2162C74.9459 19.2162 78.9481 25.5646 73.6945 27.42C73.6945 27.42 69.1459 26.5135 69.0215 24.2772C69.0215 24.2772 70.6805 24.0916 69.3902 22.7001C68.0998 21.3086 66.9016 20.6592 66.9016 20.6592C66.9016 20.6592 65.8878 20.0098 65.8878 19.3604C65.8878 19.3604 65.8878 20.4736 66.0721 20.4736C66.0721 20.4736 64.3209 20.2881 64.2288 19.546C64.1366 18.8038 63.7679 17.5978 63.7679 17.5978C63.7679 17.5978 64.3209 14.5364 67.7772 15.0466Z" fill="#2F2E41"/>
<path d="M89.2033 22.5C90.9384 22.5 92.345 21.0842 92.345 19.3378C92.345 17.5914 90.9384 16.1757 89.2033 16.1757C87.4682 16.1757 86.0616 17.5914 86.0616 19.3378C86.0616 21.0842 87.4682 22.5 89.2033 22.5Z" fill="#F2F2F2"/>
<path d="M89.5658 22.7432C88.7772 22.7432 88.0062 22.5078 87.3505 22.0668C86.6947 21.6258 86.1836 20.999 85.8818 20.2656C85.58 19.5322 85.5011 18.7253 85.6549 17.9467C85.8088 17.1682 86.1885 16.453 86.7462 15.8917C87.3039 15.3304 88.0144 14.9482 88.7879 14.7933C89.5614 14.6384 90.3631 14.7179 91.0918 15.0217C91.8204 15.3255 92.4432 15.8399 92.8813 16.4999C93.3195 17.1599 93.5533 17.9359 93.5533 18.7297C93.5521 19.7938 93.1316 20.8139 92.3841 21.5664C91.6366 22.3188 90.623 22.742 89.5658 22.7432ZM89.5658 14.9594C88.825 14.9594 88.1007 15.1806 87.4847 15.5948C86.8687 16.0091 86.3886 16.598 86.1051 17.2869C85.8216 17.9758 85.7474 18.7339 85.8919 19.4652C86.0365 20.1966 86.3932 20.8684 86.9171 21.3957C87.441 21.923 88.1084 22.2821 88.835 22.4275C89.5617 22.573 90.3148 22.4983 90.9993 22.213C91.6838 21.9276 92.2688 21.4444 92.6804 20.8244C93.092 20.2043 93.3117 19.4754 93.3117 18.7297C93.3105 17.7301 92.9155 16.7718 92.2133 16.065C91.511 15.3582 90.5589 14.9606 89.5658 14.9594Z" fill="#3F3D56"/>
<path d="M91.3929 25.5166H86.4021C86.0615 23.5348 86.0615 21.5089 86.4021 19.5271H91.3929C90.8307 21.4835 90.8307 23.5602 91.3929 25.5166Z" fill="#FF6584"/>
<path d="M43.951 28.8851C45.6861 28.8851 47.0927 27.4694 47.0927 25.723C47.0927 23.9765 45.6861 22.5608 43.951 22.5608C42.2159 22.5608 40.8094 23.9765 40.8094 25.723C40.8094 27.4694 42.2159 28.8851 43.951 28.8851Z" fill="#F2F2F2"/>
<path d="M43.5885 29.1283C42.7999 29.1283 42.0289 28.893 41.3732 28.4519C40.7174 28.0109 40.2064 27.3841 39.9046 26.6507C39.6027 25.9174 39.5238 25.1104 39.6776 24.3318C39.8315 23.5533 40.2113 22.8382 40.7689 22.2769C41.3266 21.7156 42.0371 21.3333 42.8106 21.1784C43.5841 21.0236 44.3859 21.1031 45.1145 21.4068C45.8431 21.7106 46.4659 22.225 46.904 22.885C47.3422 23.5451 47.576 24.321 47.576 25.1148C47.5749 26.1789 47.1544 27.1991 46.4068 27.9515C45.6593 28.7039 44.6457 29.1271 43.5885 29.1283ZM43.5885 21.3446C42.8477 21.3446 42.1235 21.5657 41.5075 21.98C40.8915 22.3943 40.4113 22.9831 40.1278 23.672C39.8443 24.3609 39.7701 25.119 39.9147 25.8504C40.0592 26.5817 40.416 27.2535 40.9398 27.7808C41.4637 28.3081 42.1311 28.6672 42.8578 28.8127C43.5844 28.9581 44.3375 28.8835 45.022 28.5981C45.7065 28.3127 46.2915 27.8295 46.7031 27.2095C47.1147 26.5895 47.3344 25.8605 47.3344 25.1148C47.3332 24.1152 46.9382 23.1569 46.236 22.4501C45.5338 21.7433 44.5816 21.3457 43.5885 21.3446Z" fill="#3F3D56"/>
<path d="M41.0968 31.2302H46.0877C46.4283 29.2484 46.4283 27.2225 46.0877 25.2407H41.0968C41.6591 27.1971 41.6591 29.2738 41.0968 31.2302Z" fill="#C92225"/>
<path d="M62.6199 7.7838C64.355 7.7838 65.7615 6.36805 65.7615 4.62163C65.7615 2.87522 64.355 1.45947 62.6199 1.45947C60.8848 1.45947 59.4782 2.87522 59.4782 4.62163C59.4782 6.36805 60.8848 7.7838 62.6199 7.7838Z" fill="white"/>
<path d="M62.9824 8.02703C62.1937 8.02703 61.4228 7.79164 60.767 7.35063C60.1113 6.90962 59.6002 6.28279 59.2984 5.54942C58.9966 4.81605 58.9176 4.00906 59.0715 3.23052C59.2253 2.45197 59.6051 1.73683 60.1628 1.17553C60.7205 0.614233 61.431 0.231983 62.2045 0.0771204C62.978 -0.0777419 63.7797 0.00173883 64.5084 0.305512C65.237 0.609286 65.8597 1.12371 66.2979 1.78373C66.7361 2.44375 66.9699 3.21972 66.9699 4.01352C66.9687 5.0776 66.5482 6.09775 65.8007 6.85017C65.0531 7.60259 64.0396 8.02583 62.9824 8.02703ZM62.9824 0.243245C62.2415 0.243245 61.5173 0.464367 60.9013 0.87865C60.2853 1.29293 59.8052 1.88177 59.5217 2.5707C59.2382 3.25962 59.164 4.0177 59.3085 4.74906C59.453 5.48042 59.8098 6.15222 60.3337 6.6795C60.8575 7.20678 61.525 7.56586 62.2516 7.71134C62.9782 7.85682 63.7314 7.78215 64.4159 7.49679C65.1003 7.21143 65.6854 6.72818 66.097 6.10817C66.5086 5.48815 66.7282 4.7592 66.7282 4.01352C66.7271 3.01392 66.3321 2.05559 65.6299 1.34878C64.9276 0.641957 63.9755 0.244372 62.9824 0.243245Z" fill="#3F3D56"/>
<path d="M60.1885 9.94637H65.1794C65.52 7.9646 65.52 5.93868 65.1794 3.95691H60.1885C60.7508 5.91329 60.7508 7.98999 60.1885 9.94637Z" fill="#C92225"/>
<path d="M12.5895 66.6789C16.7413 79.2555 15.2832 91.0641 15.2832 91.0641C15.2832 91.0641 7.09369 82.482 2.94189 69.9055C-1.2099 57.329 0.248214 45.5204 0.248214 45.5204C0.248214 45.5204 8.43772 54.1024 12.5895 66.6789Z" fill="#C92225"/>
<path d="M17.9769 66.6789C13.8251 79.2555 15.2832 91.0641 15.2832 91.0641C15.2832 91.0641 23.4727 82.482 27.6245 69.9055C31.7763 57.329 30.3182 45.5204 30.3182 45.5204C30.3182 45.5204 22.1287 54.1024 17.9769 66.6789Z" fill="#C92225"/>
<path d="M19.6491 66.8149C19.9273 80.0645 15.071 90.9137 15.071 90.9137C15.071 90.9137 9.76337 80.2808 9.48508 67.0312C9.20678 53.7815 14.0632 42.9324 14.0632 42.9324C14.0632 42.9324 19.3708 53.5652 19.6491 66.8149Z" fill="#3F3D56"/>
<path d="M15.0682 91.7117C21.5528 91.7117 26.8095 91.4214 26.8095 91.0632C26.8095 90.705 21.5528 90.4147 15.0682 90.4147C8.5837 90.4147 3.32693 90.705 3.32693 91.0632C3.32693 91.4214 8.5837 91.7117 15.0682 91.7117Z" fill="#3F3D56"/>
<path d="M14.5671 56.4024C15.2788 56.4024 15.8558 55.8217 15.8558 55.1053C15.8558 54.389 15.2788 53.8082 14.5671 53.8082C13.8554 53.8082 13.2784 54.389 13.2784 55.1053C13.2784 55.8217 13.8554 56.4024 14.5671 56.4024Z" fill="#C92225"/>
<path d="M12.0613 66.2024C12.4567 66.2024 12.7772 65.8798 12.7772 65.4818C12.7772 65.0839 12.4567 64.7612 12.0613 64.7612C11.6659 64.7612 11.3454 65.0839 11.3454 65.4818C11.3454 65.8798 11.6659 66.2024 12.0613 66.2024Z" fill="#C92225"/>
<path d="M3.32693 59.0685C3.72232 59.0685 4.04286 58.7459 4.04286 58.3479C4.04286 57.9499 3.72232 57.6273 3.32693 57.6273C2.93153 57.6273 2.61099 57.9499 2.61099 58.3479C2.61099 58.7459 2.93153 59.0685 3.32693 59.0685Z" fill="#3F3D56"/>
<path d="M28.5994 52.0787C28.9948 52.0787 29.3153 51.756 29.3153 51.3581C29.3153 50.9601 28.9948 50.6375 28.5994 50.6375C28.204 50.6375 27.8834 50.9601 27.8834 51.3581C27.8834 51.756 28.204 52.0787 28.5994 52.0787Z" fill="#3F3D56"/>
<path d="M7.04978 65.8422C7.44518 65.8422 7.76571 65.5196 7.76571 65.1216C7.76571 64.7236 7.44518 64.401 7.04978 64.401C6.65438 64.401 6.33385 64.7236 6.33385 65.1216C6.33385 65.5196 6.65438 65.8422 7.04978 65.8422Z" fill="#3F3D56"/>
<path d="M22.0844 61.6627C22.4798 61.6627 22.8003 61.34 22.8003 60.942C22.8003 60.5441 22.4798 60.2214 22.0844 60.2214C21.689 60.2214 21.3684 60.5441 21.3684 60.942C21.3684 61.34 21.689 61.6627 22.0844 61.6627Z" fill="#3F3D56"/>
<path d="M7.47932 76.4351C7.87472 76.4351 8.19525 76.1125 8.19525 75.7145C8.19525 75.3165 7.87472 74.9939 7.47932 74.9939C7.08392 74.9939 6.76339 75.3165 6.76339 75.7145C6.76339 76.1125 7.08392 76.4351 7.47932 76.4351Z" fill="#3F3D56"/>
<path d="M22.8003 72.3276C23.1957 72.3276 23.5162 72.0049 23.5162 71.607C23.5162 71.209 23.1957 70.8864 22.8003 70.8864C22.4049 70.8864 22.0844 71.209 22.0844 71.607C22.0844 72.0049 22.4049 72.3276 22.8003 72.3276Z" fill="#3F3D56"/>
<path d="M15.8558 73.0481C16.2512 73.0481 16.5717 72.7255 16.5717 72.3275C16.5717 71.9296 16.2512 71.6069 15.8558 71.6069C15.4604 71.6069 15.1398 71.9296 15.1398 72.3275C15.1398 72.7255 15.4604 73.0481 15.8558 73.0481Z" fill="#C92225"/>
<path d="M110.219 75.0635C113.633 85.4044 112.434 95.1138 112.434 95.1138C112.434 95.1138 105.7 88.0574 102.286 77.7165C98.8724 67.3756 100.071 57.6661 100.071 57.6661C100.071 57.6661 106.805 64.7226 110.219 75.0635Z" fill="#C92225"/>
<path d="M114.648 75.0635C111.235 85.4044 112.434 95.1138 112.434 95.1138C112.434 95.1138 119.167 88.0574 122.581 77.7165C125.995 67.3756 124.796 57.6661 124.796 57.6661C124.796 57.6661 118.062 64.7226 114.648 75.0635Z" fill="#C92225"/>
<path d="M116.023 75.1754C116.252 86.0698 112.259 94.9903 112.259 94.9903C112.259 94.9903 107.895 86.2476 107.666 75.3532C107.437 64.4589 111.43 55.5383 111.43 55.5383C111.43 55.5383 115.795 64.281 116.023 75.1754Z" fill="#3F3D56"/>
<path d="M112.257 95.6465C117.589 95.6465 121.911 95.4077 121.911 95.1132C121.911 94.8187 117.589 94.58 112.257 94.58C106.925 94.58 102.603 94.8187 102.603 95.1132C102.603 95.4077 106.925 95.6465 112.257 95.6465Z" fill="#3F3D56"/>
<path d="M111.845 66.6137C112.43 66.6137 112.904 66.1362 112.904 65.5472C112.904 64.9582 112.43 64.4807 111.845 64.4807C111.26 64.4807 110.785 64.9582 110.785 65.5472C110.785 66.1362 111.26 66.6137 111.845 66.6137Z" fill="#C92225"/>
<path d="M109.784 74.6717C110.11 74.6717 110.373 74.4064 110.373 74.0792C110.373 73.752 110.11 73.4867 109.784 73.4867C109.459 73.4867 109.196 73.752 109.196 74.0792C109.196 74.4064 109.459 74.6717 109.784 74.6717Z" fill="#C92225"/>
<path d="M102.603 68.806C102.928 68.806 103.191 68.5407 103.191 68.2135C103.191 67.8862 102.928 67.621 102.603 67.621C102.278 67.621 102.014 67.8862 102.014 68.2135C102.014 68.5407 102.278 68.806 102.603 68.806Z" fill="#3F3D56"/>
<path d="M123.383 63.0587C123.708 63.0587 123.971 62.7934 123.971 62.4662C123.971 62.1389 123.708 61.8737 123.383 61.8737C123.058 61.8737 122.794 62.1389 122.794 62.4662C122.794 62.7934 123.058 63.0587 123.383 63.0587Z" fill="#3F3D56"/>
<path d="M105.664 74.3756C105.989 74.3756 106.252 74.1103 106.252 73.7831C106.252 73.4558 105.989 73.1906 105.664 73.1906C105.339 73.1906 105.075 73.4558 105.075 73.7831C105.075 74.1103 105.339 74.3756 105.664 74.3756Z" fill="#3F3D56"/>
<path d="M118.026 70.939C118.351 70.939 118.614 70.6738 118.614 70.3465C118.614 70.0193 118.351 69.754 118.026 69.754C117.701 69.754 117.437 70.0193 117.437 70.3465C117.437 70.6738 117.701 70.939 118.026 70.939Z" fill="#3F3D56"/>
<path d="M106.017 83.0854C106.342 83.0854 106.606 82.8201 106.606 82.4929C106.606 82.1657 106.342 81.9004 106.017 81.9004C105.692 81.9004 105.428 82.1657 105.428 82.4929C105.428 82.8201 105.692 83.0854 106.017 83.0854Z" fill="#3F3D56"/>
<path d="M118.614 79.7081C118.94 79.7081 119.203 79.4428 119.203 79.1156C119.203 78.7883 118.94 78.5231 118.614 78.5231C118.289 78.5231 118.026 78.7883 118.026 79.1156C118.026 79.4428 118.289 79.7081 118.614 79.7081Z" fill="#3F3D56"/>
<path d="M112.904 80.3006C113.229 80.3006 113.493 80.0353 113.493 79.7081C113.493 79.3809 113.229 79.1156 112.904 79.1156C112.579 79.1156 112.316 79.3809 112.316 79.7081C112.316 80.0353 112.579 80.3006 112.904 80.3006Z" fill="#C92225"/>
</g>
<defs>
<clipPath id="clip0_4_2961">
<rect width="125" height="99" fill="white"/>
</clipPath>
</defs>
</svg>
