<svg width="127" height="102" viewBox="0 0 127 102" fill="none" xmlns="http://www.w3.org/2000/svg">
<g clip-path="url(#clip0_4_2874)">
<path d="M7.59205 96.5165C7.59205 96.5165 2.15647 96.1862 2.79686 100.024C2.79686 100.024 2.66827 100.702 3.27908 101.01C3.27908 101.01 3.28937 100.725 3.83717 100.822C4.03209 100.856 4.23024 100.865 4.42741 100.851C4.69433 100.833 4.94803 100.727 5.15009 100.55C5.15009 100.55 6.67777 99.9144 7.27315 97.3987C7.27315 97.3987 7.71293 96.8494 7.69493 96.7082L6.77807 97.0969C6.77807 97.0969 7.09055 97.764 6.84494 98.3171C6.84494 98.3171 6.81407 97.1215 6.6379 97.1513C6.6019 97.1578 6.16211 97.3831 6.16211 97.3831C6.16211 97.3831 6.70091 98.549 6.2907 99.3884C6.2907 99.3884 6.44502 97.957 5.9898 97.4661L5.34684 97.8469C5.34684 97.8469 5.97823 99.0464 5.55002 100.024C5.55002 100.024 5.65932 98.5231 5.21182 97.9389L4.62672 98.3987C4.62672 98.3987 5.21825 99.5814 4.8569 100.392C4.8569 100.392 4.81061 98.6449 4.49942 98.5127C4.49942 98.5127 3.98505 98.9674 3.90918 99.1604C3.90918 99.1604 4.31553 100.018 4.06349 100.471C4.06349 100.471 3.90918 99.3055 3.78316 99.3055C3.78316 99.3055 3.26879 100.076 3.21993 100.601C3.21993 100.601 3.24179 99.8133 3.65843 99.2265C3.36434 99.2822 3.09294 99.4237 2.87788 99.6333C2.87788 99.6333 2.9576 99.0879 3.78445 99.04C3.78445 99.04 4.20623 98.4557 4.31939 98.4195C4.31939 98.4195 3.4964 98.3508 2.99746 98.5736C2.99746 98.5736 3.43596 98.0555 4.46984 98.2925L5.04851 97.8171C5.04851 97.8171 3.96448 97.6681 3.5054 97.8327C3.5054 97.8327 4.03392 97.378 5.2041 97.7096L5.83292 97.3313C5.83292 97.3313 4.90834 97.1305 4.35797 97.2018C4.35797 97.2018 4.9392 96.8857 6.0168 97.2277L6.46687 97.0243C6.46687 97.0243 5.7892 96.8948 5.59116 96.8689C5.39313 96.843 5.38285 96.7924 5.38285 96.7924C5.81169 96.7204 6.25197 96.7697 6.65462 96.9349C6.65462 96.9349 7.60877 96.5774 7.59205 96.5165Z" fill="#C92225"/>
<path opacity="0.1" d="M3.84747 102C5.97237 102 7.69494 101.707 7.69494 101.345C7.69494 100.983 5.97237 100.689 3.84747 100.689C1.72257 100.689 0 100.983 0 101.345C0 101.707 1.72257 102 3.84747 102Z" fill="#C92225"/>
<path d="M126.942 87.7998C126.942 87.7998 123.877 87.6133 124.242 89.7766C124.223 89.8865 124.239 89.9996 124.288 90.0997C124.337 90.1997 124.416 90.2816 124.514 90.3336C124.514 90.3336 124.514 90.173 124.828 90.2274C124.938 90.2456 125.05 90.2508 125.161 90.2429C125.312 90.2329 125.455 90.1738 125.569 90.0745C125.569 90.0745 126.43 89.7157 126.766 88.2972C126.766 88.2972 127.013 87.9876 127.004 87.9086L126.49 88.1314C126.49 88.1314 126.666 88.5071 126.527 88.8206C126.527 88.8206 126.51 88.1457 126.411 88.1612C126.39 88.1612 126.141 88.2908 126.141 88.2908C126.141 88.2908 126.446 88.9385 126.217 89.4204C126.217 89.4204 126.303 88.6146 126.047 88.3374L125.682 88.5511C125.682 88.5511 126.038 89.2286 125.796 89.7805C125.796 89.7805 125.859 88.9333 125.606 88.6042L125.276 88.8633C125.276 88.8633 125.61 89.5292 125.404 89.9877C125.404 89.9877 125.377 89.0019 125.202 88.9281C125.077 89.0345 124.965 89.1558 124.869 89.2895C124.869 89.2895 125.098 89.7727 124.957 90.0292C124.957 90.0292 124.869 89.3724 124.797 89.3698C124.797 89.3698 124.51 89.8038 124.481 90.1017C124.494 89.8253 124.579 89.5573 124.728 89.3245C124.562 89.3562 124.409 89.4364 124.288 89.5551C124.288 89.5551 124.333 89.2468 124.802 89.2196C124.802 89.2196 125.04 88.8905 125.105 88.8698C125.105 88.8698 124.64 88.8309 124.359 88.9566C124.359 88.9566 124.607 88.6664 125.189 88.7986L125.515 88.5304C125.515 88.5304 124.904 88.4462 124.645 88.5395C124.645 88.5395 124.944 88.2804 125.602 88.4695L125.957 88.2558C125.684 88.1956 125.405 88.1717 125.126 88.1845C125.126 88.1845 125.453 88.0058 126.061 88.1988L126.318 88.0835C126.318 88.0835 125.933 88.0084 125.826 87.9967C125.719 87.985 125.708 87.954 125.708 87.954C125.95 87.9134 126.198 87.9412 126.425 88.0343C126.425 88.0343 126.951 87.8335 126.942 87.7998Z" fill="#C92225"/>
<path opacity="0.1" d="M124.831 90.8906C126.029 90.8906 127 90.7253 127 90.5214C127 90.3175 126.029 90.1522 124.831 90.1522C123.633 90.1522 122.661 90.3175 122.661 90.5214C122.661 90.7253 123.633 90.8906 124.831 90.8906Z" fill="#C92225"/>
<path d="M120.639 93.69C120.639 93.69 116.938 93.4659 117.38 96.08C117.358 96.2127 117.377 96.3492 117.436 96.47C117.496 96.5907 117.591 96.6895 117.709 96.7523C117.709 96.7523 117.709 96.558 118.095 96.6228C118.228 96.6454 118.363 96.6519 118.498 96.6422C118.679 96.6295 118.851 96.5576 118.989 96.4376C118.989 96.4376 120.029 96.0049 120.433 94.2924C120.433 94.2924 120.732 93.918 120.721 93.8221L120.096 94.0916C120.096 94.0916 120.309 94.545 120.142 94.9219C120.142 94.9219 120.122 94.1071 120.002 94.1265C119.978 94.1265 119.677 94.2833 119.677 94.2833C119.677 94.2833 120.044 95.0748 119.767 95.6486C119.767 95.6486 119.872 94.6745 119.562 94.3416L119.122 94.6007C119.122 94.6007 119.552 95.4181 119.261 96.0839C119.261 96.0839 119.336 95.0618 119.03 94.659L118.633 94.9711C118.633 94.9711 119.035 95.7769 118.789 96.3287C118.789 96.3287 118.757 95.1395 118.545 95.0502C118.545 95.0502 118.197 95.3585 118.144 95.4867C118.144 95.4867 118.42 96.0709 118.249 96.3793C118.249 96.3793 118.144 95.5865 118.058 95.5826C118.058 95.5826 117.711 96.1072 117.672 96.4673C117.689 96.1346 117.793 95.8122 117.972 95.5321C117.771 95.5703 117.586 95.6666 117.439 95.8093C117.439 95.8093 117.493 95.4388 118.056 95.4064C118.056 95.4064 118.343 95.0074 118.42 94.9828C118.42 94.9828 117.86 94.9362 117.52 95.0877C117.52 95.0877 117.82 94.738 118.523 94.8973L118.917 94.5735C118.917 94.5735 118.179 94.4711 117.866 94.5838C117.866 94.5838 118.226 94.2742 119.023 94.4996L119.452 94.2405C119.452 94.2405 118.823 94.1045 118.449 94.1537C118.449 94.1537 118.843 93.9387 119.578 94.1719L119.884 94.0333C119.884 94.0333 119.422 93.9413 119.288 93.927C119.155 93.9128 119.146 93.8752 119.146 93.8752C119.437 93.8263 119.737 93.8599 120.011 93.9724C120.011 93.9724 120.649 93.7314 120.639 93.69Z" fill="#C92225"/>
<path opacity="0.1" d="M118.089 97.4221C119.535 97.4221 120.708 97.2226 120.708 96.9765C120.708 96.7304 119.535 96.5309 118.089 96.5309C116.642 96.5309 115.469 96.7304 115.469 96.9765C115.469 97.2226 116.642 97.4221 118.089 97.4221Z" fill="#C92225"/>
<path opacity="0.1" d="M103.58 95.9674C110.137 95.9674 115.452 95.1316 115.452 94.1007C115.452 93.0697 110.137 92.234 103.58 92.234C97.0223 92.234 91.7067 93.0697 91.7067 94.1007C91.7067 95.1316 97.0223 95.9674 103.58 95.9674Z" fill="#C92225"/>
<path opacity="0.1" d="M66.0088 100.825C73.3771 100.825 79.3503 100.221 79.3503 99.4766C79.3503 98.7318 73.3771 98.1281 66.0088 98.1281C58.6406 98.1281 52.6674 98.7318 52.6674 99.4766C52.6674 100.221 58.6406 100.825 66.0088 100.825Z" fill="#C92225"/>
<path opacity="0.1" d="M25.5885 99.4857C31.1813 99.4857 35.7151 99.2038 35.7151 98.8561C35.7151 98.5084 31.1813 98.2266 25.5885 98.2266C19.9958 98.2266 15.4619 98.5084 15.4619 98.8561C15.4619 99.2038 19.9958 99.4857 25.5885 99.4857Z" fill="#C92225"/>
<path opacity="0.1" d="M43.5683 4.43673C47.3244 1.06868 53.2217 0.378234 58.5878 0.646382C75.4449 1.48969 90.6612 9.68829 103.824 18.9621C108.59 22.3185 113.281 25.9365 116.373 30.5598C122.674 39.9696 120.802 53.0065 112.047 60.7595C109.068 63.397 105.457 65.423 101.75 67.2119C95.1581 70.3999 88.0457 72.9583 80.5655 73.6889C75.2302 74.2071 69.8293 73.7861 64.5262 73.0607C49.7072 71.0347 35.1622 66.5577 22.9717 58.9019C17.6248 55.5339 12.584 51.3627 10.38 45.9285C8.17589 40.4943 9.58654 33.6079 15.0466 30.3914C17.3046 29.061 20.0051 28.46 22.6476 27.8965C26.5388 27.0661 30.4917 26.2474 34.0036 24.5582C37.6299 22.8146 41.9236 19.4427 41.2047 15.5837C40.4358 11.4423 39.8172 7.80478 43.5683 4.43673Z" fill="#C92225"/>
<path opacity="0.9" d="M74.6939 50.7513V26.0169H78.0373V18.6331H54.0806V26.0169H57.424V50.7513C52.8068 52.5178 48.832 55.6568 46.0268 59.7519C43.2217 63.847 41.7189 68.7045 41.7178 73.6799C41.7178 87.2233 52.6173 98.2019 66.0616 98.2019C79.5058 98.2019 90.404 87.2233 90.404 73.6799C90.4028 68.704 88.8995 63.8461 86.0936 59.7509C83.2878 55.6558 79.312 52.517 74.6939 50.7513Z" fill="#96B7FE"/>
<path opacity="0.1" d="M74.6939 25.9404H57.4189V26.2733H74.6939V25.9404Z" fill="black"/>
<path d="M52.4411 73.0219C52.4411 73.0219 67.1006 72.7628 74.4303 69.067C81.7601 65.3712 85.9483 68.6706 85.5548 70.913C85.1613 73.1553 83.0691 77.504 74.6926 78.0377C66.3162 78.5714 52.4411 73.0219 52.4411 73.0219Z" fill="#C92225"/>
<path opacity="0.1" d="M52.4411 73.0219C52.4411 73.0219 67.1006 72.7628 74.4303 69.067C81.7601 65.3712 85.9483 68.6706 85.5548 70.913C85.1613 73.1553 83.0691 77.504 74.6926 78.0377C66.3162 78.5714 52.4411 73.0219 52.4411 73.0219Z" fill="black"/>
<path d="M46.1632 70.6512C46.1632 70.6512 44.597 92.537 65.1395 92.9321C85.6821 93.3272 85.5561 70.9103 85.5561 70.9103C85.5561 70.9103 77.9691 79.2151 60.0357 72.3598C60.0357 72.365 50.7437 69.8597 46.1632 70.6512Z" fill="#C92225"/>
<path opacity="0.1" d="M85.4892 70.9894C85.079 76.0311 82.4185 91.813 65.1473 91.4801C48.2169 91.1575 46.2996 76.2474 46.1491 71.0023C46.0552 73.8172 46.1388 92.5643 65.1434 92.9309C85.6911 93.3195 85.56 70.9091 85.56 70.9091C85.56 70.9091 85.5342 70.9414 85.4892 70.9894Z" fill="black"/>
<path opacity="0.3" d="M65.2643 63.8932C66.7365 63.8932 67.93 62.6909 67.93 61.2078C67.93 59.7247 66.7365 58.5225 65.2643 58.5225C63.7921 58.5225 62.5986 59.7247 62.5986 61.2078C62.5986 62.6909 63.7921 63.8932 65.2643 63.8932Z" fill="#C92225"/>
<path opacity="0.3" d="M66.7868 52.127C67.698 52.127 68.4366 51.3829 68.4366 50.465C68.4366 49.5471 67.698 48.803 66.7868 48.803C65.8756 48.803 65.137 49.5471 65.137 50.465C65.137 51.3829 65.8756 52.127 66.7868 52.127Z" fill="#C92225"/>
<path opacity="0.3" d="M63.1052 42.5346C64.0164 42.5346 64.7551 41.7905 64.7551 40.8726C64.7551 39.9547 64.0164 39.2106 63.1052 39.2106C62.194 39.2106 61.4554 39.9547 61.4554 40.8726C61.4554 41.7905 62.194 42.5346 63.1052 42.5346Z" fill="#C92225"/>
<path opacity="0.2" d="M48.9691 63.2791C48.8276 64.4112 48.8559 65.8284 49.8602 66.3569C49.018 65.9139 52.4706 60.8904 51.9807 59.8644C50.9327 57.6752 49.0977 62.2272 48.9691 63.2791Z" fill="white"/>
<path opacity="0.3" d="M61.7717 13.6975C63.244 13.6975 64.4374 12.4952 64.4374 11.0122C64.4374 9.52906 63.244 8.32678 61.7717 8.32678C60.2995 8.32678 59.106 9.52906 59.106 11.0122C59.106 12.4952 60.2995 13.6975 61.7717 13.6975Z" fill="#C92225"/>
<path opacity="0.3" d="M69.7689 8.40454C70.8633 8.40454 71.7505 7.51081 71.7505 6.40833C71.7505 5.30585 70.8633 4.41211 69.7689 4.41211C68.6745 4.41211 67.7873 5.30585 67.7873 6.40833C67.7873 7.51081 68.6745 8.40454 69.7689 8.40454Z" fill="#C92225"/>
<path opacity="0.3" d="M64.0568 2.07523C64.6257 2.07523 65.0868 1.61068 65.0868 1.03762C65.0868 0.464557 64.6257 0 64.0568 0C63.488 0 63.0268 0.464557 63.0268 1.03762C63.0268 1.61068 63.488 2.07523 64.0568 2.07523Z" fill="#C92225"/>
<path opacity="0.9" d="M36.4957 34.0924H14.9527V40.5293H18.2356V90.7468C18.2226 91.746 18.4068 92.7378 18.7773 93.6647C19.1479 94.5916 19.6975 95.4351 20.3943 96.1462C21.0911 96.8574 21.9212 97.4221 22.8363 97.8075C23.7515 98.1929 24.7335 98.3914 25.7255 98.3914C26.7174 98.3914 27.6994 98.1929 28.6146 97.8075C29.5298 97.4221 30.3598 96.8574 31.0566 96.1462C31.7534 95.4351 32.303 94.5916 32.6736 93.6647C33.0442 92.7378 33.2283 91.746 33.2153 90.7468V40.5293H36.4957V34.0924Z" fill="#96B7FE"/>
<path d="M23.2263 51.9068C23.2263 51.9068 28.5577 49.9883 30.0417 51.3524C30.0417 51.3524 27.8826 54.5494 25.8946 54.4212C23.9065 54.2929 23.2263 51.9068 23.2263 51.9068Z" fill="#C92225"/>
<path opacity="0.1" d="M23.2263 51.9068C23.2263 51.9068 28.5577 49.9883 30.0417 51.3524C30.0417 51.3524 27.8826 54.5494 25.8946 54.4212C23.9065 54.2929 23.2263 51.9068 23.2263 51.9068Z" fill="black"/>
<path d="M30.0391 51.3575V87.805C30.0391 88.4096 29.9209 89.0083 29.6912 89.5668C29.4615 90.1254 29.1249 90.6329 28.7005 91.0604C28.2761 91.4879 27.7723 91.827 27.2178 92.0584C26.6633 92.2898 26.0691 92.4089 25.4689 92.4089C24.2568 92.4089 23.0944 91.9238 22.2373 91.0604C21.3802 90.197 20.8987 89.026 20.8987 87.805V51.3575C20.8987 51.3575 23.099 50.7604 25.1719 52.0402C27.2448 53.3201 30.0391 51.3575 30.0391 51.3575Z" fill="#C92225"/>
<path opacity="0.1" d="M33.2127 40.4891H18.2331V40.7858H33.2127V40.4891Z" fill="black"/>
<path opacity="0.1" d="M25.4689 90.1924C24.8686 90.1924 24.2742 90.0733 23.7197 89.8419C23.1651 89.6104 22.6613 89.2712 22.2369 88.8435C21.8125 88.4159 21.4759 87.9082 21.2463 87.3495C21.0167 86.7908 20.8986 86.192 20.8987 85.5873V87.8892C20.8987 89.1102 21.3802 90.2812 22.2373 91.1446C23.0944 92.008 24.2568 92.4931 25.4689 92.4931C26.681 92.4931 27.8434 92.008 28.7005 91.1446C29.5576 90.2812 30.0391 89.1102 30.0391 87.8892V85.5873C30.0392 86.192 29.9211 86.7908 29.6915 87.3495C29.462 87.9082 29.1253 88.4159 28.7009 88.8435C28.2766 89.2712 27.7727 89.6104 27.2181 89.8419C26.6636 90.0733 26.0692 90.1924 25.4689 90.1924Z" fill="black"/>
<path opacity="0.3" d="M25.4702 47.7783C25.9844 47.7783 26.4012 47.3584 26.4012 46.8405C26.4012 46.3225 25.9844 45.9026 25.4702 45.9026C24.956 45.9026 24.5392 46.3225 24.5392 46.8405C24.5392 47.3584 24.956 47.7783 25.4702 47.7783Z" fill="#C92225"/>
<path opacity="0.3" d="M28.5165 44.1123C28.8439 44.1123 29.1094 43.845 29.1094 43.5152C29.1094 43.1853 28.8439 42.918 28.5165 42.918C28.1891 42.918 27.9237 43.1853 27.9237 43.5152C27.9237 43.845 28.1891 44.1123 28.5165 44.1123Z" fill="#C92225"/>
<path opacity="0.3" d="M24.3695 42.9192C24.6968 42.9192 24.9623 42.6518 24.9623 42.322C24.9623 41.9922 24.6968 41.7249 24.3695 41.7249C24.0421 41.7249 23.7766 41.9922 23.7766 42.322C23.7766 42.6518 24.0421 42.9192 24.3695 42.9192Z" fill="#C92225"/>
<path opacity="0.2" d="M19.3929 58.8035C19.2515 59.9357 19.2798 61.3529 20.2841 61.8814C19.4405 61.4384 22.8945 56.4161 22.4046 55.3888C21.354 53.2022 19.5215 57.7529 19.3929 58.8035Z" fill="white"/>
<path opacity="0.3" d="M27.4017 30.065C28.6509 30.065 29.6636 29.0449 29.6636 27.7864C29.6636 26.528 28.6509 25.5078 27.4017 25.5078C26.1524 25.5078 25.1397 26.528 25.1397 27.7864C25.1397 29.0449 26.1524 30.065 27.4017 30.065Z" fill="#C92225"/>
<path opacity="0.3" d="M20.6159 25.5738C21.5448 25.5738 22.2979 24.8152 22.2979 23.8794C22.2979 22.9437 21.5448 22.1851 20.6159 22.1851C19.6869 22.1851 18.9339 22.9437 18.9339 23.8794C18.9339 24.8152 19.6869 25.5738 20.6159 25.5738Z" fill="#C92225"/>
<path opacity="0.3" d="M25.4625 20.2031C25.9454 20.2031 26.3369 19.8088 26.3369 19.3223C26.3369 18.8358 25.9454 18.4414 25.4625 18.4414C24.9796 18.4414 24.5881 18.8358 24.5881 19.3223C24.5881 19.8088 24.9796 20.2031 25.4625 20.2031Z" fill="#C92225"/>
<path d="M115.2 58.464C115.2 58.464 113.227 48.5749 113.981 47.3443C113.981 47.3443 114.008 46.2005 113.963 44.7431C113.963 44.6874 113.963 44.6317 113.963 44.5747C114.096 44.6656 114.234 44.747 114.377 44.8183C115.073 45.1797 115.873 45.2838 116.637 45.1123L116.036 44.4413C115.894 44.2807 115.743 44.1084 115.712 43.8959C115.704 43.6916 115.748 43.4886 115.841 43.3065C116.408 41.8622 116.443 40.0447 115.344 38.9423C114.421 38.0148 114.195 36.8179 113.197 35.972C112.464 35.3515 112.061 34.4421 111.681 33.5651C111.359 32.8215 111.038 32.0728 110.851 31.2852C110.707 30.6699 110.651 30.0338 110.453 29.4328C110.255 28.8317 109.887 28.2475 109.31 27.9793C109.095 27.904 108.888 27.8113 108.688 27.7021C108.442 27.535 108.294 27.263 108.116 27.0259C107.216 25.8199 104.181 26.5298 102.746 27.0194C102.357 27.1426 101.996 27.3439 101.685 27.6114L101.698 27.5894L101.734 27.5363C101.578 27.6642 101.442 27.8164 101.333 27.9871C101.123 28.3213 101.036 28.7138 100.862 29.0662C100.651 29.4937 99.4813 30.6867 99.9841 31.1673C100.019 31.1995 100.058 31.2257 100.101 31.245C100.289 31.3223 100.495 31.343 100.694 31.3046C100.686 31.3215 100.679 31.3383 100.672 31.3552C100.501 31.7793 100.414 32.2329 100.415 32.6907C100.423 33.649 100.809 34.5647 101.488 35.2364C102.167 35.9081 103.082 36.2808 104.033 36.2725C104.409 36.2731 104.783 36.2154 105.142 36.1015C105.151 36.1468 105.159 36.1922 105.166 36.2375C105.166 36.257 105.166 36.2751 105.175 36.2932L105.112 36.3826L105.102 36.3658L103.226 39.0084C102.939 39.2105 101.287 40.4152 101.198 41.3181C101.1 42.3065 101.003 43.4646 101.003 43.4646L100.99 43.712C100.908 43.7809 100.812 43.8312 100.709 43.8593C100.606 43.8875 100.498 43.8929 100.393 43.8752C99.8079 43.7781 99.8079 46.0463 99.8079 46.0463C99.8079 46.0463 99.4222 46.4077 99.1508 46.0942C98.8795 45.7808 98.1761 46.8417 98.1761 46.8417L93.741 47.0347H93.6394L93.4002 46.2886C93.374 46.2115 93.3192 46.1476 93.2473 46.1104C93.1753 46.0732 93.0919 46.0656 93.0144 46.0891C92.9956 46.0943 92.9775 46.1016 92.9604 46.1111L92.945 46.1214C92.934 46.1277 92.9236 46.1351 92.9141 46.1435C92.908 46.1475 92.9024 46.1523 92.8974 46.1577C92.8886 46.1653 92.8805 46.1735 92.873 46.1823C92.8684 46.1877 92.8641 46.1933 92.8601 46.1992L92.8524 46.2069C92.8248 46.2453 92.8065 46.2897 92.7989 46.3365C92.7913 46.3832 92.7946 46.4311 92.8087 46.4764L93.0144 47.1163C92.1593 47.2899 91.2836 47.7783 91.9973 49.1255L88.3813 48.4532L89.5514 49.4416L95.5953 50.6981C95.5155 50.8432 95.5683 51.0518 95.8177 51.3458C96.8915 52.6179 98.8538 52.9625 99.6421 53.0531C99.8492 53.521 100.108 53.9638 100.414 54.3732L100.344 55.6401C100.344 55.6401 98.3484 65.3025 97.9819 65.7934C98.1631 65.5814 98.3285 65.3562 98.477 65.1198C97.8971 67.1057 97.0869 69.8234 96.8748 70.2302C96.5327 70.8779 96.2164 73.5102 96.606 73.6798C96.7282 73.7317 97.0664 73.7071 97.5537 73.6695V73.8871L97.5319 82.1453C97.5319 82.1453 97.6296 87.2116 97.3608 87.6935C97.0921 88.1754 97.0201 89.1884 97.0201 89.1884C97.0201 89.1884 95.9425 91.1872 95.0912 91.9904L95.0719 92.0072L95.0449 91.8181C95.0449 91.8181 94.0162 93.1212 91.7555 93.0487C91.7555 93.0487 90.3911 93.9412 92.4139 93.9892C94.4366 94.0371 97.0188 93.9166 97.0188 93.9166C97.0188 93.9166 98.8191 91.1432 100.333 91.5046V93.6031H100.796V91.4865C101.01 91.3439 101.194 91.1588 101.335 90.9426C101.477 90.7264 101.573 90.4835 101.619 90.2286C101.658 89.9666 101.63 89.6986 101.535 89.4511C101.441 89.2037 101.284 88.9854 101.08 88.8179C100.988 88.7342 100.914 88.6323 100.863 88.5187C100.813 88.405 100.786 88.282 100.784 88.1573L100.767 88.1715C100.767 88.1301 100.757 88.0873 100.751 88.042C100.622 86.9564 100.453 84.7232 101.04 83.0676C101.844 80.7994 102.088 77.6412 101.503 75.759C101.314 75.1581 101.16 74.547 101.04 73.9286C101.026 73.8495 101.012 73.7757 101 73.7058C101.401 73.7608 101.797 73.8426 102.187 73.9506C103.545 74.3262 106.511 74.3962 109.045 74.3768C109.051 74.4467 109.059 74.5193 109.067 74.5931C109.113 75.1022 109.209 75.6054 109.352 76.0958C109.668 77.0621 109.815 81.3059 109.815 81.3059C109.815 81.3059 110.225 84.797 110.001 86.2193C109.873 87.0095 109.765 87.8023 109.694 88.599V88.6145C109.694 88.6145 109.023 90.5434 108.537 91.594C108.524 91.6212 108.512 91.6471 108.499 91.673C108.368 91.6851 108.238 91.7134 108.114 91.7572C108.114 91.7572 107.457 93.0837 106.798 93.3013C106.14 93.5189 106.36 94.2418 107.846 93.9762C109.333 93.7107 111.575 93.4943 111.575 93.4943L111.673 92.1432L112.13 91.5681L112.014 92.9153L112.501 92.8194L112.437 91.1794L113.184 90.2377C113.184 90.2377 114.084 89.4294 112.746 87.8386V87.8723C112.731 87.849 112.717 87.8256 112.702 87.8036V87.7958C112.481 87.4487 112.303 86.8023 112.627 85.6546C113.212 83.5819 113.553 81.6997 113.553 81.6997C113.553 81.6997 114.861 76.6593 113.288 74.2731H113.359C113.198 73.9375 113.083 73.5808 113.019 73.2135C113.012 73.1695 113.005 73.1241 112.998 73.084C114.155 73.0166 115.303 72.8042 116.233 72.3482C116.223 72.3339 115.663 60.3696 115.2 58.464ZM100.434 50.1217V50.145L100.194 50.1566L100.434 50.1217ZM99.615 50.2356C99.5755 50.2441 99.5385 50.2619 99.507 50.2875C99.4045 50.4341 99.34 50.6042 99.3193 50.7823L98.9464 50.6968C98.9464 50.6968 98.6892 50.6411 98.3034 50.5789L98.1247 50.3989C98.621 50.3522 99.1303 50.2965 99.615 50.2356Z" fill="url(#paint0_linear_4_2874)"/>
<path d="M111.953 91.1912L111.811 92.8985L112.288 92.8014L112.216 90.9515L111.953 91.1912Z" fill="#1D2366"/>
<path d="M101.073 83.0909C100.499 84.74 100.663 86.9668 100.792 88.0485C100.839 88.4487 100.883 88.6962 100.883 88.6962C100.883 88.6962 100.024 90.6678 99.952 90.7403C99.88 90.8128 97.4213 92.3233 97.4213 92.3233L95.7033 93.3324C95.7033 93.3324 93.9609 92.5629 94.8032 92.2961C94.9737 92.2269 95.1272 92.1213 95.2532 91.9865C96.0865 91.1859 97.1422 89.1949 97.1422 89.1949C97.1422 89.1949 97.213 88.1858 97.4753 87.7052C97.7376 87.2246 97.6425 82.1764 97.6425 82.1764L97.6643 73.9454V72.8728L100.933 72.8974C100.954 73.2618 101.002 73.6242 101.075 73.9817C101.192 74.5977 101.344 75.2067 101.53 75.8056C102.098 77.6852 101.86 80.8305 101.073 83.0909Z" fill="#FFB0B1"/>
<path opacity="0.1" d="M100.882 88.6962C100.882 88.6962 100.023 90.6678 99.9507 90.7403C99.8787 90.8129 97.4213 92.3233 97.4213 92.3233L95.7033 93.3324C95.7033 93.3324 93.9609 92.5629 94.8032 92.2961C94.9737 92.2269 95.1272 92.1213 95.2532 91.9865L95.3278 92.5124L95.9013 92.4878L100.792 88.0485C100.838 88.4474 100.882 88.6962 100.882 88.6962Z" fill="black"/>
<path d="M100.823 88.1625L95.8949 92.6342L95.3214 92.6575L95.2031 91.8168C95.2031 91.8168 94.2 93.1122 91.9805 93.0423C91.9805 93.0423 90.6445 93.9322 92.6235 93.9801C94.6025 94.0281 97.1345 93.9076 97.1345 93.9076C97.1345 93.9076 98.9001 91.1432 100.379 91.5046V93.5954H100.833V91.48C101.044 91.3367 101.224 91.1519 101.362 90.9366C101.501 90.7213 101.594 90.4801 101.638 90.2273C101.677 89.967 101.65 89.7007 101.557 89.4543C101.465 89.2079 101.311 88.9896 101.111 88.8205C101.021 88.7364 100.949 88.6347 100.899 88.5215C100.85 88.4083 100.823 88.2862 100.823 88.1625Z" fill="#1D2366"/>
<path d="M112.407 85.6624C112.09 86.8062 112.263 87.45 112.479 87.7959V87.8037C112.76 88.2317 112.956 88.7109 113.054 89.2144L113.075 89.3232L110.832 92.6161L109.616 93.0967C109.616 93.0967 107.658 92.4244 108.016 92.2314C108.106 92.1834 108.246 91.9347 108.402 91.5837C108.881 90.5473 109.54 88.6224 109.54 88.6224V88.6055C109.608 87.8115 109.719 87.0213 109.841 86.2337C110.059 84.8178 109.658 81.3383 109.658 81.3383C109.658 81.3383 109.515 77.1088 109.204 76.1464C109.064 75.6572 108.971 75.1558 108.925 74.6489C108.861 74.0439 108.847 73.5504 108.847 73.5504C108.847 73.5504 110.133 71.7472 112.497 73.6942C112.686 73.8505 112.851 74.0322 112.99 74.2343C114.622 76.5661 113.309 81.7231 113.309 81.7231C113.309 81.7231 112.98 83.5962 112.407 85.6624Z" fill="#FFB0B1"/>
<path opacity="0.1" d="M113.075 89.3167L110.832 92.6096L109.616 93.0902C109.616 93.0902 107.658 92.4179 108.016 92.2249C108.106 92.1769 108.246 91.9282 108.402 91.5772C109.23 91.5772 109.659 92.3648 109.659 92.3648L110.709 92.1977C110.709 92.1977 112.094 89.4566 112.404 89.2895C112.713 89.1224 112.451 88.0381 112.451 88.0381V87.7622L112.476 87.792V87.7998C112.758 88.2287 112.955 88.7093 113.054 89.2144L113.075 89.3167Z" fill="black"/>
<path d="M109.734 92.4412C109.734 92.4412 109.137 91.3362 107.993 91.7443C107.993 91.7443 107.35 93.0668 106.707 93.2832C106.064 93.4995 106.277 94.2198 107.736 93.9555C109.194 93.6912 111.386 93.4749 111.386 93.4749L111.482 92.129L112.96 90.2299C112.96 90.2299 113.844 89.4242 112.531 87.8386V88.1145C112.531 88.1145 112.788 89.1962 112.483 89.3646C112.178 89.533 110.79 92.2728 110.79 92.2728L109.734 92.4412Z" fill="#1D2366"/>
<path opacity="0.1" d="M100.929 72.8988C100.95 73.2631 100.998 73.6255 101.071 73.983C99.7243 73.7835 98.4757 73.8833 97.6579 73.9467V72.8741L100.929 72.8988Z" fill="black"/>
<path opacity="0.1" d="M113.122 74.5335C113.122 74.5335 111.209 74.6267 108.93 74.6462C108.866 74.0412 108.852 73.5477 108.852 73.5477C108.852 73.5477 110.138 71.7445 112.503 73.6915C112.691 73.8478 112.856 74.0296 112.995 74.2317C113.032 74.3344 113.075 74.4352 113.122 74.5335Z" fill="black"/>
<path d="M113.122 74.3172C113.122 74.3172 104.747 74.7253 102.192 74.005C99.6369 73.2848 97.1101 73.9079 96.7282 73.7395C96.3462 73.5711 96.6574 70.9518 96.9853 70.3028C97.3133 69.6538 99.1573 63.0913 99.1573 63.0913L100.923 53.8123L102.785 53.2941L102.913 53.2579L106.155 52.3511L108.533 51.6904C108.533 51.6904 113.257 70.2717 112.851 71.6396C112.704 72.1645 112.68 72.7168 112.783 73.2524C112.846 73.6215 112.961 73.9798 113.122 74.3172Z" fill="#1D2366"/>
<path d="M94.7736 47.4662C94.7736 47.4662 93.1019 49.2694 94.3672 50.2785C95.6326 51.2876 96.4671 50.3757 96.4671 50.3757L94.7736 47.4662Z" fill="#C7DAF5"/>
<path opacity="0.1" d="M94.7736 47.4662C94.7736 47.4662 93.1019 49.2694 94.3672 50.2785C95.6326 51.2876 96.4671 50.3757 96.4671 50.3757L94.7736 47.4662Z" fill="black"/>
<path d="M108.291 35.5925C108.291 35.5925 108.096 35.779 107.8 36.0576C107.379 36.4527 106.757 37.0317 106.204 37.5175C105.433 38.1885 104.809 38.6833 105.034 38.2597C105.259 37.8361 105.217 37.1081 105.105 36.4229L105.081 36.2868C104.988 35.7836 104.864 35.2865 104.711 34.7984C104.711 34.7984 105.947 33.1895 106.631 32.5548C106.888 32.3177 107.064 32.2167 107.073 32.3825C107.086 32.6079 107.255 33.1002 107.459 33.6339C107.467 33.6494 107.473 33.6663 107.48 33.6818C107.619 34.0406 107.774 34.415 107.912 34.735C108.121 35.2259 108.291 35.5925 108.291 35.5925Z" fill="#FFB0B1"/>
<path opacity="0.1" d="M107.478 33.6818C107.362 34.3112 107.08 34.8975 106.662 35.3797C106.244 35.8619 105.706 36.2221 105.102 36.4229C105.007 35.8731 104.876 35.3303 104.709 34.7984C104.709 34.7984 107.035 31.7698 107.071 32.3825C107.093 32.6157 107.265 33.1312 107.478 33.6818Z" fill="black"/>
<path opacity="0.1" d="M104.873 37.2325L105.174 36.8063C105.174 36.8063 105.373 38.0317 106.108 37.4915C106.842 36.9514 106.879 41.5591 106.879 41.5591L106.09 53.4224L100.398 53.0791L100.559 47.347L101.202 44.4621L102.795 40.2611L103.749 38.8737L104.873 37.2325Z" fill="black"/>
<path d="M106.877 41.6317L106.164 52.3576L106.09 53.4937L102.916 53.3033L102.787 53.2955L100.394 53.1517L100.555 47.4183L101.198 44.5347L102.791 40.3337L103.749 38.945L104.877 37.305L105.178 36.8776C105.178 36.8776 105.377 38.1043 106.112 37.5628L106.126 37.5525C106.842 37.0887 106.877 41.6317 106.877 41.6317Z" fill="#1D2366"/>
<path d="M101.287 43.5243C101.287 43.5243 101.001 44.1254 100.428 44.0295C99.8542 43.9336 99.8555 46.1928 99.8555 46.1928C99.8555 46.1928 99.4697 46.5529 99.2126 46.2408C98.9554 45.9286 98.2584 46.9856 98.2584 46.9856L93.9159 47.1786C93.9159 47.1786 95.8447 48.0673 95.4667 50.7604C95.4667 50.7604 102.025 50.3511 102.243 49.7241C102.462 49.0971 101.287 43.5243 101.287 43.5243Z" fill="white"/>
<path opacity="0.03" d="M101.287 43.5243C101.287 43.5243 101.001 44.1254 100.428 44.0295C99.8542 43.9336 99.8555 46.1928 99.8555 46.1928C99.8555 46.1928 99.4697 46.5529 99.2126 46.2408C98.9554 45.9286 98.2584 46.9856 98.2584 46.9856L93.9159 47.1786C93.9159 47.1786 95.8447 48.0673 95.4667 50.7604C95.4667 50.7604 102.025 50.3511 102.243 49.7241C102.462 49.0971 101.287 43.5243 101.287 43.5243Z" fill="black"/>
<path d="M88.6642 48.5957L89.8099 49.5815L99.2357 51.5764L98.0655 50.3756L88.6642 48.5957Z" fill="white"/>
<path d="M104.89 37.6107C104.734 37.8464 104.287 39.0848 103.911 40.1613C103.6 41.0577 103.339 41.8453 103.339 41.8453C103.339 41.8453 102.731 45.8365 102.421 46.5567C102.111 47.277 102.278 50.0932 102.278 50.0932L101.121 57.0404C101.121 57.0404 100.596 60.6222 99.7861 62.7609C98.9914 64.8608 98.0912 65.8492 98.0668 65.879C98.4256 65.3906 100.381 55.7606 100.381 55.7606L101.024 43.62C101.024 43.62 101.12 42.4671 101.216 41.4813C101.312 40.4955 103.244 39.1496 103.244 39.1496L105.111 36.4746C105.303 36.7376 105.177 37.178 104.89 37.6107Z" fill="white"/>
<path d="M100.02 53.2113C100.02 53.2113 97.276 53.0921 95.9399 51.4806C94.6038 49.8691 99.0184 50.8329 99.0184 50.8329L100.163 51.092L100.02 53.2113Z" fill="#FFB0B1"/>
<path opacity="0.1" d="M112.86 71.6487C112.713 72.1736 112.689 72.7259 112.792 73.2615C109.793 73.4765 106.585 72.6578 106.585 72.6578C105.988 73.211 104.413 74.0284 104.413 74.0284L103.554 63.3063C103.006 61.8633 102.791 54.2916 102.791 54.2916C102.791 54.2916 102.84 53.8952 102.92 53.3019C102.92 53.2877 102.92 53.2721 102.926 53.2579C103.141 51.5998 103.569 48.4869 103.772 48.0659C104.059 47.4895 102.89 45.9518 102.89 45.9518L103.421 41.3816L103.486 40.8311C104.608 40.3259 105.467 38.7157 105.467 38.7157L106.126 37.5498C106.845 37.0861 106.879 41.6291 106.879 41.6291L106.167 52.355L108.544 51.6943C108.544 51.6943 113.265 70.2782 112.86 71.6487Z" fill="black"/>
<path d="M115.939 72.3936C112.67 74.0284 106.727 72.5141 106.727 72.5141C106.131 73.0672 104.556 73.8846 104.556 73.8846L103.697 63.1626C103.149 61.7208 102.934 54.1492 102.934 54.1492C102.934 54.1492 103.626 48.4999 103.911 47.9235C103.995 47.7551 103.955 47.5051 103.856 47.2356C103.368 45.9514 103.189 44.5691 103.333 43.2017L103.562 41.2392L103.626 40.6886C104.747 40.1834 105.606 38.572 105.606 38.572L106.204 37.5175L107.305 35.5744L107.826 34.6547L107.913 34.735L108.589 35.3516C108.589 35.3516 108.876 35.5899 109.306 35.9565C110.242 36.7506 111.86 38.1497 112.693 39.0046C113.427 39.7598 113.659 42.6913 113.722 44.8987C113.767 46.3508 113.74 47.4895 113.74 47.4895C112.999 48.715 114.932 58.5717 114.932 58.5717C115.389 60.4707 115.939 72.3936 115.939 72.3936Z" fill="white"/>
<path opacity="0.03" d="M109.665 38.5485C109.665 38.5485 107.421 42.8519 107.684 44.4854C107.948 46.1189 108.686 47.9713 108.327 48.404C108.204 48.5678 108.046 48.7008 107.863 48.7925C107.681 48.8842 107.48 48.9321 107.277 48.9325C106.919 48.9571 105.964 49.6294 105.964 49.7019C105.964 49.7745 105.081 49.7745 104.292 50.1113C103.502 50.4481 102.335 50.6398 102.335 50.6398C102.335 50.6398 100.068 50.5673 99.853 50.7836C99.6382 50.9999 99.4235 52.2979 99.8774 53.3317C100.331 54.3654 100.832 55.1349 101.213 55.2748C101.595 55.4147 104.005 54.6025 105.961 54.4094C107.917 54.2164 110.05 52.6594 110.05 52.6594C110.05 52.6594 112.388 51.8173 112.794 50.3989C113.201 48.9804 112.293 41.1924 112.293 41.1924C112.293 41.1924 111.593 37.5627 109.665 38.5485Z" fill="black"/>
<path opacity="0.03" d="M109.376 38.1884C109.376 38.1884 107.134 42.4904 107.396 44.1252C107.658 45.76 108.398 47.6112 108.039 48.0438C107.916 48.2077 107.758 48.3406 107.575 48.4323C107.393 48.524 107.192 48.572 106.989 48.5724C106.631 48.597 105.677 49.2693 105.677 49.3418C105.677 49.4144 104.793 49.4131 104.005 49.7499C103.217 50.0867 102.048 50.2784 102.048 50.2784C102.048 50.2784 99.7809 50.2072 99.5662 50.4235C99.3514 50.6398 99.1367 51.9378 99.5906 52.9715C100.045 54.0053 100.545 54.7747 100.927 54.9146C101.309 55.0546 103.718 54.241 105.676 54.0493C107.633 53.8576 109.758 52.2953 109.758 52.2953C109.758 52.2953 112.096 51.4546 112.503 50.0362C112.909 48.6177 112.001 40.8297 112.001 40.8297C112.001 40.8297 111.309 37.2026 109.376 38.1884Z" fill="black"/>
<path d="M109.591 38.3322C109.591 38.3322 107.35 42.6355 107.607 44.2639C107.864 45.8922 108.609 47.7498 108.25 48.1825C108.128 48.3465 107.969 48.4796 107.787 48.5714C107.604 48.6631 107.403 48.7109 107.199 48.711C106.842 48.7356 105.888 49.4079 105.888 49.4804C105.888 49.553 105.004 49.553 104.216 49.8898C103.428 50.2266 102.259 50.4183 102.259 50.4183C102.259 50.4183 99.9918 50.3458 99.7771 50.5621C99.5623 50.7784 99.3476 52.0764 99.8015 53.1102C100.255 54.1439 100.756 54.9134 101.138 55.0533C101.52 55.1932 103.929 54.381 105.887 54.1879C107.844 53.9949 109.967 52.434 109.967 52.434C109.967 52.434 112.305 51.592 112.711 50.1735C113.117 48.755 112.209 40.9671 112.209 40.9671C112.209 40.9671 111.524 37.3464 109.591 38.3322Z" fill="white"/>
<path opacity="0.1" d="M109.544 49.8704C109.544 49.8704 107.754 49.5103 108.375 50.1114C108.996 50.7124 108.995 51.241 109.758 51.2164C110.522 51.1918 109.544 49.8704 109.544 49.8704Z" fill="black"/>
<path opacity="0.1" d="M112.575 62.827C112.575 62.827 111.763 63.3802 113.314 64.6536C114.865 65.9269 112.575 62.827 112.575 62.827Z" fill="black"/>
<path opacity="0.1" d="M111.022 67.37C111.022 67.4425 110.737 70.0139 111.811 70.6629C112.884 71.3119 111.022 67.37 111.022 67.37Z" fill="black"/>
<path d="M93.9853 47.176C93.1211 47.2058 91.2501 47.4727 92.2197 49.294C93.0774 50.9055 94.5176 49.829 95.3239 49.0103C95.1272 48.2488 94.6481 47.5923 93.9853 47.176Z" fill="#FFB0B1"/>
<path d="M95.3381 48.996C95.351 48.9843 95.3625 48.9714 95.3741 48.9597C95.3625 48.9714 95.351 48.9843 95.3381 48.996Z" fill="#FFB0B1"/>
<path opacity="0.1" d="M109.306 36.0278C108.388 36.6599 107.617 37.1936 107.468 37.305C107.055 37.6107 106.268 39.4139 105.767 40.3337C105.363 41.0746 104.055 41.2651 103.562 41.3117L103.621 40.7663C104.742 40.2624 105.601 38.6509 105.601 38.6509L107.821 34.7336L108.584 35.4306C108.584 35.4306 108.876 35.6624 109.306 36.0278Z" fill="black"/>
<path d="M109.306 35.9565C108.388 36.5874 107.617 37.1224 107.468 37.2325C107.055 37.5395 106.268 39.3414 105.767 40.2612C105.363 41.0021 104.055 41.1926 103.562 41.2392L103.626 40.6886C104.747 40.1834 105.606 38.572 105.606 38.572L107.826 34.6547L108.59 35.3516C108.59 35.3516 108.876 35.5848 109.306 35.9565Z" fill="#DCE7FF"/>
<path d="M107.539 32.8876C107.54 33.1385 107.513 33.3887 107.46 33.6338C107.365 34.0918 107.179 34.5261 106.915 34.9111C106.435 35.6148 105.72 36.1218 104.9 36.34C104.081 36.5582 103.211 36.4732 102.448 36.1004C101.685 35.7277 101.08 35.0918 100.743 34.3082C100.406 33.5247 100.359 32.6453 100.61 31.8297C100.862 31.0141 101.395 30.3163 102.113 29.8629C102.832 29.4095 103.688 29.2306 104.526 29.3586C105.364 29.4865 106.129 29.913 106.682 30.5605C107.235 31.208 107.539 32.0336 107.539 32.8876Z" fill="#FFB0B1"/>
<path opacity="0.1" d="M113.725 44.8986C113.24 44.5977 112.845 44.1697 112.582 43.6602C112.383 43.2625 112.251 42.8053 111.908 42.5216C111.602 42.2703 111.188 42.2081 110.809 42.0954C109.553 41.721 108.494 40.5642 108.458 39.2455C108.44 38.625 108.632 38.0045 108.544 37.3905C108.495 37.042 108.357 36.7123 108.145 36.4332C108.041 36.2986 107.925 36.1734 107.8 36.0588C107.633 35.8995 107.457 35.7453 107.305 35.5756C107.206 35.4715 107.12 35.3563 107.048 35.2323C106.991 35.1307 106.945 35.0235 106.91 34.9124C106.676 34.1766 106.888 33.3009 106.626 32.556C106.626 32.5431 106.617 32.5288 106.612 32.5159C106.511 32.2503 106.31 31.9861 106.031 31.9653C105.751 31.9446 105.508 32.1791 105.241 32.2853C104.68 32.5042 104.075 32.1311 103.608 31.7503C103.141 31.3694 102.614 30.9342 102.018 31.0197C101.626 31.0754 101.315 31.3461 100.954 31.486C100.87 31.5169 100.784 31.5411 100.697 31.5586C101.004 30.7894 101.567 30.1519 102.289 29.7554C103.012 29.3588 103.849 29.228 104.657 29.3853C105.465 29.5427 106.194 29.9783 106.718 30.6176C107.242 31.2569 107.528 32.06 107.529 32.889C107.529 33.1398 107.503 33.39 107.45 33.6351C107.458 33.6507 107.464 33.6675 107.471 33.683C107.61 34.0419 107.765 34.4162 107.903 34.7362L108.579 35.3528C108.579 35.3528 108.866 35.5912 109.295 35.9578C110.232 36.7518 111.849 38.1509 112.683 39.0058C113.427 39.7598 113.659 42.6913 113.725 44.8986Z" fill="black"/>
<path d="M100.92 29.2878C101.091 28.9368 101.177 28.5442 101.381 28.2126C101.68 27.7268 102.205 27.4224 102.741 27.2359C104.145 26.7488 107.113 26.0402 107.999 27.2359C108.174 27.4729 108.318 27.745 108.56 27.9121C108.755 28.0193 108.959 28.1111 109.168 28.1867C109.734 28.4549 110.095 29.0365 110.288 29.635C110.481 30.2335 110.538 30.8682 110.674 31.4822C110.854 32.2672 111.172 33.0121 111.487 33.7531C111.858 34.6275 112.258 35.5329 112.971 36.1521C113.949 36.9955 114.169 38.1885 115.073 39.1121C116.149 40.2106 116.115 42.0229 115.56 43.4608C115.469 43.6426 115.424 43.8451 115.432 44.0489C115.484 44.2571 115.594 44.4459 115.749 44.593L116.337 45.2614C115.635 45.414 114.903 45.3322 114.251 45.0283C113.6 44.7245 113.064 44.2152 112.725 43.5774C112.524 43.1797 112.392 42.7224 112.05 42.44C111.744 42.1874 111.331 42.1265 110.95 42.0125C109.694 41.6382 108.636 40.4814 108.6 39.1627C108.582 38.5435 108.773 37.9217 108.687 37.3076C108.636 36.9636 108.498 36.6383 108.289 36.362C107.958 35.9293 107.463 35.6353 107.196 35.1612C106.743 34.3567 107.086 33.31 106.76 32.4408C106.659 32.1817 106.459 31.911 106.178 31.8903C105.898 31.8695 105.656 32.1053 105.389 32.2102C104.828 32.4292 104.224 32.0561 103.757 31.6752C103.29 31.2944 102.762 30.8604 102.168 30.9459C101.774 31.0016 101.464 31.2711 101.102 31.411C100.834 31.5146 100.291 31.6079 100.056 31.3799C99.5636 30.9032 100.709 29.714 100.92 29.2878Z" fill="#591D4B"/>
<path opacity="0.1" d="M113.059 43.1796C112.86 42.782 112.728 42.3247 112.386 42.041C112.079 41.7884 111.665 41.7275 111.286 41.6148C110.03 41.2404 108.971 40.0836 108.935 38.7649C108.916 38.1444 109.109 37.5239 109.022 36.9099C108.972 36.5614 108.834 36.2317 108.622 35.9526C108.292 35.5199 107.796 35.2246 107.53 34.7505C107.076 33.946 107.421 32.8993 107.094 32.0301C106.994 31.771 106.793 31.5003 106.513 31.4796C106.232 31.4588 105.991 31.6933 105.723 31.7982C105.163 32.0185 104.557 31.6454 104.091 31.2645C103.626 30.8837 103.096 30.4497 102.501 30.5339C102.115 30.5896 101.799 30.8591 101.436 31.0003C101.168 31.1039 100.626 31.1972 100.39 30.9692C99.898 30.4899 101.044 29.3007 101.251 28.8758C101.422 28.5248 101.508 28.1322 101.711 27.8006L101.746 27.7462C101.595 27.8752 101.464 28.0273 101.36 28.197C101.154 28.5286 101.069 28.9211 100.9 29.2722C100.693 29.6984 99.5469 30.8876 100.039 31.3656C100.273 31.5936 100.811 31.4951 101.085 31.3967C101.446 31.2568 101.756 30.9873 102.15 30.9303C102.744 30.8461 103.272 31.2801 103.739 31.6609C104.206 32.0418 104.811 32.4148 105.371 32.1959C105.64 32.091 105.874 31.8539 106.16 31.876C106.447 31.898 106.643 32.1609 106.743 32.4265C107.07 33.2905 106.725 34.3372 107.178 35.1469C107.445 35.6197 107.941 35.915 108.271 36.3477C108.483 36.6268 108.621 36.9565 108.671 37.305C108.758 37.919 108.565 38.5395 108.584 39.16C108.624 40.48 109.679 41.6368 110.935 42.0099C111.314 42.1226 111.728 42.1835 112.034 42.4374C112.377 42.7198 112.508 43.1771 112.708 43.5747C113.047 44.2125 113.583 44.7219 114.235 45.0257C114.886 45.3295 115.619 45.4113 116.32 45.2588L116.044 44.9427C114.83 44.9634 113.61 44.2717 113.059 43.1796Z" fill="black"/>
<path opacity="0.1" d="M104.819 37.6833C104.662 37.919 104.215 39.1574 103.841 40.2326C103.491 40.0966 103.172 39.2209 103.172 39.2209L105.035 36.5459C105.231 36.8102 105.105 37.2506 104.819 37.6833Z" fill="black"/>
<path d="M104.89 37.6107C104.734 37.8464 104.287 39.0848 103.911 40.1613C103.562 40.0253 103.244 39.1496 103.244 39.1496L105.111 36.4746C105.303 36.7376 105.177 37.178 104.89 37.6107Z" fill="#DCE7FF"/>
<path d="M94.0355 49.9119L93.0003 46.628C92.9879 46.5894 92.9832 46.5487 92.9864 46.5083C92.9897 46.4678 93.0008 46.4284 93.0192 46.3923C93.0376 46.3562 93.0629 46.3241 93.0936 46.2979C93.1244 46.2716 93.1599 46.2518 93.1983 46.2394C93.2366 46.2266 93.2771 46.2215 93.3174 46.2246C93.3577 46.2277 93.3969 46.2389 93.4328 46.2575C93.4688 46.2761 93.5006 46.3017 93.5266 46.3328C93.5526 46.364 93.5721 46.4001 93.5841 46.4389L94.6193 49.7254L94.5164 50.4132L94.0355 49.9119Z" fill="#BE8B87"/>
<path opacity="0.1" d="M93.098 46.3365C93.1364 46.324 93.1769 46.3193 93.2171 46.3227C93.2574 46.326 93.2965 46.3374 93.3324 46.356C93.3682 46.3747 93.4001 46.4003 93.4261 46.4314C93.4521 46.4625 93.4717 46.4985 93.4838 46.5373L94.519 49.8211L94.4405 50.3393L94.5164 50.4183L94.6193 49.7305L93.5841 46.4466C93.5721 46.4078 93.5526 46.3717 93.5266 46.3405C93.5007 46.3094 93.4688 46.2838 93.4328 46.2652C93.3969 46.2466 93.3577 46.2354 93.3174 46.2323C93.2771 46.2292 93.2366 46.2343 93.1983 46.2471C93.1339 46.2673 93.0781 46.3088 93.0402 46.365C93.0584 46.3534 93.0778 46.3438 93.098 46.3365Z" fill="white"/>
<path d="M94.0355 49.9119L94.6167 49.7253L94.5318 50.2901L94.5138 50.4132L94.3441 50.2344L94.0355 49.9119Z" fill="#EFC8C4"/>
<path d="M94.3441 50.2344C94.3547 50.222 94.3673 50.2115 94.3814 50.2033C94.3897 50.1982 94.3992 50.1954 94.409 50.1954C94.4188 50.1954 94.4283 50.1982 94.4366 50.2033C94.4451 50.213 94.452 50.2239 94.4572 50.2357C94.465 50.2493 94.4757 50.261 94.4887 50.2697C94.5016 50.2785 94.5164 50.2841 94.5318 50.2862L94.5138 50.4158L94.3441 50.2344Z" fill="#727A9C"/>
<path d="M92.9951 47.7913C92.9951 47.7913 95.0719 47.7796 94.5819 48.6683C94.092 49.5569 93.3295 49.6657 93.3295 49.6657L92.9951 47.7913Z" fill="#FFB0B1"/>
</g>
<defs>
<linearGradient id="paint0_linear_4_2874" x1="102.502" y1="94.028" x2="102.502" y2="26.3614" gradientUnits="userSpaceOnUse">
<stop stop-color="#808080" stop-opacity="0.25"/>
<stop offset="0.54" stop-color="#808080" stop-opacity="0.12"/>
<stop offset="1" stop-color="#808080" stop-opacity="0.1"/>
</linearGradient>
<clipPath id="clip0_4_2874">
<rect width="127" height="102" fill="white"/>
</clipPath>
</defs>
</svg>
