<svg width="169" height="100" viewBox="0 0 169 100" fill="none" xmlns="http://www.w3.org/2000/svg">
<g clip-path="url(#clip0_4_3016)">
<path d="M68.464 99.7595H67.462C67.2418 99.7595 67.0306 99.6717 66.8749 99.5152C66.7192 99.3587 66.6317 99.1465 66.6317 98.9253V96.0771H68.4641L69.2005 98.7906C69.2314 98.9044 69.2358 99.0238 69.2133 99.1396C69.1908 99.2554 69.142 99.3644 69.0707 99.4581C68.9995 99.5518 68.9077 99.6278 68.8025 99.6801C68.6972 99.7323 68.5814 99.7595 68.4641 99.7595H68.464Z" fill="#605D82"/>
<path d="M129.311 31.384H15.446C14.2293 31.384 13.243 32.3751 13.243 33.5976V74.3636C13.243 75.5861 14.2293 76.5771 15.446 76.5771H129.311C130.528 76.5771 131.514 75.5861 131.514 74.3636V33.5976C131.514 32.3751 130.528 31.384 129.311 31.384Z" fill="#F2F2F2"/>
<path d="M158.394 0.0837402H2.68822C1.43355 0.0837402 0.416443 1.10575 0.416443 2.36646V85.3417C0.416443 86.6024 1.43355 87.6245 2.68822 87.6245H158.394C159.649 87.6245 160.666 86.6024 160.666 85.3417V2.36646C160.666 1.10575 159.649 0.0837402 158.394 0.0837402Z" stroke="#3F3D56" stroke-miterlimit="10"/>
<path d="M0 6.19971H160.249" stroke="#3F3D56" stroke-miterlimit="10"/>
<path d="M0 16.8219H160.249" stroke="#3F3D56" stroke-miterlimit="10"/>
<path d="M4.0812 5.43992C5.00119 5.43992 5.74699 4.69053 5.74699 3.7661C5.74699 2.84168 5.00119 2.09229 4.0812 2.09229C3.16121 2.09229 2.41541 2.84168 2.41541 3.7661C2.41541 4.69053 3.16121 5.43992 4.0812 5.43992Z" fill="#F86B75"/>
<path d="M9.24514 5.43992C10.1651 5.43992 10.9109 4.69053 10.9109 3.7661C10.9109 2.84168 10.1651 2.09229 9.24514 2.09229C8.32515 2.09229 7.57935 2.84168 7.57935 3.7661C7.57935 4.69053 8.32515 5.43992 9.24514 5.43992Z" fill="#FAD375"/>
<path d="M14.4091 5.43992C15.3291 5.43992 16.0749 4.69053 16.0749 3.7661C16.0749 2.84168 15.3291 2.09229 14.4091 2.09229C13.4891 2.09229 12.7433 2.84168 12.7433 3.7661C12.7433 4.69053 13.4891 5.43992 14.4091 5.43992Z" fill="#8BCC55"/>
<path d="M4.58092 4.77037C5.50091 4.77037 6.24671 4.02097 6.24671 3.09655C6.24671 2.17212 5.50091 1.42273 4.58092 1.42273C3.66093 1.42273 2.91513 2.17212 2.91513 3.09655C2.91513 4.02097 3.66093 4.77037 4.58092 4.77037Z" stroke="#3F3D56" stroke-miterlimit="10"/>
<path d="M9.74488 4.77037C10.6649 4.77037 11.4107 4.02097 11.4107 3.09655C11.4107 2.17212 10.6649 1.42273 9.74488 1.42273C8.82489 1.42273 8.07909 2.17212 8.07909 3.09655C8.07909 4.02097 8.82489 4.77037 9.74488 4.77037Z" stroke="#3F3D56" stroke-miterlimit="10"/>
<path d="M14.9088 4.77037C15.8288 4.77037 16.5746 4.02097 16.5746 3.09655C16.5746 2.17212 15.8288 1.42273 14.9088 1.42273C13.9888 1.42273 13.243 2.17212 13.243 3.09655C13.243 4.02097 13.9888 4.77037 14.9088 4.77037Z" stroke="#3F3D56" stroke-miterlimit="10"/>
<path d="M37.4803 15.7338C39.3203 15.7338 40.8119 14.2351 40.8119 12.3862C40.8119 10.5374 39.3203 9.03857 37.4803 9.03857C35.6403 9.03857 34.1487 10.5374 34.1487 12.3862C34.1487 14.2351 35.6403 15.7338 37.4803 15.7338Z" fill="#F2F2F2"/>
<path d="M38.3132 14.8969C40.1532 14.8969 41.6448 13.3981 41.6448 11.5493C41.6448 9.70045 40.1532 8.20166 38.3132 8.20166C36.4732 8.20166 34.9816 9.70045 34.9816 11.5493C34.9816 13.3981 36.4732 14.8969 38.3132 14.8969Z" stroke="#3F3D56" stroke-miterlimit="10"/>
<path d="M99.7104 10.6288H85.0259C84.527 10.6288 84.1225 11.0352 84.1225 11.5365V14.2403C84.1225 14.7417 84.527 15.1481 85.0259 15.1481H99.7104C100.209 15.1481 100.614 14.7417 100.614 14.2403V11.5365C100.614 11.0352 100.209 10.6288 99.7104 10.6288Z" fill="#C92225"/>
<path d="M123.198 10.6288H108.514C108.015 10.6288 107.61 11.0352 107.61 11.5365V14.2403C107.61 14.7417 108.015 15.1481 108.514 15.1481H123.198C123.697 15.1481 124.101 14.7417 124.101 14.2403V11.5365C124.101 11.0352 123.697 10.6288 123.198 10.6288Z" fill="#C92225"/>
<path d="M101.077 9.28967H85.9919C85.6034 9.28967 85.2885 9.6061 85.2885 9.99643V13.1022C85.2885 13.4926 85.6034 13.809 85.9919 13.809H101.077C101.465 13.809 101.78 13.4926 101.78 13.1022V9.99643C101.78 9.6061 101.465 9.28967 101.077 9.28967Z" stroke="#3F3D56" stroke-miterlimit="10"/>
<path d="M124.564 9.28967H109.48C109.091 9.28967 108.776 9.6061 108.776 9.99643V13.1022C108.776 13.4926 109.091 13.809 109.48 13.809H124.564C124.953 13.809 125.268 13.4926 125.268 13.1022V9.99643C125.268 9.6061 124.953 9.28967 124.564 9.28967Z" stroke="#3F3D56" stroke-miterlimit="10"/>
<path d="M134.845 27.7017H21.9058C20.4335 27.7017 19.2399 28.901 19.2399 30.3804V70.216C19.2399 71.6954 20.4335 72.8948 21.9058 72.8948H134.845C136.318 72.8948 137.511 71.6954 137.511 70.216V30.3804C137.511 28.901 136.318 27.7017 134.845 27.7017Z" stroke="#3F3D56" stroke-miterlimit="10"/>
<path d="M67.6311 47.8581V45.9146L74.4476 51.0516L72.8784 52.1395M75.2776 61.1096C76.6989 60.3433 77.9415 59.2816 78.9228 57.9952C79.904 56.7087 80.6014 55.2271 80.9685 53.6488C81.3355 52.0705 81.3639 50.4318 81.0517 48.8416C80.7395 47.2515 80.0938 45.7464 79.1577 44.4264C78.2216 43.1065 77.0164 42.002 75.6225 41.1865C74.2285 40.3709 72.6777 39.863 71.0732 39.6965C69.4687 39.53 67.8473 39.7088 66.3169 40.2209C64.7865 40.733 63.3821 41.5667 62.1973 42.6666L75.2776 61.1096Z" stroke="#3F3D56" stroke-miterlimit="10"/>
<path d="M68.2375 40.8077C65.9906 40.8077 63.7941 41.4772 61.9258 42.7316C60.0576 43.9859 58.6014 45.7688 57.7416 47.8547C56.8817 49.9406 56.6567 52.2358 57.0951 54.4502C57.5334 56.6646 58.6154 58.6986 60.2043 60.2951C61.7931 61.8916 63.8174 62.9788 66.0211 63.4193C68.2249 63.8597 70.5091 63.6337 72.585 62.7697C74.6609 61.9057 76.4352 60.4425 77.6836 58.5653C78.9319 56.688 79.5982 54.4809 79.5982 52.2232C79.5968 49.196 78.3994 46.2933 76.2692 44.1528C74.1389 42.0123 71.2501 40.8091 68.2375 40.8077ZM65.9654 57.3601V47.0862L72.7818 52.2232L65.9654 57.3601Z" fill="#C92225"/>
<path d="M63.8164 72.0921C63.8164 72.0921 61.7759 79.2236 61.6872 82.3436C61.5985 85.4636 61.2436 90.4557 61.5097 91.7037C61.7759 92.9517 62.5743 95.4477 62.5743 95.4477C62.5743 95.4477 64.2599 93.3974 64.881 94.5563C64.881 94.5563 64.7922 92.1494 64.3487 91.4362C64.3487 91.4362 64.5261 87.6922 64.5261 86.3551C64.5261 85.0179 66.744 78.867 66.9214 78.7779C67.0989 78.6887 67.6312 80.4716 67.1876 84.3939C66.744 88.3162 66.3891 95.1822 66.3891 95.8953C66.3891 96.6085 67.4537 98.0348 68.1635 97.589C68.8732 97.1433 69.3168 93.3083 69.3168 93.3083C69.3168 93.3083 69.9378 85.2853 70.2926 84.3939C70.6475 83.5025 72.5105 73.2509 71.0911 72.4487C69.6716 71.6464 63.8164 72.0921 63.8164 72.0921Z" fill="#46455B"/>
<path d="M65.3245 95.2694C65.2358 95.626 64.8809 97.3197 64.8809 97.8546C64.8809 98.3895 65.2358 99.37 63.7276 99.7266C62.2585 100.074 62.4732 99.1525 62.239 98.6105C62.2328 98.5963 62.2266 98.582 62.2195 98.5677C61.9533 98.0329 62.5743 95.2694 62.663 95.2694C62.7152 95.2694 63.1348 94.5617 63.472 93.9779C63.5426 93.8534 63.6403 93.7467 63.7578 93.6656C63.8753 93.5846 64.0096 93.5314 64.1505 93.5099C64.2915 93.4885 64.4354 93.4995 64.5715 93.5419C64.7076 93.5844 64.8324 93.6573 64.9364 93.7552C65.0764 93.8915 65.1876 94.0549 65.2633 94.2354C65.339 94.4159 65.3776 94.61 65.3769 94.8059C65.3796 94.962 65.362 95.1179 65.3245 95.2694Z" fill="#605D82"/>
<path opacity="0.1" d="M65.3246 95.2694C65.2358 95.626 64.881 97.3197 64.881 97.8545C64.881 98.3894 65.2358 99.37 63.7277 99.7266C62.2585 100.074 62.4732 99.1525 62.239 98.6105C62.4936 97.9455 63.112 96.5165 63.5502 95.2694C63.937 94.1676 64.8881 94.5268 65.3769 94.8058C65.3796 94.962 65.362 95.1178 65.3246 95.2694Z" fill="black"/>
<path d="M67.8973 58.2748C68.9262 58.2748 69.7603 57.4367 69.7603 56.4028C69.7603 55.3689 68.9262 54.5308 67.8973 54.5308C66.8683 54.5308 66.0342 55.3689 66.0342 56.4028C66.0342 57.4367 66.8683 58.2748 67.8973 58.2748Z" fill="#FBBEBE"/>
<path d="M66.3891 56.7594L66.123 59.7011L69.3168 60.236C69.3168 60.236 68.9619 57.6508 69.228 57.1159C69.4942 56.5811 66.3891 56.7594 66.3891 56.7594Z" fill="#FBBEBE"/>
<path d="M68.8732 59.0771C68.8732 59.0771 66.2117 58.8097 66.0342 59.0771C65.9184 59.2968 65.8575 59.5416 65.8568 59.7903C65.8568 59.7903 64.7922 60.236 64.6148 60.0577C64.4374 59.8794 64.2599 59.3445 63.7276 59.5228C63.1953 59.7011 62.1307 62.9103 62.1307 62.9103C62.1307 62.9103 62.3969 61.9297 62.8405 65.6737C63.284 69.4177 63.1953 71.7355 63.284 72.0029C63.3728 72.2703 62.8405 73.8749 66.0342 73.8749C69.228 73.8749 71.5346 73.6966 71.5346 73.0726C71.5346 72.4486 71.0023 69.7743 71.5346 67.8132C72.0669 65.852 72.8654 63.1777 72.8654 63.1777L71.8008 59.7011C71.8008 59.7011 70.7362 59.4337 70.47 59.8794C70.2039 60.3251 69.4942 60.236 69.4942 60.236C69.4942 60.236 69.4055 59.1663 68.8732 59.0771Z" fill="#605D82"/>
<path d="M63.8164 59.7012L61.5985 58.7206C61.5985 58.7206 57.4288 55.5114 57.6062 52.6588C57.6062 52.6588 56.1868 51.3217 56.0981 52.748C56.0094 54.1743 56.4529 57.3834 57.5175 58.4532C58.5821 59.5229 62.2195 62.9103 62.7518 62.9995C63.2841 63.0886 63.8164 59.7012 63.8164 59.7012Z" fill="#605D82"/>
<path d="M56.2755 52.9262C56.2755 52.9262 54.5899 48.2907 56.0981 48.469C57.6062 48.6473 57.2514 50.6084 57.2514 50.6084V52.9262L56.2755 52.9262Z" fill="#FBBEBE"/>
<path d="M71.4459 59.8794L73.6638 58.8988C73.6638 58.8988 77.8335 55.6896 77.656 52.837C77.656 52.837 79.0755 51.4999 79.1642 52.9262C79.2529 54.3525 78.8093 57.5617 77.7448 58.6314C76.6802 59.7011 73.0428 63.0886 72.5105 63.1777C71.9782 63.2668 71.4459 59.8794 71.4459 59.8794Z" fill="#605D82"/>
<path d="M78.9868 53.1044C78.9868 53.1044 80.6724 48.4689 79.1642 48.6472C77.6561 48.8255 78.0109 50.7867 78.0109 50.7867V53.1044L78.9868 53.1044Z" fill="#FBBEBE"/>
<path d="M69.3168 54.1741L69.5829 53.9959C69.5829 53.9959 67.8973 53.0153 67.1876 53.5501C66.4778 54.085 66.3004 54.5307 66.123 54.709C65.9455 54.8873 65.502 55.8679 65.7681 56.2245C66.0343 56.581 65.9455 56.6541 66.123 56.9742C66.3004 57.2942 65.813 58.5816 67.1657 58.9631C68.5183 59.3445 69.5829 57.7399 69.7603 57.3833C69.9378 57.0267 70.5588 54.6199 69.3168 54.1741Z" fill="#46455B"/>
<path d="M137.455 79.371C137.455 89.2399 143.617 97.2256 151.231 97.2256L137.455 79.371Z" fill="#46455B"/>
<path d="M151.231 97.2257C151.231 87.2459 158.107 79.1704 166.604 79.1704L151.231 97.2257Z" fill="#C92225"/>
<path d="M142.446 80.2656C142.446 89.64 146.375 97.2256 151.231 97.2256L142.446 80.2656Z" fill="#C92225"/>
<path d="M151.231 97.2256C151.231 84.4737 159.178 74.155 169 74.155L151.231 97.2256Z" fill="#46455B"/>
<path d="M148.333 97.3515C148.333 97.3515 150.287 97.2911 150.875 96.8698C151.464 96.4485 153.881 95.9455 154.027 96.6211C154.173 97.2968 156.963 99.9815 154.757 99.9994C152.551 100.017 149.632 99.6541 149.044 99.2945C148.457 98.9348 148.333 97.3515 148.333 97.3515Z" fill="#A8A8A8"/>
<path opacity="0.2" d="M154.796 99.7642C152.591 99.7821 149.671 99.419 149.084 99.0593C148.636 98.7854 148.458 97.8025 148.398 97.349C148.357 97.3508 148.333 97.3516 148.333 97.3516C148.333 97.3516 148.457 98.9348 149.044 99.2945C149.632 99.6542 152.551 100.017 154.757 99.9994C155.394 99.9942 155.614 99.7666 155.601 99.4295C155.513 99.6332 155.27 99.7604 154.796 99.7642Z" fill="black"/>
<path d="M45.8093 99.7596H85.2885" stroke="#3F3D56" stroke-miterlimit="10"/>
<path d="M146.071 99.8397H158.398" stroke="#3F3D56" stroke-miterlimit="10"/>
</g>
<defs>
<clipPath id="clip0_4_3016">
<rect width="169" height="100" fill="white"/>
</clipPath>
</defs>
</svg>
