<svg width="270" height="204" viewBox="0 0 270 204" fill="none" xmlns="http://www.w3.org/2000/svg">
<g clip-path="url(#clip0_4_4437)">
<path d="M261.734 190.829L262.808 188.192C264.113 187.841 265.437 187.564 266.773 187.362L266.685 188.644L267.235 187.294C268.889 187.06 270 187.009 270 187.009C270 187.009 267.769 192.352 264.113 196.168L260.451 196.301L263.173 197.083C262.723 197.492 262.247 197.873 261.749 198.224C256.713 201.738 251.479 202.948 250.058 200.926C248.637 198.904 251.568 194.416 256.604 190.902C258.233 189.822 260.018 188.997 261.898 188.456L261.734 190.829Z" fill="#E6E6E6"/>
<path d="M252.233 178.731L250.871 174.835C251.955 173.209 253.13 171.645 254.39 170.15L255.525 171.63L254.828 169.636C256.405 167.803 257.566 166.689 257.566 166.689C257.566 166.689 260.266 174.635 259.949 182.276L256.09 185.914L259.805 184.169C259.708 185.045 259.556 185.913 259.349 186.77C257.24 195.399 252.702 201.708 249.214 200.861C245.725 200.014 244.607 192.332 246.716 183.703C247.453 180.973 248.605 178.372 250.132 175.991L252.233 178.731Z" fill="#E6E6E6"/>
<path d="M223.02 204C247.061 204 266.551 202.998 266.551 201.761C266.551 200.524 247.061 199.522 223.02 199.522C198.978 199.522 179.489 200.524 179.489 201.761C179.489 202.998 198.978 204 223.02 204Z" fill="#E6E6E6"/>
<path d="M76.6273 34.7937H45.875V35.3535H76.6273C78.1413 35.3535 79.5934 35.9528 80.6639 37.0198C81.7345 38.0867 82.3359 39.5337 82.3359 41.0425C82.3359 42.5514 81.7345 43.9984 80.6639 45.0653C79.5934 46.1322 78.1413 46.7316 76.6273 46.7316H30.0938C28.5798 46.7316 27.1278 46.1322 26.0572 45.0653C24.9866 43.9984 24.3852 42.5514 24.3852 41.0425C24.3852 39.5337 24.9866 38.0867 26.0572 37.0198C27.1278 35.9528 28.5798 35.3535 30.0938 35.3535H31.8328V34.7937H30.0938C28.4308 34.7937 26.8359 35.4521 25.66 36.6239C24.4841 37.7958 23.8235 39.3852 23.8235 41.0425C23.8235 42.6998 24.4841 44.2893 25.66 45.4611C26.8359 46.633 28.4308 47.2914 30.0938 47.2914H76.6273C78.2903 47.2914 79.8852 46.633 81.0611 45.4611C82.237 44.2893 82.8976 42.6998 82.8976 41.0425C82.8976 39.3852 82.237 37.7958 81.0611 36.6239C79.8852 35.4521 78.2903 34.7937 76.6273 34.7937Z" fill="#E6E6E6"/>
<path d="M76.6273 54.1057H45.8751V54.6655H76.6273C78.1413 54.6655 79.5934 55.2649 80.6639 56.3318C81.7345 57.3987 82.336 58.8457 82.336 60.3545C82.336 61.8634 81.7345 63.3104 80.6639 64.3773C79.5934 65.4442 78.1413 66.0436 76.6273 66.0436H30.0938C28.5798 66.0436 27.1278 65.4442 26.0572 64.3773C24.9866 63.3104 24.3852 61.8634 24.3852 60.3545C24.3852 58.8457 24.9866 57.3987 26.0572 56.3318C27.1278 55.2649 28.5798 54.6655 30.0938 54.6655H31.8328V54.1057H30.0938C28.4316 54.1068 26.8378 54.7657 25.6628 55.9375C24.4878 57.1092 23.8278 58.698 23.8278 60.3545C23.8278 62.0111 24.4878 63.5999 25.6628 64.7716C26.8378 65.9434 28.4316 66.6023 30.0938 66.6034H76.6273C78.2896 66.6023 79.8834 65.9434 81.0583 64.7716C82.2333 63.5999 82.8934 62.0111 82.8934 60.3545C82.8934 58.698 82.2333 57.1092 81.0583 55.9375C79.8834 54.7657 78.2896 54.1068 76.6273 54.1057Z" fill="#C92225"/>
<path d="M76.6273 73.4177H45.8751V73.9775H76.6273C78.1414 73.9775 79.5934 74.5769 80.664 75.6438C81.7345 76.7107 82.336 78.1577 82.336 79.6666C82.336 81.1754 81.7345 82.6225 80.664 83.6894C79.5934 84.7563 78.1414 85.3557 76.6273 85.3557H30.0939C28.5798 85.3557 27.1278 84.7563 26.0572 83.6894C24.9867 82.6225 24.3852 81.1754 24.3852 79.6666C24.3852 78.1577 24.9867 76.7107 26.0572 75.6438C27.1278 74.5769 28.5798 73.9775 30.0939 73.9775H31.8328V73.4177H30.0939C28.4309 73.4177 26.836 74.0761 25.6601 75.248C24.4841 76.4199 23.8235 78.0093 23.8235 79.6666C23.8235 81.3239 24.4841 82.9133 25.6601 84.0852C26.836 85.2571 28.4309 85.9154 30.0939 85.9154H76.6273C78.2896 85.9143 79.8834 85.2554 81.0584 84.0837C82.2334 82.9119 82.8934 81.3231 82.8934 79.6666C82.8934 78.01 82.2334 76.4212 81.0584 75.2495C79.8834 74.0777 78.2896 73.4189 76.6273 73.4177Z" fill="#E6E6E6"/>
<path d="M35.3039 33.3151C34.8658 33.3222 34.448 33.5007 34.1407 33.812C33.8334 34.1233 33.6612 34.5425 33.6612 34.9792C33.6612 35.4159 33.8334 35.8351 34.1407 36.1464C34.448 36.4578 34.8658 36.6362 35.3039 36.6434H42.63C43.0726 36.6503 43.4998 36.4817 43.8178 36.1748C44.1358 35.8678 44.3185 35.4476 44.3258 35.0065C44.333 34.5654 44.1643 34.1395 43.8566 33.8223C43.5489 33.5052 43.1274 33.3227 42.6848 33.3151C42.6665 33.3147 42.6482 33.3147 42.63 33.3151H35.3039Z" fill="#3F3D56"/>
<path d="M35.3039 52.9066C34.8657 52.9138 34.448 53.0922 34.1407 53.4036C33.8334 53.7149 33.6611 54.1341 33.6611 54.5708C33.6611 55.0075 33.8334 55.4267 34.1407 55.738C34.448 56.0493 34.8657 56.2278 35.3039 56.235H42.63C43.0728 56.2422 43.5005 56.0738 43.8188 55.7669C44.1371 55.4599 44.32 55.0395 44.3273 54.5981C44.3346 54.1567 44.1656 53.7306 43.8576 53.4134C43.5495 53.0961 43.1277 52.9139 42.6848 52.9066C42.6665 52.9063 42.6482 52.9063 42.63 52.9066H35.3039Z" fill="#3F3D56"/>
<path d="M35.3039 71.9387C34.8657 71.9459 34.448 72.1243 34.1407 72.4357C33.8334 72.747 33.6611 73.1662 33.6611 73.6029C33.6611 74.0396 33.8334 74.4588 34.1407 74.7701C34.448 75.0815 34.8657 75.2599 35.3039 75.2671H42.63C43.0728 75.2743 43.5005 75.106 43.8188 74.799C44.1371 74.492 44.32 74.0716 44.3273 73.6302C44.3346 73.1889 44.1656 72.7627 43.8576 72.4455C43.5495 72.1282 43.1277 71.946 42.6848 71.9387C42.6665 71.9384 42.6482 71.9384 42.63 71.9387H35.3039Z" fill="#3F3D56"/>
<path d="M32.3982 39.3783C31.96 39.3854 31.5422 39.5639 31.2349 39.8752C30.9276 40.1866 30.7554 40.6058 30.7554 41.0425C30.7554 41.4792 30.9276 41.8984 31.2349 42.2097C31.5422 42.521 31.96 42.6995 32.3982 42.7067H74.2682C74.7111 42.7139 75.1387 42.5455 75.457 42.2386C75.7753 41.9316 75.9582 41.5112 75.9655 41.0698C75.9728 40.6284 75.8038 40.2023 75.4958 39.885C75.1878 39.5678 74.7659 39.3855 74.323 39.3783C74.3047 39.378 74.2865 39.378 74.2682 39.3783H32.3982Z" fill="#E6E6E6"/>
<path d="M76.6273 16.6013H45.8751V17.1611H76.6273C78.1413 17.1611 79.5934 17.7605 80.6639 18.8274C81.7345 19.8943 82.336 21.3413 82.336 22.8502C82.336 24.359 81.7345 25.806 80.6639 26.8729C79.5934 27.9399 78.1413 28.5392 76.6273 28.5392H30.0938C28.5805 28.5382 27.1295 27.9383 26.0599 26.8715C24.9902 25.8047 24.3893 24.3583 24.3893 22.8502C24.3893 21.342 24.9902 19.8956 26.0599 18.8288C27.1295 17.762 28.5805 17.1622 30.0938 17.1611H31.8328V16.6013H30.0938C28.4316 16.6025 26.8378 17.2613 25.6628 18.4331C24.4878 19.6048 23.8278 21.1936 23.8278 22.8502C23.8278 24.5067 24.4878 26.0955 25.6628 27.2672C26.8378 28.439 28.4316 29.0979 30.0938 29.099H76.6273C78.2896 29.0979 79.8834 28.439 81.0583 27.2672C82.2333 26.0955 82.8934 24.5067 82.8934 22.8502C82.8934 21.1936 82.2333 19.6048 81.0583 18.4331C79.8834 17.2613 78.2896 16.6025 76.6273 16.6013Z" fill="#E6E6E6"/>
<path d="M35.3039 15.1227C34.8657 15.1298 34.448 15.3083 34.1407 15.6196C33.8334 15.9309 33.6611 16.3502 33.6611 16.7869C33.6611 17.2236 33.8334 17.6428 34.1407 17.9541C34.448 18.2654 34.8657 18.4439 35.3039 18.451H42.63C43.0728 18.4583 43.5005 18.2899 43.8188 17.9829C44.1371 17.676 44.32 17.2556 44.3273 16.8142C44.3346 16.3728 44.1656 15.9466 43.8576 15.6294C43.5495 15.3122 43.1277 15.1299 42.6848 15.1227C42.6665 15.1224 42.6482 15.1224 42.63 15.1227H35.3039Z" fill="#3F3D56"/>
<path d="M32.3982 21.1859C31.96 21.1931 31.5423 21.3716 31.235 21.6829C30.9277 21.9942 30.7555 22.4134 30.7555 22.8501C30.7555 23.2868 30.9277 23.706 31.235 24.0173C31.5423 24.3286 31.96 24.5071 32.3982 24.5143H74.2682C74.4876 24.5181 74.7056 24.4787 74.9098 24.3985C75.1139 24.3183 75.3002 24.1987 75.458 24.0467C75.6158 23.8947 75.7419 23.7132 75.8293 23.5126C75.9166 23.3119 75.9634 23.0961 75.967 22.8774C75.9706 22.6588 75.931 22.4415 75.8503 22.2381C75.7696 22.0348 75.6495 21.8492 75.4968 21.6921C75.3441 21.535 75.1618 21.4095 74.9604 21.3226C74.759 21.2357 74.5424 21.1893 74.323 21.1859C74.3047 21.1856 74.2864 21.1856 74.2682 21.1859H32.3982Z" fill="#E6E6E6"/>
<path d="M32.3982 58.6903C31.96 58.6975 31.5422 58.8759 31.2349 59.1873C30.9276 59.4986 30.7554 59.9178 30.7554 60.3545C30.7554 60.7912 30.9276 61.2104 31.2349 61.5217C31.5422 61.833 31.96 62.0115 32.3982 62.0187H74.2682C74.4875 62.0222 74.7053 61.9828 74.9093 61.9024C75.1133 61.8221 75.2994 61.7026 75.457 61.5506C75.6146 61.3986 75.7407 61.2171 75.8279 61.0166C75.9151 60.8161 75.9619 60.6004 75.9655 60.3818C75.9691 60.1633 75.9295 59.9462 75.8489 59.7429C75.7683 59.5396 75.6483 59.3541 75.4958 59.197C75.3433 59.04 75.1612 58.9144 74.96 58.8274C74.7588 58.7405 74.5423 58.6939 74.323 58.6903C74.3047 58.69 74.2865 58.69 74.2682 58.6903H32.3982Z" fill="#C92225"/>
<path d="M32.3982 78.0023C31.96 78.0095 31.5422 78.1879 31.2349 78.4993C30.9276 78.8106 30.7554 79.2298 30.7554 79.6665C30.7554 80.1032 30.9276 80.5224 31.2349 80.8337C31.5422 81.145 31.96 81.3235 32.3982 81.3307H74.2682C74.4875 81.3343 74.7053 81.2948 74.9093 81.2144C75.1133 81.1341 75.2994 81.0146 75.457 80.8626C75.6146 80.7106 75.7407 80.5291 75.8279 80.3286C75.9151 80.1281 75.9619 79.9124 75.9655 79.6938C75.9691 79.4753 75.9295 79.2582 75.8489 79.0549C75.7683 78.8516 75.6483 78.6661 75.4958 78.5091C75.3433 78.352 75.1612 78.2264 74.96 78.1394C74.7588 78.0525 74.5423 78.0059 74.323 78.0023C74.3047 78.002 74.2865 78.002 74.2682 78.0023H32.3982Z" fill="#E6E6E6"/>
<path d="M95.3757 60.4841L89.0566 56.8484V64.1199L95.3757 60.4841L89.0566 56.8484V64.1199L95.3757 60.4841Z" fill="#C92225"/>
<path d="M100.852 100.198H2.10634C1.77127 100.198 1.45003 100.065 1.2131 99.8287C0.976169 99.5926 0.842901 99.2724 0.842535 98.9385V2.09912C0.842901 1.7652 0.976169 1.44506 1.2131 1.20894C1.45003 0.972823 1.77127 0.840012 2.10634 0.839647H104.615C104.95 0.840011 105.271 0.972823 105.508 1.20894C105.745 1.44506 105.878 1.7652 105.879 2.09912V59.4346H106.721V2.09912C106.721 1.54259 106.498 1.00902 106.104 0.61549C105.709 0.221961 105.173 0.000608051 104.615 0H2.10634C1.54789 0.000608051 1.01249 0.221961 0.617607 0.61549C0.222724 1.00902 0.000610143 1.54259 0 2.09912V98.9385C0.000610143 99.495 0.222724 100.029 0.617607 100.422C1.01249 100.816 1.54789 101.037 2.10634 101.038H100.852V100.198Z" fill="#E6E6E6"/>
<path d="M191.45 58.0353H102.933C101.784 58.0353 100.852 58.7602 100.852 59.6533V78.7466H193.531V59.6533C193.531 58.7602 192.599 58.0353 191.45 58.0353Z" fill="#C92225"/>
<path d="M191.986 57.4757H102.397C101.838 57.4759 101.303 57.6971 100.908 58.0907C100.513 58.4844 100.291 59.0182 100.29 59.5748V130.945C100.291 131.502 100.513 132.035 100.908 132.429C101.303 132.823 101.838 133.044 102.397 133.044H191.986C192.545 133.044 193.081 132.823 193.476 132.429C193.871 132.035 194.092 131.502 194.093 130.945V59.5748C194.092 59.0182 193.871 58.4844 193.476 58.0907C193.081 57.6971 192.545 57.4759 191.986 57.4757ZM193.25 130.945C193.25 131.279 193.116 131.599 192.879 131.835C192.643 132.071 192.321 132.204 191.986 132.204H102.397C102.062 132.204 101.741 132.071 101.504 131.835C101.267 131.599 101.133 131.279 101.133 130.945V59.5748C101.133 59.2409 101.267 58.9209 101.504 58.6848C101.741 58.4487 102.062 58.3159 102.397 58.3154H191.986C192.321 58.3159 192.643 58.4487 192.879 58.6848C193.116 58.9209 193.25 59.2409 193.25 59.5748V130.945Z" fill="#E6E6E6"/>
<path d="M170.458 89.1907H139.706V89.7504H170.458C171.972 89.7504 173.424 90.3498 174.495 91.4167C175.566 92.4836 176.167 93.9307 176.167 95.4395C176.167 96.9483 175.566 98.3954 174.495 99.4623C173.424 100.529 171.972 101.129 170.458 101.129H123.925C122.411 101.129 120.959 100.529 119.888 99.4623C118.818 98.3954 118.216 96.9483 118.216 95.4395C118.216 93.9307 118.818 92.4836 119.888 91.4167C120.959 90.3498 122.411 89.7504 123.925 89.7504H125.664V89.1907H123.925C122.262 89.1907 120.667 89.849 119.491 91.0209C118.315 92.1928 117.654 93.7822 117.654 95.4395C117.654 97.0968 118.315 98.6862 119.491 99.8581C120.667 101.03 122.262 101.688 123.925 101.688H170.458C172.121 101.688 173.716 101.03 174.892 99.8581C176.068 98.6862 176.729 97.0968 176.729 95.4395C176.729 93.7822 176.068 92.1928 174.892 91.0209C173.716 89.849 172.121 89.1907 170.458 89.1907Z" fill="#E6E6E6"/>
<path d="M170.458 108.502H139.706V109.062H170.458C171.972 109.062 173.424 109.661 174.495 110.728C175.566 111.795 176.167 113.242 176.167 114.751C176.167 116.26 175.566 117.707 174.495 118.774C173.424 119.841 171.972 120.44 170.458 120.44H123.925C122.411 120.44 120.959 119.841 119.888 118.774C118.818 117.707 118.216 116.26 118.216 114.751C118.216 113.242 118.818 111.795 119.888 110.728C120.959 109.661 122.411 109.062 123.925 109.062H125.664V108.502H123.925C122.262 108.502 120.667 109.161 119.491 110.333C118.315 111.504 117.654 113.094 117.654 114.751C117.654 116.408 118.315 117.998 119.491 119.17C120.667 120.342 122.262 121 123.925 121H170.458C172.121 121 173.716 120.342 174.892 119.17C176.068 117.998 176.729 116.408 176.729 114.751C176.729 113.094 176.068 111.504 174.892 110.333C173.716 109.161 172.121 108.502 170.458 108.502Z" fill="#E6E6E6"/>
<path d="M129.135 87.9917C128.697 87.9988 128.279 88.1773 127.972 88.4886C127.664 88.7999 127.492 89.2192 127.492 89.6559C127.492 90.0926 127.664 90.5118 127.972 90.8231C128.279 91.1344 128.697 91.3129 129.135 91.32H136.461C136.904 91.3273 137.331 91.1589 137.65 90.8519C137.968 90.545 138.151 90.1246 138.158 89.6832C138.166 89.2418 137.997 88.8157 137.689 88.4984C137.381 88.1812 136.959 87.9989 136.516 87.9917C136.498 87.9914 136.479 87.9914 136.461 87.9917H129.135Z" fill="#3F3D56"/>
<path d="M129.135 107.024C128.697 107.031 128.279 107.209 127.972 107.521C127.664 107.832 127.492 108.251 127.492 108.688C127.492 109.125 127.664 109.544 127.972 109.855C128.279 110.166 128.697 110.345 129.135 110.352H136.461C136.904 110.359 137.331 110.191 137.65 109.884C137.968 109.577 138.151 109.157 138.158 108.715C138.166 108.274 137.997 107.848 137.689 107.53C137.381 107.213 136.959 107.031 136.516 107.024C136.498 107.023 136.479 107.023 136.461 107.024H129.135Z" fill="#3F3D56"/>
<path d="M126.229 93.7754C125.791 93.7825 125.373 93.961 125.066 94.2723C124.759 94.5837 124.586 95.0029 124.586 95.4396C124.586 95.8763 124.759 96.2955 125.066 96.6068C125.373 96.9181 125.791 97.0966 126.229 97.1038H168.099C168.318 97.1074 168.536 97.0679 168.74 96.9875C168.944 96.9072 169.13 96.7877 169.288 96.6357C169.446 96.4837 169.572 96.3022 169.659 96.1017C169.746 95.9011 169.793 95.6854 169.796 95.4669C169.8 95.2484 169.76 95.0312 169.68 94.828C169.599 94.6247 169.479 94.4392 169.327 94.2821C169.174 94.1251 168.992 93.9995 168.791 93.9125C168.59 93.8256 168.373 93.779 168.154 93.7754C168.136 93.7751 168.117 93.7751 168.099 93.7754H126.229Z" fill="#E6E6E6"/>
<path d="M126.229 113.087C125.791 113.094 125.373 113.273 125.066 113.584C124.759 113.895 124.586 114.314 124.586 114.751C124.586 115.188 124.759 115.607 125.066 115.918C125.373 116.23 125.791 116.408 126.229 116.415H168.099C168.318 116.419 168.536 116.379 168.74 116.299C168.944 116.219 169.13 116.099 169.288 115.947C169.446 115.795 169.572 115.614 169.659 115.413C169.746 115.213 169.793 114.997 169.796 114.779C169.8 114.56 169.76 114.343 169.68 114.14C169.599 113.936 169.479 113.751 169.327 113.594C169.174 113.437 168.992 113.311 168.791 113.224C168.59 113.137 168.373 113.091 168.154 113.087C168.136 113.087 168.117 113.087 168.099 113.087H126.229Z" fill="#E6E6E6"/>
<path d="M113.186 74.4118C116.523 74.4118 119.228 71.7161 119.228 68.3909C119.228 65.0657 116.523 62.3701 113.186 62.3701C109.849 62.3701 107.145 65.0657 107.145 68.3909C107.145 71.7161 109.849 74.4118 113.186 74.4118Z" fill="white"/>
<path d="M124.022 63.6379C123.629 63.6443 123.254 63.8043 122.979 64.0833C122.704 64.3624 122.549 64.7381 122.549 65.1296C122.549 65.521 122.704 65.8968 122.979 66.1758C123.254 66.4548 123.629 66.6148 124.022 66.6212H161.551C161.748 66.6244 161.943 66.5891 162.126 66.5171C162.309 66.4451 162.475 66.3379 162.617 66.2017C162.758 66.0654 162.871 65.9028 162.949 65.723C163.027 65.5433 163.069 65.3499 163.072 65.1541C163.076 64.9582 163.04 64.7636 162.968 64.5814C162.896 64.3991 162.788 64.2329 162.651 64.0921C162.515 63.9513 162.351 63.8388 162.171 63.7608C161.991 63.6829 161.797 63.6411 161.6 63.6379C161.584 63.6376 161.567 63.6376 161.551 63.6379H124.022Z" fill="white"/>
<path d="M124.022 70.1606C123.629 70.167 123.254 70.327 122.979 70.606C122.704 70.8851 122.549 71.2608 122.549 71.6523C122.549 72.0437 122.704 72.4194 122.979 72.6985C123.254 72.9775 123.629 73.1375 124.022 73.1439H185.717C186.114 73.1504 186.497 72.9995 186.783 72.7243C187.068 72.4492 187.232 72.0724 187.238 71.6768C187.245 71.2811 187.094 70.8991 186.817 70.6148C186.541 70.3305 186.163 70.1671 185.766 70.1606C185.75 70.1603 185.733 70.1603 185.717 70.1606H124.022Z" fill="white"/>
<path d="M242.861 75.9966L230.504 77.396C230.673 73.6133 230.352 70.085 229.1 67.0403L239.21 63.4019C238.304 67.1686 240.005 71.4653 242.861 75.9966Z" fill="#A0616A"/>
<path d="M244.351 118.003L248.354 125.124C248.592 125.548 248.744 126.014 248.802 126.497C248.859 126.979 248.821 127.468 248.688 127.936C248.556 128.404 248.333 128.841 248.031 129.222C247.729 129.604 247.355 129.923 246.929 130.16C246.913 130.169 246.897 130.178 246.881 130.187C246.342 130.477 245.739 130.63 245.126 130.632C244.513 130.634 243.909 130.484 243.368 130.197C242.827 129.909 242.365 129.493 242.025 128.984C241.685 128.476 241.477 127.891 241.419 127.283L240.768 120.478L238.55 94.5022L234.768 77.4165L242.621 75.1946L246.277 94.408L244.351 118.003Z" fill="#A0616A"/>
<path d="M251.006 193.827L245.95 193.547L234.716 143.728L210.845 193.827L205.789 193.547L220.393 116.3L220.674 102.306L238.929 101.186C245.752 108.664 249.616 116.397 250.163 124.416L251.006 193.827Z" fill="#2F2E41"/>
<path d="M210.435 202.574C209.478 203.01 208.558 199.379 207.869 200.274C205.556 203.279 200.171 202.336 200.195 201.989C199.839 201.875 199.543 201.625 199.372 201.293C199.201 200.961 199.169 200.575 199.284 200.22C199.291 200.199 199.298 200.178 199.306 200.157C199.386 199.943 199.517 199.753 199.688 199.601C199.858 199.449 200.063 199.341 200.285 199.286L202.686 198.688L206.456 192.08L210.305 191.821C211.163 192.911 211.761 194.181 212.056 195.535C212.351 196.889 212.333 198.292 212.005 199.638C211.656 201.059 211.117 202.264 210.435 202.574Z" fill="#2F2E41"/>
<path d="M250.337 202.574C249.38 203.01 248.461 199.379 247.772 200.274C245.107 203.735 239.919 202.54 240.098 201.99C239.922 201.933 239.758 201.842 239.617 201.723C239.475 201.603 239.359 201.457 239.274 201.293C239.19 201.129 239.138 200.949 239.123 200.765C239.108 200.581 239.13 200.396 239.186 200.22C239.193 200.199 239.201 200.178 239.208 200.157C239.289 199.943 239.42 199.753 239.59 199.601C239.761 199.449 239.966 199.341 240.188 199.286L242.589 198.688L246.359 192.08L250.467 191.562L250.571 191.731C251.365 193.007 251.878 194.437 252.073 195.926C252.269 197.414 252.144 198.927 251.706 200.364C251.365 201.455 250.9 202.319 250.337 202.574Z" fill="#2F2E41"/>
<path d="M231.627 69.5593C236.436 69.5593 240.333 65.6747 240.333 60.8829C240.333 56.0911 236.436 52.2065 231.627 52.2065C226.819 52.2065 222.921 56.0911 222.921 60.8829C222.921 65.6747 226.819 69.5593 231.627 69.5593Z" fill="#A0616A"/>
<path d="M239.491 102.585L220.674 103.705L218.989 93.0694C217.245 88.2885 219.425 83.8966 222.921 79.635L230.223 71.5184L240.333 71.2385C241.694 71.6839 242.9 72.5058 243.81 73.6084C244.72 74.7109 245.296 76.0486 245.472 77.4653C246.2 83.4153 245.111 89.4461 242.345 94.7692L239.491 102.585Z" fill="#E6E6E6"/>
<path d="M218.989 126.375L220.336 134.426C220.416 134.906 220.4 135.396 220.29 135.869C220.181 136.343 219.978 136.79 219.695 137.185C219.411 137.581 219.052 137.917 218.639 138.174C218.225 138.431 217.765 138.605 217.284 138.684C217.266 138.687 217.248 138.69 217.23 138.693C216.623 138.785 216.004 138.725 215.426 138.52C214.849 138.315 214.331 137.97 213.92 137.517C213.509 137.064 213.216 136.516 213.069 135.923C212.922 135.33 212.925 134.71 213.077 134.118L214.777 127.495L221.517 102.305L223.764 84.9528L231.908 85.5125L228.819 104.824L218.989 126.375Z" fill="#A0616A"/>
<path d="M242.068 94.3288H241.866C238.069 91.0494 234.769 87.3732 237.434 82.7708C235.173 77.0535 232.654 71.1163 232.806 67.4432C232.966 64.7275 232.089 62.052 230.35 59.9543C227.949 57.1582 227.414 55.9095 223.027 56.9669C222.997 54.7701 223.843 52.6512 225.38 51.0763C226.917 49.5014 229.019 48.5994 231.223 48.5689C231.362 48.567 231.502 48.5685 231.641 48.5736L234.381 48.6729C236.478 48.7489 243.178 49.603 244.617 50.9818C245.346 51.7043 245.898 52.5851 246.23 53.5553C246.561 54.5255 246.663 55.5588 246.528 56.5748C246.259 58.8545 246.981 60.8674 248.909 62.5552C252.6 66.3594 254.123 70.3067 252.03 74.4924C250.45 78.9235 250.526 82.5709 254.601 84.3243C255.924 89.386 247.317 94.3288 242.068 94.3288Z" fill="#2F2E41"/>
<path d="M232.751 88.3114C229.265 85.6536 225.8 85.4437 222.359 88.0315L223.299 77.4035C223.273 75.9014 223.835 74.4484 224.866 73.3522C225.896 72.2561 227.315 71.6031 228.821 71.5317C229.581 71.4956 230.342 71.6092 231.058 71.8659C231.775 72.1226 232.434 72.5175 232.997 73.028C233.561 73.5384 234.018 74.1545 234.342 74.841C234.667 75.5275 234.852 76.271 234.889 77.029C234.894 77.1526 234.896 77.2763 234.894 77.4001L232.751 88.3114Z" fill="#E6E6E6"/>
<path d="M231.768 64.6612C232.388 64.6612 232.891 63.7214 232.891 62.5621C232.891 61.4028 232.388 60.463 231.768 60.463C231.147 60.463 230.644 61.4028 230.644 62.5621C230.644 63.7214 231.147 64.6612 231.768 64.6612Z" fill="#A0616A"/>
</g>
<defs>
<clipPath id="clip0_4_4437">
<rect width="270" height="204" fill="white"/>
</clipPath>
</defs>
</svg>
