<svg width="241" height="159" viewBox="0 0 241 159" fill="none" xmlns="http://www.w3.org/2000/svg">
<g clip-path="url(#clip0_4_4391)">
<path d="M177.02 151.484H171.842V101.257L183.609 101.022L177.02 151.484Z" fill="#FFB8B8"/>
<path d="M201.966 151.484H207.144V101.257L195.377 101.022L201.966 151.484Z" fill="#FFB8B8"/>
<path d="M174.59 158.47L163.574 158.369C163.046 158.499 162.496 158.508 161.965 158.394C161.433 158.281 160.935 158.048 160.507 157.714C160.079 157.38 159.733 156.954 159.495 156.466C159.257 155.979 159.134 155.444 159.134 154.902C159.134 154.23 159.324 153.571 159.683 153.002C160.042 152.433 160.555 151.976 161.162 151.684L163.675 150.479L171.842 144.912L177.726 146.555L178.853 151.612C179.181 153.084 178.918 154.625 178.122 155.907C177.325 157.188 176.058 158.108 174.59 158.47Z" fill="#2F2E41"/>
<path d="M204.243 158.408L193.227 158.307C192.7 158.437 192.149 158.446 191.618 158.332C191.087 158.219 190.588 157.986 190.16 157.652C189.732 157.318 189.386 156.891 189.148 156.404C188.911 155.917 188.787 155.382 188.787 154.84C188.787 154.168 188.977 153.509 189.336 152.939C189.695 152.37 190.208 151.913 190.816 151.622L193.328 150.416L201.495 144.85L207.379 146.493L208.506 151.55C208.834 153.022 208.571 154.563 207.775 155.844C206.979 157.126 205.711 158.046 204.243 158.408Z" fill="#2F2E41"/>
<path d="M208.55 109.489L192.329 108.045L190.194 89.0702L185.411 107.429L169.013 105.969C169.617 94.7269 170.918 85.3493 173.955 80.6209L208.315 74.5186L208.55 109.489Z" fill="#2F2E41"/>
<path d="M192.157 21.6144C196.997 21.6144 200.921 17.701 200.921 12.8736C200.921 8.0462 196.997 4.13281 192.157 4.13281C187.316 4.13281 183.392 8.0462 183.392 12.8736C183.392 17.701 187.316 21.6144 192.157 21.6144Z" fill="#FFB8B8"/>
<path d="M199.137 31.0984L183.839 29.2207C185.785 25.0877 186.663 21.2283 185.251 17.955H197.018C195.199 21.1925 196.826 25.9907 199.137 31.0984Z" fill="#FFB8B8"/>
<path d="M208.315 74.9879C197.551 82.859 185.804 85.5445 173.013 82.7331C180.774 65.0641 179.666 47.6496 173.013 30.3941L185.251 25.2306C188.683 28.5687 192.618 28.6413 197.018 25.7L209.021 28.2818C206.826 45.4959 206.09 61.4849 208.315 74.9879Z" fill="#3F3D56"/>
<path d="M185.691 5.24364L184.211 4.65274C184.211 4.65274 187.305 1.25508 191.611 1.55053L190.4 0.22099C190.4 0.22099 193.36 -0.960796 196.051 2.14141C197.465 3.77218 199.102 5.68905 200.122 7.84839H201.707L201.046 9.30102L203.361 10.7536L200.985 10.4927C201.21 11.7468 201.133 13.0363 200.76 14.2548L200.824 15.403C200.824 15.403 198.069 11.1526 198.069 10.5617V12.039C198.069 12.039 196.589 10.7094 196.589 9.82309L195.782 10.8572L195.378 9.23218L190.4 10.8572L191.207 9.52765L188.113 9.97083L189.324 8.34585C189.324 8.34585 185.825 10.2663 185.691 11.8913C185.556 13.5162 183.807 15.5844 183.807 15.5844L183 14.1071C183 14.1071 181.789 7.45951 185.691 5.24364Z" fill="#2F2E41"/>
<path d="M210.461 93.5713H157.303C156.764 93.5707 156.247 93.3569 155.866 92.9767C155.484 92.5965 155.27 92.0811 155.269 91.5435V83.432C155.27 82.8944 155.484 82.379 155.866 81.9988C156.247 81.6187 156.764 81.4048 157.303 81.4042H210.461C211 81.4048 211.517 81.6187 211.898 81.9988C212.28 82.379 212.494 82.8944 212.495 83.432V91.5435C212.494 92.0811 212.28 92.5965 211.898 92.9767C211.517 93.3568 211 93.5707 210.461 93.5713Z" fill="#C92225"/>
<path d="M165.25 85.7651C164.797 85.7727 164.365 85.9575 164.047 86.2797C163.73 86.6019 163.552 87.0357 163.552 87.4877C163.552 87.9396 163.73 88.3734 164.047 88.6956C164.365 89.0178 164.797 89.2027 165.25 89.2102H202.457C202.914 89.2163 203.355 89.0413 203.683 88.7237C204.011 88.4061 204.2 87.9718 204.207 87.5159C204.215 87.0599 204.041 86.6196 203.723 86.2915C203.406 85.9633 202.971 85.774 202.514 85.7651C202.495 85.7648 202.476 85.7648 202.457 85.7651H165.25Z" fill="white"/>
<path d="M178.426 79.4473L181.128 84.2509C181.448 84.8197 181.633 85.4541 181.669 86.1053C181.705 86.7565 181.59 87.4072 181.334 88.0073C181.078 88.6075 180.687 89.1411 180.192 89.5671C179.697 89.9932 179.111 90.3003 178.478 90.465C177.839 90.6312 177.17 90.6476 176.523 90.5128C175.876 90.378 175.27 90.0956 174.751 89.6878C174.232 89.28 173.815 88.758 173.532 88.1625C173.25 87.567 173.109 86.9144 173.122 86.2557L173.249 79.682C171.219 67.9968 169.571 56.9331 169.954 49.1704H179.368L177.485 58.0892L178.426 79.4473Z" fill="#FFB8B8"/>
<path d="M209.492 80.621L207.512 83.9107C207.189 84.4491 206.736 84.8991 206.195 85.2205C205.654 85.5419 205.042 85.7246 204.413 85.7523C203.784 85.78 203.158 85.6519 202.59 85.3794C202.023 85.1069 201.532 84.6985 201.162 84.1907C200.866 83.7848 200.654 83.3245 200.537 82.8363C200.42 82.3481 200.402 81.8417 200.482 81.3463C200.563 80.8509 200.741 80.3764 201.007 79.95C201.272 79.5236 201.62 79.1539 202.029 78.8622L205.491 76.3963L210.433 55.9771L207.374 47.5277L215.846 46.1195C219.824 55.2883 215.817 67.5112 209.492 80.621Z" fill="#FFB8B8"/>
<path d="M181.486 51.0482L169.013 50.344L169.87 37.0153C169.827 35.1285 170.422 33.2823 171.559 31.7738C172.696 30.2653 174.309 29.1824 176.138 28.6995L177.72 28.2819L181.486 51.0482Z" fill="#3F3D56"/>
<path d="M216.787 46.8235L205.255 49.6399V27.5778L205.731 27.5472C207.627 27.4252 209.503 27.9869 211.018 29.1297C212.533 30.2725 213.585 31.9203 213.983 33.7725L216.787 46.8235Z" fill="#3F3D56"/>
<path d="M241 158.421H64.9392V159H241V158.421Z" fill="#E6E6E6"/>
<path d="M7.73773 141.324C7.89534 147.195 8.88152 153.015 10.6672 158.612C10.708 158.742 10.7508 158.87 10.7936 159H21.7261C21.7145 158.884 21.7028 158.754 21.6911 158.612C20.9622 150.255 16.7594 99.3891 21.7844 90.6904C21.3451 91.3961 6.89019 114.768 7.73773 141.324Z" fill="#E6E6E6"/>
<path d="M8.55806 158.612C8.64943 158.742 8.74468 158.872 8.84186 159H17.0432C16.981 158.889 16.9091 158.76 16.8255 158.612C15.4706 156.173 11.4603 148.882 7.73774 141.324C3.73717 133.201 0.0670663 124.77 0.376152 121.718C0.280891 122.406 -2.48724 143.386 8.55806 158.612Z" fill="#E6E6E6"/>
<path d="M110.931 64.984H21.7522C21.2131 64.9834 20.6963 64.7695 20.3151 64.3894C19.9339 64.0092 19.7194 63.4938 19.7188 62.9562V13.4184C19.7194 12.8807 19.9339 12.3653 20.3151 11.9851C20.6963 11.605 21.2131 11.3911 21.7522 11.3905H110.931C111.47 11.3912 111.987 11.605 112.368 11.9852C112.749 12.3653 112.963 12.8807 112.964 13.4184V62.9562C112.963 63.4938 112.749 64.0092 112.368 64.3893C111.987 64.7695 111.47 64.9834 110.931 64.984Z" fill="#C92225"/>
<path d="M112.034 159H20.5315C20.1464 158.999 19.7772 158.847 19.5049 158.575C19.2327 158.304 19.0795 157.935 19.079 157.551V12.7112C19.0795 12.3271 19.2327 11.959 19.5049 11.6874C19.7772 11.4159 20.1464 11.2631 20.5315 11.2627H112.034C112.419 11.2631 112.788 11.4159 113.06 11.6874C113.333 11.959 113.486 12.3271 113.486 12.7112V157.551C113.486 157.935 113.333 158.304 113.06 158.575C112.788 158.847 112.419 158.999 112.034 159ZM20.5315 11.8421C20.3004 11.8423 20.0789 11.934 19.9155 12.0969C19.7522 12.2598 19.6603 12.4808 19.66 12.7112V157.551C19.6603 157.782 19.7522 158.003 19.9155 158.166C20.0789 158.329 20.3004 158.42 20.5315 158.421H112.034C112.265 158.42 112.486 158.329 112.65 158.166C112.813 158.003 112.905 157.782 112.905 157.551V12.7112C112.905 12.4808 112.813 12.2598 112.65 12.0969C112.486 11.934 112.265 11.8423 112.034 11.8421H20.5315Z" fill="#E6E6E6"/>
<path d="M31.3382 91.9256C33.1029 91.9256 34.5335 90.4989 34.5335 88.739C34.5335 86.9791 33.1029 85.5524 31.3382 85.5524C29.5734 85.5524 28.1429 86.9791 28.1429 88.739C28.1429 90.4989 29.5734 91.9256 31.3382 91.9256Z" fill="#E6E6E6"/>
<path d="M98.7303 94.8226H45.5718C45.0327 94.8219 44.5159 94.6081 44.1347 94.2279C43.7535 93.8478 43.5391 93.3323 43.5385 92.7947V84.6833C43.5391 84.1456 43.7535 83.6302 44.1347 83.25C44.5159 82.8699 45.0327 82.656 45.5718 82.6554H98.7303C99.2694 82.656 99.7862 82.8699 100.167 83.2501C100.549 83.6302 100.763 84.1456 100.764 84.6833V92.7947C100.763 93.3323 100.549 93.8477 100.167 94.2279C99.7862 94.6081 99.2694 94.8219 98.7303 94.8226Z" fill="#E6E6E6"/>
<path d="M100.764 95.1122H43.5385C43.4614 95.1122 43.3875 95.0817 43.3331 95.0274C43.2786 94.973 43.248 94.8994 43.248 94.8225C43.248 94.7457 43.2786 94.672 43.3331 94.6177C43.3875 94.5634 43.4614 94.5328 43.5385 94.5328H100.764C100.841 94.5328 100.915 94.5634 100.969 94.6177C101.024 94.672 101.054 94.7457 101.054 94.8225C101.054 94.8994 101.024 94.973 100.969 95.0274C100.915 95.0817 100.841 95.1122 100.764 95.1122Z" fill="#3F3D56"/>
<path d="M31.3382 111.046C33.1029 111.046 34.5335 109.619 34.5335 107.859C34.5335 106.099 33.1029 104.672 31.3382 104.672C29.5734 104.672 28.1429 106.099 28.1429 107.859C28.1429 109.619 29.5734 111.046 31.3382 111.046Z" fill="#E6E6E6"/>
<path d="M98.7303 113.942H45.5718C45.0327 113.942 44.5159 113.728 44.1347 113.348C43.7535 112.968 43.5391 112.452 43.5385 111.915V103.803C43.5391 103.266 43.7535 102.75 44.1347 102.37C44.5159 101.99 45.0327 101.776 45.5718 101.775H98.7303C99.2694 101.776 99.7862 101.99 100.167 102.37C100.549 102.75 100.763 103.266 100.764 103.803V111.915C100.763 112.452 100.549 112.968 100.167 113.348C99.7862 113.728 99.2694 113.942 98.7303 113.942Z" fill="#E6E6E6"/>
<path d="M100.764 114.232H43.5385C43.4614 114.232 43.3875 114.202 43.3331 114.147C43.2786 114.093 43.248 114.019 43.248 113.942C43.248 113.866 43.2786 113.792 43.3331 113.738C43.3875 113.683 43.4614 113.653 43.5385 113.653H100.764C100.841 113.653 100.915 113.683 100.969 113.738C101.024 113.792 101.054 113.866 101.054 113.942C101.054 114.019 101.024 114.093 100.969 114.147C100.915 114.202 100.841 114.232 100.764 114.232Z" fill="#3F3D56"/>
<path d="M31.3382 130.165C33.1029 130.165 34.5335 128.739 34.5335 126.979C34.5335 125.219 33.1029 123.792 31.3382 123.792C29.5734 123.792 28.1429 125.219 28.1429 126.979C28.1429 128.739 29.5734 130.165 31.3382 130.165Z" fill="#E6E6E6"/>
<path d="M67.6486 133.062H45.5718C45.0327 133.062 44.5159 132.848 44.1347 132.468C43.7535 132.088 43.5391 131.572 43.5385 131.034V122.923C43.5391 122.385 43.7535 121.87 44.1347 121.49C44.5159 121.11 45.0327 120.896 45.5718 120.895H67.6486C68.1877 120.896 68.7045 121.11 69.0857 121.49C69.4669 121.87 69.6813 122.385 69.682 122.923V131.034C69.6813 131.572 69.4669 132.088 69.0857 132.468C68.7045 132.848 68.1877 133.062 67.6486 133.062Z" fill="#E6E6E6"/>
<path d="M69.682 133.352H43.5385C43.4614 133.352 43.3875 133.321 43.3331 133.267C43.2786 133.213 43.248 133.139 43.248 133.062C43.248 132.985 43.2786 132.912 43.3331 132.857C43.3875 132.803 43.4614 132.773 43.5385 132.773H69.682C69.759 132.773 69.8329 132.803 69.8874 132.857C69.9419 132.912 69.9725 132.985 69.9725 133.062C69.9725 133.139 69.9419 133.213 69.8874 133.267C69.8329 133.321 69.759 133.352 69.682 133.352Z" fill="#3F3D56"/>
<path d="M98.7303 133.062H76.6536C76.1145 133.062 75.5977 132.848 75.2165 132.468C74.8353 132.088 74.6208 131.572 74.6202 131.034V122.923C74.6208 122.385 74.8353 121.87 75.2165 121.49C75.5977 121.11 76.1145 120.896 76.6536 120.895H98.7303C99.2694 120.896 99.7863 121.11 100.167 121.49C100.549 121.87 100.763 122.385 100.764 122.923V131.034C100.763 131.572 100.549 132.088 100.167 132.468C99.7863 132.848 99.2694 133.062 98.7303 133.062Z" fill="#E6E6E6"/>
<path d="M100.764 133.352H74.6202C74.5432 133.352 74.4693 133.321 74.4148 133.267C74.3603 133.213 74.3297 133.139 74.3297 133.062C74.3297 132.985 74.3603 132.912 74.4148 132.857C74.4693 132.803 74.5432 132.773 74.6202 132.773H100.764C100.841 132.773 100.915 132.803 100.969 132.857C101.024 132.912 101.054 132.985 101.054 133.062C101.054 133.139 101.024 133.213 100.969 133.267C100.915 133.321 100.841 133.352 100.764 133.352Z" fill="#3F3D56"/>
<path d="M31.4426 26.9048C30.9894 26.9122 30.5573 27.097 30.2395 27.4192C29.9217 27.7414 29.7436 28.1753 29.7436 28.6273C29.7436 29.0793 29.9217 29.5132 30.2395 29.8354C30.5573 30.1576 30.9894 30.3424 31.4426 30.3498H101.184C101.41 30.3538 101.636 30.3131 101.847 30.2301C102.058 30.1471 102.251 30.0234 102.414 29.866C102.578 29.7087 102.708 29.5208 102.799 29.3131C102.889 29.1054 102.937 28.882 102.941 28.6556C102.945 28.4293 102.904 28.2044 102.82 27.9938C102.737 27.7833 102.612 27.5912 102.455 27.4286C102.297 27.266 102.108 27.1361 101.9 27.0462C101.691 26.9563 101.467 26.9082 101.24 26.9048C101.221 26.9045 101.202 26.9045 101.184 26.9048H31.4426Z" fill="white"/>
<path d="M31.4426 36.4647C30.9894 36.4722 30.5573 36.6569 30.2395 36.9791C29.9217 37.3014 29.7436 37.7352 29.7436 38.1872C29.7436 38.6392 29.9217 39.0731 30.2395 39.3954C30.5573 39.7176 30.9894 39.9023 31.4426 39.9098H101.184C101.641 39.9168 102.083 39.7422 102.412 39.4246C102.741 39.1069 102.93 38.672 102.937 38.2155C102.945 37.759 102.77 37.3182 102.452 36.9899C102.134 36.6616 101.698 36.4727 101.24 36.4647C101.221 36.4644 101.202 36.4644 101.184 36.4647H31.4426Z" fill="white"/>
<path d="M31.4426 46.0247C30.9894 46.0321 30.5573 46.2168 30.2395 46.5391C29.9217 46.8613 29.7436 47.2952 29.7436 47.7472C29.7436 48.1992 29.9217 48.6331 30.2395 48.9553C30.5573 49.2775 30.9894 49.4623 31.4426 49.4697H101.184C101.641 49.4767 102.083 49.3022 102.412 48.9845C102.741 48.6668 102.93 48.232 102.937 47.7754C102.945 47.3189 102.77 46.8781 102.452 46.5498C102.134 46.2215 101.698 46.0327 101.24 46.0247C101.221 46.0243 101.202 46.0243 101.184 46.0247H31.4426Z" fill="white"/>
<path d="M98.0905 147.343L97.3594 146.614C97.3437 146.599 97.3249 146.586 97.3043 146.578C97.2837 146.569 97.2616 146.565 97.2393 146.565H96.8836C96.85 146.565 96.8172 146.575 96.7893 146.593C96.7613 146.612 96.7395 146.638 96.7267 146.669C96.7138 146.7 96.7105 146.734 96.717 146.767C96.7236 146.8 96.7398 146.83 96.7636 146.854L97.1682 147.257H93.9373C93.8603 147.257 93.7864 147.288 93.7319 147.342C93.6775 147.397 93.6469 147.47 93.6469 147.547C93.6469 147.624 93.6775 147.698 93.7319 147.752C93.7864 147.806 93.8603 147.837 93.9373 147.837H97.1682L96.8049 148.199C96.7777 148.226 96.7592 148.26 96.7517 148.298C96.7442 148.336 96.748 148.374 96.7627 148.41C96.7774 148.445 96.8023 148.475 96.8342 148.497C96.8661 148.518 96.9036 148.529 96.942 148.529H97.2293C97.2548 148.529 97.28 148.524 97.3036 148.515C97.3271 148.505 97.3485 148.491 97.3665 148.473L98.0904 147.751C98.1172 147.724 98.1385 147.692 98.153 147.657C98.1675 147.622 98.175 147.585 98.175 147.547C98.175 147.509 98.1675 147.472 98.153 147.437C98.1385 147.402 98.1173 147.37 98.0905 147.343Z" fill="#C92225"/>
<path d="M96.1161 152.182C95.1968 152.182 94.2982 151.91 93.5339 151.401C92.7696 150.892 92.1739 150.168 91.8221 149.321C91.4703 148.474 91.3783 147.542 91.5576 146.643C91.737 145.744 92.1796 144.918 92.8296 144.27C93.4796 143.621 94.3078 143.18 95.2093 143.001C96.1109 142.822 97.0454 142.914 97.8947 143.265C98.7439 143.616 99.4698 144.21 99.9805 144.972C100.491 145.734 100.764 146.63 100.764 147.547C100.762 148.776 100.272 149.954 99.401 150.823C98.5296 151.692 97.3483 152.181 96.1161 152.182ZM96.1161 143.491C95.3117 143.491 94.5255 143.729 93.8567 144.175C93.1879 144.621 92.6667 145.254 92.3589 145.995C92.0511 146.736 91.9705 147.552 92.1274 148.338C92.2844 149.125 92.6717 149.848 93.2404 150.415C93.8092 150.982 94.5338 151.368 95.3227 151.525C96.1116 151.681 96.9292 151.601 97.6724 151.294C98.4155 150.987 99.0506 150.467 99.4975 149.8C99.9443 149.133 100.183 148.349 100.183 147.547C100.182 146.472 99.7528 145.441 98.9904 144.681C98.228 143.92 97.1943 143.493 96.1161 143.491Z" fill="#3F3D56"/>
</g>
<defs>
<clipPath id="clip0_4_4391">
<rect width="241" height="159" fill="white"/>
</clipPath>
</defs>
</svg>
