<svg width="270" height="158" viewBox="0 0 270 158" fill="none" xmlns="http://www.w3.org/2000/svg">
<g clip-path="url(#clip0_4_4239)">
<path d="M88.9522 153.518H0V154.132H88.9522V153.518Z" fill="#3F3D56"/>
<path d="M56.147 49.4502C56.4043 50.2756 56.6323 51.0626 56.8242 51.7391L56.7045 51.782C56.5556 51.1551 56.3659 50.3432 56.147 49.4502ZM49.0046 29.3578L48.9685 29.3781L49.0023 29.3466L49.0046 29.3578Z" fill="url(#paint0_linear_4_4239)"/>
<path d="M40.2505 145.456C38.9073 145.887 37.8983 154.136 37.8983 154.136L46.2506 156.197C46.2506 156.197 52.1085 157.061 54.8919 156.197C57.6753 155.333 57.5805 152.936 53.5962 152.553C49.6119 152.17 46.7788 147.039 46.7788 147.039C46.7788 147.039 41.5936 145.026 40.2505 145.456Z" fill="#2F2E41"/>
<path d="M30.4489 147.134C30.4691 147.795 30.3586 148.453 30.1238 149.071C29.4507 151.093 29.1657 153.224 29.284 155.352C29.3021 155.606 29.3224 155.872 29.345 156.15C29.6339 159.458 37.6454 157.399 38.1781 157.014C38.7109 156.628 36.598 147.134 36.598 147.134C36.598 147.134 30.3157 145.792 30.4489 147.134Z" fill="#2F2E41"/>
<path d="M39.2188 26.9381C39.2209 26.9408 39.2224 26.9438 39.2233 26.9471C39.3926 27.362 45.6839 42.773 44.5462 37.733C44.5123 37.583 44.4897 37.4308 44.4785 37.2775C44.3814 36.0395 44.9661 34.6774 45.9074 33.3244C46.5074 32.4789 47.1739 31.6826 47.9007 30.943C48.2641 30.5665 48.6411 30.1989 49.0226 29.8426C50.07 28.8617 51.1604 27.9641 52.1265 27.2155C53.8625 25.8624 55.2033 25.0033 55.2033 25.0033C55.2033 25.0033 43.036 10.8326 43.8983 16.946C44.1354 18.6215 45.1241 20.2925 44.4537 21.844C44.0137 22.827 43.3901 23.7171 42.6161 24.4666C42.0051 25.0703 41.3393 25.6161 40.6274 26.097C40.3226 26.3022 40.0472 26.4736 39.8238 26.6044C39.4513 26.8231 39.2188 26.9381 39.2188 26.9381Z" fill="#FFB9B9"/>
<path d="M80.9399 45.2131C80.9399 45.2131 81.4185 44.947 82.1408 44.629C84.265 43.7045 88.5067 42.3514 89.0417 46.0768C89.7618 51.0739 84.9919 50.4989 84.9919 50.4989C84.049 50.1415 83.0829 49.8484 82.1002 49.6217C81.6171 49.4914 81.1127 49.4599 80.6171 49.5292L80.9399 45.2131Z" fill="#FFB9B9"/>
<path d="M80.213 49.9441H81.6487C82.4839 48.8166 81.8451 44.532 81.8451 44.532L80.5968 44.7575L80.213 49.9441Z" fill="#E6E6E6"/>
<path d="M54.5556 57.1783L54.7949 69.7884L56.375 75.735C56.375 75.735 57.1516 81.4898 58.1042 81.0095C59.0568 80.5292 63.1201 81.8958 63.1201 81.8958L63.312 79.7625L61.944 67.2245L60.8875 60.9667C60.8875 60.9667 60.2871 56.0507 59.8311 53.1733C59.3751 50.2959 55.5601 52.5757 55.5601 52.5757L54.5556 57.1783Z" fill="#2F2E41"/>
<path d="M59.1222 50.9227C61.716 50.1966 65.0637 50.9227 65.0637 50.9227L80.1882 51.2565C82.888 47.6958 81.0166 44.3516 81.0166 44.3516C81.0166 44.3516 73.5989 44.0607 67.5874 43.1632C61.576 42.2656 57.6165 37.8052 57.6165 37.8052L59.1222 50.9227Z" fill="#2F2E41"/>
<path opacity="0.1" d="M43.8984 16.9461C43.0361 10.8327 55.2034 25.0034 55.2034 25.0034C55.2034 25.0034 53.8625 25.8626 52.1266 27.2156C51.9663 27.2269 51.806 27.2269 51.6413 27.2269C47.9188 27.2269 45.3522 24.8997 43.8758 21.7426C44.4695 20.3377 44.1648 18.8178 43.8984 16.9461Z" fill="black"/>
<path d="M42.8735 18.8329C42.8775 16.631 43.7563 14.5208 45.3168 12.9657C46.8773 11.4106 48.9919 10.5379 51.196 10.5392C53.4002 10.5405 55.5138 11.4158 57.0724 12.9728C58.631 14.5298 59.5072 16.6411 59.5085 18.843C59.5099 21.0449 58.6363 23.1573 57.0796 24.7161C55.5229 26.275 53.4104 27.1529 51.2062 27.1569C49.002 27.1609 46.8864 26.2908 45.324 24.7376C43.7616 23.1844 42.8802 21.0752 42.8735 18.8733C42.8735 18.8599 42.8735 18.8464 42.8735 18.8329Z" fill="#FFB9B9"/>
<path d="M38.7719 54.5423L39.2233 26.9384L44.0474 29.4617L48.0497 30.4089L49.0633 29.818L49.1355 29.7752L49.3003 29.6805C49.3003 29.6805 49.3545 29.7977 49.4583 30.012C50.3342 31.8634 54.5962 40.9173 54.5059 41.6931C54.4111 42.5545 57.5465 53.4146 57.5465 53.4146L56.0341 63.7C56.0341 63.7 58.9033 70.844 58.1448 73.4824C57.3863 76.1208 36.6996 74.2964 36.6996 74.2964L38.7719 54.5423Z" fill="#E6E6E6"/>
<path d="M46.851 31.261L48.4583 33.3222L48.7179 33.9243C49.6257 36.0475 50.147 38.3155 50.2575 40.6217V43.2962L50.5938 64.7304L52.4426 68.025L52.7789 63.9479L52.0363 41.0028L51.0272 35.8162L50.4764 32.5307C50.1807 31.9568 49.9235 31.3639 49.7066 30.7559C49.1559 29.342 47.7382 29.7254 47.7382 29.7254L46.851 31.261Z" fill="#2F2E41"/>
<path d="M39.7764 26.4893L39.8238 26.6043L40.1601 27.4297L40.5394 28.352C40.9842 28.635 41.3987 28.963 41.7764 29.3307C43.0586 30.4807 44.9187 32.3299 45.9075 33.3243C46.3251 33.7438 46.5869 34.0099 46.5869 34.0099C47.0768 33.5747 47.5689 32.1202 47.9007 30.943C47.9549 30.7558 48.0023 30.5754 48.0475 30.4086C48.2145 29.7704 48.3161 29.3104 48.3161 29.3104C47.0587 28.8616 44.1241 25.9955 42.6162 24.4666C42.0051 25.0702 41.3394 25.616 40.6274 26.0969C40.5416 25.8579 39.7764 26.4893 39.7764 26.4893Z" fill="#E6E6E6"/>
<path d="M50.2755 30.3545C51.2169 30.9295 52.7474 31.6782 54.4449 31.7639C54.4449 31.7639 58.1222 33.7077 58.804 40.3601C59.4857 47.0125 62.3661 67.0079 62.3661 67.0079C62.3661 67.0079 64.9305 80.4908 63.1246 81.8912L61.1088 65.3866C61.1088 65.3866 57.5805 55.8545 57.3254 54.0911C57.0996 52.4855 54.2937 43.7066 53.8016 42.1687C53.7519 42.0243 53.7271 41.9432 53.7271 41.9432L50.9212 34.0167L49.3004 29.678C49.6098 29.9251 49.9356 30.1512 50.2755 30.3545Z" fill="#2F2E41"/>
<path d="M30.1238 120.955C30.1238 120.955 32.9545 101.436 32.187 98.8019C31.4195 96.168 32.7153 76.7025 32.7153 76.7025L33.1419 73.0516L33.3812 70.9928L33.4828 70.1313L33.9772 70.2824C38.7483 71.6708 43.6489 72.5685 48.6028 72.9614C49.7008 73.036 50.8038 72.9478 51.876 72.6998C53.8354 72.2534 57.6233 71.7054 58.2847 71.2363C58.2847 71.2363 58.5105 71.8429 58.7926 72.8352C59.4428 75.1285 60.4225 79.5123 59.6685 83.2467L58.515 90.7988C58.515 90.7988 58.0613 98.4952 56.5714 103.1L55.2531 109.38L53.5239 122.182C52.6702 125.593 52.0525 129.059 51.6751 132.555C51.0453 138.36 47.4492 147.989 47.4492 147.989C47.4492 147.989 39.8057 149.044 39.58 146.455L42.2211 126.266L44.6681 97.3519C44.6681 97.3519 42.0157 115.392 40.492 119.278C40.492 119.278 38.3791 141.424 37.6589 144.836C36.9388 148.248 36.4603 149.15 36.4603 149.15C36.4603 149.15 31.9951 150.783 29.9793 147.761C29.9793 147.761 29.4037 138.797 28.9725 135.584C28.5391 132.366 30.1238 120.955 30.1238 120.955Z" fill="#2F2E41"/>
<path d="M33.6341 77.2686L36.7944 78.8042L33.0268 85.9008C31.6114 84.5817 31.7785 79.3319 31.7785 79.3319L33.6341 77.2686Z" fill="#FFB9B9"/>
<path d="M34.9931 77.2686L36.4332 78.3959L34.5144 81.2981L31.8982 82.2565L31.6814 80.3375L34.9931 77.2686Z" fill="#E6E6E6"/>
<g opacity="0.1">
<path opacity="0.1" d="M58.287 71.2633C58.2795 71.2535 58.2748 71.2418 58.2734 71.2295C58.2328 71.2561 58.1906 71.2802 58.147 71.3017L58.287 71.2633Z" fill="black"/>
</g>
<path d="M22.697 81.2486C24.4239 83.2623 31.9523 83.6231 31.9523 83.6231L37.8192 74.3865L39.4017 71.8969C39.4017 71.8969 41.1647 70.6747 44.4785 65.1702C47.7924 59.6656 47.6795 55.4261 47.4967 52.26C47.3138 49.094 45.2393 39.9949 45.2393 39.9949C45.036 39.0758 44.7821 38.1686 44.4785 37.2775C43.7584 35.009 42.6681 31.8564 41.7765 29.3308C41.6162 28.8753 41.4627 28.44 41.3159 28.0341C41.0451 27.2629 42.4221 24.3246 42.4221 24.3246C41.9367 25.2965 38.8802 26.8953 37.817 27.5651C34.9501 29.3691 30.9478 30.1088 30.9478 30.1088C24.5029 31.0446 25.6926 37.697 25.6926 37.697C25.6926 37.697 25.6203 63.5555 26.0176 66.6495C26.4149 69.7434 22.697 81.2486 22.697 81.2486Z" fill="#2F2E41"/>
<path opacity="0.1" d="M25.9725 37.6946C25.9725 37.6946 23.2365 49.5651 22.4803 56.9008C21.7241 64.2364 24.5684 68.9111 24.5684 68.9111L30.652 82.3985C32.7401 81.8618 36.9885 77.4374 36.9885 77.4374L30.8936 60.5697C30.8936 60.5697 33.1532 52.0524 34.5663 44.2072C35.9795 36.3619 32.2345 32.8417 32.2345 32.8417C25.9702 30.4694 25.9725 37.6946 25.9725 37.6946Z" fill="black"/>
<path d="M25.6835 37.6946C25.6835 37.6946 22.9476 49.5651 22.1913 56.9008C21.4351 64.2364 24.2794 68.9111 24.2794 68.9111L30.3744 82.3985C32.4625 81.8618 36.7109 77.4374 36.7109 77.4374L30.6159 60.5697C30.6159 60.5697 32.8778 52.0524 34.2864 44.2072C35.695 36.3619 31.9478 32.8417 31.9478 32.8417C25.6835 30.4694 25.6835 37.6946 25.6835 37.6946Z" fill="#2F2E41"/>
<path d="M37.7064 79.5709L36.0269 84.3674L34.1555 86.9314C34.1555 86.9314 32.7537 87.8672 32.4038 86.1173C32.0539 84.3674 36.7944 77.7962 36.7944 77.7962C37.5438 77.5008 37.7064 79.5709 37.7064 79.5709Z" fill="#2F2E41"/>
<path d="M43.4953 23.3309C43.4953 23.3309 34.8048 11.4341 45.7484 8.86184C45.7484 8.86184 48.8573 4.20332 52.6773 6.49459C54.5521 7.5935 56.6911 8.16176 58.8647 8.13838C60.7154 8.13838 62.4857 8.86184 62.1638 11.7557C61.5201 17.5433 57.9795 16.5787 57.9795 16.5787C57.9795 16.5787 48.3778 12.2813 48.0559 17.1043C47.7341 21.9273 43.4953 23.3309 43.4953 23.3309Z" fill="#2F2E41"/>
<path d="M145.852 3.73685C146.885 3.73685 147.722 2.90033 147.722 1.86843C147.722 0.836523 146.885 0 145.852 0C144.819 0 143.981 0.836523 143.981 1.86843C143.981 2.90033 144.819 3.73685 145.852 3.73685Z" fill="#E6E6E6"/>
<path d="M155.32 3.73685C156.353 3.73685 157.19 2.90033 157.19 1.86843C157.19 0.836523 156.353 0 155.32 0C154.287 0 153.449 0.836523 153.449 1.86843C153.449 2.90033 154.287 3.73685 155.32 3.73685Z" fill="#E6E6E6"/>
<path d="M164.787 3.73685C165.82 3.73685 166.658 2.90033 166.658 1.86843C166.658 0.836523 165.82 0 164.787 0C163.754 0 162.917 0.836523 162.917 1.86843C162.917 2.90033 163.754 3.73685 164.787 3.73685Z" fill="#E6E6E6"/>
<path d="M174.255 3.73685C175.288 3.73685 176.126 2.90033 176.126 1.86843C176.126 0.836523 175.288 0 174.255 0C173.222 0 172.385 0.836523 172.385 1.86843C172.385 2.90033 173.222 3.73685 174.255 3.73685Z" fill="#E6E6E6"/>
<path d="M183.723 3.73685C184.756 3.73685 185.593 2.90033 185.593 1.86843C185.593 0.836523 184.756 0 183.723 0C182.69 0 181.853 0.836523 181.853 1.86843C181.853 2.90033 182.69 3.73685 183.723 3.73685Z" fill="#E6E6E6"/>
<path d="M145.852 13.3135C146.885 13.3135 147.722 12.477 147.722 11.4451C147.722 10.4132 146.885 9.57666 145.852 9.57666C144.819 9.57666 143.981 10.4132 143.981 11.4451C143.981 12.477 144.819 13.3135 145.852 13.3135Z" fill="#E6E6E6"/>
<path d="M155.32 13.3135C156.353 13.3135 157.19 12.477 157.19 11.4451C157.19 10.4132 156.353 9.57666 155.32 9.57666C154.287 9.57666 153.449 10.4132 153.449 11.4451C153.449 12.477 154.287 13.3135 155.32 13.3135Z" fill="#E6E6E6"/>
<path d="M164.787 13.3135C165.82 13.3135 166.658 12.477 166.658 11.4451C166.658 10.4132 165.82 9.57666 164.787 9.57666C163.754 9.57666 162.917 10.4132 162.917 11.4451C162.917 12.477 163.754 13.3135 164.787 13.3135Z" fill="#E6E6E6"/>
<path d="M174.255 13.3135C175.288 13.3135 176.126 12.477 176.126 11.4451C176.126 10.4132 175.288 9.57666 174.255 9.57666C173.222 9.57666 172.385 10.4132 172.385 11.4451C172.385 12.477 173.222 13.3135 174.255 13.3135Z" fill="#C92225"/>
<path d="M183.723 13.3135C184.756 13.3135 185.593 12.477 185.593 11.4451C185.593 10.4132 184.756 9.57666 183.723 9.57666C182.69 9.57666 181.853 10.4132 181.853 11.4451C181.853 12.477 182.69 13.3135 183.723 13.3135Z" fill="#E6E6E6"/>
<path d="M202.659 13.3135C203.692 13.3135 204.529 12.477 204.529 11.4451C204.529 10.4132 203.692 9.57666 202.659 9.57666C201.626 9.57666 200.788 10.4132 200.788 11.4451C200.788 12.477 201.626 13.3135 202.659 13.3135Z" fill="#E6E6E6"/>
<path d="M145.852 22.8903C146.885 22.8903 147.722 22.0538 147.722 21.0219C147.722 19.99 146.885 19.1534 145.852 19.1534C144.819 19.1534 143.981 19.99 143.981 21.0219C143.981 22.0538 144.819 22.8903 145.852 22.8903Z" fill="#E6E6E6"/>
<path d="M155.32 22.8903C156.353 22.8903 157.19 22.0538 157.19 21.0219C157.19 19.99 156.353 19.1534 155.32 19.1534C154.287 19.1534 153.449 19.99 153.449 21.0219C153.449 22.0538 154.287 22.8903 155.32 22.8903Z" fill="#E6E6E6"/>
<path d="M164.787 22.8903C165.82 22.8903 166.658 22.0538 166.658 21.0219C166.658 19.99 165.82 19.1534 164.787 19.1534C163.754 19.1534 162.917 19.99 162.917 21.0219C162.917 22.0538 163.754 22.8903 164.787 22.8903Z" fill="#E6E6E6"/>
<path d="M174.255 22.8903C175.288 22.8903 176.126 22.0538 176.126 21.0219C176.126 19.99 175.288 19.1534 174.255 19.1534C173.222 19.1534 172.385 19.99 172.385 21.0219C172.385 22.0538 173.222 22.8903 174.255 22.8903Z" fill="#E6E6E6"/>
<path d="M183.723 22.8903C184.756 22.8903 185.593 22.0538 185.593 21.0219C185.593 19.99 184.756 19.1534 183.723 19.1534C182.69 19.1534 181.853 19.99 181.853 21.0219C181.853 22.0538 182.69 22.8903 183.723 22.8903Z" fill="#E6E6E6"/>
<path d="M145.852 32.467C146.885 32.467 147.722 31.6304 147.722 30.5985C147.722 29.5666 146.885 28.7301 145.852 28.7301C144.819 28.7301 143.981 29.5666 143.981 30.5985C143.981 31.6304 144.819 32.467 145.852 32.467Z" fill="#E6E6E6"/>
<path d="M155.32 32.467C156.353 32.467 157.19 31.6304 157.19 30.5985C157.19 29.5666 156.353 28.7301 155.32 28.7301C154.287 28.7301 153.449 29.5666 153.449 30.5985C153.449 31.6304 154.287 32.467 155.32 32.467Z" fill="#E6E6E6"/>
<path d="M164.787 32.467C165.82 32.467 166.658 31.6304 166.658 30.5985C166.658 29.5666 165.82 28.7301 164.787 28.7301C163.754 28.7301 162.917 29.5666 162.917 30.5985C162.917 31.6304 163.754 32.467 164.787 32.467Z" fill="#E6E6E6"/>
<path d="M174.255 32.467C175.288 32.467 176.126 31.6304 176.126 30.5985C176.126 29.5666 175.288 28.7301 174.255 28.7301C173.222 28.7301 172.385 29.5666 172.385 30.5985C172.385 31.6304 173.222 32.467 174.255 32.467Z" fill="#E6E6E6"/>
<path d="M183.723 32.467C184.756 32.467 185.593 31.6304 185.593 30.5985C185.593 29.5666 184.756 28.7301 183.723 28.7301C182.69 28.7301 181.853 29.5666 181.853 30.5985C181.853 31.6304 182.69 32.467 183.723 32.467Z" fill="#E6E6E6"/>
<path d="M193.191 32.467C194.224 32.467 195.061 31.6304 195.061 30.5985C195.061 29.5666 194.224 28.7301 193.191 28.7301C192.158 28.7301 191.32 29.5666 191.32 30.5985C191.32 31.6304 192.158 32.467 193.191 32.467Z" fill="#E6E6E6"/>
<path d="M202.659 32.467C203.692 32.467 204.529 31.6304 204.529 30.5985C204.529 29.5666 203.692 28.7301 202.659 28.7301C201.626 28.7301 200.788 29.5666 200.788 30.5985C200.788 31.6304 201.626 32.467 202.659 32.467Z" fill="#E6E6E6"/>
<path d="M212.126 32.467C213.159 32.467 213.997 31.6304 213.997 30.5985C213.997 29.5666 213.159 28.7301 212.126 28.7301C211.093 28.7301 210.256 29.5666 210.256 30.5985C210.256 31.6304 211.093 32.467 212.126 32.467Z" fill="#E6E6E6"/>
<path d="M221.594 32.467C222.627 32.467 223.465 31.6304 223.465 30.5985C223.465 29.5666 222.627 28.7301 221.594 28.7301C220.561 28.7301 219.724 29.5666 219.724 30.5985C219.724 31.6304 220.561 32.467 221.594 32.467Z" fill="#E6E6E6"/>
<path d="M231.062 32.467C232.095 32.467 232.932 31.6304 232.932 30.5985C232.932 29.5666 232.095 28.7301 231.062 28.7301C230.029 28.7301 229.192 29.5666 229.192 30.5985C229.192 31.6304 230.029 32.467 231.062 32.467Z" fill="#E6E6E6"/>
<path d="M183.723 42.0436C184.756 42.0436 185.593 41.2071 185.593 40.1752C185.593 39.1433 184.756 38.3068 183.723 38.3068C182.69 38.3068 181.853 39.1433 181.853 40.1752C181.853 41.2071 182.69 42.0436 183.723 42.0436Z" fill="#E6E6E6"/>
<path d="M193.191 42.0436C194.224 42.0436 195.061 41.2071 195.061 40.1752C195.061 39.1433 194.224 38.3068 193.191 38.3068C192.158 38.3068 191.32 39.1433 191.32 40.1752C191.32 41.2071 192.158 42.0436 193.191 42.0436Z" fill="#C92225"/>
<path d="M202.659 42.0436C203.692 42.0436 204.529 41.2071 204.529 40.1752C204.529 39.1433 203.692 38.3068 202.659 38.3068C201.626 38.3068 200.788 39.1433 200.788 40.1752C200.788 41.2071 201.626 42.0436 202.659 42.0436Z" fill="#E6E6E6"/>
<path d="M212.126 42.0436C213.159 42.0436 213.997 41.2071 213.997 40.1752C213.997 39.1433 213.159 38.3068 212.126 38.3068C211.093 38.3068 210.256 39.1433 210.256 40.1752C210.256 41.2071 211.093 42.0436 212.126 42.0436Z" fill="#E6E6E6"/>
<path d="M221.594 42.0436C222.627 42.0436 223.465 41.2071 223.465 40.1752C223.465 39.1433 222.627 38.3068 221.594 38.3068C220.561 38.3068 219.724 39.1433 219.724 40.1752C219.724 41.2071 220.561 42.0436 221.594 42.0436Z" fill="#E6E6E6"/>
<path d="M231.062 42.0436C232.095 42.0436 232.932 41.2071 232.932 40.1752C232.932 39.1433 232.095 38.3068 231.062 38.3068C230.029 38.3068 229.192 39.1433 229.192 40.1752C229.192 41.2071 230.029 42.0436 231.062 42.0436Z" fill="#E6E6E6"/>
<path d="M183.723 51.6202C184.756 51.6202 185.593 50.7836 185.593 49.7517C185.593 48.7198 184.756 47.8833 183.723 47.8833C182.69 47.8833 181.853 48.7198 181.853 49.7517C181.853 50.7836 182.69 51.6202 183.723 51.6202Z" fill="#E6E6E6"/>
<path d="M193.191 51.6202C194.224 51.6202 195.061 50.7836 195.061 49.7517C195.061 48.7198 194.224 47.8833 193.191 47.8833C192.158 47.8833 191.32 48.7198 191.32 49.7517C191.32 50.7836 192.158 51.6202 193.191 51.6202Z" fill="#E6E6E6"/>
<path d="M202.659 51.6202C203.692 51.6202 204.529 50.7836 204.529 49.7517C204.529 48.7198 203.692 47.8833 202.659 47.8833C201.626 47.8833 200.788 48.7198 200.788 49.7517C200.788 50.7836 201.626 51.6202 202.659 51.6202Z" fill="#E6E6E6"/>
<path d="M212.126 51.6202C213.159 51.6202 213.997 50.7836 213.997 49.7517C213.997 48.7198 213.159 47.8833 212.126 47.8833C211.093 47.8833 210.256 48.7198 210.256 49.7517C210.256 50.7836 211.093 51.6202 212.126 51.6202Z" fill="#E6E6E6"/>
<path d="M221.594 51.6202C222.627 51.6202 223.465 50.7836 223.465 49.7517C223.465 48.7198 222.627 47.8833 221.594 47.8833C220.561 47.8833 219.724 48.7198 219.724 49.7517C219.724 50.7836 220.561 51.6202 221.594 51.6202Z" fill="#C92225"/>
<path d="M231.062 51.6202C232.095 51.6202 232.932 50.7836 232.932 49.7517C232.932 48.7198 232.095 47.8833 231.062 47.8833C230.029 47.8833 229.192 48.7198 229.192 49.7517C229.192 50.7836 230.029 51.6202 231.062 51.6202Z" fill="#E6E6E6"/>
<path d="M183.723 61.1968C184.756 61.1968 185.593 60.3603 185.593 59.3284C185.593 58.2965 184.756 57.46 183.723 57.46C182.69 57.46 181.853 58.2965 181.853 59.3284C181.853 60.3603 182.69 61.1968 183.723 61.1968Z" fill="#E6E6E6"/>
<path d="M193.191 61.1968C194.224 61.1968 195.061 60.3603 195.061 59.3284C195.061 58.2965 194.224 57.46 193.191 57.46C192.158 57.46 191.32 58.2965 191.32 59.3284C191.32 60.3603 192.158 61.1968 193.191 61.1968Z" fill="#E6E6E6"/>
<path d="M202.659 61.1968C203.692 61.1968 204.529 60.3603 204.529 59.3284C204.529 58.2965 203.692 57.46 202.659 57.46C201.626 57.46 200.788 58.2965 200.788 59.3284C200.788 60.3603 201.626 61.1968 202.659 61.1968Z" fill="#E6E6E6"/>
<path d="M212.126 61.1968C213.159 61.1968 213.997 60.3603 213.997 59.3284C213.997 58.2965 213.159 57.46 212.126 57.46C211.093 57.46 210.256 58.2965 210.256 59.3284C210.256 60.3603 211.093 61.1968 212.126 61.1968Z" fill="#E6E6E6"/>
<path d="M221.594 61.1968C222.627 61.1968 223.465 60.3603 223.465 59.3284C223.465 58.2965 222.627 57.46 221.594 57.46C220.561 57.46 219.724 58.2965 219.724 59.3284C219.724 60.3603 220.561 61.1968 221.594 61.1968Z" fill="#E6E6E6"/>
<path d="M231.062 61.1968C232.095 61.1968 232.932 60.3603 232.932 59.3284C232.932 58.2965 232.095 57.46 231.062 57.46C230.029 57.46 229.192 58.2965 229.192 59.3284C229.192 60.3603 230.029 61.1968 231.062 61.1968Z" fill="#E6E6E6"/>
<path d="M145.852 70.7735C146.885 70.7735 147.722 69.937 147.722 68.905C147.722 67.8731 146.885 67.0366 145.852 67.0366C144.819 67.0366 143.981 67.8731 143.981 68.905C143.981 69.937 144.819 70.7735 145.852 70.7735Z" fill="#E6E6E6"/>
<path d="M155.32 70.7735C156.353 70.7735 157.19 69.937 157.19 68.905C157.19 67.8731 156.353 67.0366 155.32 67.0366C154.287 67.0366 153.449 67.8731 153.449 68.905C153.449 69.937 154.287 70.7735 155.32 70.7735Z" fill="#E6E6E6"/>
<path d="M164.787 70.7735C165.82 70.7735 166.658 69.937 166.658 68.905C166.658 67.8731 165.82 67.0366 164.787 67.0366C163.754 67.0366 162.917 67.8731 162.917 68.905C162.917 69.937 163.754 70.7735 164.787 70.7735Z" fill="#E6E6E6"/>
<path d="M174.255 70.7735C175.288 70.7735 176.126 69.937 176.126 68.905C176.126 67.8731 175.288 67.0366 174.255 67.0366C173.222 67.0366 172.385 67.8731 172.385 68.905C172.385 69.937 173.222 70.7735 174.255 70.7735Z" fill="#E6E6E6"/>
<path d="M183.723 70.7735C184.756 70.7735 185.593 69.937 185.593 68.905C185.593 67.8731 184.756 67.0366 183.723 67.0366C182.69 67.0366 181.853 67.8731 181.853 68.905C181.853 69.937 182.69 70.7735 183.723 70.7735Z" fill="#E6E6E6"/>
<path d="M193.191 70.7735C194.224 70.7735 195.061 69.937 195.061 68.905C195.061 67.8731 194.224 67.0366 193.191 67.0366C192.158 67.0366 191.32 67.8731 191.32 68.905C191.32 69.937 192.158 70.7735 193.191 70.7735Z" fill="#E6E6E6"/>
<path d="M202.659 70.7735C203.692 70.7735 204.529 69.937 204.529 68.905C204.529 67.8731 203.692 67.0366 202.659 67.0366C201.626 67.0366 200.788 67.8731 200.788 68.905C200.788 69.937 201.626 70.7735 202.659 70.7735Z" fill="#E6E6E6"/>
<path d="M212.126 70.7735C213.159 70.7735 213.997 69.937 213.997 68.905C213.997 67.8731 213.159 67.0366 212.126 67.0366C211.093 67.0366 210.256 67.8731 210.256 68.905C210.256 69.937 211.093 70.7735 212.126 70.7735Z" fill="#E6E6E6"/>
<path d="M221.594 70.7737C222.627 70.7737 223.465 69.9372 223.465 68.9053C223.465 67.8734 222.627 67.0369 221.594 67.0369C220.561 67.0369 219.724 67.8734 219.724 68.9053C219.724 69.9372 220.561 70.7737 221.594 70.7737Z" fill="#E6E6E6"/>
<path d="M231.062 70.7737C232.095 70.7737 232.932 69.9372 232.932 68.9053C232.932 67.8734 232.095 67.0369 231.062 67.0369C230.029 67.0369 229.192 67.8734 229.192 68.9053C229.192 69.9372 230.029 70.7737 231.062 70.7737Z" fill="#E6E6E6"/>
<path d="M147.721 78.4889C147.725 77.457 146.891 76.6171 145.858 76.6129C144.825 76.6087 143.985 77.4419 143.98 78.4738C143.976 79.5056 144.81 80.3456 145.843 80.3497C146.876 80.3539 147.717 79.5208 147.721 78.4889Z" fill="#E6E6E6"/>
<path d="M155.32 80.3503C156.353 80.3503 157.19 79.5137 157.19 78.4818C157.19 77.4499 156.353 76.6134 155.32 76.6134C154.287 76.6134 153.449 77.4499 153.449 78.4818C153.449 79.5137 154.287 80.3503 155.32 80.3503Z" fill="#E6E6E6"/>
<path d="M147.721 88.0657C147.725 87.0338 146.891 86.1939 145.858 86.1897C144.825 86.1855 143.985 87.0186 143.98 88.0505C143.976 89.0824 144.81 89.9223 145.843 89.9265C146.876 89.9307 147.717 89.0976 147.721 88.0657Z" fill="#E6E6E6"/>
<path d="M155.32 89.9269C156.353 89.9269 157.19 89.0904 157.19 88.0585C157.19 87.0266 156.353 86.1901 155.32 86.1901C154.287 86.1901 153.449 87.0266 153.449 88.0585C153.449 89.0904 154.287 89.9269 155.32 89.9269Z" fill="#E6E6E6"/>
<path d="M174.255 89.9269C175.288 89.9269 176.126 89.0904 176.126 88.0585C176.126 87.0266 175.288 86.1901 174.255 86.1901C173.222 86.1901 172.385 87.0266 172.385 88.0585C172.385 89.0904 173.222 89.9269 174.255 89.9269Z" fill="#E6E6E6"/>
<path d="M268.627 22.0438H194.508C194.144 22.0433 193.795 21.8987 193.538 21.6417C193.28 21.3846 193.136 21.0361 193.135 20.6726V2.30585C193.136 1.94232 193.28 1.59381 193.538 1.33676C193.795 1.07971 194.144 0.935119 194.508 0.934692H268.627C268.991 0.935119 269.34 1.07971 269.598 1.33676C269.855 1.59381 270 1.94232 270 2.30585V20.6726C270 21.0361 269.855 21.3846 269.598 21.6417C269.34 21.8987 268.991 22.0433 268.627 22.0438ZM194.508 1.48315C194.29 1.48339 194.08 1.57014 193.926 1.72438C193.771 1.87861 193.685 2.08773 193.684 2.30585V20.6726C193.685 20.8907 193.771 21.0998 193.926 21.2541C194.08 21.4083 194.29 21.4951 194.508 21.4953H268.627C268.846 21.4951 269.055 21.4083 269.209 21.2541C269.364 21.0998 269.451 20.8907 269.451 20.6726V2.30585C269.451 2.08773 269.364 1.87861 269.209 1.72438C269.055 1.57014 268.846 1.48339 268.627 1.48315H194.508Z" fill="#E6E6E6"/>
<path d="M204.116 17.248C207.3 17.248 209.881 14.6697 209.881 11.4892C209.881 8.30867 207.3 5.73035 204.116 5.73035C200.932 5.73035 198.351 8.30867 198.351 11.4892C198.351 14.6697 200.932 17.248 204.116 17.248Z" fill="#C92225"/>
<path d="M217.43 7.64978C217.175 7.64978 216.931 7.7509 216.751 7.9309C216.57 8.1109 216.469 8.35503 216.469 8.60959C216.469 8.86414 216.57 9.10828 216.751 9.28828C216.931 9.46828 217.175 9.5694 217.43 9.5694H242.96C243.215 9.5694 243.459 9.46828 243.639 9.28828C243.82 9.10828 243.921 8.86414 243.921 8.60959C243.921 8.35503 243.82 8.1109 243.639 7.9309C243.459 7.7509 243.215 7.64978 242.96 7.64978H217.43Z" fill="#E6E6E6"/>
<path d="M217.43 13.4087C217.175 13.4087 216.931 13.5098 216.751 13.6898C216.57 13.8698 216.469 14.1139 216.469 14.3685C216.469 14.6231 216.57 14.8672 216.751 15.0472C216.931 15.2272 217.175 15.3283 217.43 15.3283H262.725C262.98 15.3283 263.224 15.2272 263.405 15.0472C263.585 14.8672 263.686 14.6231 263.686 14.3685C263.686 14.1139 263.585 13.8698 263.405 13.6898C263.224 13.5098 262.98 13.4087 262.725 13.4087H217.43Z" fill="#E6E6E6"/>
<path d="M173.37 59.339H99.2508C98.8869 59.3386 98.538 59.194 98.2807 58.937C98.0233 58.6799 97.8786 58.3314 97.8782 57.9679V39.6011C97.8786 39.2376 98.0233 38.8891 98.2807 38.6321C98.538 38.375 98.8869 38.2304 99.2508 38.23H173.37C173.734 38.2304 174.083 38.375 174.34 38.6321C174.598 38.8891 174.742 39.2376 174.743 39.6011V57.9679C174.742 58.3314 174.598 58.6799 174.34 58.937C174.083 59.194 173.734 59.3386 173.37 59.339ZM99.2508 38.7784C99.0324 38.7787 98.8231 38.8654 98.6687 39.0197C98.5143 39.1739 98.4274 39.383 98.4272 39.6011V57.9679C98.4274 58.186 98.5143 58.3951 98.6687 58.5494C98.8231 58.7036 99.0324 58.7903 99.2508 58.7906H173.37C173.589 58.7903 173.798 58.7036 173.952 58.5494C174.107 58.3951 174.194 58.186 174.194 57.9679V39.6011C174.194 39.383 174.107 39.1739 173.952 39.0197C173.798 38.8654 173.589 38.7787 173.37 38.7784H99.2508Z" fill="#3F3D56"/>
<path d="M108.859 54.5434C112.043 54.5434 114.624 51.9651 114.624 48.7846C114.624 45.6041 112.043 43.0258 108.859 43.0258C105.675 43.0258 103.094 45.6041 103.094 48.7846C103.094 51.9651 105.675 54.5434 108.859 54.5434Z" fill="#C92225"/>
<path d="M122.173 44.9452C121.918 44.9452 121.674 45.0463 121.493 45.2263C121.313 45.4063 121.212 45.6504 121.212 45.905C121.212 46.1596 121.313 46.4037 121.493 46.5837C121.674 46.7637 121.918 46.8648 122.173 46.8648H148.801C149.056 46.8648 149.3 46.7637 149.48 46.5837C149.66 46.4037 149.762 46.1596 149.762 45.905C149.762 45.6504 149.66 45.4063 149.48 45.2263C149.3 45.0463 149.056 44.9452 148.801 44.9452H122.173Z" fill="#E6E6E6"/>
<path d="M122.173 50.704C121.918 50.704 121.674 50.8051 121.493 50.9851C121.313 51.1651 121.212 51.4092 121.212 51.6638C121.212 51.9183 121.313 52.1625 121.493 52.3425C121.674 52.5225 121.918 52.6236 122.173 52.6236H167.468C167.723 52.6236 167.967 52.5225 168.147 52.3425C168.328 52.1625 168.429 51.9183 168.429 51.6638C168.429 51.4092 168.328 51.1651 168.147 50.9851C167.967 50.8051 167.723 50.704 167.468 50.704H122.173Z" fill="#E6E6E6"/>
<path d="M240.352 99.651H166.233C165.869 99.6505 165.52 99.5059 165.263 99.2489C165.005 98.9918 164.861 98.6433 164.86 98.2798V79.913C164.861 79.5495 165.005 79.201 165.263 78.9439C165.52 78.6869 165.869 78.5423 166.233 78.5419H240.352C240.716 78.5423 241.065 78.6869 241.322 78.9439C241.58 79.201 241.724 79.5495 241.725 79.913V98.2798C241.724 98.6433 241.58 98.9918 241.322 99.2489C241.065 99.5059 240.716 99.6505 240.352 99.651ZM166.233 79.0903C166.014 79.0906 165.805 79.1773 165.651 79.3316C165.496 79.4858 165.409 79.6949 165.409 79.913V98.2798C165.409 98.4979 165.496 98.707 165.651 98.8613C165.805 99.0155 166.014 99.1023 166.233 99.1025H240.352C240.571 99.1023 240.78 99.0155 240.934 98.8613C241.089 98.707 241.176 98.4979 241.176 98.2798V79.913C241.176 79.6949 241.089 79.4858 240.934 79.3316C240.78 79.1773 240.571 79.0906 240.352 79.0903H166.233Z" fill="#E6E6E6"/>
<path d="M175.841 94.8553C179.025 94.8553 181.606 92.277 181.606 89.0965C181.606 85.916 179.025 83.3376 175.841 83.3376C172.657 83.3376 170.076 85.916 170.076 89.0965C170.076 92.277 172.657 94.8553 175.841 94.8553Z" fill="#C92225"/>
<path d="M189.155 85.2571C188.9 85.2571 188.656 85.3582 188.475 85.5382C188.295 85.7182 188.194 85.9623 188.194 86.2169C188.194 86.4714 188.295 86.7156 188.475 86.8956C188.656 87.0756 188.9 87.1767 189.155 87.1767H213.587C213.842 87.1767 214.086 87.0756 214.266 86.8956C214.446 86.7156 214.548 86.4714 214.548 86.2169C214.548 85.9623 214.446 85.7182 214.266 85.5382C214.086 85.3582 213.842 85.2571 213.587 85.2571H189.155Z" fill="#E6E6E6"/>
<path d="M189.155 91.016C188.9 91.016 188.656 91.1171 188.475 91.2971C188.295 91.4771 188.194 91.7212 188.194 91.9758C188.194 92.2303 188.295 92.4745 188.475 92.6545C188.656 92.8345 188.9 92.9356 189.155 92.9356H234.45C234.705 92.9356 234.949 92.8345 235.129 92.6545C235.31 92.4745 235.411 92.2303 235.411 91.9758C235.411 91.7212 235.31 91.4771 235.129 91.2971C234.949 91.1171 234.705 91.016 234.45 91.016H189.155Z" fill="#E6E6E6"/>
</g>
<defs>
<linearGradient id="paint0_linear_4_4239" x1="52.8963" y1="51.782" x2="52.8963" y2="29.3466" gradientUnits="userSpaceOnUse">
<stop stop-color="#808080" stop-opacity="0.25"/>
<stop offset="0.54" stop-color="#808080" stop-opacity="0.12"/>
<stop offset="1" stop-color="#808080" stop-opacity="0.1"/>
</linearGradient>
<clipPath id="clip0_4_4239">
<rect width="270" height="158" fill="white"/>
</clipPath>
</defs>
</svg>
