<svg width="270" height="176" viewBox="0 0 270 176" fill="none" xmlns="http://www.w3.org/2000/svg">
<g clip-path="url(#clip0_4_4527)">
<path d="M27.1874 130.325C27.5158 144.945 29.1327 159.945 32.5664 174.825C32.6413 175.159 32.7198 175.488 32.7983 175.823H52.8721C52.8507 175.523 52.8292 175.189 52.8078 174.825C51.4693 153.313 43.7525 22.3895 52.9792 0C52.1725 1.81631 25.6312 61.9741 27.1874 130.325Z" fill="#E6E6E6"/>
<path d="M28.6936 174.825C28.8614 175.159 29.0363 175.493 29.2147 175.823H44.2736C44.1594 175.538 44.0273 175.204 43.8738 174.825C41.386 168.548 34.0226 149.781 27.1874 130.325C19.8418 109.418 13.1029 87.7168 13.6705 79.8628C13.4956 81.6342 8.41288 135.634 28.6936 174.825Z" fill="#E6E6E6"/>
<path d="M210.72 49.3296L209.456 59.1239L208.692 65.0686L208.122 69.4819L191.373 86.6317L186.465 89.8114C186.013 90.1044 185.504 90.2976 184.972 90.3782C184.44 90.4588 183.897 90.4249 183.379 90.2788C182.861 90.1327 182.38 89.8777 181.967 89.5307C181.554 89.1836 181.219 88.7523 180.983 88.2653C180.748 87.7782 180.617 87.2464 180.601 86.705C180.584 86.1635 180.682 85.6247 180.887 85.124C181.093 84.6234 181.401 84.1722 181.792 83.8003C182.183 83.4284 182.648 83.1441 183.156 82.9663L188.539 81.084L199.881 66.249L200.398 63.3493L207.164 40.4108C207.854 39.2481 208.319 43.4877 209.276 42.5377C209.561 42.8567 211.487 39.0071 211.74 39.3474C214.106 42.5129 211.237 45.3098 210.72 49.3296Z" fill="#A0616A"/>
<path d="M213.637 168.636H208.416V117.494L220.282 117.255L213.637 168.636Z" fill="#A0616A"/>
<path d="M238.793 168.636H244.014V117.494L232.148 117.255L238.793 168.636Z" fill="#A0616A"/>
<path d="M220.045 30.505C224.895 30.505 228.826 26.5461 228.826 21.6627C228.826 16.7792 224.895 12.8204 220.045 12.8204C215.195 12.8204 211.264 16.7792 211.264 21.6627C211.264 26.5461 215.195 30.505 220.045 30.505Z" fill="#A0616A"/>
<path d="M234.996 34.3287L233.572 42.9319L216.96 43.8879V33.5242C220.387 32.0405 219.616 29.8729 216.96 27.3982L227.639 24.2915C228.039 27.8526 228.668 31.1648 231.611 31.9685C232.904 32.3002 234.046 33.063 234.852 34.1323L234.996 34.3287Z" fill="#A0616A"/>
<path d="M246.15 118.689L228.945 119.286L226.809 105.903L223.842 118.689L206.28 119.167L207.704 95.7467L240.692 87.8604C244.595 97.6498 246.453 108.144 246.15 118.689Z" fill="#2F2E41"/>
<path d="M211.187 175.749L200.078 175.646C199.546 175.779 198.992 175.788 198.456 175.672C197.92 175.557 197.417 175.32 196.986 174.98C196.554 174.639 196.205 174.205 195.966 173.709C195.726 173.213 195.601 172.668 195.601 172.117C195.601 171.432 195.793 170.761 196.155 170.181C196.517 169.602 197.034 169.137 197.647 168.84L200.181 167.612L208.416 161.944L214.349 163.617L215.486 168.766C215.816 170.265 215.552 171.834 214.749 173.139C213.945 174.444 212.667 175.381 211.187 175.749Z" fill="#2F2E41"/>
<path d="M241.09 175.686L229.981 175.583C229.449 175.715 228.894 175.724 228.358 175.609C227.822 175.493 227.32 175.256 226.888 174.916C226.457 174.576 226.108 174.141 225.868 173.645C225.628 173.149 225.503 172.605 225.503 172.053C225.503 171.368 225.695 170.697 226.057 170.118C226.419 169.538 226.936 169.073 227.549 168.776L230.083 167.549L238.319 161.881L244.252 163.554L245.388 168.703C245.719 170.201 245.454 171.771 244.651 173.076C243.848 174.38 242.57 175.317 241.09 175.686Z" fill="#2F2E41"/>
<path d="M216.248 18.3915C213.058 20.6224 208.883 17.5332 210.027 13.7959C210.974 10.704 213.362 7.68408 219.096 7.80192C230.724 8.0409 232.227 19.7635 228.39 24.4173C228.39 24.4173 227.877 17.1221 226.69 18.317C225.503 19.5119 223.605 18.795 223.605 18.795C223.605 18.795 224.554 14.2544 220.045 16.1662C218.704 16.7697 217.431 17.5157 216.248 18.3915Z" fill="#2F2E41"/>
<path d="M241.641 89.772C232.131 97.536 220.885 100.341 207.467 96.9414C210.876 79.6456 210.22 61.2583 207.467 42.308C207.467 41.0618 207.815 39.8406 208.47 38.7837C209.126 37.7268 210.064 36.8767 211.176 36.3304L217.197 33.3727C222.541 41.0167 227.46 39.0669 232.148 31.9388L238.792 34.3864C239.696 34.7194 240.476 35.3252 241.026 36.121C241.576 36.9167 241.868 37.8639 241.864 38.8333C240.958 58.0612 240.401 76.3467 241.641 89.772Z" fill="#C92225"/>
<path d="M212.687 68.0249L209.727 67.4117L208.692 67.1955L200.398 65.4762L196.551 64.6786L203.06 45.5508C203.868 43.1803 205.21 41.0304 206.981 39.2694C208.359 37.9011 209.97 36.794 211.737 36.0011V36.0543L212.687 68.0249Z" fill="#C92225"/>
<path d="M243.777 87.3824L241.006 95.3131C240.801 95.8986 240.733 96.5237 240.807 97.14C240.881 97.7562 241.094 98.3472 241.431 98.8671C241.767 99.3871 242.218 99.8221 242.749 100.138C243.279 100.455 243.875 100.644 244.489 100.692C245.018 100.733 245.549 100.668 246.053 100.501C246.556 100.335 247.022 100.069 247.423 99.7205C247.825 99.3717 248.153 98.9465 248.391 98.4693C248.628 97.992 248.77 97.4722 248.807 96.9397L249.473 87.3824L248.761 61.0946L241.404 61.8115L243.777 87.3824Z" fill="#A0616A"/>
<path d="M253.27 60.6166L237.607 65.1572L237.369 33.8508C239.862 33.9903 242.25 34.9107 244.198 36.4834C246.145 38.056 247.557 40.2024 248.234 42.6223L253.27 60.6166Z" fill="#C92225"/>
<path d="M55.0603 48.6797C54.6403 48.6801 54.2376 48.8484 53.9407 49.1474C53.6437 49.4465 53.4767 49.8519 53.4762 50.2749V83.5961C53.4767 84.019 53.6437 84.4245 53.9407 84.7235C54.2376 85.0226 54.6403 85.1908 55.0603 85.1913H183.548C183.968 85.1908 184.371 85.0226 184.668 84.7235C184.965 84.4245 185.132 84.019 185.132 83.5961V50.2749C185.132 49.8519 184.965 49.4465 184.668 49.1474C184.371 48.8484 183.968 48.6802 183.548 48.6797H55.0603Z" fill="#C92225"/>
<path d="M183.548 175.938H55.0603C54.3603 175.938 53.6892 175.657 53.1942 175.159C52.6993 174.66 52.4209 173.985 52.4201 173.28V50.6292C52.4209 49.9243 52.6993 49.2485 53.1942 48.7501C53.6892 48.2517 54.3603 47.9714 55.0603 47.9706H183.548C184.248 47.9714 184.919 48.2517 185.414 48.7501C185.909 49.2485 186.187 49.9243 186.188 50.6292V173.28C186.187 173.985 185.909 174.66 185.414 175.159C184.919 175.657 184.248 175.938 183.548 175.938ZM55.0603 49.034C54.6403 49.0345 54.2376 49.2027 53.9406 49.5017C53.6437 49.8008 53.4766 50.2063 53.4762 50.6292V173.28C53.4766 173.703 53.6437 174.108 53.9406 174.407C54.2376 174.706 54.6403 174.874 55.0603 174.875H183.548C183.968 174.874 184.371 174.706 184.668 174.407C184.964 174.108 185.132 173.703 185.132 173.28V50.6292C185.132 50.2063 184.964 49.8008 184.668 49.5017C184.371 49.2027 183.968 49.0345 183.548 49.034H55.0603Z" fill="#3F3D56"/>
<path d="M96.3733 98.9083C95.8241 98.9174 95.3005 99.1434 94.9153 99.5377C94.5302 99.932 94.3143 100.463 94.3143 101.016C94.3143 101.569 94.5302 102.1 94.9153 102.494C95.3005 102.889 95.8241 103.115 96.3733 103.124H168.216C168.77 103.132 169.306 102.919 169.704 102.53C170.103 102.141 170.332 101.609 170.341 101.051C170.35 100.492 170.139 99.9526 169.753 99.5509C169.367 99.1492 168.839 98.918 168.284 98.9083C168.262 98.9079 168.239 98.9079 168.216 98.9083H96.3733Z" fill="#E6E6E6"/>
<path d="M96.3733 109.897C95.8241 109.906 95.3005 110.133 94.9153 110.527C94.5302 110.921 94.3143 111.452 94.3143 112.005C94.3143 112.558 94.5302 113.089 94.9153 113.483C95.3005 113.878 95.8241 114.104 96.3733 114.113H168.216C168.77 114.121 169.306 113.908 169.704 113.519C170.103 113.13 170.332 112.598 170.341 112.04C170.35 111.481 170.139 110.942 169.753 110.54C169.367 110.138 168.839 109.907 168.284 109.897C168.262 109.897 168.239 109.897 168.216 109.897H96.3733Z" fill="#E6E6E6"/>
<path d="M96.3733 120.886C95.8241 120.895 95.3005 121.121 94.9153 121.516C94.5302 121.91 94.3143 122.441 94.3143 122.994C94.3143 123.547 94.5302 124.078 94.9153 124.472C95.3005 124.866 95.8241 125.092 96.3733 125.102H168.216C168.77 125.11 169.306 124.897 169.704 124.508C170.103 124.119 170.332 123.587 170.341 123.028C170.35 122.47 170.139 121.93 169.753 121.529C169.367 121.127 168.839 120.896 168.284 120.886C168.262 120.886 168.239 120.886 168.216 120.886H96.3733Z" fill="#E6E6E6"/>
<path d="M96.3733 131.875C95.8241 131.884 95.3005 132.11 94.9153 132.505C94.5302 132.899 94.3143 133.43 94.3143 133.983C94.3143 134.536 94.5302 135.067 94.9153 135.461C95.3005 135.855 95.8241 136.081 96.3733 136.091H168.216C168.77 136.099 169.306 135.886 169.704 135.497C170.103 135.108 170.332 134.576 170.341 134.017C170.35 133.459 170.139 132.919 169.753 132.518C169.367 132.116 168.839 131.885 168.284 131.875C168.262 131.875 168.239 131.875 168.216 131.875H96.3733Z" fill="#E6E6E6"/>
<path d="M96.3733 142.864C95.8241 142.873 95.3005 143.099 94.9153 143.494C94.5302 143.888 94.3143 144.419 94.3143 144.972C94.3143 145.525 94.5302 146.056 94.9153 146.45C95.3005 146.844 95.8241 147.07 96.3733 147.08H168.216C168.77 147.088 169.306 146.875 169.704 146.486C170.103 146.097 170.332 145.565 170.341 145.006C170.35 144.448 170.139 143.908 169.753 143.507C169.367 143.105 168.839 142.874 168.284 142.864C168.262 142.864 168.239 142.864 168.216 142.864H96.3733Z" fill="#E6E6E6"/>
<path d="M96.3733 153.853C95.8241 153.862 95.3005 154.088 94.9153 154.482C94.5302 154.877 94.3143 155.408 94.3143 155.961C94.3143 156.514 94.5302 157.045 94.9153 157.439C95.3005 157.833 95.8241 158.059 96.3733 158.068H168.216C168.77 158.077 169.306 157.863 169.704 157.475C170.103 157.086 170.332 156.554 170.341 155.995C170.35 155.437 170.139 154.897 169.753 154.495C169.367 154.094 168.839 153.863 168.284 153.853C168.262 153.852 168.239 153.852 168.216 153.853H96.3733Z" fill="#E6E6E6"/>
<path d="M80.2003 66.9338C80.2003 68.6164 79.7048 70.2613 78.7765 71.6603C77.8481 73.0594 76.5286 74.1498 74.9849 74.7937C73.4411 75.4377 71.7424 75.6061 70.1036 75.2779C68.4647 74.9496 66.9593 74.1393 65.7778 72.9495C64.5962 71.7597 63.7916 70.2438 63.4656 68.5935C63.1396 66.9432 63.3069 65.2326 63.9464 63.6781C64.5858 62.1235 65.6687 60.7948 67.058 59.86C68.4474 58.9252 70.0808 58.4262 71.7518 58.4262C72.8626 58.4214 73.9633 58.6382 74.9905 59.0641C76.0177 59.4899 76.9509 60.1164 77.7364 60.9074C78.5218 61.6983 79.144 62.6381 79.5669 63.6724C79.9897 64.7068 80.205 65.8152 80.2003 66.9338Z" fill="white"/>
<path d="M86.9031 60.2194C86.354 60.2286 85.8306 60.4548 85.4455 60.849C85.0605 61.2433 84.8447 61.7742 84.8447 62.3271C84.8447 62.8801 85.0605 63.411 85.4455 63.8053C85.8306 64.1995 86.354 64.4257 86.9031 64.4349H139.384C139.938 64.4423 140.473 64.2283 140.87 63.8397C141.268 63.451 141.496 62.9195 141.505 62.3617C141.514 61.8038 141.304 61.265 140.919 60.8635C140.534 60.4619 140.007 60.2303 139.453 60.2194C139.43 60.219 139.407 60.219 139.384 60.2194H86.9031Z" fill="white"/>
<path d="M86.9031 69.4358C86.354 69.4451 85.8306 69.6712 85.4455 70.0655C85.0605 70.4597 84.8447 70.9906 84.8447 71.5436C84.8447 72.0966 85.0605 72.6274 85.4455 73.0217C85.8306 73.416 86.354 73.6421 86.9031 73.6513H173.178C173.732 73.6588 174.267 73.4447 174.664 73.0561C175.062 72.6675 175.29 72.136 175.299 71.5781C175.308 71.0202 175.098 70.4814 174.713 70.0799C174.328 69.6783 173.801 69.4467 173.247 69.4358C173.224 69.4354 173.201 69.4354 173.178 69.4358H86.9031Z" fill="white"/>
<path d="M82.9009 104.927C82.1351 104.927 81.3864 104.698 80.7496 104.269C80.1128 103.841 79.6165 103.232 79.3234 102.519C79.0304 101.807 78.9537 101.023 79.1031 100.267C79.2525 99.5101 79.6213 98.8153 80.1628 98.27C80.7044 97.7247 81.3943 97.3533 82.1455 97.2029C82.8966 97.0524 83.6752 97.1296 84.3828 97.4247C85.0903 97.7199 85.6951 98.2196 86.1206 98.8609C86.5461 99.5021 86.7732 100.256 86.7732 101.027C86.772 102.061 86.3637 103.052 85.6377 103.783C84.9118 104.514 83.9275 104.925 82.9009 104.927ZM82.9009 97.8369C82.2743 97.8369 81.6618 98.024 81.1408 98.3746C80.6198 98.7251 80.2137 99.2234 79.9739 99.8063C79.7341 100.389 79.6714 101.031 79.7936 101.65C79.9159 102.268 80.2176 102.837 80.6607 103.283C81.1038 103.729 81.6683 104.033 82.2828 104.156C82.8974 104.279 83.5344 104.216 84.1133 103.975C84.6922 103.733 85.187 103.324 85.5352 102.8C85.8833 102.275 86.0691 101.658 86.0691 101.027C86.0682 100.181 85.7341 99.3705 85.1401 98.7724C84.5462 98.1743 83.7409 97.8378 82.9009 97.8369Z" fill="#E6E6E6"/>
<path d="M82.9009 115.915C82.1351 115.915 81.3864 115.687 80.7496 115.258C80.1128 114.83 79.6165 114.221 79.3234 113.508C79.0304 112.796 78.9537 112.012 79.1031 111.255C79.2525 110.499 79.6213 109.804 80.1628 109.259C80.7044 108.714 81.3943 108.342 82.1455 108.192C82.8966 108.041 83.6752 108.119 84.3828 108.414C85.0903 108.709 85.6951 109.209 86.1206 109.85C86.5461 110.491 86.7732 111.245 86.7732 112.016C86.772 113.05 86.3637 114.041 85.6377 114.772C84.9118 115.503 83.9275 115.914 82.9009 115.915ZM82.9009 108.826C82.2743 108.826 81.6618 109.013 81.1408 109.363C80.6198 109.714 80.2137 110.212 79.9739 110.795C79.7341 111.378 79.6714 112.02 79.7936 112.639C79.9159 113.257 80.2176 113.826 80.6607 114.272C81.1038 114.718 81.6683 115.022 82.2828 115.145C82.8974 115.268 83.5344 115.205 84.1133 114.964C84.6922 114.722 85.187 114.313 85.5352 113.789C85.8833 113.264 86.0691 112.647 86.0691 112.016C86.0682 111.17 85.7341 110.359 85.1401 109.761C84.5462 109.163 83.7409 108.827 82.9009 108.826Z" fill="#E6E6E6"/>
<path d="M82.9009 126.893C82.1351 126.893 81.3864 126.665 80.7496 126.236C80.1128 125.808 79.6165 125.199 79.3234 124.486C79.0304 123.774 78.9537 122.99 79.1031 122.233C79.2525 121.477 79.6213 120.782 80.1628 120.237C80.7044 119.691 81.3943 119.32 82.1455 119.17C82.8966 119.019 83.6752 119.096 84.3828 119.392C85.0903 119.687 85.6951 120.186 86.1206 120.828C86.5461 121.469 86.7732 122.223 86.7732 122.994C86.772 124.028 86.3637 125.019 85.6377 125.75C84.9118 126.481 83.9275 126.892 82.9009 126.893ZM82.9009 119.804C82.2743 119.804 81.6618 119.991 81.1408 120.341C80.6198 120.692 80.2137 121.19 79.9739 121.773C79.7341 122.356 79.6714 122.998 79.7936 123.616C79.9159 124.235 80.2176 124.804 80.6607 125.25C81.1038 125.696 81.6683 126 82.2828 126.123C82.8974 126.246 83.5344 126.183 84.1133 125.941C84.6922 125.7 85.187 125.291 85.5352 124.766C85.8833 124.242 86.0691 123.625 86.0691 122.994C86.0682 122.148 85.7341 121.337 85.1401 120.739C84.5462 120.141 83.7409 119.805 82.9009 119.804Z" fill="#E6E6E6"/>
<path d="M82.9009 137.882C82.1351 137.882 81.3864 137.654 80.7496 137.225C80.1128 136.797 79.6165 136.188 79.3234 135.475C79.0304 134.763 78.9537 133.979 79.1031 133.222C79.2525 132.466 79.6213 131.771 80.1628 131.226C80.7044 130.68 81.3943 130.309 82.1455 130.159C82.8966 130.008 83.6752 130.085 84.3828 130.38C85.0903 130.676 85.6951 131.175 86.1206 131.817C86.5461 132.458 86.7732 133.212 86.7732 133.983C86.772 135.017 86.3637 136.008 85.6377 136.739C84.9118 137.47 83.9275 137.881 82.9009 137.882ZM82.9009 130.793C82.2743 130.793 81.6618 130.98 81.1408 131.33C80.6198 131.681 80.2137 132.179 79.9739 132.762C79.7341 133.345 79.6714 133.986 79.7936 134.605C79.9159 135.224 80.2176 135.793 80.6607 136.239C81.1038 136.685 81.6683 136.989 82.2828 137.112C82.8974 137.235 83.5344 137.172 84.1133 136.93C84.6922 136.689 85.187 136.28 85.5352 135.755C85.8833 135.231 86.0691 134.614 86.0691 133.983C86.0682 133.137 85.7341 132.326 85.1401 131.728C84.5462 131.13 83.7409 130.794 82.9009 130.793Z" fill="#E6E6E6"/>
<path d="M82.9009 148.871C82.1351 148.871 81.3864 148.642 80.7496 148.214C80.1128 147.786 79.6165 147.177 79.3234 146.464C79.0304 145.752 78.9537 144.967 79.1031 144.211C79.2525 143.455 79.6213 142.76 80.1628 142.215C80.7044 141.669 81.3943 141.298 82.1455 141.147C82.8966 140.997 83.6752 141.074 84.3828 141.369C85.0903 141.664 85.6951 142.164 86.1206 142.805C86.5461 143.447 86.7732 144.201 86.7732 144.972C86.772 146.006 86.3637 146.997 85.6377 147.728C84.9118 148.459 83.9275 148.87 82.9009 148.871ZM82.9009 141.781C82.2743 141.781 81.6618 141.969 81.1408 142.319C80.6198 142.67 80.2137 143.168 79.9739 143.751C79.7341 144.334 79.6714 144.975 79.7936 145.594C79.9159 146.213 80.2176 146.782 80.6607 147.228C81.1038 147.674 81.6683 147.978 82.2828 148.101C82.8974 148.224 83.5344 148.161 84.1133 147.919C84.6922 147.678 85.187 147.269 85.5352 146.744C85.8833 146.22 86.0691 145.603 86.0691 144.972C86.0682 144.126 85.7341 143.315 85.1401 142.717C84.5462 142.119 83.7409 141.782 82.9009 141.781Z" fill="#E6E6E6"/>
<path d="M82.9009 159.86C82.1351 159.86 81.3864 159.631 80.7496 159.203C80.1128 158.774 79.6165 158.166 79.3234 157.453C79.0304 156.741 78.9537 155.956 79.1031 155.2C79.2525 154.444 79.6213 153.749 80.1628 153.204C80.7044 152.658 81.3943 152.287 82.1455 152.136C82.8966 151.986 83.6752 152.063 84.3828 152.358C85.0903 152.653 85.6951 153.153 86.1206 153.794C86.5461 154.436 86.7732 155.19 86.7732 155.961C86.772 156.995 86.3637 157.986 85.6377 158.717C84.9118 159.448 83.9275 159.859 82.9009 159.86ZM82.9009 152.77C82.2743 152.77 81.6618 152.958 81.1408 153.308C80.6198 153.659 80.2137 154.157 79.9739 154.74C79.7341 155.323 79.6714 155.964 79.7936 156.583C79.9159 157.202 80.2176 157.771 80.6607 158.217C81.1038 158.663 81.6683 158.967 82.2828 159.09C82.8974 159.213 83.5344 159.15 84.1133 158.908C84.6922 158.667 85.187 158.258 85.5352 157.733C85.8833 157.209 86.0691 156.592 86.0691 155.961C86.0682 155.115 85.7341 154.304 85.1401 153.706C84.5462 153.108 83.7409 152.771 82.9009 152.77Z" fill="#E6E6E6"/>
<path d="M82.9009 102.8C83.873 102.8 84.661 102.006 84.661 101.027C84.661 100.049 83.873 99.255 82.9009 99.255C81.9288 99.255 81.1408 100.049 81.1408 101.027C81.1408 102.006 81.9288 102.8 82.9009 102.8Z" fill="#C92225"/>
<path d="M82.9009 124.777C83.873 124.777 84.661 123.984 84.661 123.005C84.661 122.026 83.873 121.233 82.9009 121.233C81.9288 121.233 81.1408 122.026 81.1408 123.005C81.1408 123.984 81.9288 124.777 82.9009 124.777Z" fill="#C92225"/>
<path d="M82.9009 135.767C83.873 135.767 84.661 134.973 84.661 133.994C84.661 133.015 83.873 132.222 82.9009 132.222C81.9288 132.222 81.1408 133.015 81.1408 133.994C81.1408 134.973 81.9288 135.767 82.9009 135.767Z" fill="#C92225"/>
<path d="M270 175.291H0V176H270V175.291Z" fill="#2F2E41"/>
</g>
<defs>
<clipPath id="clip0_4_4527">
<rect width="270" height="176" fill="white"/>
</clipPath>
</defs>
</svg>
