<svg width="222" height="182" viewBox="0 0 222 182" fill="none" xmlns="http://www.w3.org/2000/svg">
<g clip-path="url(#clip0_4_4345)">
<path d="M196.073 147.507C191.601 156.206 185.928 164.618 178.751 172.232C178.591 172.404 178.43 172.571 178.268 172.742L161.263 164.718C161.367 164.546 161.481 164.353 161.603 164.141C168.908 151.685 213.004 75.702 211.61 58.4927C211.773 59.912 216.999 106.851 196.073 147.507Z" fill="#E6E6E6"/>
<path d="M182.032 173.78C181.793 173.915 181.549 174.047 181.304 174.174L168.547 168.155C168.725 168.029 168.933 167.88 169.172 167.712C173.08 164.916 184.702 156.525 196.073 147.507C208.294 137.817 220.228 127.405 222 122.435C221.64 123.574 210.455 158.218 182.032 173.78Z" fill="#E6E6E6"/>
<path d="M65.7069 182C101.996 182 131.414 179.097 131.414 175.516C131.414 171.936 101.996 169.033 65.7069 169.033C29.418 169.033 0 171.936 0 175.516C0 179.097 29.418 182 65.7069 182Z" fill="#E6E6E6"/>
<path d="M29.7286 178.564C40.6017 178.564 49.416 169.779 49.416 158.943C49.416 148.106 40.6017 139.322 29.7286 139.322C18.8555 139.322 10.0411 148.106 10.0411 158.943C10.0411 169.779 18.8555 178.564 29.7286 178.564Z" fill="#C92225"/>
<path d="M37.6147 150.709H21.8424C21.1455 150.709 20.4773 150.986 19.9845 151.477C19.4917 151.968 19.2145 152.634 19.2137 153.328V164.556C19.2145 165.251 19.4917 165.917 19.9845 166.408C20.4773 166.899 21.1455 167.175 21.8424 167.176H37.6147C38.3117 167.175 38.9798 166.899 39.4726 166.408C39.9654 165.917 40.2426 165.251 40.2434 164.556V153.328C40.2426 152.634 39.9654 151.968 39.4726 151.477C38.9798 150.986 38.3116 150.709 37.6147 150.709ZM37.6147 152.206C37.7089 152.206 37.8026 152.218 37.8937 152.242L29.7304 158.732L21.6148 152.229C21.6897 152.213 21.766 152.206 21.8424 152.206H37.6147ZM37.6147 165.679H21.8424C21.5437 165.679 21.2574 165.56 21.0462 165.35C20.835 165.139 20.7162 164.854 20.7158 164.556V153.429L29.258 160.274C29.391 160.381 29.5565 160.439 29.7271 160.439C29.8978 160.44 30.0635 160.382 30.1969 160.276L38.7413 153.483V164.556C38.741 164.854 38.6222 165.139 38.411 165.35C38.1998 165.56 37.9134 165.679 37.6147 165.679Z" fill="white"/>
<path d="M83.7718 109.21L67.6852 110.241L63.3705 95.0199L77.5095 91.7177L83.7718 109.21Z" fill="#2F2E41"/>
<path d="M105.707 129.143L110.112 129.179C110.558 129.183 110.999 129.09 111.405 128.906C111.811 128.722 112.171 128.452 112.462 128.115C112.752 127.779 112.966 127.382 113.087 126.955C113.208 126.527 113.234 126.079 113.163 125.64C113.087 125.168 112.901 124.72 112.619 124.333C112.338 123.946 111.969 123.63 111.543 123.411C111.117 123.191 110.645 123.075 110.165 123.071C109.685 123.066 109.211 123.174 108.781 123.386L104.627 125.429L90.4184 128.587L84.3312 122.384L80.8347 128.124L89.0488 134.448L105.707 129.143Z" fill="#FFB8B8"/>
<path d="M104.881 174.502L99.6914 175.496C96.1463 164.359 92.3054 153.813 92.3057 145.655C87.2888 151.22 81.0674 154.404 73.7415 155.403L74.54 143.069L80.5284 139.886L89.6936 135.67C90.4961 135.301 91.3618 135.088 92.2444 135.041C93.9602 134.951 95.6488 135.497 96.9851 136.574C98.3214 137.65 99.2109 139.181 99.4824 140.872L104.881 174.502Z" fill="#FFB8B8"/>
<path d="M104.083 169.528C104.083 169.528 104.581 169.318 106.568 171.91C106.568 171.91 112.915 173.088 111.865 175.94C110.815 178.792 102.655 178.703 101.879 178.267C101.104 177.831 94.9315 177.84 95.3582 175.902C95.7848 173.964 98.2435 171.798 98.2435 171.798C98.2435 171.798 99.374 174.081 101.131 174.091C103.484 174.104 104.283 172.114 103.883 170.125C103.88 170.106 104.098 169.54 104.083 169.528Z" fill="#2F2E41"/>
<path d="M64.1467 162.745C64.1467 162.745 64.9242 164.863 61.4234 166.139C61.4234 166.139 57.9894 172.619 55.2327 170.516C52.476 168.412 55.3367 159.599 56.0747 158.906C56.8127 158.213 58.8927 151.521 60.8626 152.639C62.8326 153.758 64.3633 157.155 64.3633 157.155C64.3633 157.155 58.0203 159.185 61.0209 163.884C61.0209 163.884 62.3291 163.972 64.1467 162.745Z" fill="#2F2E41"/>
<path d="M71.4011 106.559C75.0111 106.559 77.9376 103.642 77.9376 100.045C77.9376 96.4467 75.0111 93.5302 71.4011 93.5302C67.7911 93.5302 64.8646 96.4467 64.8646 100.045C64.8646 103.642 67.7911 106.559 71.4011 106.559Z" fill="#FFB8B8"/>
<path d="M77.0351 117.306H65.6571L63.2617 110.343C67.4144 109.08 66.4444 105.492 65.6571 101.988H77.0351C74.8293 106.372 72.089 112.578 77.4344 113.725L77.0351 117.306Z" fill="#FFB8B8"/>
<path d="M80.0294 153.911L77.9608 155.478C77.0713 156.152 76.0206 156.582 74.9127 156.726C73.8049 156.87 72.6786 156.723 71.6455 156.299C65.7208 151.873 60.8886 153.199 57.0737 159.88C52.4978 154.733 51.9918 147.278 56.0756 139.588L78.7319 140.085L83.323 138.692L80.0294 153.911Z" fill="#2F2E41"/>
<path d="M72.484 176.961C71.1858 177.359 69.7884 177.289 68.5367 176.763C67.285 176.238 66.2587 175.29 65.6378 174.086C63.6017 172.299 61.8837 169.74 60.3937 166.628C59.3246 164.345 58.4066 161.995 57.6455 159.593C56.6145 156.419 58.3385 152.952 61.5473 152.003C61.6427 151.974 61.7393 151.948 61.837 151.923C66.1206 150.827 70.5195 153.289 71.9837 157.448L76.2414 169.542C76.4992 170.274 76.606 171.05 76.5555 171.825C76.5049 172.599 76.298 173.355 75.9471 174.048C75.5963 174.741 75.1087 175.356 74.5136 175.856C73.9186 176.357 73.2282 176.733 72.484 176.961Z" fill="#FFB8B8"/>
<path opacity="0.2" d="M59.6687 165.251C59.6687 165.251 64.659 170.821 65.6571 174.004L59.6687 165.251Z" fill="black"/>
<path d="M40.3141 138.962L38.6439 143.025C38.4749 143.436 38.3979 143.879 38.4183 144.323C38.4387 144.766 38.5559 145.2 38.7619 145.594C38.9679 145.988 39.2576 146.333 39.6109 146.604C39.9641 146.875 40.3725 147.065 40.8073 147.163C41.2754 147.268 41.7616 147.262 42.2269 147.145C42.6921 147.029 43.1234 146.805 43.4861 146.492C43.8488 146.179 44.1327 145.786 44.3149 145.343C44.4972 144.901 44.5727 144.422 44.5354 143.946L44.1756 139.343L46.5124 125.023L54.5519 121.694L50.5042 116.327L41.5606 121.578L40.3141 138.962Z" fill="#FFB8B8"/>
<path d="M80.229 139.588C74.4936 149.189 65.2697 147.504 55.4767 139.985C59.6068 136.908 57.0737 128.049 53.4806 127.452C49.7652 126.835 49.3184 119.262 47.8914 115.516L65.2579 109.15L69.9488 112.83L74.6398 111.736L76.5629 112.416C77.8145 112.859 78.9001 113.673 79.6736 114.748C80.4472 115.824 80.8716 117.111 80.8898 118.434C76.9488 124.108 74.0314 130.161 80.229 139.588Z" fill="#C92225"/>
<path d="M82.4247 131.829C82.4247 131.829 81.5408 127.287 78.6392 128.712C75.7376 130.138 75.538 126.159 75.538 126.159L77.8336 112.929L87.2155 122.876L82.4247 131.829Z" fill="#C92225"/>
<path d="M77.5063 91.6606C77.5063 91.6606 80.819 92.8986 80.8653 97.2937C80.8634 98.0332 80.7579 98.7689 80.5516 99.4792C80.329 100.285 80.1405 102.036 81.5689 104.384C82.5023 105.909 83.3445 107.487 84.0909 109.111L80.3456 109.438L79.7818 103.25C79.5084 100.25 78.7933 97.3064 77.6595 94.514L77.6358 94.4557C77.6358 94.4557 75.8926 97.4143 72.6306 97.2939L73.8388 96.1759C73.8388 96.1759 69.7384 97.6736 67.5135 97.962C67.2596 97.9949 67.0195 98.0963 66.8191 98.2552C66.6187 98.414 66.4656 98.6244 66.3762 98.8636C66.2869 99.1027 66.2648 99.3617 66.3122 99.6125C66.3596 99.8633 66.4747 100.096 66.6452 100.287C66.6581 100.301 66.6713 100.316 66.6848 100.33C68.031 101.775 70.7063 105.129 68.9803 107.623C67.2544 110.117 68.6266 110.866 68.6266 110.866L66.1153 109.378L64.9762 108.638L64.9417 109.567L58.9095 108.647C58.9095 108.647 57.2872 108.354 60.9288 104.536C60.9288 104.536 61.9087 103.037 61.5541 101.7C61.2596 100.683 61.2121 99.6103 61.4156 98.5713C62.3603 94.2469 65.7538 85.7055 77.5063 91.6606Z" fill="#2F2E41"/>
<path d="M196.697 42.4169H195.712V15.5496C195.712 11.4256 194.068 7.4705 191.142 4.55438C188.216 1.63826 184.248 0 180.11 0H122.995C118.857 0 114.888 1.63826 111.962 4.55438C109.036 7.4705 107.393 11.4256 107.393 15.5496V162.946C107.393 167.07 109.036 171.025 111.962 173.941C114.888 176.857 118.857 178.495 122.995 178.495H180.11C184.248 178.495 188.216 176.857 191.142 173.941C194.068 171.025 195.712 167.07 195.712 162.946V61.5414H196.696L196.697 42.4169Z" fill="#3F3D56"/>
<path d="M180.739 4.04518H173.284C173.627 4.88297 173.758 5.79198 173.665 6.69213C173.573 7.59227 173.26 8.4559 172.753 9.20693C172.247 9.95796 171.563 10.5733 170.762 10.9988C169.96 11.4243 169.066 11.6469 168.158 11.6468H135.438C134.53 11.6468 133.636 11.4242 132.835 10.9987C132.034 10.5733 131.35 9.95796 130.844 9.20704C130.337 8.45611 130.024 7.5926 129.932 6.69258C129.839 5.79256 129.97 4.88365 130.313 4.04592H123.348C120.258 4.04592 117.294 5.26939 115.109 7.44719C112.924 9.62499 111.696 12.5787 111.696 15.6586V162.838C111.696 165.918 112.924 168.871 115.109 171.049C117.294 173.227 120.258 174.45 123.348 174.45H180.737C183.827 174.45 186.791 173.227 188.976 171.049C191.162 168.871 192.389 165.918 192.389 162.838V162.838V15.6578C192.389 12.578 191.162 9.62424 188.976 7.44644C186.791 5.26864 183.827 4.04517 180.737 4.04517H180.739V4.04518Z" fill="white"/>
<path d="M152.142 166.225C155.676 166.225 158.541 163.37 158.541 159.849C158.541 156.327 155.676 153.472 152.142 153.472C148.609 153.472 145.744 156.327 145.744 159.849C145.744 163.37 148.609 166.225 152.142 166.225Z" fill="#E6E6E6"/>
<path d="M126.185 100.876C125.581 100.876 125.088 101.436 125.088 102.124C125.088 102.812 125.581 103.372 126.185 103.372H177.9C178.505 103.372 178.997 102.812 178.997 102.124C178.997 101.436 178.505 100.876 177.9 100.876H126.185Z" fill="#E6E6E6"/>
<path d="M126.185 130.307C125.581 130.307 125.088 130.867 125.088 131.555C125.088 132.243 125.581 132.803 126.185 132.803H177.9C178.505 132.803 178.997 132.243 178.997 131.555C178.997 130.867 178.505 130.307 177.9 130.307H126.185Z" fill="#E6E6E6"/>
<path d="M126.185 108.363C125.581 108.363 125.088 108.923 125.088 109.611C125.088 110.299 125.581 110.859 126.185 110.859H148.438C149.043 110.859 149.535 110.299 149.535 109.611C149.535 108.923 149.043 108.363 148.438 108.363H126.185Z" fill="#E6E6E6"/>
<path d="M126.185 115.5C125.581 115.5 125.088 116.06 125.088 116.748C125.088 117.436 125.581 117.996 126.185 117.996H177.9C178.505 117.996 178.997 117.436 178.997 116.748C178.997 116.06 178.505 115.5 177.9 115.5H126.185Z" fill="#E6E6E6"/>
<path d="M126.185 122.987C125.581 122.987 125.088 123.547 125.088 124.235C125.088 124.923 125.581 125.483 126.185 125.483H148.438C149.043 125.483 149.535 124.923 149.535 124.235C149.535 123.547 149.043 122.987 148.438 122.987H126.185Z" fill="#E6E6E6"/>
<path d="M135.948 44.0558H168.14C168.496 44.0562 168.837 44.1972 169.088 44.4478C169.34 44.6984 169.481 45.0382 169.482 45.3926V78.8064C169.481 79.1608 169.34 79.5006 169.088 79.7512C168.837 80.0018 168.496 80.1428 168.14 80.1432H135.948C135.593 80.1428 135.252 80.0018 135 79.7512C134.749 79.5006 134.607 79.1608 134.607 78.8064V45.3926C134.607 45.0382 134.749 44.6984 135 44.4478C135.252 44.1972 135.593 44.0562 135.948 44.0558Z" fill="#C92225"/>
<path d="M161.281 73.2528C161.401 73.253 161.519 73.2296 161.63 73.1841C161.741 73.1386 161.841 73.0718 161.926 72.9875C162.011 72.9032 162.078 72.8031 162.124 72.6929C162.169 72.5827 162.193 72.4645 162.193 72.3452C162.193 72.2259 162.169 72.1078 162.124 71.9975C162.078 71.8873 162.011 71.7872 161.926 71.7029C161.841 71.6186 161.741 71.5518 161.63 71.5063C161.519 71.4608 161.401 71.4374 161.281 71.4376H142.808C142.688 71.4374 142.569 71.4608 142.459 71.5063C142.348 71.5518 142.248 71.6186 142.163 71.7029C142.078 71.7872 142.011 71.8873 141.965 71.9975C141.919 72.1078 141.896 72.2259 141.896 72.3452C141.896 72.4645 141.919 72.5827 141.965 72.6929C142.011 72.8031 142.078 72.9032 142.163 72.9875C142.248 73.0718 142.348 73.1386 142.459 73.1841C142.569 73.2296 142.688 73.253 142.808 73.2528H161.281Z" fill="white"/>
<path d="M161.281 67.9053C161.522 67.9053 161.754 67.8096 161.925 67.6394C162.096 67.4692 162.192 67.2384 162.192 66.9977C162.192 66.757 162.096 66.5261 161.925 66.3559C161.754 66.1857 161.522 66.0901 161.281 66.0901H142.808C142.688 66.0901 142.57 66.1136 142.459 66.1592C142.349 66.2048 142.248 66.2716 142.164 66.3559C142.079 66.4402 142.012 66.5402 141.966 66.6504C141.921 66.7605 141.897 66.8785 141.897 66.9977C141.897 67.1169 141.921 67.2349 141.966 67.345C142.012 67.4551 142.079 67.5552 142.164 67.6394C142.248 67.7237 142.349 67.7906 142.459 67.8362C142.57 67.8818 142.688 67.9053 142.808 67.9053H161.281Z" fill="white"/>
<path d="M152.044 50.9463C153.178 50.9463 154.286 51.2813 155.229 51.9091C156.171 52.5368 156.906 53.429 157.34 54.4729C157.774 55.5168 157.887 56.6654 157.666 57.7736C157.445 58.8818 156.899 59.8997 156.097 60.6986C155.296 61.4976 154.274 62.0417 153.163 62.2621C152.051 62.4825 150.898 62.3694 149.851 61.937C148.803 61.5046 147.908 60.7724 147.278 59.8329C146.648 58.8935 146.312 57.789 146.312 56.6591C146.314 55.1445 146.918 53.6924 147.993 52.6214C149.068 51.5504 150.524 50.948 152.044 50.9463Z" fill="white"/>
</g>
<defs>
<clipPath id="clip0_4_4345">
<rect width="222" height="182" fill="white"/>
</clipPath>
</defs>
</svg>
